<svg width="220" height="211" viewBox="0 0 220 211" fill="none" xmlns="http://www.w3.org/2000/svg">
<path d="M150.579 1.00015C150.329 1.13098 142.341 5.4114 128.798 13.0427C119.449 18.3108 113.236 24.742 106.921 31.3452C100.67 37.8807 95.5393 45.9617 90.7486 54.3103C86.2262 62.1914 84.0424 70.2947 82.3901 77.6501C79.3127 91.3496 81.5689 102.334 83.7757 109.927C84.3887 112.036 85.8566 114.363 87.0694 115.518C88.2821 116.674 89.4489 116.496 90.526 116.137C92.6301 115.435 94.3632 113.795 95.7948 111.771C97.3262 109.605 96.9106 106.436 96.2483 103.425C95.548 100.242 93.3041 97.3723 90.7056 94.7229C84.9231 88.8272 74.8611 89.1799 67.3444 89.7848C59.9666 90.3785 53.6701 96.5712 48.9473 104.565C42.7249 115.097 46.7561 129.365 48.6952 140.943C50.1783 147.831 52.6743 156.773 56.8788 167.36C61.0833 177.947 66.9206 189.909 72.9348 202.232" stroke="#FCA1B5" stroke-width="2" stroke-linecap="round"/>
<path d="M73.3179 202.535C73.2107 202.459 68.0977 198.973 61.2621 194.969C56.5908 192.232 67.9436 203.741 73.5034 207.153C75.3884 208.309 76.0137 207.04 76.3705 206.074C78.0084 201.641 78.8704 196.399 78.8697 193.759C78.8694 192.834 77.7625 192.921 76.935 193.06C75.3097 193.43 73.0845 194.231 69.7031 195.454C67.7249 196.112 65.2143 196.849 62.2679 197.674" stroke="#FCA1B5" stroke-width="2" stroke-linecap="round"/>
</svg>
