<svg width="398" height="25" viewBox="0 0 398 25" fill="none" xmlns="http://www.w3.org/2000/svg">
<path d="M8.95203 0.88113C17.1624 -1.20841 22.9806 1.02677 30.6537 1.39127C47.6188 2.19207 70.0481 1.52266 87.4769 1.6081C100.621 1.67254 114 1.84663 127.088 1.99216C127.754 1.99937 128.153 2.23009 128.456 2.23359C131.32 2.26623 136.163 2.06753 138.968 2.10361C144.991 2.1791 155.421 2.16507 160.824 2.39233C163.139 2.48859 165.545 2.53188 166.459 3.08127C167.317 3.11103 167.793 2.61747 168.014 2.59104C168.016 2.59153 168.019 2.59202 168.021 2.59252C168.724 2.51056 170.509 2.86127 170.905 2.84055C170.965 2.8373 170.601 2.47826 171.561 2.58859C171.646 2.59808 171.566 2.84148 172.376 2.84674C172.585 2.84804 175.305 2.48058 176.09 2.45951C178.739 2.39107 184.824 2.69811 187.947 2.7003C188.422 2.7014 188.697 2.55955 189.2 2.55818C189.46 2.55731 189.85 2.71287 189.93 2.71221C190.28 2.70752 191.82 2.00872 191.265 3.39351C192.878 3.30938 192.385 2.84999 192.429 2.55249C194.13 2.51348 194.955 3.16821 195.404 2.47742C203.883 2.58081 212.349 2.68478 220.825 2.78935C220.828 2.67657 220.83 2.56379 220.833 2.451C223.315 2.90769 224.176 2.14783 225.603 2.80569C226.485 2.66387 227.369 2.52206 228.255 2.38026C229.142 2.39982 230.032 2.41791 230.925 2.43462C230.942 2.43359 230.996 2.43612 231.014 2.43525C252.755 3.0411 274.388 2.81142 295.849 3.05701C296.794 3.06772 297.029 3.31041 298.574 3.32956C300.272 3.35041 302.73 3.09907 304.961 3.1272C306.975 3.15214 309.849 3.4109 312.091 3.47082C312.592 3.48388 312.954 3.3358 313.011 3.33726C313.341 3.34678 313.355 3.5876 313.675 3.59789C314.057 3.60964 314.521 3.43637 314.961 3.4521C316.609 3.50958 318.432 3.46752 318.636 3.47385C319.644 3.50733 319.861 3.74498 319.944 3.74846C321.06 3.78895 320.641 3.57209 320.922 3.58737C322.384 3.66783 323.409 4.20886 325.388 3.72029C325.333 3.9165 325.277 4.11271 325.221 4.30891C326.731 4.43516 325.739 3.90208 326.05 3.81059C326.182 3.77694 329.461 3.87412 329.708 3.88583C330.582 3.92842 330.602 4.1901 330.677 4.19439C330.859 4.20469 333.091 3.93009 334.216 4.16931C335.549 4.45284 333.972 4.9694 334.302 5.07252C334.36 5.09 335.752 5.04901 335.944 5.21737C336.148 5.3985 334.939 5.383 334.957 5.4583C334.965 5.50998 336.984 5.89877 336.594 6.14357C336.269 6.38981 333.558 6.0438 332.972 6.15518C332.876 6.17364 333.053 6.48309 332.968 6.49353C332.616 6.53178 326.331 6.47775 326.026 6.42368C326.358 6.28695 326.69 6.15021 327.021 6.01345C326.584 5.99482 326.14 5.97612 325.706 5.95749C326.328 5.85158 326.957 5.74571 327.58 5.63973C326.658 4.47651 323.881 5.61763 323.76 6.19228C323.708 6.45808 325.394 7.16076 323.814 7.54346C324.053 7.6143 324.292 7.68514 324.53 7.75597C325.026 7.64878 325.515 7.54151 326.012 7.43431C325.68 7.3601 325.358 7.28598 325.03 7.21179C325.151 7.13297 325.273 7.05414 325.394 6.97531C326.314 6.85635 327.258 6.73758 328.182 6.61853C328.658 6.68254 328.556 6.91793 328.883 6.96694C332.934 7.58335 330.302 6.82437 332.973 6.95648C333.353 7.08718 333.733 7.21787 334.112 7.34853C333.988 6.82224 335.146 7.16329 336.593 6.9507C336.419 7.11895 336.246 7.28721 336.072 7.45546C338.163 7.38536 342.337 8.2808 341.217 7.33276C341.694 7.41726 342.169 7.50173 342.644 7.58616C343.047 7.43653 343.449 7.28687 343.85 7.13719C344.404 7.15979 344.95 7.18228 345.507 7.20483C345.509 7.28786 345.51 7.37088 345.512 7.45391C345.066 7.45041 344.632 7.447 344.19 7.4435C344.519 7.6994 344.846 7.95528 345.173 8.21114C345.5 8.17207 345.83 8.13303 346.158 8.09394C344.784 7.84249 346.602 7.46796 347.042 7.13788C348.198 7.02465 348.928 7.46438 349.312 7.48723C349.486 7.49808 351.648 6.75169 350.797 7.58486C351.904 7.49218 353.006 7.39929 354.103 7.30618C354.529 7.3741 354.965 7.44208 355.396 7.50999C354.454 7.89388 357.171 8.38726 355.165 8.53353C353.668 8.64319 353.314 8.27424 352.606 8.27092C351.968 8.26742 351.629 8.51107 350.932 8.51618C346.273 8.54603 342.451 8.46607 338.032 8.31506C337.155 8.28481 336.353 8.39795 335.76 8.37531C335.099 8.34942 335.93 8.0483 335.088 8.11538C334.204 8.18632 334.009 8.4367 333.775 8.43948C333.629 8.44092 333.169 8.20941 332.742 8.2052C330.975 8.18787 328.429 8.38165 328.175 8.37777C327.888 8.3725 322.947 8.11682 322.708 8.07689C322.582 8.05528 322.853 7.21991 321.747 8.10201C321.405 8.11502 321.06 8.12801 320.719 8.14101C320.775 7.97412 320.833 7.80724 320.89 7.64036C318.877 8.25407 319.575 7.90623 317.629 7.93542C312.981 8.00604 306.077 7.78903 301.01 7.7912C299.865 7.7919 299.426 7.9875 298.092 7.98686C296.854 7.98559 293.572 7.34988 294.277 8.18678C291.517 7.43761 291.057 8.66999 289.667 7.88217C289.496 7.99252 289.325 8.10287 289.154 8.21322C287.628 7.7138 287.188 8.13227 285.533 8.17159C284.822 8.18875 285.65 7.68573 284.203 8.23976C283.928 8.1941 283.653 8.14844 283.377 8.10278C283.443 7.97951 283.509 7.85624 283.574 7.73297C281.961 7.81579 281.876 7.75017 282.048 8.21632C281.286 8.12304 280.521 8.02971 279.753 7.93634C279.656 8.08756 279.559 8.23878 279.461 8.39C279.783 8.68475 297.326 8.44815 299.729 8.33492C302.601 8.71222 308.334 8.34474 310.622 8.45152C311.552 8.49465 311.959 8.84366 313.301 8.89965C314.639 8.95555 316.324 8.6607 317.047 8.65725C319.426 8.64451 330.689 8.82944 323.034 9.17894C323.253 9.3492 323.471 9.51945 323.69 9.68969C326.73 9.14794 325.633 9.4895 328.166 9.57448C329.232 9.61061 331.755 9.2607 331.613 10.0222C329.628 10.1445 327.55 9.8796 325.81 9.87271C325.642 9.8722 323.615 10.1996 322.563 10.094C321.618 9.9977 322.269 9.27728 320.206 10.0722C318.697 9.25855 317.803 9.9727 317.398 10.0453C316.697 10.1712 316.624 9.77674 315.922 9.72336C315.159 9.66452 314.645 9.92031 314.539 9.92088C313.509 9.91584 308.071 9.89197 307.832 9.73048C308.05 9.66307 308.269 9.59565 308.487 9.52822C307.082 9.40037 307.37 9.80611 306.999 9.8502C306.723 9.84568 306.446 9.84115 306.168 9.83661C306.279 9.75434 306.39 9.67207 306.501 9.58979C304.833 9.58906 306.085 9.89314 303.744 9.85946C302.254 9.83773 300.7 9.50151 300.552 9.52343C300.509 9.5297 300.982 9.74992 300.366 9.77183C299.333 9.80756 297.617 9.7827 297.418 9.48809C296.923 9.52387 296.962 9.8104 296.896 9.81617C296.606 9.84085 291.654 9.88177 290.769 9.88851C288.284 9.90658 285.596 9.81466 282.903 9.83173C282.626 9.83336 282.805 9.65183 282.528 9.65454C282.09 9.65889 279.841 9.92099 279.5 9.93738C278.662 9.97754 276.416 9.83718 276.078 9.91672C276.028 9.92798 276.748 10.1845 275.902 10.2516C274.962 10.3258 275.471 9.99797 275.42 9.99404C273.506 9.85767 272.28 10.0753 270.952 10.1047C270.516 10.114 269.744 9.85378 269.144 9.92099C269.075 9.92862 269.209 10.1623 269.141 10.1729C268.236 10.2841 267.391 9.84349 266.997 9.811C266.033 9.73155 266.554 10.0555 266.504 10.0572C265.862 10.0599 264.989 9.93501 264.01 9.93877C259.688 9.95597 256.14 9.93397 251.486 9.85861C250.905 9.8493 250.229 9.6172 250.139 9.61587C249.867 9.61438 249.942 9.87878 249.152 9.86366C247.488 9.83076 245.915 9.8252 244.257 9.80088C243.927 9.79598 243.789 9.55021 243.536 9.54201C242.694 9.51701 239.774 10.1225 239.732 9.32649C238.011 10.0108 236.91 9.39108 235.552 9.38214C234.244 9.37322 232.625 9.38194 230.934 9.38667C230.929 9.38694 230.912 9.38617 230.907 9.38648C228.439 9.4155 225.871 9.43749 223.963 9.37855C223.286 9.35728 222.969 9.15268 222.594 9.14075C221.916 9.11882 218.082 9.22316 217.886 9.19058C217.496 9.1279 217.729 8.23092 215.668 9.00787C214.461 9.06062 214.605 8.69261 214.356 8.67214C212.415 8.51943 210.54 9.337 210.892 8.58458C208.647 8.78366 207.204 9.19647 206.298 8.48997C206.303 8.83369 205.283 9.03742 203.99 8.90336C205.317 8.32915 205.125 7.95966 208.261 8.07284C208.31 8.07465 208.215 8.32299 208.265 8.3248C208.712 8.34266 209.647 8.21944 210.413 8.23479C211.18 8.25018 210.754 8.41906 211.061 8.41654C211.342 8.41384 211.333 8.17596 211.74 8.17357C213.062 8.16749 214.237 8.1048 214.993 8.10243C215.47 8.10114 216.004 8.31145 216.375 8.31236C217.838 8.31425 220.771 8.15832 222.584 8.18568C222.959 8.19194 222.801 8.42605 223.623 8.44754C223.719 8.45005 224.069 8.2064 224.791 8.15751C225.513 8.10862 226.073 8.23145 226.538 8.20731C226.927 8.18716 226.765 7.96952 227.563 7.95795C227.837 7.95412 229.275 7.98158 230.91 8.01777C230.918 8.01731 230.942 8.01843 230.95 8.01804C233.29 8.09081 235.971 8.18441 236.208 8.20755C236.789 8.26423 237.061 8.57249 237.415 8.53939C237.478 8.53214 237.587 8.23872 237.802 8.22012C241.441 7.91393 249.345 8.40785 253.465 8.45339C262.044 8.54916 269.959 8.4684 278.618 8.50034C278.773 8.45088 278.928 8.4014 279.083 8.35193C278.208 8.33983 277.326 8.32764 276.443 8.31544C276.44 8.17672 276.436 8.03799 276.432 7.89927C275.261 7.86371 275.411 8.19342 275.442 8.3917C275.008 8.30267 274.574 8.21363 274.138 8.12457C273.767 8.60354 270.809 8.2477 269.328 8.23118C268.357 8.21986 267.191 8.39049 266.673 8.37015C265.58 8.32784 265.61 8.02998 265.524 8.02422C265.378 8.01575 263.839 8.26082 262.756 8.23804C261.14 8.20469 260.973 7.74486 258.731 8.10758C255.9 7.83697 252.714 7.91938 249.666 7.92279C250.253 7.50638 247.51 7.87504 246.258 7.85385C241.559 7.7735 236.225 7.63225 230.956 7.47501C230.947 7.47544 230.921 7.47419 230.912 7.4747C227.677 7.40746 224.524 7.33411 221.63 7.2634C220.65 7.23983 219.912 6.98867 219.368 6.99558C219.073 6.99908 218.944 7.29269 218.535 7.25279C218.463 7.24513 218.413 6.97015 217.653 6.92688C215.707 6.81807 210.917 7.26505 209.72 6.73462C203.269 6.8005 196.596 6.86621 190.09 6.93268C189.924 6.81999 189.758 6.70731 189.593 6.59462C188.331 7.16558 183.408 6.81704 181.044 6.83871C176.815 6.8773 171.388 7.04368 167.751 7.05518C166.936 7.05762 166.27 6.89336 165.502 6.895C165.172 6.89597 164.761 7.10615 164.419 7.10651C160.563 7.11419 155.469 6.8859 151.557 6.88279C142.915 6.87568 134.548 6.82677 125.718 6.81895C95.9033 6.79422 66.1003 7.05481 36.5368 6.89164C36.1482 6.88945 36.1681 6.64678 35.8688 6.6447C34.0008 6.63047 30.0822 6.82566 27.9184 6.81211C26.2548 6.80166 23.7516 6.42768 23.1295 6.80066C28.9274 7.37287 35.0427 7.33789 41.1605 7.5041C41.5759 7.51578 41.6283 7.74658 41.6795 7.75087C42.6342 7.83231 42.0257 7.51375 43.426 7.50126C43.8629 7.49701 48.3587 8.23973 47.8019 7.50577C48.7572 7.80034 56.2655 7.95763 57.6275 7.86254C58.0601 7.83358 57.7542 7.61591 57.84 7.60504C58.2134 7.55762 58.3823 7.85737 58.718 7.86561C59.5985 7.8855 61.9556 7.64607 62.3347 7.64834C63.2943 7.65237 66.2434 7.90067 67.5784 7.84528C68.7914 7.79474 68.5863 7.48155 69.6165 7.45441C70.4157 7.43382 69.5396 7.69561 71.3335 7.77789C72.2164 7.81816 75.3865 7.63493 76.1762 7.63618C76.9642 7.63744 77.8186 7.82604 78.8531 7.81335C80.3463 7.79548 83.6708 7.69671 85.2618 7.63936C85.3562 7.63613 85.587 7.39314 85.8206 7.3986C86.2927 7.40959 86.1466 7.70993 86.4979 7.74103C86.8249 7.77198 92.9929 7.74576 94.09 7.75106C94.8373 7.75405 95.3174 7.57584 95.7126 7.57811C96.0214 7.58034 96.054 7.83077 96.3698 7.83413C96.4676 7.8343 97.3005 7.61829 98.1395 7.62484C98.9258 7.63131 101.968 7.84352 102.328 7.84613C102.559 7.84739 102.306 7.66901 102.991 7.67447C103.612 7.67994 104.039 7.91173 104.376 7.91572C105.174 7.92467 106.071 7.7293 106.927 7.72991C109.392 7.73187 109.273 8.01786 109.42 8.02743C109.834 8.05404 110.001 7.79221 110.137 7.78705C110.711 7.76613 112.127 7.72033 112.646 7.71112C113.286 7.69963 113.583 7.94932 114.237 7.95138C114.732 7.95214 115.732 7.71113 116.871 7.70144C119.422 7.67834 122.589 7.63853 125.096 7.65269C125.843 7.65667 125.959 7.88427 126.188 7.89063C127.393 7.92418 128.074 7.67126 128.42 7.67526C130.884 7.70289 135.379 8.11072 137.623 8.14907C138.547 8.16444 142.648 7.98856 145.006 8.02639C145.274 8.03035 145.028 8.20813 145.318 8.18083C146.011 8.11537 145.948 7.75221 146.301 7.76393C146.471 7.77069 146.858 7.97615 147.355 7.99754C149.933 8.10856 151.732 7.95319 152.927 7.96669C164.297 8.09626 176.029 8.21728 186.611 8.27373C187.8 8.27985 189.28 8.06728 191.093 8.28116C191.149 8.39408 191.205 8.507 191.26 8.61992C191.324 8.50923 191.388 8.39854 191.452 8.28785C193.491 8.23257 194.226 8.09163 196.295 8.23765C196.472 8.24991 197.014 8.76608 197.353 8.12735C199.404 8.59549 198.278 8.12578 199.806 8.08628C201.336 8.04681 202.829 8.19316 204.326 8.22889C205.145 8.45996 201.705 8.98015 201.485 8.97794C201.126 8.97505 200.754 8.6562 200.408 8.63848C199.385 8.58549 198.4 8.83548 198.172 8.55115C196.856 8.8481 198.494 8.70204 198.329 8.97192C197.451 8.85803 196.575 8.74416 195.702 8.63029C195.254 9.54845 190.44 8.33846 190.754 9.03914C190.364 8.8981 189.974 8.75706 189.585 8.61603C187.877 9.49018 186.877 8.86957 184.624 8.60315C184.786 8.71583 184.948 8.8285 185.111 8.94117C185.063 8.98793 183.078 9.16297 183.789 8.68621C181.756 9.31191 181.844 8.26363 180.033 9.01751C178.941 9.11227 179.595 8.67348 177.628 8.67665C176.463 8.67826 175.022 8.90523 173.732 8.91842C173.435 8.92073 173.307 8.66553 173.043 8.66495C172.779 8.66446 172.65 8.91412 172.331 8.91971C171.671 8.93177 170.82 8.75444 170.41 8.77045C170.043 8.78406 169.517 9.00334 168.636 9.03607C165.514 9.15176 166.444 8.839 165.952 8.73138C165.418 8.61694 165.032 9.03088 163.972 8.98048C163.866 8.97518 164.141 8.71729 163.796 8.72669C163.517 8.73404 163.375 9.01469 162.455 9.06509C162.07 9.08538 156.466 9.13356 155.575 9.1368C154.226 9.14154 151.255 8.89749 149.888 8.89634C149.361 8.89528 148.798 9.11969 148.24 9.11702C146.41 9.10815 143.406 9.08287 141.027 9.06705C138.881 9.05248 135.202 8.5472 134.04 8.99441C131.007 9.04671 130.292 8.66119 130.063 8.65551C129.453 8.63993 129.17 8.89386 128.404 8.9042C118.449 9.03259 105.441 8.8403 95.9836 8.84417C74.1009 8.85505 52.1959 8.96049 30.2699 8.83052C30.2129 8.94324 30.156 9.05596 30.0991 9.16868C32.5892 9.24441 35.764 9.44437 38.2519 9.49241C41.78 9.55609 46.768 9.09317 49.2476 9.86757C48.2614 9.9338 46.6038 9.63593 46.6216 10.0324C48.4876 10.0633 50.1924 10.094 52.0461 10.1249C51.9916 9.94175 51.9372 9.75857 51.8828 9.57539C53.8283 9.5249 55.7248 9.56755 57.6159 9.54411C57.9457 9.54028 57.7122 9.37372 57.9999 9.37329C58.3221 9.37316 58.1034 9.54201 58.1638 9.54345C58.9794 9.54634 59.2299 9.37557 59.3298 9.37818C59.5878 9.38533 59.3857 9.54794 60.1317 9.5947C61.5352 9.68206 62.4837 9.2507 62.1695 9.97126C62.599 9.97191 63.0306 9.97256 63.4642 9.97322C63.5768 9.7771 63.6896 9.58099 63.8024 9.38488C66.4808 10.1814 67.762 8.7933 69.2912 9.89866C69.775 9.73096 70.2557 9.56326 70.7414 9.39557C71.0144 9.59228 71.2881 9.78899 71.5626 9.98571C71.6164 9.81734 71.6703 9.64897 71.7241 9.4806C74.3308 9.60892 77.3022 9.41146 79.751 9.43488C81.5054 9.45128 81.9312 9.51849 83.5119 9.50846C87.0444 9.4856 83.5545 9.81402 86.4611 10.1799C86.3136 9.97308 86.1662 9.7663 86.0191 9.55951C86.4884 9.48462 86.9595 9.40973 87.4324 9.33485C87.7613 9.50385 88.0909 9.67286 88.4215 9.84187C89.8907 8.97063 90.8553 9.67757 91.0574 9.67791C91.2222 9.67667 91.7792 9.15162 93.5585 9.60019C92.8163 8.87977 94.9321 9.59834 95.0802 9.60282C95.2323 9.606 97.2111 9.44891 98.0246 9.4571C98.6614 9.46334 100.028 9.62056 100.992 9.61469C101.843 9.60947 101.758 9.36518 101.82 9.36276C102.871 9.34434 102.212 9.53286 102.973 9.54352C103.737 9.55417 104.331 9.34719 104.483 9.36607C104.563 9.37612 104.295 9.60305 104.662 9.62566C105.645 9.68734 107.439 9.49147 108.587 9.49949C108.993 9.50207 109.506 9.69594 109.961 9.70269C110.659 9.71237 110.987 9.45674 111.394 9.4651C111.536 9.46871 112.44 9.86621 113.575 9.80751C113.802 9.79574 114.401 8.95923 115.217 10.1475C115.28 9.98061 115.343 9.81375 115.407 9.64688C119.102 9.24039 120.16 10.599 121.837 9.39832C124.585 9.53805 122.697 10.0034 122.999 10.0758C123.193 10.1216 124.097 9.99441 124.183 10.0019C124.352 10.0166 124.322 10.1671 124.508 10.1666C127.92 10.1453 126.408 9.8582 127.494 9.68023C130.089 9.25668 132.123 10.2123 127.599 9.91773C127.599 10.0017 127.598 10.0857 127.598 10.1697C128.704 10.0916 131.548 10.1353 130.598 10.5593C129.831 10.8934 123.176 10.6614 126.945 11.1396C127.802 11.2478 128.246 10.9335 129.743 11.5274C130.735 11.5614 130.878 10.796 132.23 11.106C132.008 10.8385 131.786 10.571 131.565 10.3034C133.421 9.95896 135.664 10.4304 137.047 10.2836C137.518 10.2335 139.231 8.96365 138.83 10.2359C139.623 10.1581 143.418 10.4004 144.135 10.2877C144.298 10.2605 144.56 9.58322 146.956 9.82479C147.124 9.9101 147.291 9.9954 147.459 10.0807C145.249 10.323 149.152 10.5821 148.09 11.2231C147.729 10.9333 145.979 10.7533 145.7 10.6073C145.218 10.3561 146.661 10.0365 144.82 10.1207C143.652 11.1932 146.971 10.7054 146.459 11.7251C148.856 11.2536 149.103 11.7087 149.648 11.7288C151.987 11.8106 153.473 11.7055 155.715 11.8294C156.258 11.6209 152.211 11.3097 151.719 11.3991C153.554 10.6598 150.396 10.6196 149.079 11.0582C148.969 10.8333 148.858 10.6085 148.748 10.3837C150.465 10.509 152.152 10.5751 153.878 10.3944C153.99 10.4786 154.102 10.5628 154.215 10.6471C153.827 10.7727 153.44 10.8984 153.053 11.024C154.487 11.2341 153.625 10.5773 155.543 11.1552C155.603 10.9024 155.663 10.6496 155.723 10.3968C157.551 10.4847 159.32 10.5725 161.139 10.6604C162.079 10.1552 165.594 10.3517 164.95 11.007C166.373 11.0564 164.616 10.7031 165.951 10.5463C166.532 10.4782 167.673 10.4612 167.954 10.6385C167.832 11.2636 166.125 11.3374 165.611 11.7657C165.968 11.905 173.719 11.4756 173.035 12.2054C173.659 12.2947 173.372 11.9173 174.501 11.8234C177.685 11.5616 182.57 12.3172 185.099 11.3888C182.114 10.8621 181.277 11.4109 178.97 11.4276C177.462 11.4386 168.577 11.5075 170.567 10.8508C170.242 10.9341 169.917 11.0173 169.593 11.1006C169.266 10.9031 168.939 10.7056 168.613 10.5081C169.534 10.4818 170.458 10.4556 171.385 10.4293C171.606 10.6261 171.827 10.8228 172.048 11.0196C172.15 10.8797 172.253 10.7398 172.356 10.5999C172.747 10.5729 173.139 10.546 173.532 10.519C173.421 10.6872 173.31 10.8554 173.2 11.0236C173.804 11.0538 174.41 11.0839 175.017 11.1141C174.854 10.8886 174.691 10.6632 174.528 10.4377C177.389 10.3875 176.421 10.5263 178.014 10.9509C179.208 10.9966 177.19 10.5594 179.72 10.4552C182.597 10.3341 180.699 11.0176 184.44 10.879C184.494 10.7669 184.548 10.6547 184.603 10.5425C185.427 10.6567 186.253 10.7709 187.082 10.8851C186.973 10.7452 186.864 10.6053 186.755 10.4654C188.463 10.5234 190.839 10.2624 191.412 10.8116C189.662 10.5438 189.68 11.5004 190.133 11.6773C191.084 12.0402 204.805 11.7368 207.434 11.7197C210.811 11.6974 213.388 12.0101 216.526 11.547C214.385 11.1556 206.992 11.4539 205.62 11.1836C205.482 11.157 205.525 10.2803 204.637 11.2647C201.721 11.0904 198.263 11.3617 194.697 11.3246C194.806 11.0725 194.916 10.8203 195.026 10.5681C197.218 11.1101 199.272 9.93578 198.981 10.9158C199.421 10.9168 199.862 10.9179 200.304 10.9189C200.304 10.75 200.305 10.581 200.305 10.4121C200.971 10.4137 201.638 10.4153 202.306 10.4169C202.306 10.5858 202.306 10.7548 202.305 10.9237C202.859 10.925 203.414 10.9263 203.969 10.9277C204.028 10.7594 204.086 10.591 204.144 10.4227C205.786 10.7765 211.35 9.8545 208.899 10.8546C209.668 10.8564 210.439 10.8583 211.211 10.8602C211.209 10.7367 211.207 10.6131 211.204 10.4896C211.536 10.4738 211.869 10.458 212.202 10.4422C212.092 10.5538 211.982 10.6653 211.872 10.7768C213.396 10.5802 214.847 11.1724 215.857 10.7881C215.192 10.702 214.528 10.6159 213.866 10.5298C215.134 10.6933 217.491 10.3667 217.7 10.3664C218.327 10.3662 218.658 10.6168 219.339 10.6312C219.955 10.6435 219.871 10.4514 219.986 10.4584C223.314 10.6621 222.044 11.6978 223.607 10.4719C223.773 10.6402 223.939 10.8086 224.105 10.977C224.327 10.8374 224.549 10.6978 224.771 10.5583C225.762 10.5739 226.755 10.5896 227.751 10.6053C227.419 10.3945 227.088 10.1837 226.757 9.97295C228.247 9.883 228.946 10.3057 229.09 10.3157C229.5 10.3413 229.689 10.0775 229.816 10.0774C230.22 10.0799 230.582 10.0832 230.905 10.0876C230.909 10.0873 230.922 10.0879 230.926 10.0877C235.47 10.1896 232.434 10.4188 235.246 11.3782C236.324 11.0011 235.243 10.5981 235.095 10.2001C236.524 10.4025 236.95 10.2977 238.471 10.3373C238.867 10.3479 239.291 10.5666 239.54 10.5724C239.757 10.5774 240.434 10.3581 240.951 10.3631C241.812 10.3714 242.952 10.5201 244.118 10.5302C245.086 10.5381 248.125 10.413 250.192 10.4354C251.076 10.4457 250.868 10.6333 251.097 10.6363C251.186 10.6374 251.895 10.418 252.471 10.4238C257.152 10.4733 261.908 10.6729 266.615 10.7236C269.901 10.7594 273.299 10.6159 276.575 10.6725C277.286 10.685 276.907 10.8477 277.218 10.8572C277.324 10.86 277.457 10.5699 278.549 10.6998C278.944 10.7467 278.487 10.9453 278.875 10.96C279.064 10.967 279.148 10.7124 280.248 10.6668C282.236 10.5833 283.313 10.9365 283.494 10.9284C283.834 10.9127 283.737 10.7001 284.186 10.6976C286.382 10.6858 288.166 10.6704 290.139 10.6753C291.051 10.6774 297.323 10.706 297.664 10.7477C298.43 10.8409 297.712 11.2746 298.694 11.2706C298.97 11.1619 299.245 11.0532 299.522 10.9445C299.086 10.8546 298.652 10.7648 298.215 10.6749C299.407 10.8304 300.803 10.6451 301.698 10.6628C301.865 10.6664 303.386 10.8837 304.157 10.8704C303.828 10.9498 303.498 11.0291 303.168 11.1084C303.284 11.1805 303.399 11.2526 303.515 11.3247C305.048 11.2345 306.725 11.2559 308.31 11.2885C308.883 11.3 308.688 11.4699 309.267 11.4822C312.646 11.5554 311.824 10.8313 315.05 12.2087C313.973 12.0755 309.91 12.202 309.351 12.1511C308.949 12.1154 307.386 10.9638 307.951 12.1342C304.692 12.0931 307.526 11.4824 304.48 11.5889C304.539 11.7317 304.598 11.8744 304.656 12.0172C303.603 12.095 302.82 12.1581 302.178 11.9001C301.954 12.587 298.346 12.1432 296.376 12.1673C293.487 12.2005 290.297 12.3322 287.448 12.329C286.48 12.3279 285.931 12.0514 285.809 12.0509C285.63 12.0508 285.125 12.2816 284.767 12.2791C283.416 12.2703 279.393 11.8238 278.366 12.4688C286.297 12.5607 294.23 12.652 302.161 12.7408C301.164 12.4069 309.198 12.4647 309.59 12.4848C309.964 12.5033 309.647 12.7265 309.758 12.7415C310.577 12.8477 311.312 12.527 311.574 12.5299C311.777 12.5322 312.185 12.6908 312.903 12.6952C313.035 12.6962 313.073 12.5335 313.214 12.5346C314.152 12.5447 315.059 12.5568 316.005 12.5661C316.063 12.5683 316.299 12.8091 316.537 12.8121C316.777 12.8146 317.015 12.5791 317.075 12.579C317.83 12.5888 319.114 12.7573 319.823 12.7665C320.069 12.769 319.901 12.5927 320.176 12.5973C321.021 12.6105 320.744 12.9491 321.804 12.8722C322.16 12.8463 322.14 12.585 322.818 12.6265C323.298 12.656 323.241 13.1208 323.317 13.1385C323.423 13.1601 325.077 12.8097 325.61 13.1197C324.423 13.9118 326.905 13.175 326.793 12.8345C327.451 12.9267 328.108 13.0188 328.761 13.1109C328.986 13.0272 329.21 12.9435 329.433 12.8598C332.062 13.2734 333.698 13.0571 336.29 13.2013C336.418 13.2085 338.614 13.4205 338.508 13.5404C337.199 13.7359 335.866 13.7326 335.042 13.3401C333.658 14.0596 333.645 13.4754 331.401 13.5504C330.647 13.5759 330.595 13.7742 330.509 13.7759C327.616 13.846 322.96 13.8835 320.991 13.2812C320.437 13.4327 322.423 13.5159 321.65 13.6236C321.227 13.6831 311.162 13.7608 314.383 13.1258C314.05 13.1408 313.717 13.1557 313.383 13.1707C313.044 13.7994 311.38 13.6367 311.575 13.0089C311.416 13.1361 311.256 13.2633 311.096 13.3904C310.784 13.4961 310.404 13.5504 309.896 13.5795C307.937 13.6904 296.172 13.3391 295.548 13.4221C295.533 13.5713 295.517 13.7206 295.501 13.8698C300.661 14.0975 305.751 13.7832 311.389 14.2726C311.225 14.1306 311.061 13.9887 310.897 13.8468C313.177 14.068 315.394 14.2882 317.676 14.5088C315.257 14.7368 311.471 14.9087 308.964 14.6723C308.52 14.6302 308.848 14.4383 308.746 14.4135C308.48 14.3491 308.19 14.685 307.227 14.7074C306.26 14.7296 303.837 14.4623 303.623 14.4667C303.199 14.4759 302.044 14.8509 301.313 14.8378C300.354 14.8203 301 14.5874 300.807 14.5802C300.009 14.5476 299.288 14.6585 298.676 14.6338C297.762 14.5971 295.849 14.1532 295.191 14.7658C295.854 14.8016 296.514 14.8374 297.172 14.8732C293.574 15.0548 290.816 14.2306 287.272 14.8012C286.469 15.5428 289.358 15.4745 286.912 15.7668C287.357 15.7612 287.798 15.7555 288.244 15.7499C288.351 15.5939 288.459 15.4379 288.566 15.2819C289.342 15.4031 290.114 15.5243 290.883 15.6454C290.665 15.5027 290.446 15.3601 290.228 15.2175C292.955 15.143 295.712 15.0306 296.66 15.7947C296.718 15.6132 296.776 15.4317 296.834 15.2502C299.342 15.5001 303.185 14.7712 302.455 15.7764C302.576 15.724 302.696 15.6717 302.816 15.6193C304.34 15.8435 303.692 15.4171 304.265 15.3762C304.414 15.3645 307.417 15.6142 306.084 15.9003C308.995 16.1625 308.103 15.2054 308.903 15.1726C310.733 15.662 314.12 14.9949 312.697 15.7209C312.974 15.7518 313.25 15.7826 313.526 15.8134C314.444 15.24 315.31 15.9094 316.309 16.1408C316.645 16.1576 316.981 16.1743 317.316 16.1911C317.542 15.9972 317.768 15.8033 317.994 15.6094C321.123 16.5769 320.14 14.0114 321.567 16.1731C321.34 16.2991 321.113 16.4252 320.887 16.5512C320.353 16.6066 319.831 16.6621 319.301 16.7176C321.416 16.7966 323.597 16.876 325.709 16.9543C328.446 17.5841 329.955 16.9465 332.993 17.4525C333.276 17.3981 333.558 17.3438 333.841 17.2894C333.548 17.7727 332.457 17.6906 334.49 17.9286C334.66 18.2739 333.286 18.305 332.658 18.0351C332.507 17.9693 333.801 17.7188 332.35 17.6952C331.363 17.6787 333.148 18.1096 330.195 17.9271C330.303 18.0122 330.41 18.0973 330.518 18.1823C330.201 18.1767 329.883 18.1711 329.564 18.1654C329.283 17.9683 329.001 17.7711 328.719 17.5739C327.986 17.8472 327.574 18.2364 325.892 18.1355C326.35 18.0184 325.731 17.6218 324.913 17.62C324.912 17.7606 324.911 17.9012 324.909 18.0418C322.915 18.1117 323.608 17.7063 321.937 18.011C321.77 17.8974 321.604 17.7838 321.438 17.6703C320.514 18.1215 317.198 18.3997 317.808 17.7154C316.863 18.3767 314.888 18.0526 314.173 17.508C314.116 17.647 314.059 17.786 314.001 17.9251C313.613 17.9492 313.224 17.9733 312.835 17.9974C312.619 17.9106 312.402 17.8237 312.185 17.7369C311.908 17.8184 311.63 17.8998 311.352 17.9812C311.186 17.8393 311.02 17.6973 310.853 17.5554C310.403 17.7184 309.96 17.8816 309.519 18.0447C309.251 17.9299 308.982 17.8152 308.713 17.7004C308.685 17.9924 305.996 18.0278 305.237 17.8275C305.01 17.9099 304.785 17.9924 304.563 18.0749C304.456 17.9345 304.35 17.7942 304.243 17.6538C304.076 17.7633 303.909 17.8728 303.743 17.9823C303.363 17.8667 302.982 17.7511 302.6 17.6355C301.028 18.3002 300.981 17.701 300.622 17.7012C299.946 17.7015 297.705 18.1035 297.327 18.0772C296.952 18.0508 296.772 17.8039 296.469 17.7774C291.428 17.3355 293.516 18.0163 292.504 18.1088C291.964 18.1593 291.584 17.9265 291.104 17.9463C290.281 17.9792 286.134 18.2339 285.903 18.2016C285.557 18.1549 286.385 17.0872 285.256 17.3518C285.214 17.9298 282.8 17.3181 283.923 18.1378C282.924 18.0554 281.928 17.9731 280.947 17.891C281.051 18.5778 279.841 18.1228 278.503 18.1454C276.582 18.1764 272.369 18.5783 272.519 17.8766C272.064 18.0329 271.607 18.1892 271.149 18.3455C268.076 18.0883 264.987 18.2843 261.952 18.2573C252.836 18.1772 242.944 17.9091 233.87 17.6658C233.433 17.6539 233.499 17.4248 233.183 17.4161C232.638 17.4015 231.804 17.4039 230.842 17.4109L230.886 17.4112C228.924 17.443 226.469 17.4987 224.917 17.4608C224.175 17.4429 223.816 17.2178 223.581 17.207C222.785 17.1686 222.972 17.4644 222.606 17.455C222.027 17.44 218.984 17.1583 217.944 17.127C217.432 17.1115 216.794 17.3446 216.179 17.2706C216.126 17.2646 216.225 17.023 216.18 17.0187C215.055 16.9863 215.731 17.197 215.351 17.1851C212.639 17.0998 209.763 17.088 206.87 17.0311C206.15 17.0167 205.063 16.8436 204.436 16.8261C204.196 16.8198 204.626 17.0043 203.797 16.9871C203.513 16.9813 203.416 16.7424 203.096 16.7262C201.717 16.6578 201.255 17.4234 200.078 16.804C197.797 16.8391 193.885 17.0268 191.836 17.0263C191.34 17.0258 191.1 16.8844 190.628 16.8858C190.294 16.8867 189.706 17.1037 189.186 17.1051C188.666 17.1064 187.847 16.8967 186.852 16.902C185.805 16.9072 184.509 17.0277 184.275 17.0264C183.991 17.0258 183.86 16.7629 183.577 16.7656C182.715 16.7721 180.455 17.025 179.336 17.0504C178.129 17.0772 177.409 16.9483 176.999 16.9499C176.619 16.9526 176.176 17.1732 176.003 17.1747C175.734 17.1775 175.671 16.9184 175.33 16.9198C174.772 16.9228 174.198 17.0843 173.365 17.0868C158.359 17.1338 143.649 16.9607 129.05 16.7436C127.425 16.7193 126.507 16.8991 124.147 16.8117C123.177 16.776 123.581 16.5096 122.815 16.5587C122.473 16.5808 122.559 16.7912 122.127 16.8005C120.216 16.8408 118.023 16.6414 117.212 16.6432C116.89 16.6436 116.521 16.8816 115.864 16.8839C110.89 16.9016 105.14 16.824 99.7077 16.8559C96.9062 16.8729 92.6204 16.987 89.3771 16.9976C80.4 17.0271 70.8886 16.9566 62.667 16.9679C50.3232 16.984 38.1526 17.1881 25.7715 16.9123C31.5326 17.4964 39.4236 17.4583 45.758 17.5295C64.2723 17.734 83.924 17.43 102.928 17.4768C109.479 17.4927 117.793 17.4949 125.063 17.6426C125.386 17.6491 126.057 17.4668 126.759 17.4877C126.907 17.4925 128.762 17.8309 129.393 17.8356C128.797 17.2392 131.262 17.7745 132.034 17.7617C133.009 17.7449 135.024 17.4514 137.236 17.6241C139.26 17.7803 138.703 18.0082 138.815 18.0228C139.533 18.117 139.786 17.7485 140.339 17.7124C142.652 17.5682 154.181 17.8065 157.467 17.8271C158.294 17.8322 158.317 18.0668 158.504 18.0681C158.998 18.0707 159.704 17.8406 160.501 17.8438C161.936 17.8503 163.602 18.0753 164.401 18.0778C166.329 18.0845 169.917 17.8313 172.367 17.8316C173.059 17.8317 173.016 18.0756 173.33 18.0755C174.705 18.0742 178.34 17.7948 180.072 17.7962C182.823 17.7982 185.679 17.9625 188.532 17.8887C188.712 17.998 188.893 18.1073 189.073 18.2166C189.359 18.103 189.645 17.9894 189.931 17.8759C194.76 17.9741 199.544 17.7402 204.391 17.7678C204.947 17.7709 207.628 17.9857 208.083 17.9877C208.458 17.9886 208.827 17.7198 209.384 17.7608C210.165 17.8179 209.428 18.3297 210.706 18.1859C211.05 18.147 210.717 17.9263 211.408 17.8595C211.632 17.8372 216.086 17.7591 216.332 17.7749C216.732 17.8015 217.089 18.2734 217.193 18.2838C217.733 18.3383 217.707 17.9768 218.061 17.9447C219.102 17.8486 220.469 18.0951 220.639 18.0902C222.693 18.0285 226.567 17.7497 228.762 17.926C229.065 17.9506 229.028 18.2197 229.081 18.2286C229.424 18.2852 229.639 17.9793 229.966 17.973C230.249 17.9682 230.558 17.9696 230.885 17.9757L230.835 17.9753C232.542 18.0223 234.704 18.1997 236.164 18.2606C236.365 18.2687 236.79 18.1261 237.146 18.1445C239.176 18.2509 238.524 18.4799 238.637 18.4914C238.913 18.5197 239.403 18.2644 240.136 18.2568C242.028 18.2356 245.609 18.3147 247.646 18.3587C249.157 18.3923 249.128 18.6908 249.228 18.6979C249.438 18.7111 250.028 18.4793 251.013 18.4638C252.938 18.433 252.719 18.6652 253.509 18.6642C253.575 18.665 253.463 18.434 254.338 18.4205C256.017 18.3945 259.811 18.6646 261.617 18.6739C262.31 18.6777 262.474 18.4581 263.18 18.4621C264.284 18.4674 266.867 18.7372 267.058 18.7388C267.115 18.7395 267.244 18.4861 267.574 18.4899C267.938 18.4942 268.293 18.6295 268.563 18.6318C270.083 18.646 272.781 18.2326 272.023 19.1336C272.523 18.9148 273.022 18.696 273.519 18.4771C276.722 18.5592 279.908 18.5062 283.094 18.4973C283.82 18.4956 284.422 18.6748 285.031 18.6735C285.648 18.6722 288.299 18.4176 288.766 18.4176C289.59 18.4178 294.098 18.4393 294.683 18.4662C295.796 18.5177 296.863 18.9058 297.312 18.8373C297.672 18.7822 297.343 18.5666 298.029 18.5143C299.202 18.4238 301.247 18.7189 301.608 18.7187C301.763 18.7187 301.476 18.5504 302.929 18.5547C303.711 18.5567 304.126 18.7433 304.408 18.7456C304.499 18.7456 304.356 18.449 305.923 18.506C307 18.5459 307.453 18.7785 307.566 18.7806C307.735 18.7839 308.145 18.5456 308.82 18.5615C310.375 18.5998 313.317 18.9103 314.8 18.9474C315.092 18.9547 314.981 18.6601 316.155 18.6997C316.99 18.7281 316.841 18.9599 317.153 18.9726C317.648 18.9923 318.387 18.7143 319.47 18.735C320.839 18.762 331.008 19.1628 331.531 19.2442C331.886 19.2993 332.298 19.3066 332.473 19.4352C332.321 19.5552 332.169 19.6753 332.016 19.7954C330.455 19.3532 331.081 19.8471 330.665 19.8743C330.073 19.9132 327.822 19.8283 327.271 19.9308C327.075 19.9679 327.521 20.232 326.469 20.3548C325.331 20.4859 324.857 20.0189 324.402 20.6456C322.824 19.9283 321.279 20.6561 323.125 20.874C324.13 20.9959 334.254 21.3484 336.298 21.4061C337.982 21.4536 341.097 21.2951 343.16 21.362C344.359 21.4018 347.344 21.4608 347.214 21.7953C348.286 21.8469 347.154 21.5029 347.38 21.4583C347.851 21.3655 351.191 21.6249 351.829 21.621C354.94 21.6031 358.896 21.259 361.932 21.7046C361.79 21.7935 361.649 21.8823 361.507 21.9711C360.824 22.1311 357.656 21.8712 357.299 22.2995C361.931 22.3357 366.545 22.3684 371.184 22.3971C371.094 22.0301 376.843 22.0685 377.111 22.2351C377.009 22.4123 376.907 22.5895 376.805 22.7666C373.573 22.0743 373.848 22.9671 371.675 22.4807C370.791 22.4685 371.056 22.7638 370.619 22.8169C366.261 23.3435 370.55 22.2141 367.219 22.455C368.215 22.8876 365.498 23.0252 364.268 23.0705C363.979 23.0805 360.347 22.9461 359.905 22.9494C357.468 22.9693 353.285 23.169 350.864 22.9151C348.944 22.8709 347.916 23.1654 346.173 23.2202C344.852 23.2617 345.231 23.0518 344.616 23.0437C343.326 23.0261 342.892 23.6713 342.068 22.7583C341.186 22.863 340.295 22.9675 339.424 23.0721C339.425 22.9315 339.426 22.7909 339.428 22.6502C338.878 22.6451 338.327 22.6399 337.774 22.6346C337.61 22.7732 337.446 22.9117 337.281 23.0503C335.523 22.8415 336.26 22.51 335.935 22.1087C335.551 22.0776 335.18 22.0467 334.802 22.0157C334.508 22.3185 334.213 22.6213 333.918 22.924C332.233 22.8827 330.521 22.8407 328.845 22.7989C328.738 22.6577 328.63 22.5165 328.522 22.3752C328.517 22.5153 328.512 22.6554 328.507 22.7955C325.628 22.7952 322.786 22.7946 319.91 22.793C319.137 23.0097 323.745 23.2285 324.084 23.2454C326.001 23.3398 331.146 23.1662 331.147 23.6658C332.371 23.3052 335.955 23.4328 337.095 23.8908C335.368 23.8475 333.69 23.8042 331.971 23.7604C332.025 23.9284 332.079 24.0964 332.132 24.2644C329.99 23.5677 329.708 23.602 327.506 24.218C327.507 23.9934 327.507 23.7688 327.507 23.5442C325.957 24.3095 323.297 22.957 323.205 23.9203C322.394 23.8338 321.579 23.7471 320.761 23.6604C319.007 23.7593 321.742 24.5304 314.863 24.166C314.393 24.1406 314.494 23.8961 313.785 23.9053C313.58 23.9081 312.41 24.2529 310.144 24.1909C309.797 24.1811 309.773 23.9678 309.412 23.9368C308.58 23.8634 306.901 24.2663 307.668 23.588C304.336 23.3508 305.704 23.9296 304.669 24.1422C303.985 24.2833 304.127 23.8785 303.534 23.964C302.797 24.07 303.342 24.4859 300.382 24.2642C300.716 24.2401 301.048 24.216 301.381 24.1919C301.215 24.0787 301.049 23.9655 300.883 23.8523C299.186 24.1004 299.349 23.7119 298.554 24.3286C297.342 24.0359 296.286 24.0017 294.6 24.0333C291.342 24.0951 293.023 24.7885 289.308 23.8381C288.703 23.9586 288.087 24.079 287.495 24.1996C286.517 23.9204 287.317 23.5943 285.848 23.5097C286.993 24.1849 283.888 23.9078 283.347 24.4917C283.293 24.3504 283.239 24.2092 283.185 24.0679C282.854 24.0641 282.519 24.0602 282.189 24.0564C282.187 24.1692 282.185 24.282 282.182 24.3947C281.749 24.3052 281.315 24.2158 280.88 24.1262C280.55 24.2342 280.22 24.3422 279.89 24.4502C279.351 24.2081 278.811 23.966 278.269 23.7239C277.927 23.7038 277.585 23.6837 277.242 23.6637C277.349 23.8329 277.455 24.0021 277.562 24.1713C277.122 24.11 276.679 24.0487 276.24 23.9875C276.749 24.269 276.42 24.5884 275.07 24.5642C273.95 24.5444 275.223 23.984 272.803 24.1951C272.634 24.2102 272.332 24.617 270.031 24.6536C267.312 24.6979 268.634 24.4161 268.149 24.4002C268.054 24.3974 267.217 24.5941 266.43 24.6145C265.984 24.6262 265.555 24.4544 265.496 24.4542C265.22 24.4586 265.136 24.6934 264.753 24.6975C263.766 24.7063 262.505 24.576 261.556 24.5767C261.127 24.5768 260.721 24.7117 260.528 24.7112C260.23 24.7093 259.854 24.4915 259.552 24.4889C258.43 24.4802 256.736 25.1685 256.239 24.1792C255.169 25.0711 252.938 23.9517 253.094 24.56C250.233 24.2977 242.601 24.9531 242.854 23.937C241.234 24.7896 241.383 24.1602 240.706 24.1655C239.947 24.171 240.338 24.3446 239.734 24.33C238.315 24.2958 236.977 24.2077 235.588 24.1883C235.809 24.0512 236.029 23.914 236.248 23.7769C234.788 23.7153 235.289 24.046 233.79 24.0913C231.024 24.1736 232.189 23.9277 231.785 23.557C231.826 23.6931 231.368 23.7634 230.768 23.7953L230.87 23.7961C229.907 23.856 228.584 23.8208 228.379 23.7916C228.181 23.7628 229.051 23.3095 227.049 23.4513C227.158 23.5918 227.267 23.7322 227.376 23.8726C226.463 23.6786 223.997 23.9156 223.581 23.8674C223.389 23.845 222.368 22.7123 221.431 23.6043C221.319 23.4638 221.206 23.3234 221.094 23.183C220.057 23.3489 219.022 23.5148 217.991 23.6807C217.826 23.4278 217.666 23.175 217.497 22.9221C217.162 22.9213 216.827 22.9205 216.492 22.9197C216.714 23.1443 216.935 23.369 217.157 23.5937C215.087 23.4871 212.581 23.8344 212.162 23.0775C211.723 23.2166 211.284 23.3556 210.846 23.4947C210.562 23.2425 210.278 22.9904 209.995 22.7383C207.974 22.7968 207.942 22.9648 206.566 23.2295C206.621 23.0333 206.675 22.8372 206.729 22.641C205.721 22.9142 203.858 23.1663 202.362 23.1974C201.654 23.2117 200.444 22.9384 200.278 22.9625C200.109 22.9879 198.459 24.0467 198.283 23.1262C195.863 23.528 194.809 23.1093 193.836 23.1172C193.204 23.1226 192.915 23.3427 192.204 23.3639C191.165 23.3944 190.11 23.2852 189.511 23.299C189.168 23.3075 189.103 23.5228 188.867 23.529C187.75 23.5593 188.404 23.3407 187.229 23.3524C187.12 23.3546 186.261 23.6153 185.298 23.5794C184.759 23.5595 183.371 23.2608 183.25 23.2612C182.708 23.2651 183.137 23.8568 181.291 23.1704C181.345 23.2828 181.398 23.3952 181.451 23.5076C179.182 23.7874 178.777 23.2858 178.313 23.25C178.253 23.2471 177.685 23.4393 177.346 23.4119C176.773 23.3651 176.543 23.0995 176.416 23.0876C175.97 23.046 174.47 23.1592 173.497 22.9009C173.697 23.6555 170.29 23.9161 169.547 23.0606C168.947 23.2278 168.355 23.3949 167.749 23.562C167.472 23.4208 167.194 23.2796 166.917 23.1383C166.748 23.2781 166.58 23.4179 166.411 23.5576C165.519 23.2471 164.631 22.9366 163.746 22.6261C163.688 22.935 163.631 23.244 163.574 23.5529C163.326 23.5172 163.079 23.4816 162.831 23.4459C162.639 23.1999 162.446 22.9538 162.254 22.7078C161.945 22.754 161.636 22.8002 161.328 22.8464C161.252 23.024 161.175 23.2016 161.098 23.3791C159.447 23.5805 160.29 21.8871 157.161 23.3707C156.677 23.2296 156.191 23.0884 155.689 22.9472C155.123 23.628 154.071 23.2128 153.225 23.2877C152.629 23.3405 152.66 23.6115 151.85 23.6158C151.041 23.6201 151.071 23.361 151.008 23.3592C150.35 23.3419 149.854 23.5693 149.374 23.5228C149.301 23.5159 149.12 23.2078 148.509 23.187C147.898 23.1663 147.529 23.4928 146.623 23.4292C146.16 23.3969 146.026 23.1374 145.616 23.1136C143.627 22.9979 141.588 24.3066 140.107 22.7464C139.768 22.943 137.34 23.6287 136.312 23.5869C134.712 23.5203 135.33 23.2161 134.695 23.1589C134.608 23.1503 134.112 23.2524 132.733 23.2312C132.487 23.2273 132.543 23.3999 132.508 23.4021C130.901 23.3955 127.821 23.2533 126.102 23.2255C125.948 23.2226 125.144 23.7018 123.784 23.0525C121.696 23.5261 117.827 22.4926 115.173 23.2076C114.804 23.2221 114.358 23.0493 114.196 23.0549C112.778 23.1055 113.272 23.6284 110.033 22.8582C110.295 23.1249 109.535 23.3638 108.472 23.3417C106.877 23.3083 108.009 22.8139 106.732 22.8522C106.732 22.9923 106.731 23.1324 106.731 23.2726C103.827 22.8904 103.186 23.4883 100.203 23.4864C99.1289 23.4854 97.562 23.1721 97.3106 23.1708C97.2123 23.1715 96.0581 23.5073 95.9491 23.5097C95.3256 23.5188 95.0006 23.3624 94.4376 23.3606C92.605 23.3541 90.4624 23.7899 90.8518 22.9926C90.3572 23.1602 89.8645 23.3278 89.3736 23.4954C87.5196 22.6401 86.1663 23.8123 85.7743 22.984C85.4333 23.1543 85.0933 23.3246 84.7542 23.495C76.7757 23.3952 68.7218 23.2961 60.796 23.1978C60.4583 23.4636 56.9549 23.3639 56.7899 23.3223C55.9804 23.1334 56.831 22.5539 55.1891 22.6842C55.0076 22.9384 54.8266 23.1925 54.646 23.4466C52.5181 23.5264 53.5357 23.2747 52.6939 23.101C52.3416 23.1319 52.4545 23.3295 51.9798 23.3432C49.4545 23.4182 44.1536 23.4202 41.4627 23.4327C40.9248 23.4354 40.9866 23.2509 40.8121 23.2502C40.3163 23.2513 39.3449 23.4826 38.3799 23.4814C32.4508 23.472 23.9994 23.3306 18.0058 23.1289C17.598 23.115 17.5492 22.8948 17.2782 22.8835C16.8963 22.8688 16.0979 23.0459 15.6943 23.0269C15.2955 23.0095 15.0436 22.8421 14.6298 22.8221C12.7946 22.7289 10.2857 23.0089 8.34001 22.5142C8.12229 22.4724 6.14178 21.5845 6.08706 21.5263C5.82107 21.1811 7.69069 20.6409 4.59244 20.1334C7.38329 19.6954 6.40543 18.9158 2.93415 18.5325C4.76456 18.4358 6.442 18.3392 8.22618 18.2427C8.22891 18.1504 8.23164 18.0582 8.23437 17.9659C6.60288 17.507 5.08399 17.3534 2.61012 17.3091C2.68065 17.2237 2.75258 17.1383 2.82591 17.0529C5.01667 16.6278 7.52179 16.5512 9.24395 15.9703C6.73269 15.5368 4.50278 15.1036 2.03466 14.6705C2.18201 14.6033 2.29587 14.536 2.39851 14.4687C3.46573 14.2945 6.14468 14.1941 6.99375 14.0317C10.6481 13.4129 3.79024 13.5632 4.91439 13.1847C8.7825 13.2017 12.6005 13.2192 16.5063 13.237C16.5679 12.9572 1.86307 12.171 1.96135 11.3278C2.61634 11.3 3.09515 11.2721 3.79586 11.2443C4.40942 11.2165 4.93621 11.1887 5.58694 11.1609C5.01886 10.9461 4.4933 10.7313 4.01065 10.5165C4.14375 10.4488 4.28011 10.381 4.41971 10.3133C6.48027 10.1485 8.59965 9.98401 10.5345 9.8194C7.48891 9.90011 5.119 9.90949 3.47834 9.68768C3.02846 9.63219 2.66046 9.56228 2.35123 9.47544C2.01721 9.38858 1.60948 9.28467 1.35507 9.16141C1.21985 9.09977 1.10151 9.03328 0.996862 8.96161C0.841306 8.8899 0.682978 8.81301 0.567273 8.73066C0.448321 8.6483 0.354486 8.56047 0.279827 8.46685C0.268271 8.42006 0.143344 8.37173 0.0859666 8.32196C0.0552584 8.29708 0.0334755 8.27183 0.0200494 8.2462C0.0133569 8.23339 0.00868239 8.22048 0.00636719 8.20749C0.00536783 8.20099 0.00424659 8.19446 0.00614885 8.18792C0.00689809 8.18629 0.00720973 8.18465 0.0111885 8.18302C0.0155379 8.18223 0.0095026 8.18131 0.0386761 8.18074C0.0611302 8.18128 0.0195836 8.17837 0.175358 8.18397C0.204256 8.18546 0.23574 8.18631 0.329183 8.19411C0.379832 8.19895 0.438378 8.20277 0.588748 8.22563C0.667987 8.23878 0.765365 8.25282 0.96675 8.30463C1.06983 8.33236 1.19904 8.36762 1.40611 8.44908C1.61588 8.54034 1.90048 8.63653 2.41214 9.04188C2.85816 9.39322 3.9188 10.4969 3.79452 12.2754C3.61669 14.0161 2.63536 14.7536 2.23787 15.0634C1.34131 15.6558 1.13862 15.5961 0.927385 15.6762C0.568397 15.7609 0.498029 15.7561 0.410574 15.7688C0.264396 15.7839 0.230206 15.7838 0.192041 15.7862C0.0744507 15.7916 0.0803427 15.7902 0.0598619 15.7909C0.0145973 15.7919 0.0214079 15.7921 0.0143155 15.7926C-0.00481463 15.7959 0.00287762 15.7992 0.000491072 15.8025C0.00157211 15.8032 -0.000672575 15.8038 0.00833804 15.8045C0.0190843 15.8045 -0.00997743 15.8053 0.0673043 15.8044C0.0906544 15.8036 0.0828261 15.8056 0.218132 15.7988C0.262625 15.7956 0.300673 15.7961 0.4758 15.7753C0.582951 15.7564 0.660003 15.7687 1.12322 15.6362C1.24794 15.5968 1.40534 15.5467 1.65761 15.4267C1.90879 15.2938 2.27471 15.1414 2.8343 14.5461C3.38038 14.034 4.12936 12.4211 3.69025 10.9992C3.28126 9.6176 2.54523 9.12836 2.1824 8.85044C1.40356 8.34853 1.18276 8.3669 0.979533 8.29332C0.793351 8.24476 0.696494 8.22939 0.618448 8.21598C0.469004 8.1921 0.407102 8.18741 0.354607 8.18207C0.256925 8.17326 0.222613 8.17213 0.191675 8.17038C0.0230036 8.16347 0.0670362 8.1666 0.042651 8.16568C0.0235268 8.16539 0.0220258 8.16534 0.0180829 8.16523C0.00759921 8.16485 0.00879032 8.16453 0.00714555 8.16419C0.00403668 8.16284 0.0052715 8.1615 0.0058069 8.16015C0.0073931 8.15747 0.0110125 8.15479 0.0161301 8.15211C0.0264163 8.14674 0.0430672 8.14139 0.0659135 8.13603C0.102493 8.12532 0.212623 8.11465 0.250048 8.10394C0.306994 8.0825 0.373736 8.06106 0.45023 8.03963C1.89515 9.0965 8.17385 8.7604 11.5538 8.55335C10.8069 8.24328 7.89666 8.47944 7.23992 8.29288C7.0643 8.2394 7.67755 8.02527 7.2701 7.91499C6.294 7.62828 1.54408 7.25664 2.31093 6.90731C2.7135 6.6826 10.1054 6.38071 11.5559 6.40595C8.2248 5.99855 4.74509 5.87842 1.28494 5.38458C3.39793 4.70144 5.34194 3.86502 9.25838 3.83153C10.4742 3.47327 2.10688 2.96796 1.97156 2.77191C2.70065 2.66727 3.37047 2.5626 4.13924 2.45803C4.7836 2.35336 5.53097 2.24879 6.29739 2.14426C4.97243 2.19922 3.86468 2.25442 2.62513 2.30956C2.6219 2.23925 2.61867 2.16893 2.61544 2.09862C5.72289 1.77483 8.6011 1.1785 12.2517 1.22272C12.1355 0.850607 9.87982 0.88538 8.95203 0.88113ZM352.308 23.7797C352.379 24.0888 351.062 24.0272 350.315 24.0149C350.427 24.072 350.538 24.1291 350.65 24.1862C349.062 24.1146 346.13 23.9704 346.009 24.5679C344.874 24.6322 345.378 24.1161 345.015 24.0536C344.874 24.0287 343.407 24.3184 342.229 23.939C341.949 23.9379 341.668 23.9367 341.386 23.9356C341.33 24.1314 341.274 24.3272 341.218 24.5229C340.829 24.281 340.432 24.0391 340.05 23.7972C344.15 23.7935 348.206 23.7876 352.302 23.7797C352.304 23.7797 352.306 23.7797 352.308 23.7797ZM311.629 23.6343C310.122 23.5072 307.88 23.3076 308.326 23.8501C309.264 23.8321 310.186 23.8139 311.138 23.796C311.302 23.7421 311.466 23.6882 311.629 23.6343ZM163.921 22.124C162.676 21.5921 161.53 22.0474 159.623 21.9478C159.626 22.0596 159.628 22.1714 159.63 22.2832C160.409 22.0164 162.477 22.1995 163.921 22.124ZM389.21 21.9833C389.483 22.0258 389.757 22.0682 390.031 22.1107C388.914 22.7079 388.721 22.2836 387.461 22.3372C387.386 22.3405 387.411 22.4782 387.385 22.479C387.077 22.487 386.792 22.3203 386.514 22.3217C385.978 22.3247 385.534 22.4907 384.588 22.4808C383.854 22.4725 383.848 22.2086 383.59 22.2142C383.374 22.2198 381.177 22.9356 379.783 22.6152C377.115 22.0062 388.4 21.9271 389.21 21.9833ZM397.123 22.5029C396.859 22.5047 396.595 22.5065 396.331 22.5084C397.126 22.1047 395.525 22.1626 394.347 22.1679C394.385 21.7792 396.873 21.9519 397.984 21.8382C397.697 22.0598 397.41 22.2813 397.123 22.5029ZM363.743 21.5082C364.781 21.4759 364.604 21.9601 364.56 22.1043C364.23 22.102 363.9 22.0997 363.57 22.0973C363.628 21.901 363.686 21.7046 363.743 21.5082ZM371.513 21.3913C371.193 21.7191 368.951 21.8492 367.881 21.8691C367.835 21.8689 368.127 21.6899 367.378 21.7017C367.155 21.7056 364.932 22.3488 365.425 21.605C367.449 21.5345 369.487 21.4633 371.51 21.3913C371.511 21.3913 371.512 21.3913 371.513 21.3913ZM373.778 21.5997C373.354 21.7007 372.93 21.8017 372.505 21.9027C372.286 21.7466 372.071 21.5905 371.854 21.4344C372.331 21.3982 372.817 21.3621 373.298 21.3259C373.458 21.4172 373.618 21.5084 373.778 21.5997ZM56.2135 19.324C56.3101 19.4897 56.4067 19.6553 56.5036 19.821C56.8755 19.923 58.7258 19.205 58.1406 19.0646C57.4932 19.1511 56.8508 19.2375 56.2135 19.324ZM48.4204 18.9658C48.0395 18.8817 47.6888 18.7978 47.2838 18.7137C46.8273 18.9938 46.3738 19.274 45.9235 19.5541C47.9401 19.7462 49.8547 19.967 49.555 19.1387C49.9893 19.1393 50.4263 19.1399 50.866 19.1406C50.4966 19.4824 50.5415 19.5952 51.6984 19.8141C51.9488 19.3381 53.1641 19.5825 54.5484 19.4798C53.5488 19.4505 52.5222 19.4212 51.5294 19.392C51.5295 19.308 51.5296 19.224 51.5297 19.14C53.7632 19.1736 50.9751 18.6369 49.5612 18.9688C49.4494 18.8568 49.3378 18.7449 49.2263 18.6329C48.9567 18.7439 48.688 18.8548 48.4204 18.9658ZM208.057 19.4451C207.785 19.36 207.513 19.2748 207.242 19.1897C206.187 20.2873 208.33 19.2489 209.863 20.1233C209.357 19.4606 211.699 19.494 211.834 19.4499C211.565 19.2265 211.295 19.0032 211.026 18.7799C210.033 19.0016 209.044 19.2233 208.057 19.4451ZM200.291 18.6677C201.241 19.2186 196.565 19.2412 195.019 19.1167C194.641 19.0861 193.97 18.7832 193.698 18.8206C193.533 18.9316 193.368 19.0425 193.203 19.1534C193.029 18.7683 189.938 19.1937 188.727 19.3979C188.613 19.2575 188.499 19.1171 188.385 18.9767C187.944 19.0314 187.503 19.086 187.063 19.1407C187.119 19.0012 187.175 18.8616 187.23 18.7221C186.897 18.8893 186.564 19.0565 186.231 19.2237C184.928 19.4076 185.732 18.6481 184.755 18.8834C183.669 19.1447 185.446 19.6021 185.413 19.8971C186.294 19.823 188.309 19.6574 189.214 19.651C189.733 19.6477 189.14 20.1749 191.385 19.5725C191.88 19.7153 192.364 19.858 192.843 20.0007C193.725 19.7777 194.61 19.5547 195.498 19.3317C195.663 19.5278 195.828 19.724 195.994 19.9202C196.087 19.9511 198.148 19.5114 198.039 19.364C198.873 19.7403 200.593 19.811 202.417 19.8344C202.593 19.7283 202.769 19.6223 202.945 19.5163C201.18 19.742 202.384 19.4023 201.859 19.1973C201.555 19.0791 200.63 18.846 200.291 18.6677ZM68.4206 18.9132C65.44 19.3862 67.2677 18.9949 64.1018 18.99C64.3211 19.2433 64.5408 19.4965 64.761 19.7498C66.3085 19.29 68.9296 19.6014 68.4237 18.9132C68.4227 18.9132 68.4217 18.9132 68.4206 18.9132ZM37.3222 19.7097C38.9984 19.5588 38.1431 19.1644 40.3157 19.0412C40.3167 19.0412 40.3178 19.0412 40.3188 19.0412C39.1877 19.0114 38.079 18.9816 36.9931 18.9519C37.1026 19.2045 37.2122 19.4571 37.3222 19.7097ZM135.569 19.5675C137.16 19.6806 136.847 19.4831 138.3 19.8791C140.471 19.4067 138.633 19.4704 138.634 19.0375C138.138 19.1635 137.643 19.2894 137.149 19.4154C135.955 19.0082 137.089 18.8067 137.089 18.7678C137.088 18.7678 137.087 18.7678 137.086 18.7678C137.086 18.6379 137.125 18.6106 136.667 18.5311C136.3 18.8766 135.934 19.222 135.569 19.5675ZM142.449 19.0467C141.891 19.333 141.639 19.7016 143.105 19.8888C143.106 19.8889 143.107 19.8889 143.108 19.8889C143.225 19.2467 144.639 19.7681 145.278 19.7263C145.442 19.6568 145.606 19.5874 145.77 19.5179C144.694 19.3609 143.55 19.2037 142.449 19.0467ZM166.76 18.5078C166.765 19.2174 165.53 19.2823 167.266 19.94C167.603 19.928 167.945 19.9161 168.269 19.9041C168.485 19.7488 168.701 19.5935 168.917 19.4382C173.097 20.7316 174.362 18.5477 167.267 19.3497C167.266 19.3502 167.265 19.3506 167.264 19.3511C167.096 19.07 166.928 18.7889 166.76 18.5078ZM159.302 18.5517C159.248 18.9241 159.194 19.2966 159.14 19.669C158.205 18.7683 157.062 19.6233 155.191 18.9853C155.023 19.0982 154.855 19.2112 154.687 19.3241C153.979 19.0733 147.272 18.9875 148.726 19.5635C149.356 19.8151 150.739 19.4781 150.858 19.4859C151.262 19.5149 151.788 19.8361 152.473 19.8189C152.868 19.8086 153.704 19.4341 154.517 19.4365C156.375 19.4421 159.554 20.4589 161.933 19.508C162.103 19.6207 162.272 19.7333 162.442 19.846C164.199 19.7813 163.612 19.4242 165.254 19.8521C166.379 18.085 158.685 19.9252 160.292 18.4938C160.291 18.4938 160.29 18.4938 160.289 18.4938C159.96 18.5131 159.631 18.5324 159.302 18.5517ZM111.043 18.9857C110.934 18.6677 108.893 19.1543 109.374 18.3937C108.709 18.6576 108.046 18.9216 107.386 19.1855C107.391 19.2563 107.396 19.3271 107.401 19.3979C108.057 19.3434 108.715 19.289 109.375 19.2345C109.378 19.3468 109.38 19.4592 109.382 19.5715C110.35 19.167 114.548 19.3517 114.378 19.7492C114.594 19.5816 114.81 19.414 115.026 19.2465C116.96 19.7075 118.641 19.2243 120.792 19.6748C120.959 19.536 121.126 19.3972 121.293 19.2583C121.402 19.3708 121.51 19.4833 121.619 19.5958C122.404 19.6115 123.2 19.6272 123.985 19.6429C126.503 19.1955 121.577 18.6006 120.961 18.6659C120.881 18.6751 120.892 18.9658 120.393 19.0105C119.485 19.0889 114.621 18.7903 113.083 18.9792C113.07 18.7863 113.057 18.5934 113.044 18.4005C112.374 18.5956 111.707 18.7906 111.043 18.9857ZM176.162 19.2873C176.274 19.4839 176.385 19.6804 176.497 19.8769C178.432 19.6852 179.661 19.8594 179.163 19.2091C179.162 19.2091 179.161 19.2091 179.16 19.2091C178.157 19.2352 177.158 19.2612 176.162 19.2873ZM318.942 20.5928C318.896 20.2021 317.983 20.0465 316.787 20.3135C316.843 20.4274 316.899 20.5412 316.956 20.6551C317.579 20.3295 318.351 20.9169 320.248 20.86C320.25 20.6637 320.252 20.4675 320.254 20.2712C319.818 20.3784 319.38 20.4856 318.942 20.5928ZM174.498 19.1986C173.911 18.9659 172.269 19.6644 173.349 19.7014C174.175 19.7295 174.813 19.3236 174.498 19.1986ZM30.7295 19.322C31.1531 19.3635 31.5809 19.4051 32.0129 19.4466C32.2382 19.2799 32.4646 19.1132 32.6921 18.9465C32.6911 18.9465 32.6901 18.9465 32.6891 18.9465C32.0263 19.0716 31.3731 19.1968 30.7295 19.322ZM130.036 19.5887C131.512 19.5672 133.009 19.5458 134.496 19.5243C134.511 19.4155 134.526 19.3066 134.54 19.1978C133.053 19.5921 132.446 19.1627 132.1 19.1358C132.102 19.1358 132.104 19.1358 132.105 19.1358C130.989 19.0474 129.932 18.9819 128.888 18.8497C129.27 19.096 129.652 19.3424 130.036 19.5887ZM125.016 18.892C125.261 19.6618 125.573 19.7519 127.824 19.2153C127.735 19.1204 127.646 19.0255 127.557 18.9306C126.391 18.9849 125.716 19.1612 125.92 18.7604C125.618 18.8043 125.317 18.8481 125.016 18.892ZM148.06 19.1842C147.79 18.9388 145.66 19.1803 145.777 19.304C145.819 19.3531 148.583 19.6655 148.06 19.1842ZM335.301 20.5893C334.808 20.5284 334.314 20.4674 333.819 20.4064C334.481 20.3294 335.134 20.2523 335.796 20.1752C335.629 20.3132 335.465 20.4513 335.301 20.5893ZM340.764 19.547C341.119 19.6483 339.957 20.3293 342.081 20.5274C340.527 20.5278 339.004 20.5281 337.459 20.528C338.184 20.4231 338.906 20.3182 339.626 20.2131C339.502 20.0132 339.379 19.8133 339.255 19.6134C339.759 19.5913 340.253 19.5691 340.764 19.547ZM342.42 20.0691C341.601 19.536 345.949 19.536 346.368 19.6037C346.459 19.6198 346.888 20.0222 347.046 20.1092C346.386 20.1039 345.721 20.0985 345.059 20.093C345.278 20.2205 345.501 20.348 345.721 20.4754C344.938 20.5114 344.182 20.5476 343.408 20.5835C343.739 20.4605 344.069 20.3376 344.399 20.2145C343.741 20.1661 343.082 20.1177 342.42 20.0691ZM324.889 20.0251C325.436 20.0439 325.988 20.0628 326.545 20.0816C326.436 19.8842 326.327 19.6868 326.218 19.4894C325.884 19.486 325.553 19.4826 325.226 19.4792C325.114 19.6612 325.001 19.8431 324.889 20.0251ZM336.143 19.8841C335.321 20.8213 333.171 18.7342 335.709 19.5239C335.968 19.6042 336.221 19.7935 336.143 19.8841ZM348.007 19.7309C349.725 19.0567 349.327 20.5747 347.712 20.115C347.631 20.0906 347.877 19.7807 348.007 19.7309ZM360.884 19.8131C361.023 19.8193 361.265 20.3137 362.593 19.855C362.811 19.9127 363.029 19.9704 363.246 20.0281C362.741 20.2537 358.339 20.3569 358.95 19.8733C359.625 19.8708 360.189 19.7928 360.884 19.8131ZM356.649 17.9584C355.99 17.9669 355.329 17.9753 354.666 17.9836C354.884 18.1397 355.101 18.2957 355.318 18.4518C354.992 18.4911 354.664 18.5305 354.341 18.5699C353.792 18.2993 353.243 18.0287 352.692 17.758C354.116 17.7273 355.557 17.6965 356.988 17.6652C356.875 17.763 356.762 17.8607 356.649 17.9584ZM339.141 17.4253C340.391 17.6307 341.971 17.4394 344.018 17.4909C344.019 17.4914 344.02 17.4919 344.021 17.4924C344.123 17.4955 344.303 17.7091 344.631 17.7205C344.911 17.7301 350.474 17.5459 350.034 17.9012C347.89 18.2049 347.089 17.7081 346.564 18.5024C346.461 18.333 346.357 18.1637 346.253 17.9943C344.175 17.6841 343.6 18.262 342.432 18.4652C342.437 18.3383 342.443 18.2114 342.449 18.0845C341.674 18.0647 340.888 18.0447 340.116 18.0248C340.224 18.1093 340.331 18.1938 340.439 18.2783C340.167 18.2758 339.895 18.2732 339.622 18.2707C338.96 17.8883 338.115 17.7926 339.141 17.4253ZM359.631 18.191C360.254 17.2331 366.178 17.9358 368.889 17.7507C367.453 18.3213 365.269 17.9069 363.705 17.8898C360.713 17.8574 362.779 18.2271 362.27 18.379C362.02 18.4541 360.323 17.8242 359.631 18.191ZM334.51 17.5494C335.988 17.6415 336.851 17.4281 338.137 17.7937C338.028 17.863 337.919 17.9323 337.81 18.0016C337.365 17.9331 333.753 17.695 334.51 17.5494ZM372.858 18.0274C369.973 17.6641 371.393 18.5446 369.895 17.8817C370.886 17.8465 371.865 17.811 372.859 17.7755C372.859 17.8594 372.858 17.9434 372.858 18.0274ZM171.209 15.5689C170 15.5442 168.657 15.3655 167.94 15.7272C168.755 15.7852 169.572 15.8431 170.391 15.9011C170.664 15.7903 170.936 15.6796 171.209 15.5689ZM205.942 12.0999C205.665 12.0121 204.588 12.2665 204.461 12.2662C204.243 12.2657 204.303 12.1392 204.3 12.1062C202.875 12.1257 204.188 12.5215 203.135 12.6043C202.954 12.618 200.487 12.418 199.491 12.4316C197.955 12.4525 196.432 12.4235 195.863 12.4289C194.897 12.4377 193.139 12.7281 191.544 12.7396C190.881 12.7438 190.651 12.5075 189.987 12.5119C185.71 12.5417 177.47 12.8467 173.679 12.6887C172.753 12.6495 171.875 12.3387 171.388 12.3628C171.004 12.4748 170.62 12.5867 170.237 12.6987C169.058 11.6807 168.687 12.583 167.393 12.6748C166.568 12.7329 166.185 12.4312 166.074 12.4317C165.343 12.4361 164.982 12.5785 164.41 12.601C163.767 12.6258 162.848 12.4881 162.619 12.5121C162.48 12.5283 162.922 12.929 160.452 12.9161C157.946 12.9029 155.473 12.8554 152.871 12.8312C153.73 14.0401 154.476 13.2155 155.538 13.1737C155.824 13.1625 155.642 13.3538 155.891 13.3458C156.601 13.3245 157.887 13.1389 158.459 13.1858C159.071 13.2363 158.86 13.6801 159.639 13.5179C159.678 13.5095 159.554 13.3258 159.737 13.2955C161.581 12.9959 162.184 13.3163 164.538 13.3307C166.157 13.3409 175.477 13.1794 175.835 13.2999C177.495 13.9461 167.648 13.9286 166.449 13.8754C166.038 13.8567 166.469 13.655 166.095 13.6153C165.936 13.5995 164.509 13.9826 163.111 14.0117C161.415 14.0469 158.047 13.7762 156.468 13.7821C142.627 13.833 128.992 13.5723 115.191 13.5414C114.898 13.5408 114.528 13.7716 113.568 13.7698C95.574 13.7321 77.0787 13.5183 58.9358 13.6006C55.0276 13.6185 51.0088 13.8304 47.1093 13.6526C46.5995 13.8208 46.0936 13.9891 45.5916 14.1573C46.9066 14.0248 49.1837 14.4101 49.3908 14.416C49.4661 14.4178 49.9382 14.2279 50.7106 14.2391C51.7979 14.2542 52.2852 14.4201 52.3749 14.4202C52.6557 14.4211 52.4718 14.2452 52.7404 14.2464C54.8016 14.2569 56.2019 14.2091 58.0323 14.2101C60.0622 14.2115 61.2106 14.5404 62.6296 14.1833C62.7945 14.3236 62.9598 14.464 63.1253 14.6044C64.1854 13.9999 70.8953 14.0773 73.5248 14.1137C74.3733 14.1252 74.225 14.3711 74.5111 14.3716C74.6967 14.3716 74.6128 14.0492 76.8704 14.1161C78.0107 14.1501 78.2619 14.3852 78.82 14.3785C79.1192 14.3745 79.0707 14.1417 79.5016 14.1423C81.9871 14.1464 84.1109 14.2255 86.5807 14.2727C87.2626 14.2857 87.2708 14.48 87.4238 14.4777C87.988 14.47 88.9704 14.1426 90.4259 14.1459C92.8487 14.1517 97.6025 14.1612 99.5526 14.3244C99.8405 14.3486 100.079 14.5821 100.292 14.5791C100.614 14.5737 100.741 14.3307 100.797 14.3295C101.877 14.3272 101.227 14.5522 101.952 14.4986C102.344 14.4697 102.752 14.193 103.668 14.1633C104.869 14.124 104.615 14.4528 105.108 14.4208C105.16 14.4157 105.176 14.1868 105.656 14.1801C107.478 14.1563 110.16 14.1083 111.934 14.1124C112.443 14.1134 112.822 14.2682 113.536 14.2722C114.909 14.2797 122.933 14.1967 123.636 14.2869C123.704 14.2963 122.989 14.6327 124.129 14.6247C124.454 14.4847 124.78 14.3448 125.106 14.2048C125.65 14.4309 126.197 14.6571 126.744 14.8832C126.722 14.1054 129.965 13.9917 129.936 14.7869C130.292 14.8198 130.65 14.8528 131.008 14.8857C131.755 14.3377 132.251 14.5415 133.705 14.2216C133.931 14.3905 134.16 14.5594 134.384 14.7283C134.439 14.6161 134.494 14.5039 134.55 14.3918C135.3 15.0018 136.54 14.3933 136.691 14.3902C137.271 14.3778 137.708 14.5334 137.981 14.529C138.999 14.515 141.221 14.3063 142.431 14.4076C142.487 14.4128 142.431 14.6729 142.775 14.7057C143.395 14.765 143.456 14.3842 144.286 14.8333C144.454 14.7214 144.622 14.6094 144.791 14.4974C144.968 14.5559 145.151 14.6144 145.321 14.6728C146.341 14.6452 147.366 14.6175 148.396 14.5898C147.459 15.0284 148.534 15.2766 149.556 14.9321C149.903 14.8153 149.596 14.5465 149.712 14.5062C149.863 14.4515 154.533 14.5978 154.852 14.7718C155.075 14.6878 155.298 14.6038 155.522 14.5198C155.634 14.689 155.747 14.8582 155.859 15.0274C155.983 14.9686 156.106 14.9097 156.23 14.8509C157.425 15.151 160.539 14.4752 161.111 14.5303C161.415 14.5597 161.139 15.2792 162.598 15.2088C162.649 15.0111 162.701 14.8135 162.752 14.6159C163.086 14.5883 163.421 14.5607 163.757 14.5331C164.386 14.5521 165.305 14.8968 165.334 15.1312C165.532 14.991 165.73 14.8508 165.928 14.7106C166.468 15.17 169.274 15.0137 170.384 14.7263C170.71 14.8652 171.038 15.0041 171.365 15.143C171.806 14.976 172.248 14.809 172.69 14.642C173.715 14.5937 172.632 14.8705 172.85 14.8943C173.31 14.9435 175.676 14.4771 175.52 15.0643C175.843 15.0665 176.167 15.0687 176.491 15.0709C176.658 14.9033 176.825 14.7357 176.992 14.5681C177.542 15.1485 178.531 14.9462 180.483 15.1619C180.645 15.029 180.808 14.8961 180.971 14.7631C181.57 14.9539 182.17 15.1447 182.772 15.3356C182.896 15.1151 183.02 14.8947 183.144 14.6743C183.406 14.6432 183.668 14.612 183.931 14.5809C184.463 15.0765 185.424 14.5445 185.913 14.7495C186.628 15.0487 186.072 15.4021 184.749 15.4675C184.843 15.8278 188.801 15.6715 189.725 15.6474C189.665 15.577 189.604 15.5065 189.543 15.4361C188.604 15.4895 187.667 15.543 186.734 15.5966C185.953 14.6893 188.488 14.938 189.661 14.824C189.768 14.8131 190.375 14.4715 191.56 14.5062C192.036 14.52 193.761 15.0254 194.101 15.0541C196.805 15.2894 194.814 14.5683 197.469 15.2026C196.916 14.7203 198.442 15.1236 200.042 15.0344C200.313 15.0192 202.631 14.6347 202.79 14.6249C203.769 14.5647 202.701 14.9874 204.12 14.8801C204.29 14.7687 204.461 14.6573 204.632 14.5459C204.958 14.5466 205.278 14.5474 205.601 14.5482C207.559 15.5494 208.022 14.8167 208.722 14.7242C209.005 14.6868 208.64 14.9459 209.375 14.8927C209.652 14.873 209.959 14.6574 210.706 14.644C213.044 14.6025 213.84 15.5303 216.011 14.572C216.344 14.7125 216.677 14.853 217.011 14.9934C217.236 14.8265 217.464 14.6596 217.687 14.4927C219.369 14.9828 218.763 14.4836 219.372 14.491C220.978 14.5102 224.296 14.6138 224.588 15.0152C225.993 14.0982 227.677 15.1409 228.235 15.1064C228.566 14.9954 228.897 14.8845 229.229 14.7735C229.618 14.8868 230.008 15.0001 230.399 15.1134C230.329 14.7787 230.562 14.6903 230.893 14.7124L230.873 14.7123C231.436 14.7551 232.276 15.1207 232.398 15.1306C232.624 15.1467 235.708 14.9148 236.839 14.9329C237.954 14.9508 239.987 15.2193 240.155 15.2217C240.358 15.2241 242.311 15.001 243.818 15.0211C245.162 15.0393 253.013 15.4797 252.543 15.0713C252.027 14.9537 251.277 14.8482 250.656 14.7886C248.728 14.6054 237.078 14.2643 234.175 14.1667C233.09 14.1308 231.991 14.0999 230.88 14.0723L230.895 14.0724C225.912 13.9934 220.955 13.9837 216.08 13.8999C215.726 13.8939 215.673 13.6595 215.37 13.6535C214.909 13.6456 213.743 13.8772 213.292 13.871C211.603 13.8466 209.563 13.8034 208.668 13.7953C206.66 13.7786 205.331 13.6344 203.782 13.6078C203.299 13.5999 200.867 13.8845 199.216 13.7581C198.916 13.6914 198.617 13.6248 198.318 13.5582C199.167 13.4833 201.407 13.2895 202.453 13.2692C204.007 13.24 204.828 13.432 205.382 13.43C205.851 13.4286 208.265 13.218 209.371 13.2155C209.714 13.2147 209.784 13.4605 210.078 13.4604C211.671 13.4583 213.783 13.4569 215.181 13.2194C214.604 13.2967 218.192 13.4562 218.349 13.4558C218.664 13.4565 219.005 13.2274 219.648 13.229C220.884 13.2322 220.725 13.7127 222.278 13.2356C222.662 13.3766 223.046 13.5177 223.431 13.6588C223.451 13.0182 228.334 13.9019 229.742 13.1269C229.771 13.039 223.41 12.7735 222.898 12.7596C219.787 12.6749 215.138 12.8205 212.077 12.7006C211.157 12.6646 208.288 12.2682 208.074 12.2749C207.726 12.285 208.04 12.5086 207.889 12.5162C204.815 12.6744 206.351 12.2304 205.942 12.0999ZM342.445 17.0341C341.505 16.9992 340.546 16.9639 339.618 16.9288C339.687 16.7888 339.756 16.6488 339.825 16.5089C340.252 16.5676 340.684 16.6263 341.118 16.685C341.452 16.6041 341.785 16.5232 342.119 16.4423C342.227 16.6396 342.336 16.8369 342.445 17.0341ZM344.765 16.4663C345.575 16.4028 345.621 16.6997 345.808 16.7159C346.373 16.7649 346.862 16.6493 347.408 16.6583C346.776 17.3572 345.425 17.0223 344.765 16.4663ZM327.912 16.051C328.096 16.0866 329.319 16.8574 330.711 16.1657C331.763 16.4003 332.81 16.6348 333.851 16.8691C332.079 16.5094 329.609 16.8406 328.747 16.8183C328.417 16.8098 328.356 16.5764 328.092 16.57C326.568 16.5359 325.075 17.048 324.933 16.2755C326.356 16.5142 327.682 16.0073 327.912 16.051ZM337.09 16.4156C337.333 16.579 337.576 16.7425 337.818 16.9059C336.94 16.8976 336.045 16.889 335.172 16.8805C335.41 16.7197 335.647 16.5589 335.889 16.3982C336.29 16.404 336.691 16.4098 337.09 16.4156ZM269.427 15.1393C269.965 15.1475 270.503 15.1558 271.053 15.1641C271.026 15.0464 270.394 15.0395 270.171 14.9576C270.172 14.9576 270.173 14.9576 270.174 14.9576C269.923 14.865 270.033 14.7151 269.575 14.643C269.525 14.8084 269.476 14.9739 269.427 15.1393ZM44.9281 13.6525C44.0368 13.6428 35.6022 13.6309 36.3522 14.0601C36.6922 14.2745 39.5595 14.0917 40.4455 14.0962C41.6246 14.1021 44.6102 14.5693 44.9281 13.6525ZM30.0909 13.5499C29.8912 13.9764 35.2035 14.0509 35.7047 13.9773C35.5991 13.9163 35.4368 13.7806 35.2968 13.7497C34.5588 13.6017 31.1567 13.6678 30.0909 13.5499ZM239.064 13.5538C239.488 13.7745 239.911 13.9952 240.333 14.216C240.224 13.9339 240.116 13.6519 240.007 13.3699C239.693 13.4312 239.379 13.4925 239.064 13.5538ZM197.978 13.6878C191.01 13.6576 183.882 13.6275 176.843 13.5981C177.467 13.4828 178.094 13.3675 178.721 13.2522C184.724 13.3072 191.338 13.4406 197.11 13.2741C197.399 13.412 197.688 13.5499 197.978 13.6878ZM325.93 14.7666C324.134 14.744 322.628 14.9346 320.651 14.5858C322.54 14.2877 323.463 14.7892 325.276 14.3395C325.277 14.3395 325.278 14.3395 325.279 14.3395C325.496 14.4819 325.708 14.6242 325.93 14.7666ZM285.626 14.2373C286.177 14.0474 286.726 13.8574 287.273 13.6674C286.617 13.6599 285.959 13.6523 285.299 13.6447C285.408 13.8422 285.517 14.0398 285.626 14.2373ZM136.512 12.4621C134.696 12.8869 129.745 12.1017 128.239 12.6142C128.141 12.6478 129.049 12.8671 127.579 13.2853C128.688 13.2012 129.477 13.1148 129.561 12.7838C129.892 12.8967 130.224 13.0097 130.556 13.1227C131.108 13.0388 131.662 12.9549 132.217 12.8711C132.157 13.2007 132.2 13.1832 133.054 12.9591C133.444 13.0434 133.835 13.1277 134.226 13.2119C134.395 13.0726 134.549 12.9333 134.712 12.794C135.039 12.9899 135.367 13.1859 135.695 13.3819C136.978 13.1726 136.198 12.7926 136.512 12.4621ZM143.126 12.5561C142.788 12.4828 134.067 12.702 138.026 13.3675C139.055 13.3486 140.089 13.3297 141.128 13.3108C140.268 12.2201 143.102 13.1997 143.339 13.223C144.466 13.3317 145.88 13.0757 146.667 13.0907C147.35 13.1039 147.757 13.3001 148.24 13.2961C149.881 13.2826 152.506 13.281 152.871 12.8312C151.575 12.8191 150.267 12.8115 148.935 12.82C147.511 12.8289 146.347 12.4012 143.633 12.979C142.968 12.9149 143.206 12.5749 143.126 12.5561ZM288.924 13.7318C288.857 14.1836 292.207 14.1137 292.225 13.9351C292.234 13.8303 291.148 13.8204 290.992 13.7789C290.991 13.7789 290.99 13.7789 290.989 13.7789C290.925 13.7608 291.256 13.5913 290.744 13.5373C290.14 13.6021 289.533 13.667 288.924 13.7318ZM57.9905 12.6588C57.5679 12.4041 47.2234 12.4807 46.9483 12.6021C46.8635 12.6357 46.9816 12.7473 46.9481 12.8116C49.3225 12.4565 52.7604 12.8855 55.0638 12.9168C55.6866 12.9252 55.5013 12.745 55.5364 12.7417C55.5379 12.7417 55.5394 12.7417 55.5409 12.7417C55.8925 12.7417 57.5071 13.1837 57.9905 12.6588ZM124.962 12.8144C125.394 12.886 125.828 12.9577 126.262 13.0293C126.373 12.8894 126.483 12.7495 126.594 12.6095C126.593 12.6095 126.592 12.6095 126.591 12.6095C126.046 12.6778 125.503 12.7461 124.962 12.8144ZM109.731 12.3243C109.838 12.4231 109.945 12.5219 110.052 12.6207C111.162 12.6365 112.279 12.6522 113.404 12.668C113.291 12.7234 113.177 12.7789 113.064 12.8343C114.76 12.9863 115.404 12.6408 116.294 12.6924C116.293 12.6924 116.292 12.6924 116.291 12.6924C116.386 12.6984 116.5 12.9041 116.854 12.9117C117.661 12.9293 120.004 13.0102 120.291 12.804C120.887 12.3639 116.175 12.5644 115.32 12.5426C114.929 12.5326 114.459 12.3519 114.222 12.3472C113.966 12.3428 113.6 12.585 112.944 12.5763C112.751 12.5734 110.634 12.2838 109.731 12.3243ZM90.2266 12.5841C90.5665 12.807 91.2804 12.5935 91.5436 12.6303C91.6064 12.639 91.1175 12.8243 91.7098 12.8811C91.8777 12.7544 92.0458 12.6278 92.214 12.5011C91.5483 12.5288 90.8858 12.5564 90.2266 12.5841ZM294.542 13.5821C294.437 13.5332 292.656 13.5303 292.57 13.5596C291.495 13.9532 295.195 13.9514 294.542 13.5821ZM339.828 13.5968C339 12.9999 348.812 13.6689 349.742 13.6448C349.694 14.0151 347.375 13.6223 348.587 14.1417C347.431 13.8519 344.197 13.9717 343.45 13.8836C342.991 13.8304 342.878 13.5092 342.808 13.4984C342.541 13.4599 340.106 13.8073 339.828 13.5968ZM357.837 13.9629C356.91 13.8853 355.979 13.8077 355.044 13.7298C356.148 13.6967 357.247 13.6634 358.34 13.6298C358.173 13.7408 358.005 13.8519 357.837 13.9629ZM359.004 13.8034C358.978 13.444 362.144 13.7414 362.967 13.6643C362.031 14.2688 360.475 13.6812 359.004 13.8034ZM306.459 12.7887C304.999 12.5349 304.354 13.623 306.142 13.166C306.197 13.1508 306.52 12.8019 306.459 12.7887ZM136.07 10.9203C135.837 10.913 132.748 10.5518 132.556 10.7273C131.979 11.2871 134.049 11.0662 134.715 11.2794C135.794 11.6248 134.201 11.9044 136.844 11.7026C136.736 11.8147 136.627 11.9267 136.519 12.0388C138.069 12.0791 137.564 11.3002 137.843 11.2007C137.928 11.1705 138.902 11.2378 139.078 11.1885C141.279 10.5662 136.289 10.9259 136.07 10.9203ZM270.422 12.2929C267.55 11.9297 268.789 12.428 265.81 12.3637C265.715 12.6094 270.053 12.5051 270.422 12.2929ZM164.272 11.423C161.255 11.5136 158.821 11.1855 156.048 11.6133C156.222 12.2815 165.029 11.597 164.272 11.423ZM23.4607 10.5055C35.0991 11.7083 48.5265 11.3347 61.0094 11.3347C62.3944 11.3351 62.4761 11.6 62.9672 11.572C63.2825 11.5539 63.2275 11.3405 63.6479 11.3402C79.0484 11.3288 93.8138 11.0748 108.553 11.2294C109.455 11.2394 114.096 11.7061 115 11.0172C115.731 10.4946 112.496 10.8971 111.931 10.8913C111.519 10.8872 111.502 10.6409 111.228 10.6396C110.938 10.6382 111.177 10.8069 110.84 10.8088C109.413 10.818 107.871 10.7494 106.604 10.7615C94.049 10.8765 81.8273 10.8163 69.3847 10.7733C67.8422 10.7683 68.1597 10.5716 68.0821 10.5706C68.0811 10.5711 68.08 10.5716 68.079 10.5721C60.0358 10.541 50.6932 10.97 42.1326 10.7895C36.033 10.6456 30.0349 10.5024 24.0029 10.3597C23.8212 10.4083 23.6404 10.4569 23.4607 10.5055ZM142.459 11.629C141.702 10.8835 141.522 11.6332 138.821 11.3242C138.601 11.4507 138.381 11.5773 138.162 11.7038C139.586 11.6788 141.02 11.6539 142.464 11.629C142.462 11.629 142.461 11.629 142.459 11.629ZM124.61 11.3225C124.188 10.3169 118.024 11.0152 115.365 10.8186C114.867 11.3223 118.794 11.103 119.739 11.1579C120.196 11.185 122.751 11.7089 124.635 11.4251C124.627 11.3909 124.619 11.3567 124.61 11.3225ZM329.6 12.0207C329.162 12.0455 328.722 12.0704 328.282 12.0952C329.387 12.2178 330.461 12.3399 331.578 12.4623C329.813 12.373 328.08 12.2837 326.306 12.1938C326.638 11.9887 326.969 11.7836 327.3 11.5784C328.07 11.7259 328.837 11.8733 329.6 12.0207ZM323.9 12.0694C326.964 12.0225 323.764 12.5477 322.995 12.2914C322.536 12.1378 323.587 12.0746 323.9 12.0694ZM315.891 11.6259C317.347 11.2755 320.235 11.2809 319.2 12.001C317.664 11.6423 316.629 11.9159 314.401 11.6948C314.729 11.5582 315.057 11.4216 315.384 11.285C315.385 11.285 315.387 11.285 315.388 11.285C315.553 11.3986 315.723 11.5123 315.891 11.6259ZM325.304 11.6415C327.305 12.0822 321.494 11.8785 323.326 11.621C323.413 11.6093 325.227 11.6246 325.304 11.6415ZM36.3577 9.76535C36.1178 10.0039 37.6408 10.0014 38.1615 10.0182C40.4543 10.0921 43.2418 9.99189 45.6003 10.0281C45.4229 9.94921 45.246 9.87036 45.0695 9.79151C42.1875 9.7827 39.2201 9.7739 36.3577 9.76535ZM52.8839 10.0397C54.5582 10.0421 56.0516 10.0442 57.6606 10.0466C57.8087 10.0468 58.5085 9.84285 57.9886 9.79221C56.2615 9.87463 54.6764 9.95729 52.8839 10.0397ZM152.542 10.2173C151.309 10.0809 154.862 9.40268 154.704 10.1369C153.981 10.1637 153.26 10.1905 152.542 10.2173ZM163.942 9.94865C163.17 10.0168 162.4 10.085 161.633 10.1531C161.632 10.0687 161.631 9.98419 161.63 9.89971C162.399 9.91602 163.169 9.93233 163.942 9.94865ZM30.0957 9.58907C30.8754 9.87908 32.7951 9.83696 34.0422 9.84444C33.1818 9.595 31.1935 9.71464 30.0957 9.58907ZM134.226 9.88392C134.318 10.0811 129.4 10.0218 131.102 9.67852C132.138 9.74696 133.18 9.81543 134.226 9.88392ZM124.324 9.57301C125.352 9.5319 126.154 9.60113 125.94 9.91012C125.392 9.89587 124.846 9.88163 124.301 9.86739C124.308 9.76927 124.316 9.67114 124.324 9.57301ZM310.432 10.9778C308.685 10.9865 306.927 10.995 305.149 11.0031C305.216 10.9193 305.283 10.8356 305.35 10.7519C307.063 10.7435 308.756 10.7349 310.441 10.726C310.438 10.8099 310.435 10.8939 310.432 10.9778ZM29.0956 8.82909C27.8435 8.88276 26.63 8.93649 25.4554 8.99029C26.6309 9.0483 27.8453 9.10638 29.0983 9.16454C29.0984 9.05224 29.0986 8.93993 29.0987 8.82763C29.0977 8.82812 29.0966 8.82861 29.0956 8.82909ZM334.572 10.1348C329.21 9.68818 336.042 9.33906 337.48 9.93141C337.481 9.93093 337.483 9.93046 337.484 9.92999C337.608 9.98233 337.343 10.2272 337.549 10.329C337.002 10.212 336.453 10.0949 335.902 9.97778C335.399 10.1121 334.906 10.2465 334.406 10.3808C334.243 10.3245 334.08 10.2682 333.916 10.2119C334.135 10.1862 334.354 10.1605 334.572 10.1348ZM356.281 10.1084C361.15 10.192 356.165 10.7724 353.75 10.2638C353.763 10.1508 355.831 10.1006 356.281 10.1084ZM343.5 10.1326C342.733 10.1818 341.963 10.2308 341.189 10.2798C341.091 10.2081 340.993 10.1364 340.895 10.0647C341.489 9.99989 342.082 9.93504 342.673 9.87014C342.949 9.95763 343.225 10.0451 343.5 10.1326ZM318.24 8.78863C317.001 8.69762 315.419 9.46812 319.389 9.30327C319.387 9.21878 319.386 9.1343 319.385 9.04981C319.228 9.06164 318.764 9.13595 318.738 9.12938C318.666 9.10748 318.755 8.82634 318.24 8.78863ZM365.325 7.95055C365.464 7.91934 365.548 7.02901 366.982 7.9604C367.418 7.90719 367.849 7.85389 368.289 7.80064C368.401 7.99766 368.513 8.19468 368.625 8.3917C366.934 8.22842 366.759 8.62424 366.635 8.63189C366.074 8.66524 366.491 8.4638 366.129 8.45852C365.196 8.44547 363.059 8.56744 364.032 7.9913C364.382 7.78497 365.186 7.98173 365.325 7.95055ZM362.026 7.42023C362.23 7.4961 361.569 7.75191 361.723 7.8267C361.859 7.892 363.885 8.17252 363.333 8.60888C363 8.58795 362.667 8.56699 362.334 8.54601C362.222 8.42459 362.11 8.30317 361.998 8.18174C361.674 8.2907 361.349 8.39964 361.025 8.50855C360.481 8.20693 359.32 7.81265 360.703 7.58039C360.196 7.60199 359.687 7.62354 359.177 7.64504C358.913 7.78561 358.652 7.92619 358.389 8.06674C358.528 7.85052 358.667 7.6343 358.805 7.41808C359.877 7.41898 360.957 7.41974 362.026 7.42023ZM377.73 7.60339C377.667 7.71536 377.605 7.82733 377.542 7.9393C379.41 7.74064 382.296 7.67495 380.652 8.3712C378.136 8.4175 375.614 8.46238 373.09 8.50596C372.922 8.4205 372.755 8.33503 372.587 8.24955C374.472 8.5862 373.897 7.19792 375.529 7.60455C375.804 7.67343 375.004 8.15336 376.733 7.85291C376.672 7.73979 376.612 7.62666 376.551 7.51354C376.941 7.54351 377.337 7.57347 377.73 7.60339ZM393.721 7.83741C390.542 7.66571 394.042 7.26637 394.634 7.60848C394.633 7.60848 394.632 7.60848 394.631 7.60847C396.242 8.5451 392.774 8.08532 392.565 8.09037C392.284 8.09775 391.628 8.76334 390.1 7.78508C391.309 7.80289 392.516 7.82033 393.721 7.83741ZM383.324 7.63227C383.592 7.61149 383.443 7.78033 383.559 7.77833C383.56 7.77834 383.561 7.77834 383.562 7.77835C385.26 7.74994 389.325 7.6136 389.758 8.16182C388.5 8.20381 382.85 8.29844 382.51 7.92446C382.782 7.82708 383.053 7.72968 383.324 7.63227ZM371.322 7.97524C370.281 7.61465 372.626 7.58201 373.251 7.74961C373.368 7.78583 372.398 8.34876 371.322 7.97524ZM290.996 6.29186C288.683 6.47845 291.716 6.7258 290.662 7.04685C291.103 7.02358 291.543 7.0003 291.983 6.97699C291.654 6.74862 291.325 6.52025 290.996 6.29186ZM185.765 4.81339C185.228 4.7728 185.482 4.97673 185.435 4.97962C185.082 4.97315 184.751 4.80674 184.616 4.82394C182.121 5.15266 183.779 5.32723 183.804 5.367C183.856 5.56829 183.2 5.80219 184.108 6.03418C184.659 5.96415 185.212 5.89412 185.765 5.82411C186.04 5.93655 186.315 6.04899 186.59 6.16144C187.692 5.92408 186.25 5.85496 186.088 5.53628C186.025 5.41101 187.061 5.2636 185.765 4.81339ZM286.87 5.57067C286.494 5.91977 285.575 6.35501 286.468 6.72039C286.469 6.7204 286.47 6.72041 286.471 6.72042C286.636 6.78729 287.309 6.83076 287.515 6.92433C288.99 6.47044 288.435 5.97752 286.87 5.57067ZM195.706 4.20367C196.593 4.28827 197.484 4.37288 198.376 4.45751C198.36 4.66938 198.345 4.88125 198.329 5.09312C197.851 5.03487 197.375 4.97661 196.898 4.91837C196.731 5.01465 196.564 5.11093 196.397 5.20722C196.987 5.4503 197.578 5.69338 198.171 5.93648C198.885 5.85369 199.601 5.77092 200.319 5.68815C199.99 5.57556 199.66 5.46296 199.332 5.35037C201.084 5.23109 200.701 5.74548 202.156 5.94593C202.656 5.75084 203.156 5.55575 203.657 5.36067C204.385 5.55967 205.099 5.75864 205.805 5.9576C206.997 5.86832 207.103 5.71834 206.301 5.49152C206.894 5.23596 207.544 5.64173 208.261 5.53873C208.32 5.53043 208.209 5.28812 208.261 5.28532C211.974 5.13115 211.785 5.76633 212.379 5.79482C212.799 5.81442 214.487 5.38961 214.514 5.24342C214.549 5.04642 211.033 4.26059 216.541 4.2538C213.686 3.70918 210.475 4.2486 212.553 5.04234C211.652 4.96076 207.722 5.14801 207.476 5.12376C207.112 5.08716 207.241 4.78825 206.785 4.77933C206.508 4.77444 205.83 5.45677 203.658 4.85385C203.381 4.96549 203.103 5.07713 202.826 5.18876C202.567 5.09586 202.308 5.00296 202.049 4.91006C202.583 4.58224 203.118 4.25443 203.654 3.92662C201.533 4.27912 199.789 3.60324 198.51 4.16633C197.406 4.09783 196.873 4.03144 197.346 3.74319C197.016 3.7424 196.685 3.74163 196.355 3.74085C196.139 3.89512 195.922 4.04939 195.706 4.20367ZM280.094 5.99784C279.003 5.65661 278.597 6.36078 278.768 6.40289C279.731 6.63464 280.661 6.17535 280.094 5.99784ZM187.76 5.19443C188.975 5.37984 190.195 5.56528 191.421 5.75074C191.421 5.52663 191.422 5.30251 191.422 5.0784C190.196 5.11705 188.975 5.15573 187.76 5.19443ZM291.339 5.79185C291.448 5.96108 291.557 6.1303 291.666 6.29952C292.997 5.70117 294.286 6.59617 294.956 6.42198C295.1 6.3839 294.814 6.08406 294.542 6.01736C294.356 5.97552 291.581 5.738 291.339 5.79185ZM346.508 6.44908C346.013 6.55749 345.51 6.6658 345.019 6.77419C345.048 6.58549 345.077 6.39678 345.106 6.20807C345.346 6.17507 345.596 6.14214 345.84 6.10916C346.063 6.22248 346.285 6.33578 346.508 6.44908ZM340.884 6.69831C340 6.67495 339.131 6.65165 338.249 6.62814C341.601 6.48645 338.849 6.37597 340.889 6.14904C340.887 6.33213 340.885 6.51522 340.884 6.69831ZM331.979 6.23033C332.088 6.11862 332.198 6.00692 332.308 5.89521C333.192 5.90395 334.071 5.91258 334.947 5.9211C334.397 5.52414 333.845 5.12714 333.292 4.73009C332.97 4.72594 332.646 4.72178 332.323 4.7176C332.208 5.22184 332.093 5.72609 331.979 6.23033ZM161.963 3.91818C161.43 3.91026 159.585 4.24851 159.664 4.37465C160.429 4.53107 161.195 4.6875 161.964 4.84394C161.969 4.61934 161.973 4.39475 161.977 4.17015C162.085 4.2822 162.194 4.39425 162.302 4.5063C162.741 4.42326 163.179 4.34023 163.619 4.2572C163.84 4.45396 164.062 4.65072 164.283 4.84749C164.507 4.62386 164.73 4.40023 164.954 4.1766C162.827 3.77465 162.904 4.17196 162.463 4.16681C162.239 4.16442 162.099 4.02506 162.02 3.95492C162.001 3.94267 161.982 3.93043 161.963 3.91818ZM188.604 3.76673C186.066 3.70508 184.627 4.29311 182.814 3.79447C183.939 4.85036 191.611 3.77998 194.22 4.66453C194.495 4.49623 194.77 4.32793 195.045 4.15964C193.602 4.30669 192.618 3.95645 191.908 3.90476C191.338 3.8637 191.397 4.04087 191.354 4.03823C191.352 4.03823 191.35 4.03822 191.348 4.03822C190.016 3.96242 189.606 3.79105 188.604 3.76673ZM293.215 4.98707C292.546 4.71251 291.361 4.72568 291.343 5.11513C292.002 5.23545 292.658 5.35574 293.312 5.47599C293.178 5.3747 293.329 5.03403 293.215 4.98707ZM330.959 5.13179C330.433 4.99973 329.19 5.09836 329.722 5.44021C329.819 5.50091 331.057 5.27678 330.326 5.87694C331.532 5.87961 331.264 5.20772 330.959 5.13179ZM231.845 4.67807C232.295 4.67202 232.743 4.66595 233.19 4.65988C233.296 4.50387 233.402 4.34786 233.508 4.19185C232.955 4.35394 232.401 4.51601 231.845 4.67807ZM298.939 4.78245C299.509 5.55837 300.549 4.82125 301.653 5.46631C302.064 5.4758 302.475 5.48528 302.884 5.49474C302.885 5.49475 302.886 5.49476 302.887 5.49477C302.9 5.28496 302.914 5.07514 302.927 4.86532C301.608 4.83788 300.255 4.80999 298.939 4.78245ZM203.988 4.22185C204.265 4.32016 204.546 4.41849 204.818 4.5168C205.301 4.40419 205.784 4.29158 206.268 4.17898C206.007 4.09681 205.745 4.01464 205.484 3.93247C204.993 4.02895 204.496 4.12541 203.988 4.22185ZM306.156 4.79725C304.711 4.68484 304.158 5.34762 306.009 5.36986C306.787 5.37848 307.665 4.91467 306.156 4.79725ZM134.576 4.11037C135.06 4.16846 135.545 4.22655 136.031 4.28465C136.197 4.14437 136.363 4.00408 136.529 3.86379C135.876 3.94597 135.225 4.02817 134.576 4.11037ZM337.77 5.27444C337.711 5.41451 337.652 5.55457 337.593 5.69463C337.154 5.66212 336.714 5.62958 336.273 5.59701C336.385 5.45845 336.498 5.31988 336.61 5.1813C336.997 5.21237 337.384 5.24342 337.77 5.27444ZM137.849 4.20334C138.24 4.23099 138.632 4.25863 139.024 4.28628C139.288 4.21845 139.552 4.15063 139.816 4.08281C139.448 4.01419 139.081 3.94558 138.715 3.87697C138.426 3.98576 138.137 4.09455 137.849 4.20334ZM319.757 5.00921C319.212 4.83437 317.001 5.33769 318.984 5.49323C320.245 5.59194 319.839 5.03579 319.757 5.00921ZM322.738 4.87205C320.628 4.52783 322.206 6.17942 324.716 5.14601C322.196 5.26515 322.86 4.89275 322.738 4.87205ZM341.229 4.21125C341.282 4.21259 341.324 4.44806 341.748 4.46069C343.279 4.5053 345.257 4.61602 346.361 4.64014C348.971 4.69882 356.988 4.33969 357.916 5.02646C358.109 5.17084 357.658 5.59427 357.737 5.61686C357.969 5.68001 359.303 5.4831 359.054 5.79548C357.748 5.78306 356.435 5.77031 355.115 5.75724C355.441 5.53818 355.766 5.31911 356.091 5.10001C352.803 5.19196 353.902 5.18699 352.954 5.66198C352.403 5.47041 351.85 5.27879 351.296 5.08711C350.078 5.26484 348.882 5.44255 347.673 5.61997C347.948 5.48223 348.222 5.34449 348.496 5.20673C346.683 4.93139 347.185 5.10593 346.185 5.43693C346.184 5.29678 346.183 5.15664 346.182 5.01649C344.413 5.34231 344.091 4.91931 343.705 4.91075C342.927 4.89538 341.883 6.54416 338.916 4.86637C337.645 5.64782 337.688 4.03395 336.935 4.8475C334.791 3.93338 338.883 4.29622 340.793 4.34343C340.794 4.34344 340.795 4.34345 340.796 4.34346C340.942 4.34736 340.711 4.19476 341.229 4.21125ZM330.221 4.92665C331.522 4.21141 326.412 4.09164 328.094 5.16009C328.346 5.19683 328.598 5.23356 328.85 5.27028C329.309 5.15578 329.767 5.04124 330.224 4.92668C330.223 4.92667 330.222 4.92666 330.221 4.92665ZM282.088 3.91439C277.362 4.15899 280.046 4.60907 281.648 4.2184C281.967 4.14092 282.143 4.03168 282.088 3.91439ZM184.992 3.19887C184.923 3.28612 184.853 3.37336 184.784 3.4606C186.368 3.38241 189.464 3.7267 189.425 3.1373C187.94 3.15779 186.462 3.17831 184.992 3.19887ZM197.586 2.8429C197.245 2.80654 195.854 2.71937 196.021 2.94028C196.623 3.09794 197.226 3.25561 197.831 3.41328C198.113 3.31629 198.395 3.21931 198.677 3.12232C198.283 3.08818 197.679 2.85241 197.586 2.8429Z" fill="#FEF08A"/>
</svg>
