<svg width="444" height="37" viewBox="0 0 444 37" fill="none" xmlns="http://www.w3.org/2000/svg">
<path d="M9.99595 1.96141C19.2817 -0.832986 25.6961 2.13996 34.3201 2.61558C36.6994 2.74834 39.2022 2.8492 41.8475 2.9243C59.5922 3.4391 80.9274 2.74434 97.9086 2.8363C112.653 2.9152 127.623 3.14948 142.278 3.36291C143.03 3.37353 143.476 3.68178 143.817 3.68693C147.028 3.7348 152.413 3.4792 155.59 3.5344C162.285 3.64807 173.941 3.66488 180.071 3.99559C182.706 4.13514 185.325 4.20528 186.361 4.94306C187.319 4.98749 187.843 4.33211 188.092 4.29816C188.095 4.29883 188.098 4.2995 188.101 4.30018C188.908 4.19507 190.892 4.67346 191.359 4.64859C191.426 4.64464 191.017 4.16354 192.106 4.31691C192.203 4.33012 192.112 4.65409 193.026 4.66646C193.277 4.66956 196.281 4.19777 197.185 4.17583C200.091 4.1023 207.016 4.56391 210.485 4.59977C211.009 4.606 211.309 4.41963 211.883 4.42326C212.178 4.42489 212.614 4.63652 212.703 4.63652C213.101 4.63402 214.813 3.71943 214.179 5.55954C215.948 5.4653 215.431 4.8477 215.478 4.45142C215.648 4.44855 215.81 4.453 215.964 4.46284C217.602 4.56397 218.398 5.22206 218.869 4.38873C228.391 4.63711 237.88 4.92562 247.461 5.30062C247.468 5.15037 247.475 5.00012 247.482 4.84987C250.257 5.52809 251.291 4.54403 252.856 5.46549C253.886 5.30572 254.824 5.14411 255.859 4.98692C267.169 5.59672 278.95 6.32696 289.757 6.8352C301.554 7.31283 313.055 6.88263 324.409 5.48241C325.887 5.30174 327.379 5.10333 328.887 4.89288C329.882 4.75257 330.176 5.03569 331.838 4.79157C333.676 4.52105 336.23 3.74498 338.719 3.35204C340.897 3.00849 344.207 2.78408 346.709 2.44597C347.271 2.36919 347.652 2.106 347.715 2.09741C348.089 2.04832 348.156 2.36266 348.52 2.31654C348.957 2.26043 349.445 1.94654 349.951 1.88595C351.838 1.65691 353.896 1.28502 354.136 1.25777C355.303 1.12613 355.595 1.40455 355.692 1.39457C356.993 1.25805 356.467 1.04362 356.791 1.01681C358.479 0.882464 359.742 1.43218 361.964 0.487429C361.931 0.755365 361.899 1.0233 361.867 1.29123C363.646 1.23332 362.402 0.67593 362.748 0.508857C362.886 0.44017 366.7 0.114811 366.998 0.103666C367.106 0.0976353 367.202 0.0959749 367.29 0.097826C368.209 0.100652 368.27 0.383679 368.368 0.378775C368.673 0.349432 371.706 -0.211794 373.099 0.0875282C374.841 0.425816 372.806 1.1606 373.24 1.28854C373.333 1.30634 375.058 1.22249 375.29 1.44853C375.542 1.68661 374.059 1.68284 374.087 1.785C374.093 1.84766 376.57 2.34909 376.093 2.67989C375.709 2.99754 372.345 2.59181 371.617 2.78854C371.492 2.81861 371.743 3.22071 371.632 3.23945C371.412 3.27499 369.676 3.3314 367.631 3.53658C365.568 3.74406 363.329 3.98601 363.147 3.97016C363.501 3.74164 363.857 3.51352 364.216 3.28582C363.709 3.32292 363.207 3.36073 362.705 3.39977C363.396 3.16918 364.102 2.93932 364.796 2.71345C363.56 1.29508 360.537 3.2231 360.503 4.00434C360.491 4.36296 362.543 5.03497 360.8 5.78213C361.085 5.83914 361.373 5.89605 361.656 5.95394C362.198 5.73817 362.751 5.52256 363.297 5.30945C362.914 5.25825 362.52 5.209 362.133 5.15955C362.259 5.03717 362.386 4.91483 362.513 4.79253C363.552 4.4989 364.593 4.21043 365.638 3.92734C366.196 3.94774 366.113 4.27353 366.494 4.29528C366.974 4.32374 367.376 4.34344 367.712 4.35521C371.12 4.48204 368.564 3.87399 371.664 3.85588C372.147 4.00933 372.602 4.16755 373.078 4.32858C372.908 3.63198 374.353 4.04046 376.091 3.75606C375.878 3.98069 375.668 4.20583 375.461 4.43149C377.96 4.30286 382.805 5.65262 381.533 4.35011C382.072 4.47901 382.617 4.61016 383.167 4.74343C383.649 4.56193 384.12 4.38122 384.589 4.20152C385.223 4.25883 385.863 4.31872 386.51 4.38103C386.506 4.49168 386.503 4.60233 386.499 4.71299C385.983 4.68262 385.47 4.65379 384.962 4.62659C385.325 4.98422 385.689 5.34269 386.054 5.70196C386.44 5.6686 386.808 5.63482 387.182 5.60211C385.652 5.18865 387.725 4.79295 388.262 4.3834C389.615 4.30734 390.392 4.94354 390.837 5.00166C391.045 5.02744 393.564 4.19666 392.523 5.24104C393.777 5.20056 395.058 5.16768 396.309 5.13685C396.791 5.26372 397.273 5.39138 397.756 5.51975C396.652 5.94718 399.662 6.84163 397.386 6.85987C395.679 6.87563 395.319 6.35783 394.51 6.29501C393.783 6.23864 393.374 6.53582 392.589 6.48996C387.279 6.18159 382.968 5.848 377.768 5.58227C376.742 5.53157 375.805 5.68424 375.097 5.66089C374.312 5.63534 375.292 5.22105 374.297 5.32463C373.231 5.43801 372.984 5.78318 372.707 5.79497C372.521 5.80276 372.004 5.51181 371.441 5.53258C370.362 5.57062 368.987 5.72345 367.866 5.90947C366.84 6.08507 366.045 6.24397 365.898 6.25859C365.579 6.27578 359.911 6.66214 359.64 6.65863C359.495 6.65002 359.645 5.50303 358.563 6.84363C358.178 6.91586 357.795 6.98848 357.414 7.06147C357.447 6.83185 357.479 6.60222 357.513 6.37259C355.34 7.51822 356.063 6.94145 353.878 7.31568C348.643 8.20903 340.961 9.28579 335.417 10.227C334.179 10.4363 333.744 10.7739 332.285 11.01C330.923 11.2353 327.297 10.9216 328.209 11.9121C326.689 11.6446 325.852 11.8979 325.199 12.1367C324.508 12.3884 324.026 12.6228 323.2 12.181C323.035 12.3495 322.87 12.5177 322.704 12.6858C321.011 12.2154 320.568 12.8263 318.792 13.0589C318.028 13.1564 318.857 12.4046 317.369 13.2866C317.068 13.2532 316.767 13.2191 316.467 13.1843C316.524 13.0143 316.581 12.8444 316.637 12.6744C314.929 12.9343 314.811 12.8493 315.048 13.4553C314.208 13.3978 313.369 13.335 312.531 13.2668C312.438 13.4752 312.345 13.6835 312.252 13.8917C312.501 14.1169 319.306 13.6402 325.27 12.7333C329.332 12.1349 333.08 11.4109 334.147 11.1749C337.326 11.1607 343.567 9.5658 346.16 9.27354C347.193 9.15659 347.719 9.53891 349.227 9.36433C350.735 9.1894 352.569 8.4983 353.37 8.36876C356.024 7.87826 368.827 6.45339 360.206 8.06381C360.482 8.25492 360.757 8.44646 361.034 8.63817C364.387 7.46671 363.198 8.07933 366.07 7.84498C366.564 7.80618 367.304 7.65556 368.03 7.55812C369.163 7.40657 370.299 7.41781 370.203 8.02972C369.53 8.12186 368.775 8.1896 368.098 8.24684C366.473 8.38237 364.85 8.39526 363.469 8.56489C363.272 8.58739 361.032 9.3196 359.838 9.34628C358.763 9.3685 359.364 8.3089 357.197 9.69542C355.339 8.87268 354.479 9.97143 354.041 10.1372C353.285 10.425 353.126 9.91773 352.336 9.97152C351.48 10.0287 350.942 10.462 350.828 10.4813C349.663 10.656 343.64 11.6504 343.338 11.4876C343.565 11.3571 343.792 11.2268 344.019 11.0965C342.434 11.1969 342.845 11.6751 342.447 11.8037C342.14 11.8506 341.834 11.8974 341.53 11.944C341.633 11.8149 341.736 11.6857 341.84 11.5564C340.007 11.8726 341.47 12.0318 338.866 12.4356C337.212 12.6915 335.448 12.5346 335.293 12.5899C335.248 12.606 335.808 12.8096 335.145 12.9507C334.043 13.1852 332.129 13.4613 331.859 13.1057C331.326 13.2389 331.427 13.6094 331.356 13.6284C331.095 13.702 327.283 14.3299 325.489 14.5774C325.138 14.6276 324.864 14.6657 324.708 14.6874C322.04 15.0569 319.048 15.2572 316.143 15.526C315.844 15.5535 316.018 15.296 315.719 15.3246C315.241 15.3742 312.791 15.9057 312.42 15.9482C311.5 16.0669 309.061 16.0131 308.682 16.134C308.628 16.1517 309.442 16.4549 308.507 16.5893C307.469 16.7359 308.016 16.273 307.959 16.2706C305.838 16.1812 304.507 16.5081 303.057 16.5805C302.588 16.6036 301.72 16.2726 301.058 16.3705C300.982 16.3817 301.133 16.6913 301.058 16.7065C300.054 16.8681 299.12 16.2851 298.688 16.243C297.629 16.1393 298.201 16.5699 298.146 16.5724C297.438 16.5766 296.489 16.4078 295.413 16.4019C293.268 16.39 291.299 16.3445 289.319 16.2684C286.874 16.1742 284.393 16.0302 281.546 15.8474C280.886 15.8052 280.15 15.4627 280.045 15.4562C279.734 15.4403 279.8 15.796 278.918 15.737C277.046 15.6106 275.307 15.5303 273.443 15.4252C273.074 15.4044 272.932 15.0711 272.645 15.0492C271.681 14.9771 268.392 15.6715 268.368 14.6099C266.447 15.4604 265.196 14.5964 263.678 14.5421C260.051 14.4088 254.376 14.4024 250.772 14.1748C250.013 14.1259 249.647 13.8434 249.225 13.8165C248.499 13.7668 244.147 13.8015 243.915 13.7541C243.469 13.6607 243.749 12.4696 241.46 13.4568C240.11 13.4988 240.273 13.0117 239.992 12.9786C237.882 12.7318 235.683 13.7821 236.121 12.7868C233.644 13.0069 231.946 13.5298 230.965 12.5718C230.975 13.0304 229.77 13.2824 228.342 13.0823C229.812 12.3392 229.677 11.8428 233.181 12.0523C233.238 12.0557 233.123 12.3849 233.18 12.3883C233.694 12.4208 234.757 12.2751 235.603 12.3109C236.447 12.3468 235.973 12.5634 236.31 12.5662C236.633 12.5686 236.63 12.2513 237.094 12.2569C238.604 12.2773 239.849 12.2188 240.731 12.234C241.269 12.2434 241.855 12.5364 242.262 12.5464C243.834 12.5819 247.26 12.4543 249.248 12.5433C249.668 12.5626 249.491 12.8701 250.422 12.9236C250.53 12.9299 250.94 12.6158 251.738 12.5726C252.524 12.5291 253.19 12.7123 253.701 12.695C254.134 12.6809 253.968 12.3855 254.842 12.3962C255.611 12.399 264.018 12.9237 264.456 12.9972C265.128 13.0923 265.422 13.5123 265.823 13.4801C265.893 13.4726 266.029 13.0853 266.27 13.0678C270.335 12.7677 279.261 13.8005 283.826 14.0731C285.727 14.182 287.58 14.2749 289.408 14.3435C296.767 14.6171 303.822 14.5217 311.347 14.0968C311.512 14.0206 311.676 13.9442 311.84 13.8676C310.891 13.9122 309.941 13.9501 308.991 13.9814C308.978 13.7968 308.966 13.6123 308.953 13.4277C307.671 13.4425 307.853 13.8715 307.898 14.1348C307.419 14.0373 306.94 13.9383 306.462 13.8375C306.067 14.4962 302.879 14.1211 301.241 14.1149C300.175 14.1154 298.902 14.3494 298.338 14.3228C297.147 14.2673 297.185 13.868 297.092 13.8605C296.934 13.8495 295.265 14.1674 294.064 14.1167C292.288 14.0411 292.123 13.428 289.668 13.8393C289.59 13.8278 289.512 13.8165 289.433 13.8055C286.393 13.3789 282.979 13.322 279.617 13.1775C280.312 12.6525 277.183 13.0055 275.798 12.9215C267.304 12.3866 256.782 11.7458 248.222 11.2869C247.123 11.2277 246.258 10.8719 245.666 10.8672C245.336 10.8641 245.181 11.252 244.718 11.1881C244.636 11.176 244.593 10.8081 243.717 10.7306C241.606 10.536 236.156 11.0255 234.869 10.2972C228.55 10.2601 222.205 10.2503 215.886 10.2592C214.88 10.2609 213.859 10.263 212.824 10.2652C212.64 10.1132 212.456 9.96116 212.271 9.80913C210.851 10.5559 205.363 10.0435 202.673 10.0531C197.958 10.0689 191.878 10.2543 187.765 10.2487C186.864 10.2474 186.124 10.0247 185.263 10.0227C184.896 10.0222 184.445 10.3003 184.065 10.299C179.784 10.289 173.976 9.96185 169.671 9.94421C159.858 9.9029 150.65 9.81964 140.719 9.79659C107.602 9.72351 74.6215 10.1066 41.8458 9.94586C41.5278 9.94433 41.2121 9.94276 40.8988 9.94113C40.4483 9.93877 40.4713 9.61518 40.1253 9.61283C38.1632 9.59659 33.5157 9.86223 31.2867 9.84706C29.41 9.83535 26.535 9.33989 25.9103 9.83798C31.0395 10.4373 36.4622 10.5266 41.8457 10.6439C43.2042 10.6745 44.6247 10.707 46.0471 10.7509C46.5167 10.7659 46.5765 11.0736 46.6345 11.0792C47.7169 11.1864 47.0248 10.7625 48.6173 10.7438C49.1893 10.7375 54.0335 11.7211 53.4721 10.7433C54.6635 11.1346 62.897 11.3336 64.5309 11.2051C65.0094 11.1659 64.6708 10.8761 64.7658 10.8615C65.1788 10.7978 65.3657 11.1972 65.737 11.2077C66.7146 11.2331 69.3006 10.9108 69.7577 10.9134C70.8323 10.9175 74.2151 11.2451 75.6417 11.1697C76.975 11.1009 76.7256 10.6835 77.8873 10.6462C78.8056 10.6179 77.8037 10.9679 79.8584 11.0757C80.8499 11.1284 84.3915 10.881 85.2646 10.882C86.1151 10.8829 87.0644 11.1336 88.2503 11.1159C89.9737 11.0908 93.6611 10.9567 95.4124 10.8792C95.5166 10.8749 95.7711 10.5507 96.0284 10.5579C96.5611 10.5723 96.4024 10.9728 96.799 11.0141C97.1826 11.055 104.126 11.0173 105.292 11.0241C106.103 11.0279 106.665 10.7902 107.114 10.7931C107.467 10.7961 107.505 11.13 107.865 11.1344C107.98 11.1346 108.919 10.8465 109.861 10.8551C110.748 10.8636 114.148 11.1465 114.536 11.15C114.791 11.1517 114.512 10.9139 115.266 10.9212C115.953 10.9285 116.404 11.2376 116.796 11.243C117.706 11.2551 118.726 10.9949 119.695 10.996C122.47 10.9994 122.325 11.3808 122.492 11.3935C122.954 11.4292 123.14 11.0802 123.291 11.0734C123.932 11.0457 125.503 10.9853 126.075 10.9734C126.785 10.9584 127.085 11.2914 127.84 11.2947C128.403 11.296 129.541 10.9755 130.826 10.9635C133.724 10.9349 137.164 10.8849 140.011 10.9074C140.859 10.9137 140.988 11.2174 141.247 11.2262C142.609 11.2727 143.372 10.9365 143.761 10.9424C146.539 10.983 151.481 11.5351 154.057 11.5918C155.095 11.6143 159.704 11.39 162.278 11.4473C162.575 11.4533 162.295 11.6896 162.627 11.6541C163.419 11.569 163.348 11.0846 163.749 11.1013C163.942 11.1109 164.382 11.386 164.944 11.4162C167.849 11.5725 169.866 11.372 171.194 11.3944C183.96 11.6104 196.985 11.837 208.929 12.0174C210.247 12.0371 211.908 11.7688 213.919 12.0741C213.979 12.2253 214.039 12.3764 214.098 12.5276C214.17 12.3807 214.242 12.2339 214.314 12.087C214.915 12.0735 215.413 12.051 215.863 12.0293C217.158 11.9703 218.088 11.9174 219.766 12.08C219.961 12.0987 220.554 12.794 220.958 11.9473C223.275 12.6005 222.013 11.9583 223.713 11.9277C225.387 11.897 227.119 12.1169 228.721 12.1886C229.613 12.5098 225.842 13.1479 225.569 13.1418C225.168 13.1324 224.731 12.7011 224.364 12.6726C223.248 12.587 222.133 12.9062 221.881 12.5239C220.384 12.9012 222.244 12.7297 222.05 13.0871C221.061 12.9228 220.059 12.7587 219.1 12.5958C218.838 13.2214 217.291 13.0839 215.851 12.9299C214.55 12.7848 213.354 12.6247 213.533 13.081C213.102 12.8886 212.67 12.6963 212.234 12.5041C210.282 13.6511 209.254 12.8143 206.681 12.4374C206.865 12.5892 207.048 12.7409 207.231 12.8927C207.169 12.9544 204.942 13.1696 205.743 12.5404C203.466 13.3566 203.574 11.9598 201.49 12.9495C200.268 13.0671 201.017 12.4872 198.842 12.4765C197.555 12.4699 195.911 12.7619 194.492 12.7709C194.161 12.772 194.019 12.4309 193.724 12.4283C193.428 12.4259 193.281 12.7579 192.922 12.7633C192.18 12.775 191.213 12.533 190.744 12.5518C190.328 12.5676 189.744 12.8568 188.746 12.8951C185.254 13.0313 186.304 12.62 185.753 12.4736C185.151 12.3181 184.732 12.868 183.556 12.7953C183.438 12.7877 183.746 12.4453 183.362 12.4561C183.052 12.4644 182.895 12.8379 181.864 12.9005C181.44 12.9251 175.103 12.9634 174.114 12.9647C172.637 12.9656 169.332 12.6292 167.786 12.623C167.197 12.6198 166.565 12.9171 165.937 12.9117C163.851 12.8936 160.514 12.8511 157.869 12.8241C155.478 12.799 151.315 12.1171 150.001 12.7111C146.664 12.7751 145.849 12.2601 145.598 12.2521C144.916 12.2303 144.597 12.5684 143.739 12.581C132.614 12.7358 117.955 12.4734 107.424 12.4812C85.6413 12.498 63.6806 12.6401 41.8452 12.5708C39.1328 12.5623 36.5148 12.5506 33.8751 12.5351C33.808 12.6855 33.741 12.8358 33.6741 12.9862C36.2385 13.0725 39.1526 13.2873 41.845 13.3778C42.1795 13.3896 42.5111 13.3993 42.8379 13.4063C46.7161 13.486 52.2847 12.8613 55.1385 13.8903C54.0156 13.98 52.1246 13.5853 52.1681 14.1139C54.2266 14.1523 56.2161 14.1908 58.2721 14.2294C58.2108 13.9852 58.1497 13.7411 58.0885 13.4969C60.2415 13.4268 62.3591 13.481 64.5197 13.4472C64.8844 13.4417 64.6261 13.2199 64.9442 13.219C65.3005 13.2183 65.0588 13.4438 65.1256 13.4456C66.0275 13.4484 66.3042 13.2203 66.4147 13.2237C66.6998 13.2329 66.4766 13.45 67.301 13.5113C68.8397 13.626 69.9314 13.0497 69.5726 14.0108C70.0586 14.0111 70.5466 14.0115 71.0368 14.0118C71.1639 13.7502 71.2911 13.4886 71.4185 13.2269C74.4634 14.2857 75.8407 12.4335 77.5162 13.9055C78.0694 13.6814 78.6247 13.4573 79.1823 13.2332C79.4965 13.4952 79.8109 13.7572 80.1162 14.0192C80.1765 13.7947 80.2367 13.5701 80.2969 13.3456C83.2475 13.514 86.4304 13.2478 89.2717 13.2772C91.273 13.2977 91.7229 13.387 93.479 13.3725C97.3895 13.3397 93.5037 13.7798 96.757 14.2659C96.5902 13.9902 96.422 13.7146 96.2518 13.439C96.7927 13.3389 97.321 13.2387 97.8573 13.1387C98.2294 13.3638 98.6019 13.589 98.975 13.8142C100.634 12.6518 101.715 13.594 101.942 13.5944C102.129 13.5927 102.748 12.8923 104.707 13.4898C103.895 12.5295 106.203 13.4869 106.39 13.4929C106.566 13.4971 108.825 13.2873 109.731 13.2981C110.447 13.3064 111.979 13.5159 113.052 13.5081C114 13.5011 113.905 13.1754 113.974 13.1722C115.134 13.1477 114.406 13.399 115.245 13.4133C116.083 13.4275 116.736 13.1516 116.917 13.1768C117.009 13.1902 116.703 13.4928 117.12 13.523C118.241 13.6054 120.279 13.3448 121.558 13.356C122.013 13.3596 122.586 13.6183 123.093 13.6275C123.87 13.6407 124.235 13.3 124.687 13.3113C124.843 13.3162 125.849 13.8467 127.093 13.7691C127.33 13.7535 128.029 12.6386 128.95 14.2236C129.022 14.0011 129.094 13.7787 129.166 13.5562C133.35 13.0173 134.506 14.83 136.37 13.2309C139.404 13.4203 137.319 14.0386 137.652 14.1355C137.866 14.1968 138.857 14.0282 138.966 14.0384C139.159 14.0582 139.125 14.2588 139.336 14.2584C143.206 14.2349 141.489 13.8499 142.715 13.6143C145.629 13.0536 147.901 14.3311 142.833 13.9311C142.832 14.0431 142.832 14.155 142.831 14.267C144.076 14.1645 147.251 14.2276 146.189 14.7914C145.349 15.2352 137.841 14.9161 142.093 15.5592C143.059 15.7048 143.557 15.2863 145.231 16.0807C146.339 16.1277 146.503 15.1075 147.999 15.5232C147.754 15.1661 147.509 14.809 147.264 14.4519C149.307 13.9958 151.829 14.6291 153.4 14.4365C153.934 14.3708 155.859 12.6817 155.405 14.3771C156.296 14.2751 160.533 14.608 161.31 14.4599C161.499 14.4242 161.745 13.5214 164.484 13.8512C164.673 13.9655 164.862 14.0798 165.052 14.194C162.55 14.5099 166.962 14.8681 165.759 15.7193C165.355 15.3316 163.372 15.0861 163.052 14.8906C162.508 14.5542 164.137 14.1324 162.063 14.2391C160.752 15.6657 164.488 15.0253 163.91 16.3833C166.63 15.7623 166.891 16.3702 167.503 16.3987C170.134 16.5159 171.786 16.3813 174.254 16.5554C174.848 16.2793 170.394 15.8489 169.829 15.9665C171.887 14.9876 168.344 14.9221 166.87 15.5027C166.747 15.2025 166.625 14.9024 166.502 14.6022C168.415 14.775 170.332 14.8693 172.235 14.6349C172.359 14.7477 172.482 14.8604 172.606 14.9731C172.177 15.1391 171.748 15.3052 171.318 15.4713C172.906 15.7568 171.956 14.8778 174.066 15.6558C174.135 15.319 174.203 14.9822 174.271 14.6454C176.323 14.77 178.331 14.8951 180.373 15.021C181.452 14.3519 185.344 14.632 184.622 15.5023C186.197 15.5758 184.245 15.0953 185.738 14.8934C186.389 14.8058 187.653 14.7896 187.961 15.0276C187.822 15.8602 185.93 15.9492 185.348 16.5175C185.715 16.7036 194.47 16.1794 193.683 17.1487C194.379 17.272 194.065 16.7669 195.318 16.6493C198.879 16.3219 204.333 17.3692 207.188 16.156C203.857 15.4261 202.85 16.1505 200.291 16.1545C198.672 16.1557 188.668 16.1888 190.905 15.3265C190.528 15.4354 190.174 15.5445 189.807 15.6535C189.442 15.3882 189.076 15.1229 188.709 14.8577C189.75 14.8281 190.778 14.7987 191.839 14.7698C192.088 15.0336 192.336 15.2974 192.584 15.5612C192.701 15.3753 192.818 15.1895 192.935 15.0036C193.376 14.9703 193.815 14.9369 194.253 14.9036C194.128 15.1272 194.003 15.3507 193.878 15.5742C194.554 15.6185 195.225 15.6628 195.894 15.7072C195.717 15.4055 195.539 15.1038 195.361 14.8021C198.559 14.7554 197.485 14.9338 199.245 15.5116C200.557 15.5817 198.352 14.9834 201.12 14.8638C204.4 14.7268 202.263 15.6213 206.444 15.47C206.508 15.321 206.571 15.1719 206.634 15.0229C207.572 15.183 208.501 15.3432 209.42 15.5037C209.301 15.3161 209.181 15.1285 209.061 14.9409C210.935 15.0345 213.626 14.7128 214.233 15.4514C212.307 15.075 212.298 16.3507 212.805 16.5915C213.062 16.7143 214.215 16.7909 215.798 16.8375C220.687 16.9755 229.939 16.8745 232.16 16.8982C236.01 16.9332 238.796 17.4031 242.33 16.8617C239.965 16.2833 231.666 16.5313 230.136 16.1506C229.979 16.1127 230.05 14.9445 229.008 16.2412C225.838 15.9604 221.909 16.2691 217.928 16.175C218.056 15.8402 218.184 15.5054 218.311 15.1706C220.719 15.9204 223.107 14.386 222.745 15.6881C223.236 15.6958 223.723 15.7035 224.206 15.7114C224.209 15.4862 224.213 15.2609 224.217 15.0357C224.941 15.0475 225.722 15.0605 226.46 15.0731C226.457 15.2983 226.453 15.5236 226.449 15.7488C227.065 15.7593 227.674 15.77 228.277 15.7807C228.344 15.5573 228.411 15.3338 228.477 15.1104C230.35 15.608 236.627 14.4881 233.842 15.7732C234.717 15.7909 235.56 15.8085 236.42 15.827C236.421 15.6623 236.421 15.4975 236.422 15.3328C236.803 15.3188 237.181 15.3049 237.556 15.2911C237.429 15.4374 237.302 15.5837 237.175 15.7301C238.896 15.5005 240.474 16.3225 241.617 15.8343C240.89 15.704 240.117 15.5731 239.398 15.4439C240.838 15.6905 243.394 15.3105 243.664 15.3165C244.387 15.3327 244.754 15.6753 245.516 15.7124C246.2 15.7451 246.11 15.4868 246.237 15.4992C250.032 15.8645 248.489 17.2081 250.33 15.6212C250.511 15.8506 250.691 16.0801 250.87 16.3095C251.124 16.1303 251.375 15.951 251.625 15.7717C252.719 15.8229 253.861 15.8771 254.941 15.9307C254.578 15.6385 254.233 15.3471 253.873 15.0553C255.501 14.9832 256.311 15.5736 256.456 15.5913C256.907 15.6396 257.123 15.2947 257.26 15.2989C264.064 15.5801 259.896 15.7356 263.251 17.1927C264.468 16.7233 263.283 16.153 263.13 15.6181C264.7 15.931 265.236 15.8074 266.922 15.9121C267.369 15.9402 267.825 16.2466 268.097 16.2631C268.321 16.2768 269.123 16.0112 269.689 16.0374C270.645 16.0813 271.925 16.3259 273.246 16.3908C274.354 16.4431 277.697 16.4133 280.051 16.5502C281.049 16.6086 280.793 16.8474 281.056 16.8634C281.17 16.87 281.952 16.612 282.598 16.6486C284.819 16.7755 287.052 16.9373 289.281 17.0795C292.28 17.2709 295.289 17.4262 298.265 17.4607C301.922 17.5042 305.628 17.2227 309.277 17.1136C310.054 17.0902 309.651 17.3282 309.991 17.3228C310.108 17.3196 310.233 16.9283 311.439 17.0293C311.875 17.0649 311.389 17.3604 311.817 17.3533C312.025 17.349 312.097 17.0071 313.304 16.8627C315.496 16.596 316.71 16.9544 316.906 16.9277C317.275 16.8739 317.145 16.601 317.635 16.553C320.028 16.3158 322.021 16.0752 324.151 15.8156C324.38 15.7875 324.916 15.7226 325.615 15.634C327.948 15.3483 332.091 14.7298 332.387 14.7221C333.25 14.7088 332.547 15.4085 333.631 15.2269C333.914 15.0338 334.195 14.8405 334.477 14.647C333.978 14.6082 333.476 14.569 332.978 14.5283C334.336 14.5188 335.803 14.0216 336.791 13.8775C336.972 13.8518 338.695 13.8514 339.546 13.6862C339.199 13.8534 338.854 14.0202 338.505 14.1873C338.649 14.2602 338.793 14.333 338.937 14.4057C340.629 13.9928 342.445 13.705 344.213 13.4447C344.849 13.3507 344.67 13.6113 345.317 13.5168C349.076 12.9756 347.991 12.1761 351.878 13.4012C350.629 13.4179 346.212 14.3344 345.559 14.3802C345.1 14.4103 343.119 13.1941 344.003 14.6251C340.402 15.1923 343.395 13.8485 340.065 14.5687C340.162 14.7451 340.259 14.9215 340.356 15.0979C339.201 15.4028 338.352 15.6338 337.589 15.4151C337.492 16.3619 333.431 16.4507 331.259 16.8168C329.536 17.1105 327.695 17.4467 325.865 17.7416C324.36 17.9845 322.861 18.2003 321.446 18.3542C320.365 18.4714 319.722 18.1642 319.586 18.1775C319.388 18.1975 318.859 18.5592 318.462 18.5935C316.979 18.737 312.452 18.4825 311.369 19.3963C316.231 19.1725 321.086 18.7758 325.92 18.2013C329.87 17.7319 333.812 17.1419 337.754 16.5239C336.584 16.2776 345.444 14.8214 345.897 14.7736C346.316 14.727 346.013 15.0808 346.14 15.0794C347.084 15.0616 347.8 14.5067 348.096 14.4608C348.321 14.426 348.798 14.5597 349.596 14.4329C349.741 14.4101 349.749 14.1889 349.905 14.1644C350.943 14.0063 351.971 13.8553 353.01 13.7021C353.074 13.6949 353.383 13.9707 353.647 13.933C353.911 13.8948 354.125 13.5434 354.192 13.5328C355.028 13.4144 356.487 13.419 357.279 13.3145C357.555 13.2771 357.332 13.0725 357.642 13.0329C358.593 12.9116 358.337 13.4042 359.498 13.1349C359.885 13.0453 359.814 12.7028 360.576 12.6528C361.117 12.618 361.133 13.2416 361.221 13.2534C361.339 13.265 363.122 12.5552 363.776 12.8901C362.581 14.1076 365.218 12.7804 365.04 12.3477C365.784 12.3795 366.528 12.4141 367.271 12.4518C367.507 12.3121 367.745 12.1726 367.984 12.0333C368.152 12.0452 368.316 12.0551 368.477 12.0631C371.21 12.2204 372.98 11.9347 375.737 12.0911C375.914 12.0947 378.319 12.3921 378.221 12.5551C376.729 12.7946 375.269 12.7975 374.341 12.2911C372.784 13.2888 372.762 12.4839 370.279 12.7401C369.419 12.8381 369.392 13.1125 369.296 13.1223C369.064 13.1507 368.828 13.1812 368.591 13.2138C365.359 13.6422 360.788 14.244 358.676 13.8035C358.094 14.091 360.297 13.8874 359.465 14.1514C359.001 14.2574 347.902 16.1345 351.326 14.7297C350.963 14.8092 350.592 14.8903 350.227 14.9708C349.987 15.8594 348.121 15.9526 348.201 15.0909C348.052 15.2878 347.904 15.4848 347.757 15.6818C347.435 15.8791 347.042 16.0194 346.478 16.1551C344.328 16.6778 331.282 18.446 330.597 18.6119C330.609 18.8114 330.62 19.0109 330.632 19.2104C336.441 18.6298 341.929 17.1969 348.27 16.7878C348.059 16.6315 347.848 16.4753 347.638 16.319C350.176 16.1872 352.707 16.0685 355.241 15.9734C352.647 16.679 348.499 17.6027 345.685 17.7692C345.184 17.7984 345.505 17.4837 345.386 17.4705C345.078 17.4365 344.832 17.9332 343.775 18.146C342.719 18.359 339.994 18.4692 339.751 18.5163C339.281 18.6098 338.084 19.3224 337.277 19.441C336.214 19.5969 336.877 19.17 336.663 19.1964C335.779 19.3012 335.012 19.5783 334.316 19.6585C333.285 19.7791 331.073 19.528 330.464 20.4442C331.207 20.3801 331.948 20.3133 332.688 20.244C330.396 20.7503 328.322 20.7406 326.238 20.8791C324.734 20.9786 323.224 21.1553 321.595 21.6538C320.784 22.7377 324.067 22.2847 321.32 22.9785C321.826 22.9168 322.329 22.8534 322.835 22.7879C322.933 22.5674 323.03 22.3468 323.127 22.1261C324.012 22.1857 324.898 22.2395 325.785 22.2877C325.515 22.1308 325.247 21.9733 324.978 21.8154C325.428 21.7441 325.877 21.6703 326.323 21.5983C328.902 21.182 331.272 20.8307 332.303 21.5486C332.332 21.2992 332.36 21.0498 332.388 20.8004C335.266 20.6884 339.323 19.0011 338.745 20.4607C338.866 20.3691 338.988 20.2775 339.11 20.1858C340.852 20.1899 340.037 19.7529 340.665 19.5893C340.847 19.5429 344.18 19.3029 342.786 19.9316C346.041 19.7228 344.853 18.634 345.727 18.4388C347.878 18.7284 351.414 17.2384 350.016 18.4527C350.328 18.4424 350.635 18.4331 350.946 18.4234C351.833 17.5021 352.948 18.2253 354.074 18.3589C354.446 18.3225 354.81 18.2878 355.181 18.2526C355.389 17.9585 355.602 17.664 355.809 17.3705C359.428 18.1255 357.886 14.9035 359.841 17.5315C359.616 17.7333 359.392 17.9353 359.17 18.1374C358.603 18.2944 358.027 18.454 357.459 18.6139C359.811 18.3677 362.165 18.1444 364.516 17.9497C366.314 18.2174 367.597 17.9757 369.045 17.7923C369.902 17.6801 370.923 17.6175 372.257 17.8378C372.537 17.7528 372.826 17.6694 373.122 17.5874C372.838 18.2432 371.683 18.1669 373.836 18.4203C374.012 18.8752 372.591 18.9542 371.935 18.6303C371.772 18.5501 373.122 18.1514 371.593 18.1941C370.597 18.2405 372.394 18.664 369.484 18.6651C369.595 18.7676 369.707 18.8706 369.821 18.9739C369.593 18.9896 369.375 19.0066 369.167 19.0248C369.077 19.0329 368.987 19.0411 368.897 19.0493C368.56 18.8226 368.223 18.5964 367.887 18.3708C367.127 18.8268 366.739 19.3918 364.907 19.4875C365.38 19.2705 364.655 18.8278 363.75 18.9435C363.772 19.1297 363.794 19.3159 363.816 19.5021C361.651 19.8835 362.338 19.2459 360.577 19.9019C360.377 19.7773 360.177 19.6528 359.975 19.5288C359.067 20.261 355.486 21.1823 356.023 20.1786C355.123 21.2083 352.924 21.1233 352.016 20.5371C351.983 20.7305 351.95 20.9237 351.915 21.1172C351.493 21.219 351.073 21.3211 350.655 21.4234C350.399 21.3486 350.143 21.2739 349.888 21.1993C349.603 21.3573 349.32 21.515 349.033 21.6737C348.821 21.5176 348.61 21.3615 348.398 21.2054C347.949 21.5023 347.492 21.8008 347.042 22.0986C346.722 21.9981 346.398 21.8985 346.076 21.7986C346.109 22.1874 343.159 22.7456 342.286 22.626C342.056 22.7774 341.827 22.9286 341.597 23.0798C341.447 22.916 341.296 22.7521 341.146 22.5881C340.984 22.7641 340.823 22.94 340.661 23.1159C340.215 23.0365 339.761 22.9579 339.313 22.8783C337.712 24.0507 337.53 23.2696 337.133 23.3371C336.397 23.4631 333.951 24.4064 333.517 24.4379C333.087 24.4705 332.836 24.1767 332.488 24.1955C326.743 24.4716 329.183 25.0066 328.057 25.2973C327.574 25.4177 327.174 25.2879 326.76 25.2759C326.649 25.2727 326.536 25.278 326.421 25.2987C325.491 25.48 320.768 26.3569 320.488 26.3289C320.084 26.3068 320.895 24.7956 319.635 25.2751C319.658 26.0513 316.823 25.4897 318.202 26.4623C317.05 26.4562 315.899 26.4406 314.75 26.4155C314.936 27.3198 313.485 26.8211 311.95 26.9436C309.777 27.1343 304.87 27.8445 305.036 26.8952C304.518 27.119 303.999 27.3411 303.478 27.5614C299.903 27.299 296.406 27.5602 292.874 27.4569C291.53 27.4177 290.173 27.3644 288.807 27.2981C279.547 26.8029 270.256 26.0137 261.45 25.5308C260.974 25.5029 261.054 25.1995 260.707 25.1792C258.866 25.0712 254.107 25.1207 251.52 24.9757C250.712 24.9294 250.315 24.6187 250.052 24.5971C249.158 24.5221 249.351 24.9218 248.94 24.8985C248.328 24.8617 244.91 24.402 243.734 24.3347C243.137 24.3004 242.449 24.5961 241.779 24.4831C241.721 24.4738 241.837 24.1541 241.788 24.1473C240.551 24.0778 241.288 24.3745 240.868 24.3497C237.864 24.173 234.676 24.098 231.411 23.9688C230.616 23.9365 229.374 23.6861 228.662 23.6519C228.395 23.6396 228.858 23.8925 227.962 23.8562C227.654 23.8438 227.554 23.5239 227.204 23.4971C225.698 23.3842 225.118 24.397 223.847 23.554C221.699 23.5652 218.181 23.712 215.706 23.7393C215.306 23.744 214.935 23.7453 214.605 23.7418C214.064 23.7357 213.802 23.5444 213.281 23.5412C212.911 23.5387 212.254 23.8216 211.668 23.818C211.068 23.814 210.195 23.5262 209.087 23.5235C207.926 23.5202 206.451 23.6686 206.182 23.6647C205.867 23.6612 205.726 23.3096 205.412 23.3106C204.472 23.3116 201.867 23.6288 200.631 23.6541C199.315 23.6806 198.515 23.5034 198.06 23.5025C197.637 23.5033 197.14 23.7941 196.946 23.795C196.644 23.7967 196.575 23.4508 196.19 23.4502C195.562 23.4502 194.938 23.6617 194.008 23.6594C177.233 23.6221 160.766 23.3484 144.441 23.0345C142.621 22.9995 141.593 23.2378 138.909 23.1181C137.821 23.0693 138.281 22.7145 137.434 22.7791C137.056 22.8082 137.151 23.0888 136.674 23.1008C134.564 23.1523 132.109 22.8844 131.193 22.8862C130.83 22.8864 130.415 23.2034 129.671 23.2059C124.134 23.2257 117.576 23.12 111.612 23.163C108.461 23.1857 103.686 23.339 100.051 23.3547C90.0462 23.3982 79.2555 23.3135 70.1411 23.339C60.6886 23.3643 51.2207 23.5099 41.8426 23.4855C37.4997 23.4742 33.1843 23.4272 28.8672 23.3168C32.6519 23.7698 37.2336 23.9354 41.8425 24.0121C45.0055 24.0659 48.2873 24.076 51.2351 24.1113C71.9264 24.3562 93.972 23.9266 115.187 23.991C122.568 24.0128 131.87 24.0205 139.949 24.2271C140.315 24.2363 141.075 23.9942 141.867 24.023C142.036 24.0296 144.116 24.4838 144.821 24.491C144.157 23.6949 146.912 24.4127 147.761 24.397C148.833 24.3764 151.074 23.9889 153.586 24.2242C155.862 24.4372 155.232 24.7398 155.358 24.7595C156.16 24.8868 156.445 24.3962 157.065 24.3494C159.592 24.161 172.567 24.5162 176.193 24.5597C177.129 24.5702 177.153 24.8831 177.363 24.8856C177.921 24.8913 178.711 24.5876 179.602 24.5958C181.231 24.6112 183.084 24.9196 183.965 24.9272C186.094 24.9458 190.088 24.6286 192.884 24.6458C193.66 24.6504 193.609 24.9754 193.959 24.9773C195.472 24.9844 199.554 24.6385 201.441 24.6543C204.582 24.6799 207.795 24.9252 210.922 24.8558C211.118 25.0034 211.326 25.1511 211.526 25.2987C211.85 25.1503 212.172 25.0019 212.493 24.8536C213.571 24.8902 214.637 24.9095 215.69 24.9177C220.036 24.9524 224.361 24.8133 228.591 24.9067C229.241 24.9201 232.227 25.2546 232.742 25.2665C233.17 25.275 233.598 24.9238 234.22 24.9896C235.087 25.081 234.263 25.7487 235.671 25.5825C236.053 25.5376 235.672 25.2362 236.463 25.1618C236.742 25.1359 241.67 25.1305 241.93 25.1588C242.367 25.2037 242.735 25.8412 242.847 25.8575C243.452 25.9437 243.437 25.4612 243.841 25.4276C245.031 25.3263 246.519 25.6912 246.73 25.6899C249.013 25.6621 253.364 25.4096 255.766 25.7217C256.098 25.7649 256.045 26.1222 256.103 26.1359C256.476 26.2232 256.719 25.8228 257.073 25.8259C259.037 25.8485 262.048 26.2402 263.974 26.3926C264.203 26.41 264.691 26.2341 265.087 26.2704C267.327 26.4798 266.598 26.7642 266.721 26.783C267.033 26.8307 267.545 26.5057 268.382 26.5237C270.476 26.563 274.444 26.8205 276.698 26.9776C278.359 27.0937 278.333 27.492 278.437 27.5058C278.665 27.5333 279.35 27.2545 280.453 27.2831C282.595 27.3377 282.335 27.6359 283.223 27.6739C283.297 27.6781 283.188 27.3653 284.169 27.3896C285.23 27.4159 287.027 27.5944 288.786 27.7492C290.187 27.8731 291.554 27.9805 292.475 28.0045C293.275 28.0254 293.471 27.736 294.289 27.7533C295.585 27.7836 298.515 28.1482 298.748 28.1463C298.813 28.1469 298.962 27.8088 299.344 27.8118C299.763 27.8152 300.176 27.9922 300.489 27.9921C302.275 27.9992 305.344 27.3629 304.506 28.5868C305.076 28.2795 305.644 27.9702 306.211 27.6587C309.954 27.6391 313.591 27.3521 317.292 27.0238C318.124 26.95 318.837 27.1243 319.542 27.0547C320.245 26.9914 323.31 26.3207 323.823 26.254C324.234 26.2059 325.498 26.0612 326.833 25.8939C328.498 25.6872 330.251 25.4453 330.611 25.4113C331.875 25.2925 333.162 25.613 333.656 25.4419C334.052 25.3042 333.635 25.0802 334.4 24.8865C335.724 24.5522 338.044 24.5602 338.448 24.4908C338.62 24.4613 338.265 24.295 339.881 24.0244C340.755 23.8772 341.255 24.0431 341.573 23.9915C341.671 23.9745 341.462 23.6098 343.188 23.3879C344.378 23.2355 344.928 23.4552 345.053 23.4365C345.24 23.4089 345.638 23.0175 346.385 22.9105C348.135 22.6602 351.359 22.535 353.003 22.3207C353.322 22.2793 353.157 21.9069 354.427 21.7574C355.338 21.6512 355.221 21.9832 355.562 21.9467C356.102 21.8888 356.846 21.3976 358.032 21.2481C359.174 21.0901 365.933 20.4703 369.295 20.3158C370.096 20.2843 370.816 20.2876 370.905 20.3062C371.238 20.356 371.645 20.3425 371.829 20.5047C371.684 20.6726 371.543 20.841 371.406 21.0097C369.918 20.52 370.524 21.143 370.15 21.2089C369.989 21.2388 369.7 21.267 369.393 21.2998C368.411 21.4019 367.08 21.5325 366.677 21.6793C366.472 21.7544 366.994 22.0441 365.883 22.3468C364.701 22.6714 364.083 22.1256 363.706 23.0182C361.876 22.2966 360.349 23.4947 362.37 23.506C362.962 23.5099 366.255 23.2331 369.564 23.0212C371.805 22.8976 374.774 22.9985 375.752 23.0306C377.442 23.0771 380.764 22.9339 382.982 23.1175C384.251 23.2149 387.477 23.4634 387.313 23.9037C388.48 24.0386 387.27 23.5106 387.52 23.4653C388.04 23.3657 391.652 23.9393 392.342 23.9863C395.75 24.1961 400.122 24.0934 403.403 24.9856C403.236 25.0895 403.069 25.1935 402.903 25.2976C402.132 25.4406 398.697 24.8015 398.25 25.3404C403.314 25.8014 408.405 26.3262 413.498 26.8807C413.47 26.3822 419.778 27.0895 420.074 27.3483C419.936 27.5711 419.798 27.7939 419.659 28.0168C416.18 26.7204 416.365 27.9385 414.033 27.047C413.049 26.9307 413.308 27.3529 412.819 27.3746C407.952 27.5956 412.821 26.5641 409.127 26.5247C410.17 27.2054 407.147 27.0959 405.802 27.0332C405.492 27.0152 401.507 26.4766 401.03 26.443C398.356 26.2353 393.775 26.1443 391.173 25.6364C389.105 25.4411 387.953 25.7656 386.085 25.7402C384.692 25.7252 385.093 25.4659 384.433 25.4238C383.045 25.3377 382.565 26.1818 381.732 24.9341C380.801 25.0419 379.863 25.1554 378.946 25.2772C378.952 25.0898 378.958 24.9024 378.963 24.715C378.398 24.6973 377.819 24.6821 377.245 24.6707C377.074 24.8542 376.905 25.038 376.738 25.2222C374.982 24.9437 375.707 24.5041 375.381 23.9698C374.994 23.9317 374.618 23.8957 374.253 23.8618C373.968 24.2714 373.668 24.6826 373.395 25.0951C372.116 25.0895 370.766 25.1251 369.78 25.1974C369.45 25.224 369.122 25.2511 368.795 25.2787C368.659 25.1048 368.524 24.931 368.389 24.7572C368.404 24.9434 368.42 25.1297 368.435 25.3159C365.388 25.672 362.344 26.0799 359.283 26.5319C358.515 26.9322 363.438 26.5181 363.808 26.5015C365.189 26.3981 368.072 25.962 369.85 25.9071C370.417 25.9091 370.948 25.9933 370.958 26.2137C371.84 25.6323 375.392 25.7119 376.543 26.3424C374.814 26.2815 373.161 26.2561 371.65 26.2911C371.708 26.5119 371.766 26.7327 371.824 26.9537C370.872 26.5242 370.321 26.3594 369.902 26.4289C369.275 26.5175 368.652 26.8048 367.59 27.3265C367.555 27.029 367.521 26.7315 367.487 26.434C365.987 27.639 362.916 26.2321 362.99 27.5206C362.114 27.5243 361.239 27.5315 360.358 27.543C358.505 27.9586 361.562 28.5013 354.158 29.1823C353.644 29.2316 353.704 28.8912 352.94 29.0291C352.717 29.0702 351.532 29.7289 349.079 30.0639C348.696 30.1162 348.622 29.8401 348.221 29.867C347.291 29.9268 345.54 30.775 346.231 29.7376C342.525 30.0583 344.157 30.5593 343.063 31.0361C342.329 31.3536 342.396 30.7943 341.753 31.0208C340.948 31.3013 341.657 31.7475 338.28 32.0172C338.649 31.9229 339.021 31.8276 339.387 31.733C339.177 31.6156 338.966 31.4982 338.754 31.3807C336.901 32.027 337 31.4837 336.216 32.4454C334.758 32.2867 333.534 32.4371 331.585 32.7707C328.798 33.2396 329.156 33.6988 327.755 33.6554C327.244 33.6379 326.499 33.552 325.285 33.3581C324.586 33.6042 323.887 33.8465 323.184 34.0857C321.969 33.8423 322.88 33.3105 321.115 33.379C322.572 34.1384 318.827 34.1401 318.253 34.9629C318.173 34.7808 318.093 34.5987 318.013 34.4165C317.619 34.4453 317.224 34.4732 316.83 34.4999C316.839 34.65 316.848 34.8001 316.857 34.9503C316.324 34.8735 315.789 34.7949 315.257 34.7142C314.871 34.8869 314.484 35.0586 314.096 35.2293C313.428 34.9512 312.763 34.67 312.1 34.3859C311.692 34.3833 311.284 34.3795 310.877 34.3747C311.015 34.5932 311.153 34.8116 311.292 35.0298C310.764 34.9773 310.238 34.923 309.711 34.8668C310.334 35.2108 309.967 35.6605 308.332 35.6992C306.984 35.7256 308.479 34.9276 305.597 35.3066C305.396 35.3302 305.047 35.8961 302.314 35.9968C299.04 36.1018 300.633 35.7011 300.05 35.6874C299.936 35.6847 298.936 35.9546 298.002 35.9817C297.472 35.9975 296.966 35.7666 296.897 35.766C296.571 35.7705 296.47 36.0832 296.017 36.0856C294.869 36.09 293.336 35.8939 292.218 35.8711C291.709 35.8607 291.225 36.0291 290.998 36.0227C290.646 36.0116 290.212 35.7095 289.857 35.6958C289.426 35.6798 288.919 35.761 288.411 35.8287C287.376 35.9674 286.354 36.0503 285.999 35.1499C284.689 36.2894 282.242 34.6873 282.377 35.505C279.152 35.0034 270.776 35.5323 271.074 34.1963C269.269 35.2682 269.431 34.435 268.708 34.4172C267.878 34.3966 268.299 34.6423 267.629 34.6005C266.106 34.5054 264.625 34.343 263.085 34.2742C263.331 34.0981 263.571 33.9218 263.83 33.7465C262.227 33.6193 262.764 34.075 261.104 34.0919C258.073 34.1262 259.346 33.8307 258.925 33.3259C259.044 33.8005 255.457 33.5982 255.093 33.5253C254.879 33.4805 255.844 32.9045 253.645 33.0275C253.758 33.2182 253.87 33.4088 253.981 33.5994C253.013 33.3109 250.264 33.5501 249.807 33.4743C249.593 33.4385 248.49 31.8985 247.431 33.0617C247.311 32.8714 247.191 32.6811 247.07 32.4908C245.879 32.6823 244.76 32.8772 243.582 33.0716C243.404 32.7304 243.225 32.3891 243.045 32.0479C242.662 32.0382 242.314 32.0295 241.95 32.0206C242.183 32.3252 242.414 32.6299 242.644 32.9346C240.425 32.7431 237.615 33.1514 237.174 32.1339C236.684 32.31 236.171 32.4857 235.688 32.6623C235.385 32.3205 235.081 31.9788 234.774 31.637C232.532 31.6754 232.445 31.8984 230.932 32.2265C230.997 31.966 231.061 31.7055 231.126 31.4449C229.997 31.7907 227.882 32.0941 226.264 32.1127C225.49 32.1207 224.108 31.7373 223.948 31.7674C223.77 31.7988 221.931 33.1868 221.745 31.9571C218.98 32.4581 217.892 31.8886 216.764 31.8865C216.291 31.8859 215.983 32.0112 215.594 32.1026C215.4 32.1502 215.185 32.1887 214.914 32.1955C213.781 32.2246 212.62 32.0676 211.948 32.0796C211.564 32.0873 211.488 32.3735 211.221 32.3793C209.981 32.4082 210.717 32.1235 209.42 32.1273C209.301 32.1293 208.349 32.4684 207.264 32.4113C206.649 32.3794 205.105 31.9686 204.972 31.9682C204.366 31.9686 204.851 32.7612 202.774 31.83C202.833 31.9804 202.892 32.1307 202.951 32.2811C200.338 32.6343 199.972 31.9636 199.448 31.9123C199.382 31.9078 198.755 32.1599 198.38 32.1209C197.745 32.0541 197.491 31.6984 197.35 31.6816C196.849 31.6228 195.175 31.7631 194.101 31.4122C194.334 32.4195 190.475 32.7444 189.657 31.5996C188.985 31.8188 188.31 32.0381 187.632 32.2575C187.327 32.0676 187.022 31.8777 186.716 31.6879C186.528 31.8733 186.34 32.0587 186.151 32.2442C185.155 31.8252 184.186 31.4066 183.207 30.9881C183.141 31.3997 183.076 31.8113 183.01 32.223C182.735 32.1741 182.46 32.1253 182.185 32.0765C181.972 31.7475 181.758 31.4185 181.545 31.0895C181.198 31.1496 180.852 31.2097 180.504 31.2698C180.417 31.5062 180.329 31.7426 180.242 31.979C178.37 32.2395 179.362 29.9856 175.812 31.9498C175.263 31.7594 174.712 31.5691 174.159 31.3789C173.524 32.2843 172.381 31.7267 171.44 31.8233C170.779 31.8916 170.813 32.253 169.91 32.2558C169.006 32.2585 169.04 31.9133 168.969 31.9106C168.23 31.8851 167.672 32.1867 167.137 32.123C167.056 32.1135 166.856 31.7022 166.171 31.6724C165.485 31.6428 165.069 32.0769 164.043 31.9892C163.518 31.9447 163.367 31.5983 162.9 31.5653C160.678 31.4051 158.448 33.1447 156.785 31.0608C156.401 31.322 153.691 32.2305 152.523 32.1725C150.71 32.0802 151.41 31.676 150.689 31.5983C150.585 31.5866 150.032 31.7218 148.516 31.6909C148.244 31.6853 148.306 31.9155 148.267 31.9184C146.498 31.9067 143.054 31.712 141.111 31.6725C140.937 31.6685 140.025 32.3061 138.485 31.4387C136.197 32.0676 131.897 30.6856 128.877 31.6369C128.459 31.656 127.953 31.4253 127.768 31.4326C126.175 31.4992 126.758 32.1967 123.154 31.1682C123.445 31.5239 122.601 31.8421 121.412 31.8121C119.623 31.7671 120.899 31.1083 119.457 31.1589C119.456 31.3457 119.456 31.5326 119.455 31.7194C116.135 31.2089 115.497 32.0063 112.16 32.0037C110.963 32.0023 109.203 31.5848 108.919 31.5831C108.811 31.5841 107.503 32.0321 107.376 32.0352C106.67 32.0474 106.273 31.839 105.666 31.8367C103.659 31.8286 101.277 32.4107 101.707 31.3474C101.152 31.5711 100.598 31.7948 100.046 32.0185C97.9581 30.8789 96.4234 32.4426 95.9758 31.3384C95.6004 31.5657 95.2257 31.7931 94.8515 32.0204C85.9019 31.8924 77.0066 31.7688 68.0459 31.648C67.6681 32.0028 63.822 31.8745 63.6001 31.8192C62.6727 31.5685 63.6463 30.7946 61.7659 30.9707C61.5584 31.3098 61.3513 31.6488 61.1448 31.9879C58.8078 32.0973 59.9465 31.7603 59.0115 31.5299C58.6167 31.5716 58.7435 31.8349 58.2115 31.8538C55.3657 31.9574 49.5087 31.968 46.4073 31.9887C45.7923 31.993 45.8869 31.747 45.6864 31.7463C45.1349 31.7484 44.0571 32.0582 42.9944 32.0581C42.6152 32.0579 42.23 32.0571 41.8406 32.0558C35.2084 32.0336 26.5576 31.8621 20.2147 31.6153C19.7726 31.5971 19.6933 31.3036 19.3845 31.2889C18.9426 31.2697 18.0219 31.5067 17.5724 31.4818C17.1361 31.4592 16.8618 31.2362 16.4138 31.2101C14.3486 31.0878 11.5714 31.4638 9.36583 30.8061C9.21433 30.7506 6.86218 29.5686 6.814 29.4911C6.50826 29.0311 8.55446 28.309 5.19453 27.6353C8.19989 27.0487 7.26202 26.0103 3.34352 25.5021C5.30083 25.3717 7.28829 25.2413 9.24373 25.1109C9.24653 24.9879 9.24933 24.8648 9.25213 24.7418C7.46598 24.1316 5.67331 23.9282 2.96915 23.8712C3.0495 23.7573 3.13205 23.6434 3.21686 23.5295C5.62201 22.9608 8.54228 22.8563 10.3675 22.08C7.64594 21.5045 5.00039 20.9291 2.30771 20.3536C2.43237 20.2638 2.56384 20.1739 2.70251 20.0841C3.98546 19.8511 6.79615 19.7148 7.87032 19.4975C11.9691 18.6689 4.2852 18.8758 5.55563 18.37C9.89035 18.3893 14.1816 18.4085 18.4865 18.4278C18.6572 18.0551 2.03782 17.0217 2.23212 15.8967C3.56242 15.8214 4.95573 15.7463 6.29954 15.6711C5.67203 15.3851 5.07526 15.0992 4.48537 14.8132C4.64341 14.7228 4.80706 14.6323 4.97653 14.5419C7.26217 14.3204 9.55502 14.099 11.8491 13.8775C4.88073 14.099 1.64985 13.9363 0 11.6853C0.18361 11.6281 0.37295 11.5708 0.560492 11.5136C2.05847 12.9219 9.16559 12.4681 12.9438 12.1884C12.2107 11.7758 8.85358 12.0936 8.14507 11.8454C7.94507 11.7743 8.64339 11.4882 8.1791 11.3416C6.97476 10.9603 1.85177 10.4689 2.58389 10.0024C3.06875 9.70265 11.3378 9.29322 12.9445 9.32516C9.17981 8.78547 5.28679 8.62867 1.48142 7.9729C3.86302 7.0604 6.00938 5.94354 10.3746 5.89497C11.6732 5.4162 2.44856 4.75037 2.23843 4.4888C3.83297 4.20859 5.42785 3.92837 7.03039 3.64816C5.6837 3.72271 4.31398 3.79725 2.97706 3.87181C2.97333 3.77806 2.9696 3.68431 2.96588 3.59056C6.47124 3.15627 9.65427 2.35838 13.7058 2.41344C13.5496 1.91742 11.1497 1.96619 9.99595 1.96141ZM392.655 26.8935C392.699 27.3094 391.275 27.1277 390.486 27.0608C390.599 27.1444 390.713 27.2282 390.826 27.3119C389.115 27.0985 385.969 26.7327 385.811 27.5254C384.619 27.5515 385.179 26.8909 384.796 26.7888C384.63 26.7471 383.08 27.0618 381.841 26.513C381.545 26.5011 381.252 26.49 380.962 26.4796C380.894 26.7387 380.827 26.9978 380.761 27.257C380.38 26.9231 379.971 26.5894 379.575 26.2576C383.847 26.354 388.211 26.5927 392.648 26.893C392.65 26.8931 392.652 26.8933 392.655 26.8935ZM350.558 29.0602C348.927 29.1628 346.394 29.3301 347.011 29.9578C348.034 29.7571 349.052 29.5581 350.063 29.3624C350.228 29.2616 350.394 29.1607 350.558 29.0602ZM183.404 30.3196C182.033 29.604 180.73 30.2052 178.595 30.0636C178.597 30.2127 178.599 30.3618 178.6 30.5109C179.46 30.1585 181.814 30.4128 183.404 30.3196ZM433.549 28.4809C433.832 28.5687 434.156 28.6611 434.458 28.7508C433.085 29.4022 432.988 28.8226 431.534 28.7346C431.451 28.73 431.459 28.9155 431.43 28.9134C431.093 28.8873 430.805 28.6318 430.495 28.5996C429.9 28.5381 429.361 28.7013 428.327 28.5743C427.513 28.4736 427.541 28.1228 427.25 28.0983C427.002 28.0785 424.458 28.7596 422.975 28.1697C420.104 27.0375 432.632 28.3047 433.549 28.4809ZM442.599 30.0945C442.243 30.0677 441.97 30.0465 441.638 30.0192C442.643 29.5679 440.71 29.4768 439.333 29.342C439.46 28.8338 442.228 29.3471 443.775 29.2944C443.403 29.5655 443.012 29.8321 442.599 30.0945ZM405.425 24.9064C406.567 24.9688 406.311 25.5938 406.245 25.7807C405.883 25.7438 405.522 25.7072 405.16 25.6708C405.249 25.416 405.337 25.1612 405.425 24.9064ZM414.003 25.584C413.597 25.9814 411.109 25.9055 409.936 25.8185C409.885 25.8133 410.232 25.6071 409.403 25.5423C409.153 25.5224 406.618 26.1423 407.258 25.2072C409.504 25.3252 411.754 25.4518 414 25.5837C414.001 25.5838 414.002 25.5839 414.003 25.584ZM416.471 26.1171C415.99 26.2026 415.514 26.2888 415.033 26.3747C414.815 26.1431 414.596 25.9115 414.376 25.6798C414.915 25.6863 415.45 25.6929 415.983 25.6995C416.146 25.8387 416.306 25.9775 416.471 26.1171ZM62.9359 26.489C63.0467 26.7097 63.1576 26.9305 63.2687 27.1512C63.7158 27.2867 65.7549 26.3269 65.1084 26.1405C64.3989 26.2567 63.6682 26.3728 62.9359 26.489ZM54.207 26.0224C53.7685 25.9109 53.3327 25.7995 52.8999 25.688C52.4019 26.0622 51.9078 26.4363 51.4175 26.8105C53.5564 27.0636 55.8724 27.3554 55.4923 26.2514C55.9781 26.2515 56.4671 26.2517 56.9594 26.2519C56.5464 26.7082 56.5964 26.8586 57.8926 27.1488C58.1772 26.5138 59.5272 26.8379 61.0289 26.699C59.9307 26.6613 58.829 26.6238 57.7027 26.5862C57.7028 26.4742 57.7028 26.3622 57.7029 26.2503C60.206 26.2918 57.0795 25.5802 55.4991 26.0248C55.374 25.8757 55.249 25.7266 55.1243 25.5774C54.8233 25.7257 54.5234 25.8741 54.207 26.0224ZM232.678 27.2089C232.363 27.09 232.071 26.9716 231.773 26.8532C230.571 28.2972 233.001 26.9517 234.694 28.1484C234.154 27.2549 236.731 27.346 236.904 27.291C236.606 26.9875 236.306 26.6841 236.005 26.3807C234.92 26.6564 233.811 26.9325 232.678 27.2089ZM224.045 26.0418C225.112 26.7902 219.857 26.7515 218.165 26.5678C217.743 26.5221 216.987 26.1099 216.675 26.1563C216.485 26.3022 216.294 26.448 216.103 26.5939C216.062 26.4971 215.906 26.4371 215.67 26.4052C214.699 26.2676 212.241 26.6591 211.119 26.87C210.99 26.6816 210.871 26.4933 210.748 26.305C210.266 26.3734 209.78 26.4419 209.292 26.5104C209.356 26.3249 209.419 26.1395 209.482 25.954C209.111 26.1736 208.739 26.3933 208.365 26.613C206.9 26.8455 207.815 25.8407 206.706 26.1451C205.468 26.4832 207.483 27.1099 207.438 27.5029C208.448 27.4126 210.638 27.2112 211.665 27.2126C212.243 27.2138 211.594 27.9101 214.075 27.1316C214.605 27.3248 215.131 27.5181 215.653 27.7115C215.66 27.714 215.667 27.7165 215.674 27.7191C216.697 27.4326 217.705 27.1464 218.696 26.8605C218.877 27.1242 219.057 27.3879 219.236 27.6516C219.323 27.6935 221.659 27.1357 221.538 26.9379C222.482 27.4515 224.339 27.5695 226.393 27.6301C226.59 27.4915 226.786 27.3529 226.981 27.2144C225.028 27.4873 226.364 27.0536 225.786 26.772C225.458 26.6096 224.391 26.2842 224.045 26.0418ZM76.5697 25.9258C73.3033 26.56 75.3305 26.0361 71.7642 26.0334C72.0119 26.3708 72.2602 26.7082 72.509 27.0457C74.2877 26.4308 77.1197 26.8429 76.5731 25.9259C76.572 25.9258 76.5708 25.9258 76.5697 25.9258ZM41.8272 27.0307C41.8321 27.0302 41.8369 27.0296 41.8418 27.0291C43.6655 26.8244 42.73 26.302 45.1301 26.135C45.1312 26.135 45.1324 26.135 45.1335 26.135C44.0098 26.1009 42.9122 26.0669 41.842 26.0328C41.7086 26.0288 41.5756 26.0248 41.443 26.0208C41.5707 26.3575 41.6987 26.6941 41.8272 27.0307ZM151.694 26.8117C153.497 26.966 153.144 26.702 154.774 27.2334C157.204 26.6086 155.149 26.6892 155.152 26.112C154.596 26.2788 154.039 26.4456 153.483 26.6124C152.136 26.0668 153.417 25.8007 153.417 25.7488C153.416 25.7488 153.415 25.7488 153.413 25.7488C153.414 25.5756 153.458 25.5393 152.941 25.4323C152.526 25.8921 152.11 26.3519 151.694 26.8117ZM159.41 26.1339C158.79 26.5142 158.511 27.0049 160.132 27.2585C160.133 27.2585 160.134 27.2585 160.135 27.2585C160.272 26.4026 161.814 27.1017 162.529 27.0479C162.717 26.9557 162.904 26.8636 163.092 26.7715C161.852 26.5587 160.64 26.3463 159.41 26.1339ZM186.578 25.513C186.577 26.4593 185.208 26.5389 187.127 27.4254C187.5 27.4114 187.873 27.3973 188.244 27.3833C188.49 27.1776 188.735 26.9718 188.98 26.7661C193.688 28.517 195.107 25.6118 187.133 26.6384C187.132 26.639 187.131 26.6397 187.13 26.6403C186.946 26.2645 186.762 25.8888 186.578 25.513ZM178.257 25.534C178.194 26.0303 178.131 26.5267 178.068 27.023C177.038 25.8179 175.684 26.9524 173.631 26.0944C173.446 26.2443 173.262 26.3942 173.077 26.5442C172.329 26.2065 164.804 26.0686 166.432 26.8419C167.137 27.1794 168.684 26.7348 168.821 26.7458C169.274 26.7858 169.862 27.2159 170.625 27.1956C171.065 27.1832 171.995 26.6871 172.888 26.6934C174.903 26.7077 178.538 28.0777 181.207 26.8216C181.396 26.9726 181.586 27.1237 181.775 27.2748C183.734 27.1973 183.086 26.7182 184.891 27.2972C186.18 24.9465 177.56 27.3618 179.364 25.4613C179.363 25.4613 179.361 25.4613 179.36 25.4613C178.993 25.4855 178.625 25.5098 178.257 25.534ZM124.282 26.0052C124.164 25.5812 121.889 26.2291 122.426 25.2153C121.683 25.5669 120.941 25.9185 120.2 26.2702C120.205 26.3646 120.211 26.459 120.216 26.5534C120.952 26.481 121.689 26.4087 122.426 26.3363C122.429 26.4861 122.431 26.6358 122.434 26.7856C123.533 26.2465 128.124 26.4951 127.981 27.0251C128.226 26.8019 128.472 26.5786 128.718 26.3554C130.91 26.9715 132.801 26.3289 135.189 26.9317C135.375 26.7468 135.56 26.5619 135.746 26.3769C135.866 26.527 135.986 26.6772 136.106 26.8273C136.977 26.849 137.846 26.8708 138.718 26.8927C141.558 26.2996 136.046 25.5001 135.378 25.5867C135.289 25.5988 135.302 25.9865 134.747 26.0456C133.762 26.1491 128.241 25.7465 126.538 25.9977C126.524 25.7405 126.51 25.4833 126.496 25.2261C125.76 25.4858 125.02 25.7455 124.282 26.0052ZM197.103 26.6128C197.226 26.8757 197.349 27.1385 197.471 27.4014C199.632 27.16 200.953 27.4018 200.42 26.531C200.419 26.531 200.418 26.531 200.417 26.5309C199.322 26.558 198.218 26.5853 197.103 26.6128ZM357.818 23.785C357.691 23.2775 356.672 23.2211 355.436 23.776C355.52 23.9166 355.603 24.0572 355.686 24.1979C356.293 23.664 357.241 24.3052 359.283 23.9267C359.248 23.6673 359.214 23.4079 359.179 23.1485C358.722 23.3602 358.271 23.5721 357.818 23.785ZM195.245 26.4828C194.602 26.1684 192.761 27.0887 193.966 27.1454C194.886 27.1883 195.591 26.6516 195.245 26.4828ZM34.4301 26.5231C34.9095 26.5779 35.3785 26.6327 35.8625 26.6875C36.1138 26.4649 36.3669 26.2423 36.6218 26.0197C36.6207 26.0197 36.6195 26.0197 36.6184 26.0197C35.874 26.1875 35.1531 26.3553 34.4301 26.5231ZM145.535 26.8296C147.185 26.8034 148.829 26.7775 150.474 26.7518C150.492 26.6067 150.509 26.4616 150.526 26.3165C148.874 26.8394 148.215 26.2658 147.83 26.2293C147.832 26.2293 147.834 26.2293 147.836 26.2293C146.601 26.1094 145.423 26.0203 144.253 25.8423C144.681 26.1714 145.108 26.5005 145.535 26.8296ZM139.892 25.8929C140.166 26.9197 140.529 27.0402 143.06 26.3281C142.961 26.2014 142.861 26.0748 142.761 25.9481C141.451 26.0188 140.685 26.2529 140.917 25.7188C140.575 25.7768 140.234 25.8348 139.892 25.8929ZM165.686 26.334C165.386 26.0057 162.971 26.321 163.1 26.4864C163.154 26.5519 166.275 26.9773 165.686 26.334ZM374.725 21.9515C374.236 21.8776 373.71 21.8077 373.212 21.7426C373.882 21.6183 374.548 21.5026 375.229 21.3931C375.058 21.5788 374.89 21.765 374.725 21.9515ZM380.509 20.6127C380.886 20.7597 379.619 21.6269 381.86 21.9623C380.225 21.907 378.588 21.8691 376.951 21.8602C377.708 21.7241 378.491 21.5951 379.251 21.4706C379.126 21.2015 379.001 20.9325 378.876 20.6636C379.409 20.6438 379.954 20.6269 380.509 20.6127ZM382.25 21.3646C381.38 20.6143 386.142 20.8135 386.564 20.9368C386.661 20.9633 387.096 21.5239 387.262 21.6494C386.537 21.6023 385.843 21.5595 385.116 21.5174C385.349 21.6987 385.58 21.8802 385.805 22.0616C384.969 22.0678 384.111 22.0763 383.291 22.0911C383.651 21.9416 384.014 21.793 384.382 21.6454C383.665 21.5485 382.977 21.4559 382.25 21.3646ZM364.126 22.1283C364.726 22.0752 365.322 22.0243 365.921 21.9751C365.772 21.7283 365.624 21.4817 365.475 21.2351C365.118 21.2755 364.762 21.3164 364.402 21.3585C364.31 21.6151 364.218 21.8717 364.126 22.1283ZM375.589 21.0022C374.741 22.2542 372.512 19.5181 375.135 20.5258C375.404 20.6299 375.671 20.881 375.589 21.0022ZM388.346 21.2056C390.276 20.4207 389.708 22.4125 387.993 21.6983C387.905 21.6606 388.204 21.2638 388.346 21.2056ZM402.48 22.3718C402.633 22.3937 402.835 23.0721 404.36 22.5955C404.594 22.694 404.829 22.7927 405.063 22.8914C404.466 23.1341 399.617 22.8507 400.347 22.2684C401.086 22.3277 401.716 22.2775 402.48 22.3718ZM398.017 19.5147C397.289 19.4676 396.564 19.4223 395.831 19.3777C396.054 19.6032 396.277 19.829 396.5 20.0549C396.136 20.0794 395.773 20.1043 395.411 20.1297C394.829 19.7241 394.255 19.3202 393.671 18.9166C395.247 18.9881 396.843 19.0692 398.425 19.1553C398.289 19.275 398.153 19.3948 398.017 19.5147ZM378.819 17.7447C380.176 18.0428 381.891 17.8334 384.139 17.9996C384.14 18.0003 384.141 18.0011 384.143 18.0018C384.255 18.0109 384.437 18.3038 384.801 18.3358C385.121 18.3482 391.23 18.4549 390.733 18.9082C388.329 19.1604 387.496 18.4566 386.859 19.482C386.759 19.2505 386.659 19.0191 386.559 18.7877C384.312 18.2589 383.644 19.0063 382.348 19.2282C382.361 19.0594 382.374 18.8906 382.387 18.7217C381.53 18.6642 380.723 18.6132 379.859 18.5657C379.974 18.6812 380.09 18.7968 380.206 18.9125C379.905 18.9013 379.606 18.8909 379.311 18.8814C378.608 18.3568 377.716 18.2176 378.819 17.7447ZM401.291 20.0977C402.087 18.8772 408.567 20.4043 411.595 20.464C409.94 21.0644 407.555 20.2799 405.839 20.0996C402.521 19.7536 404.769 20.4536 404.185 20.6038C403.898 20.6779 402.097 19.6752 401.291 20.0977ZM373.849 17.9143C375.411 18.0037 376.338 17.7207 377.718 18.2205C377.598 18.3116 377.479 18.4028 377.36 18.4942C376.886 18.3823 373.06 18.1161 373.849 17.9143ZM415.961 21.2759C412.803 20.4657 414.262 21.7952 412.693 20.7487C413.789 20.8111 414.898 20.8764 415.997 20.942C415.985 21.0533 415.973 21.1646 415.961 21.2759ZM191.596 21.6213C190.206 21.5804 188.731 21.3344 187.905 21.8123C188.829 21.8944 189.745 21.9766 190.663 22.0589C190.974 21.913 191.285 21.7672 191.596 21.6213ZM230.482 17.3779C230.175 17.2559 228.922 17.5757 228.788 17.5733C228.54 17.5688 228.614 17.4013 228.61 17.3572C227.064 17.3602 228.484 17.909 227.331 18.0026C227.155 18.018 224.351 17.7116 223.284 17.7163C221.589 17.7219 219.825 17.662 219.217 17.6623C218.436 17.6617 217.148 17.857 215.783 17.9603C215.307 17.9983 214.821 18.024 214.35 18.0233C213.622 18.0216 213.371 17.704 212.63 17.7026C207.905 17.6942 198.595 18.0319 194.397 17.7975C193.367 17.7389 192.379 17.3189 191.826 17.3478C191.391 17.4946 190.95 17.6413 190.515 17.7882C189.211 16.4238 188.759 17.6243 187.324 17.7395C186.411 17.8122 185.984 17.4079 185.861 17.408C185.039 17.4097 184.649 17.5978 184.015 17.6248C183.305 17.6546 182.281 17.4664 182.024 17.4973C181.865 17.5182 182.372 18.0545 179.58 18.0254C176.784 17.9959 173.956 17.9218 171.105 17.8802C172.055 19.4953 172.878 18.3986 174.05 18.3471C174.367 18.3333 174.164 18.5876 174.44 18.578C175.22 18.5523 176.705 18.3107 177.343 18.3757C178.032 18.4459 177.793 19.0366 178.666 18.8239C178.711 18.8129 178.573 18.5674 178.778 18.5278C180.846 18.137 181.548 18.5672 184.151 18.5985C185.899 18.6181 196.433 18.4626 196.794 18.6275C198.649 19.4996 187.583 19.4101 186.268 19.3349C185.81 19.3077 186.292 19.0412 185.875 18.9862C185.69 18.9641 184.121 19.4674 182.562 19.4991C180.664 19.5373 176.89 19.1609 175.081 19.1621C159.616 19.1727 144.368 18.8004 128.915 18.7487C128.585 18.7478 128.15 19.0551 127.078 19.0521C107.039 18.9905 86.2817 18.7203 65.9828 18.8541C61.5612 18.8832 57.1752 19.1715 52.704 18.9401C52.148 19.1652 51.5967 19.3902 51.0503 19.6153C52.4327 19.4366 55.1033 19.9471 55.3036 19.9546C55.3878 19.9569 55.9155 19.7031 56.7803 19.7169C57.9979 19.7354 58.5446 19.9559 58.6451 19.9559C58.9598 19.9568 58.7535 19.7224 59.0546 19.7237C61.2255 19.7348 62.9733 19.6691 64.9843 19.668C67.2404 19.6671 68.459 20.1042 70.0964 19.6262C70.2831 19.8132 70.47 20.0002 70.6573 20.1871C71.8878 19.3797 79.3451 19.4751 82.3131 19.5212C83.2605 19.5358 83.0947 19.8638 83.4139 19.8641C83.6141 19.8639 83.5501 19.4341 86.0215 19.5213C87.2608 19.5655 87.5888 19.8789 88.2143 19.8695C88.5546 19.8639 88.4995 19.5534 88.9894 19.554C91.8408 19.5575 94.1057 19.6613 96.8924 19.7229C97.6649 19.7399 97.6737 19.999 97.8469 19.9959C98.485 19.9852 99.5961 19.5482 101.231 19.552C103.908 19.5586 109.256 19.5701 111.441 19.7877C111.763 19.82 112.029 20.1313 112.267 20.1273C112.626 20.1201 112.768 19.7962 112.831 19.7946C114.034 19.7915 113.31 20.0915 114.116 20.02C114.547 19.9814 114.998 19.6125 116.003 19.573C117.331 19.5208 117.069 19.9592 117.624 19.9166C117.683 19.9098 117.701 19.6046 118.247 19.5958C120.327 19.5646 123.313 19.5016 125.278 19.5081C125.841 19.5096 126.259 19.7162 127.042 19.7219C128.62 19.7325 137.608 19.6296 138.343 19.751C138.421 19.7636 137.62 20.2112 138.894 20.2021C139.264 20.0159 139.635 19.8296 140.006 19.6434C140.623 19.9457 141.24 20.2481 141.857 20.5504C141.839 19.5133 145.476 19.3667 145.437 20.4271C145.836 20.4716 146.234 20.5161 146.632 20.5606C147.464 19.8313 148.015 20.1039 149.616 19.6801C149.865 19.9057 150.112 20.1313 150.362 20.357C150.425 20.2075 150.489 20.058 150.553 19.9085C151.407 20.7236 152.814 19.9149 152.984 19.9111C153.639 19.896 154.129 20.1044 154.436 20.0992C155.577 20.0828 158.071 19.8102 159.409 19.9485C159.472 19.9556 159.409 20.3021 159.789 20.3468C160.475 20.4275 160.545 19.92 161.456 20.5211C161.641 20.3723 161.826 20.2235 162.011 20.0747C162.206 20.1531 162.405 20.2316 162.601 20.3101C163.766 20.2763 164.928 20.2427 166.085 20.2093C165.029 20.7909 166.241 21.1253 167.385 20.6695C167.772 20.5149 167.431 20.1555 167.56 20.1021C167.735 20.0295 172.954 20.2417 173.284 20.4752C173.53 20.364 173.773 20.2529 174.023 20.1418C174.148 20.3678 174.272 20.5939 174.396 20.8199C174.533 20.742 174.67 20.664 174.807 20.5861C176.176 20.9912 179.659 20.1042 180.315 20.1807C180.657 20.2214 180.346 21.1793 181.982 21.0927C182.04 20.8294 182.099 20.5662 182.157 20.3029C182.532 20.2678 182.905 20.2327 183.278 20.1976C183.977 20.2261 184.985 20.6905 185.014 21.0032C185.234 20.8174 185.459 20.6316 185.681 20.4457C186.275 21.0609 189.415 20.8687 190.663 20.4925C191.035 20.6798 191.406 20.8671 191.777 21.0545C192.278 20.8347 192.777 20.6149 193.275 20.3952C194.423 20.3377 193.208 20.6995 193.452 20.7327C193.974 20.8013 196.588 20.1956 196.422 20.9777C196.787 20.9829 197.15 20.9882 197.512 20.9935C197.7 20.7713 197.888 20.5491 198.076 20.3268C198.694 21.1048 199.739 20.8418 201.94 21.1456C202.128 20.9697 202.315 20.7939 202.502 20.618C203.183 20.8775 203.859 21.1372 204.53 21.3969C204.672 21.1041 204.813 20.8113 204.954 20.5185C205.247 20.4793 205.539 20.4402 205.83 20.401C206.409 21.0664 207.524 20.3665 208.066 20.6445C208.861 21.0505 208.244 21.516 206.741 21.5907C206.88 22.0718 211.225 21.9014 212.294 21.8803C212.227 21.7857 212.16 21.6911 212.093 21.5965C211.02 21.6575 210.016 21.7198 208.972 21.7819C208.131 20.5648 210.885 20.9204 212.233 20.7818C212.352 20.7684 213.043 20.3194 214.341 20.3788C214.586 20.3902 215.172 20.5605 215.746 20.7372C216.38 20.9239 216.999 21.1179 217.193 21.1397C220.243 21.4882 217.992 20.5002 220.967 21.3819C220.343 20.731 222.091 21.29 223.842 21.1943C224.108 21.1771 226.754 20.7014 226.91 20.6909C227.985 20.6262 226.813 21.1726 228.356 21.0523C228.539 20.9065 228.738 20.761 228.932 20.6154C229.304 20.6221 229.674 20.6289 230.041 20.6358C232.228 22.0056 232.738 21.0378 233.548 20.9283C233.869 20.8841 233.452 21.2223 234.28 21.1659C234.59 21.145 234.942 20.8637 235.761 20.8608C238.411 20.8547 239.212 22.1078 241.675 20.8819C242.037 21.077 242.396 21.2721 242.751 21.4672C242.993 21.2498 243.265 21.0333 243.521 20.8165C245.425 21.5135 244.743 20.8323 245.426 20.8582C247.242 20.9253 250.956 21.1617 251.254 21.7063C252.861 20.5273 254.65 21.9717 255.3 21.9459C255.676 21.8095 256.048 21.6731 256.415 21.5367C256.837 21.7011 257.247 21.8655 257.687 22.0311C257.535 20.8192 259.69 22.0841 259.918 22.1115C260.184 22.1385 263.597 21.9164 264.886 21.9804C266.144 22.0406 268.342 22.4694 268.554 22.4806C268.788 22.4913 270.951 22.267 272.655 22.3601C274.112 22.4296 282.902 23.4094 282.378 22.8414C281.8 22.6586 280.997 22.4822 280.291 22.3708C278.105 22.0064 265.234 21.0657 261.923 20.8762C255.328 20.4421 248.411 20.2665 241.771 19.9876C241.382 19.9713 241.33 19.6576 240.993 19.6425C240.478 19.621 239.161 19.9031 238.676 19.8855C236.796 19.8155 234.526 19.7172 233.509 19.6891C231.245 19.6278 229.724 19.4117 228.017 19.3508C227.523 19.3327 224.737 19.6719 222.955 19.4808C222.624 19.3876 222.291 19.2945 221.956 19.2015C222.914 19.1134 225.388 18.888 226.565 18.8781C228.278 18.8637 229.165 19.1336 229.815 19.1411C230.364 19.1475 233.051 18.9104 234.317 18.9299C234.702 18.9356 234.773 19.2647 235.099 19.2704C236.869 19.2992 239.209 19.3428 240.794 19.0595C240.171 19.1488 244.082 19.4456 244.311 19.4515C244.667 19.4607 245.061 19.1642 245.773 19.1833C247.157 19.2209 246.999 19.8576 248.731 19.2653C249.139 19.464 249.586 19.6639 250.014 19.8635C250.072 19.0084 255.472 20.3399 257.046 19.3602C257.111 19.2404 250.047 18.6786 249.44 18.6489C245.943 18.4425 240.737 18.5218 237.356 18.299C236.281 18.2296 233.148 17.6459 232.867 17.6505C232.466 17.6572 232.822 17.9614 232.649 17.9685C229.22 18.123 230.933 17.5594 230.482 17.3779ZM382.439 17.3222C381.403 17.2379 380.385 17.1612 379.35 17.0928C379.43 16.9077 379.511 16.7228 379.592 16.5379C380.058 16.6264 380.554 16.7179 381.011 16.8095C381.373 16.7122 381.739 16.616 382.11 16.5209C382.219 16.7879 382.329 17.055 382.439 17.3222ZM385.032 16.6725C385.949 16.6312 385.964 17.0294 386.169 17.061C386.779 17.1573 387.325 17.0322 387.933 17.0784C387.161 17.9674 385.753 17.4477 385.032 16.6725ZM366.773 16.4573C366.938 16.475 367.853 17.0038 368.939 16.7204C369.199 16.645 369.483 16.5072 369.787 16.2771C370.906 16.4928 372.03 16.7493 373.118 17.0269C371.803 16.7218 370.032 16.9583 368.984 17.1744C368.486 17.2659 368.076 17.3432 367.805 17.3661C367.444 17.3966 367.342 17.0954 367.05 17.1211C365.38 17.2726 363.837 18.1629 363.547 17.1622C365.161 17.2718 366.508 16.43 366.773 16.4573ZM376.608 16.3758C376.865 16.5942 377.125 16.8135 377.385 17.0336C376.444 17.0149 375.469 17.0052 374.54 17.0088C374.79 16.7904 375.045 16.573 375.305 16.3564C375.736 16.3604 376.193 16.3673 376.608 16.3758ZM301.444 23.3235C302.059 23.3257 302.674 23.3255 303.289 23.3228C303.254 23.1667 302.551 23.1724 302.291 23.0675C302.292 23.0675 302.294 23.0675 302.295 23.0675C302.006 22.9491 302.128 22.7474 301.605 22.6593C301.551 22.8807 301.498 23.1021 301.444 23.3235ZM50.3277 18.9433C49.5546 18.9347 44.1894 18.9305 41.8437 19.1597C40.9682 19.2405 40.483 19.3504 40.6932 19.4994C40.8273 19.593 41.2677 19.6292 41.8436 19.6358C42.9476 19.6492 44.6148 19.5383 45.2685 19.5415C46.5453 19.5476 49.9912 20.166 50.3277 18.9433ZM33.6693 18.8278C33.5545 19.3968 39.3804 19.4887 39.9442 19.3898C39.8223 19.3087 39.6349 19.128 39.4737 19.087C38.7184 18.8907 34.9413 18.9837 33.6693 18.8278ZM267.429 20.2188C267.881 20.5276 268.339 20.837 268.804 21.1472C268.697 20.7674 268.589 20.3875 268.48 20.0076C268.113 20.077 267.781 20.1483 267.429 20.2188ZM221.57 19.3694C219.585 19.3345 217.76 19.304 215.766 19.2728C209.816 19.1795 203.873 19.1017 197.919 19.0324C198.616 18.8833 199.31 18.7343 200 18.5854C205.182 18.6775 210.602 18.8388 215.771 18.8483C217.448 18.852 219.03 18.8398 220.591 18.8057C220.919 18.9935 221.246 19.1814 221.57 19.3694ZM364.399 15.0241C362.401 15.248 360.771 15.7263 358.546 15.58C360.561 14.8867 361.665 15.4092 363.604 14.5519C363.605 14.5517 363.606 14.5516 363.607 14.5515C363.872 14.7086 364.138 14.866 364.399 15.0241ZM319.661 21.0998C320.257 20.7858 320.847 20.4694 321.438 20.1503C320.698 20.2208 319.96 20.2871 319.22 20.3493C319.367 20.5996 319.514 20.8498 319.661 21.0998ZM152.788 17.34C150.663 17.9017 145.269 16.8463 143.544 17.5274C143.433 17.5721 144.452 17.8658 142.801 18.4211C144.047 18.3107 144.929 18.1968 145.024 17.7556C145.394 17.9068 145.764 18.0579 146.135 18.2091C146.75 18.0982 147.365 17.9874 147.979 17.8766C147.911 18.3159 147.96 18.2927 148.904 17.9955C149.333 18.1086 149.762 18.2217 150.191 18.3348C150.375 18.1494 150.558 17.964 150.742 17.7785C151.115 18.0405 151.487 18.3025 151.859 18.5645C153.314 18.2883 152.431 17.7799 152.788 17.34ZM160.187 17.4816C159.845 17.3823 150.042 17.654 154.491 18.5506C155.645 18.5278 156.803 18.5051 157.964 18.4826C157.012 17.0262 160.163 18.3396 160.42 18.3714C161.652 18.5193 163.24 18.1822 164.141 18.2048C164.916 18.2246 165.373 18.4875 165.917 18.4838C167.756 18.471 170.704 18.4785 171.105 17.8802C169.669 17.8592 168.183 17.8443 166.7 17.8513C165.124 17.8585 163.716 17.2839 160.745 18.0469C160.011 17.9597 160.275 17.5069 160.187 17.4816ZM323.292 20.0257C323.284 20.445 325.047 20.3191 326.146 20.1059C326.642 20.0104 327.003 19.9 327.001 19.8253C326.995 19.7374 326.51 19.7655 326.108 19.7886C325.871 19.8024 325.663 19.8146 325.597 19.8026C325.595 19.8028 325.594 19.8029 325.593 19.803C325.518 19.7884 325.858 19.5166 325.281 19.5187C324.62 19.6909 323.957 19.8599 323.292 20.0257ZM64.9367 17.5997C64.4006 17.2604 52.9317 17.3774 52.5273 17.5397C52.4347 17.5847 52.5637 17.7332 52.5272 17.819C55.2646 17.342 59.0854 17.909 61.6125 17.9476C62.326 17.958 62.1135 17.718 62.1537 17.7135C62.1554 17.7135 62.1571 17.7135 62.1588 17.7135C62.5585 17.7131 64.4243 18.3001 64.9367 17.5997ZM139.846 17.7894C140.336 17.8855 140.827 17.9817 141.318 18.0778C141.443 17.8914 141.568 17.705 141.694 17.5186C141.692 17.5186 141.691 17.5186 141.69 17.5186C141.075 17.6089 140.461 17.6991 139.846 17.7894ZM122.832 17.1228C122.951 17.2546 123.071 17.3864 123.19 17.5182C124.425 17.5397 125.667 17.5612 126.901 17.5829C126.776 17.6568 126.651 17.7306 126.527 17.8045C128.393 18.0081 129.169 17.5482 130.165 17.6176C130.164 17.6176 130.163 17.6176 130.162 17.6176C130.269 17.6257 130.398 17.9001 130.797 17.9105C131.712 17.9346 134.33 18.0447 134.648 17.7701C135.32 17.1838 130.046 17.4467 129.063 17.4172C128.619 17.4035 128.085 17.1622 127.815 17.1558C127.519 17.1497 127.115 17.4724 126.395 17.4604C126.186 17.4564 123.842 17.0691 122.832 17.1228ZM101.008 17.4697C101.389 17.7668 102.194 17.4818 102.483 17.5307C102.552 17.5423 102.012 17.7895 102.667 17.865C102.852 17.6961 103.038 17.5271 103.224 17.3582C102.492 17.3953 101.749 17.4325 101.008 17.4697ZM329.519 18.9902C329.403 18.9436 327.411 19.2263 327.32 19.276C326.189 19.9671 330.324 19.3745 329.519 18.9902ZM379.695 12.6565C378.833 11.7869 389.736 13.1382 390.788 13.2249C390.692 13.7115 388.143 13.0338 389.448 13.8056C388.182 13.3366 384.557 13.3138 383.733 13.1687C383.237 13.0775 383.112 12.6443 383.037 12.627C382.718 12.5591 380.021 12.94 379.695 12.6565ZM399.787 14.3137C398.753 14.1247 397.733 13.9394 396.699 13.7558C397.931 13.8062 399.155 13.8601 400.389 13.9182C400.189 14.05 399.988 14.1819 399.787 14.3137ZM401.111 14.2111C401.122 13.7291 404.611 14.4305 405.545 14.4151C404.422 15.1219 402.758 14.1866 401.111 14.2111ZM342.505 15.7697C340.848 15.7134 340.385 17.2659 342.241 16.326C342.297 16.2958 342.575 15.7756 342.505 15.7697ZM152.293 15.2832C152.014 15.2729 148.56 14.785 148.361 15.0188C147.727 15.7642 149.989 15.4734 150.751 15.7591C151.976 16.222 150.171 16.5913 153.166 16.328C153.043 16.4772 152.92 16.6264 152.797 16.7756C154.547 16.8329 153.978 15.7931 154.293 15.6611C154.39 15.621 155.481 15.7131 155.678 15.6478C158.143 14.8234 152.555 15.2911 152.293 15.2832ZM302.523 19.5098C299.292 19.0741 300.682 19.7272 297.362 19.647C297.246 19.985 302.106 19.8137 302.523 19.5098ZM183.871 16.0535C180.52 16.1588 177.769 15.71 174.626 16.2686C174.834 17.1592 184.745 16.2886 183.871 16.0535ZM26.2712 14.7774C31.2139 15.3805 36.4854 15.68 41.8445 15.8183C50.5455 16.0443 59.6417 15.8401 68.2719 15.8302C69.8164 15.8289 69.9244 16.1821 70.4762 16.1442C70.8326 16.1196 70.7702 15.8352 71.2455 15.8342C88.4979 15.8001 105.004 15.4508 121.518 15.6624C122.555 15.6762 127.621 16.3005 128.702 15.383C129.52 14.6867 125.889 15.2211 125.279 15.2133C124.823 15.2075 124.804 14.8792 124.501 14.8772C124.178 14.8752 124.444 15.1002 124.07 15.1026C122.482 15.1142 120.762 15.0222 119.325 15.0379C105.28 15.1879 91.5957 15.1155 77.6225 15.0716C75.9289 15.0668 76.2805 14.804 76.1946 14.8028C76.1935 14.8035 76.1924 14.8041 76.1912 14.8048C67.1492 14.7723 56.795 15.3578 47.1514 15.13C45.4458 15.082 43.5442 15.034 41.8447 14.9861C36.8596 14.8514 31.8573 14.7168 26.8583 14.5822C26.6611 14.6473 26.4654 14.7123 26.2712 14.7774ZM159.453 16.2437C158.615 15.2478 158.416 16.2467 155.39 15.8282C155.143 15.9963 154.896 16.1645 154.65 16.3326C156.243 16.3027 157.858 16.2731 159.458 16.2437C159.456 16.2437 159.454 16.2437 159.453 16.2437ZM139.45 15.7998C138.94 14.458 132.169 15.3825 129.117 15.1185C128.556 15.7896 132.992 15.5005 134.036 15.5748C134.558 15.6114 137.35 16.3124 139.478 15.9366C139.468 15.891 139.459 15.8454 139.45 15.7998ZM368.051 10.8999C367.558 10.9885 367.074 11.0777 366.583 11.1687C367.186 11.177 367.784 11.1878 368.391 11.1995C369.019 11.214 369.725 11.2386 370.374 11.279C369.727 11.2843 369.026 11.3054 368.405 11.3362C367.063 11.4044 365.737 11.4804 364.397 11.5668C364.73 11.2493 365.072 10.9316 365.406 10.6155C366.287 10.7065 367.169 10.8012 368.051 10.8999ZM361.683 11.7522C365.111 11.2378 361.606 12.4011 360.714 12.1828C360.176 12.0503 361.332 11.8057 361.683 11.7522ZM352.692 12.4835C354.217 11.7625 357.455 11.2843 356.437 12.4084C354.645 12.1956 353.583 12.7286 351.046 12.8422C351.382 12.6028 351.721 12.3634 352.06 12.1243C352.062 12.1241 352.064 12.1238 352.066 12.1236C352.274 12.2435 352.483 12.3634 352.692 12.4835ZM363.186 10.9786C365.508 11.2657 358.959 11.86 360.963 11.2464C361.056 11.2163 363.094 10.9662 363.186 10.9786ZM40.6946 13.773C40.5177 13.9779 41.1798 14.0487 41.8449 14.0788C42.1908 14.0955 42.5366 14.0998 42.7391 14.1075C45.235 14.2027 48.4477 14.0649 51.0553 14.1096C50.862 14.0048 50.6694 13.8999 50.4773 13.795C47.5672 13.7884 44.668 13.7819 41.8449 13.7755C41.4579 13.7747 41.0745 13.7738 40.6946 13.773ZM59.2112 14.1146C60.9648 14.1153 62.7746 14.1162 64.5695 14.1172C64.7334 14.1173 65.5071 13.8444 64.9321 13.7775C63.0345 13.8898 61.0804 14.0021 59.2112 14.1146ZM170.754 14.3938C169.384 14.2073 173.335 13.3163 173.148 14.2947C172.352 14.3277 171.554 14.3607 170.754 14.3938ZM183.516 14.0861C182.659 14.173 181.798 14.26 180.933 14.3471C180.933 14.2345 180.932 14.1219 180.932 14.0092C181.797 14.0347 182.659 14.0603 183.516 14.0861ZM33.6706 13.5467C34.64 13.9324 36.7065 13.8735 38.1266 13.8818C37.1431 13.5504 34.9901 13.7127 33.6706 13.5467ZM150.203 13.8975C150.315 14.1603 144.863 14.0725 146.753 13.6179C147.904 13.7109 149.055 13.8041 150.203 13.8975ZM139.128 13.4667C140.299 13.4133 141.204 13.5068 140.962 13.9185C140.342 13.8987 139.722 13.8789 139.101 13.8592C139.11 13.7284 139.119 13.5975 139.128 13.4667ZM346.504 12.6319C344.555 12.9751 342.612 13.3241 340.674 13.6707C340.728 13.548 340.783 13.4253 340.837 13.3026C342.706 12.9676 344.58 12.6306 346.459 12.2989C346.474 12.4099 346.489 12.5209 346.504 12.6319ZM32.5499 12.5348C31.2437 12.608 29.8136 12.6813 28.5038 12.7545C29.8147 12.8303 31.2458 12.9062 32.5531 12.982C32.5532 12.8323 32.5532 12.6826 32.5532 12.5328C32.5521 12.5335 32.551 12.5341 32.5499 12.5348ZM373.727 8.02861C367.305 7.67029 375.503 6.86473 377.103 7.73224C377.105 7.73162 377.107 7.731 377.108 7.73038C377.25 7.80098 376.943 8.12577 377.178 8.26286C376.559 8.1031 375.924 7.94696 375.277 7.79598C374.682 7.97994 374.151 8.16752 373.534 8.36105C373.336 8.29073 373.14 8.22099 372.945 8.15185C373.202 8.10974 373.463 8.06867 373.727 8.02861ZM398.47 9.05091C403.946 9.61234 398.271 9.91143 395.606 9.03874C395.634 8.88865 397.972 8.99963 398.47 9.05091ZM384.012 8.17457C383.14 8.20418 382.235 8.23664 381.372 8.27641C381.266 8.17756 381.161 8.07891 381.052 7.98015C381.719 7.91254 382.393 7.84832 383.079 7.78754C383.393 7.91608 383.711 8.0455 384.012 8.17457ZM354.733 8.33487C353.326 8.43086 351.702 9.71545 356.127 8.81773C356.109 8.70646 356.092 8.59518 356.074 8.48391C355.901 8.52576 355.389 8.70318 355.36 8.69884C355.274 8.68237 355.318 8.29623 354.733 8.33487ZM408.905 7.07601C409.066 7.04967 409.27 5.87528 410.769 7.26733C411.267 7.24419 411.764 7.22131 412.26 7.19862C412.359 7.47225 412.457 7.74588 412.555 8.01951C410.689 7.61744 410.428 8.12391 410.29 8.12062C409.654 8.10417 410.149 7.88189 409.742 7.83582C408.696 7.71737 406.287 7.65824 407.449 6.99433C407.868 6.7567 408.745 7.10254 408.905 7.07601ZM405.257 6.02967C405.478 6.15102 404.7 6.42388 404.865 6.53875C405.01 6.63818 407.265 7.21926 406.586 7.74167C406.213 7.67942 405.84 7.6174 405.466 7.55563C405.355 7.38302 405.243 7.21043 405.132 7.03786C404.753 7.14976 404.374 7.26192 403.996 7.37438C403.421 6.91989 402.158 6.28285 403.746 6.11009C403.17 6.08858 402.595 6.06777 402.02 6.04773C401.707 6.20916 401.393 6.37082 401.08 6.53272C401.262 6.2586 401.444 5.98457 401.626 5.71061C402.835 5.81382 404.049 5.92065 405.257 6.02967ZM422.869 8.02696C422.784 8.16795 422.698 8.30894 422.612 8.44992C424.718 8.40794 427.95 8.6731 426.02 9.39662C423.185 9.15035 420.386 8.91181 417.547 8.67693C417.372 8.5444 417.198 8.41186 417.023 8.27931C419.066 8.94137 418.639 7.03634 420.405 7.76675C420.704 7.8908 419.732 8.43102 421.719 8.2389C421.667 8.08161 421.614 7.92433 421.561 7.76703C422 7.85387 422.436 7.94053 422.869 8.02696ZM440.598 10.2649C437.123 9.67197 441.059 9.55044 441.605 10.0598C441.603 10.0597 441.602 10.0596 441.601 10.0595C443.259 11.4795 439.508 10.4886 439.29 10.468C438.999 10.4472 438.141 11.2495 436.62 9.77254C437.947 9.94035 439.256 10.1042 440.598 10.2649ZM429.1 8.74201C429.406 8.74784 429.213 8.95304 429.344 8.96481C429.345 8.96494 429.346 8.96507 429.348 8.96521C431.252 9.13635 435.799 9.4544 436.18 10.23C434.801 10.1374 428.469 9.56524 428.161 9.03105C428.476 8.93495 428.789 8.83861 429.1 8.74201ZM415.635 7.76976C414.51 7.17219 417.171 7.39886 417.831 7.69252C417.956 7.75396 416.807 8.38941 415.635 7.76976ZM324.357 9.89736C321.939 10.4571 325.192 10.3743 324.127 10.9421C324.43 10.8829 324.733 10.8229 325.036 10.7622C325.198 10.7296 325.36 10.6969 325.522 10.6639C325.342 10.5461 325.162 10.4281 324.982 10.3097C324.773 10.1726 324.565 10.0352 324.357 9.89736ZM208.022 7.39556C207.416 7.33624 207.7 7.6106 207.648 7.61401C207.249 7.60197 206.872 7.37693 206.718 7.39859C203.918 7.81409 205.775 8.06197 205.799 8.11515C205.854 8.384 205.123 8.68997 206.128 9.00742C206.748 8.91911 207.387 8.83114 208.011 8.74313C208.319 8.8957 208.626 9.0483 208.932 9.20092C210.165 8.89532 208.558 8.78894 208.378 8.36251C208.309 8.19488 209.475 8.00843 208.022 7.39556ZM319.884 9.45996C319.533 9.96608 318.608 10.6444 319.61 11.0305C319.611 11.0304 319.612 11.0303 319.613 11.0302C319.798 11.1008 320.527 11.0807 320.761 11.1801C322.286 10.398 321.604 9.81867 319.884 9.45996ZM219.179 6.69413C220.155 6.81826 221.177 6.94353 222.185 7.06915C222.163 7.35139 222.142 7.63364 222.12 7.91588C221.582 7.8314 221.039 7.74699 220.492 7.66266C220.299 7.78872 220.118 7.91495 219.93 8.04112C220.561 8.37266 221.269 8.70558 221.926 9.03799C222.736 8.93781 223.534 8.8378 224.322 8.73796C223.963 8.58303 223.602 8.42812 223.238 8.27326C225.17 8.13963 224.755 8.82007 226.383 9.11017C226.945 8.858 227.502 8.60593 228.054 8.35394C228.823 8.63058 229.666 8.90895 230.463 9.1869C231.817 9.08949 231.932 8.89157 231.035 8.57454C231.721 8.24482 232.397 8.79689 233.241 8.67402C233.31 8.66411 233.188 8.3389 233.248 8.3362C237.448 8.20373 237.206 9.04939 237.879 9.09961C238.365 9.13487 240.208 8.60507 240.27 8.41166C240.304 8.15015 236.406 7.02061 242.567 7.1403C239.379 6.34422 235.782 6.99815 238.095 8.10028C237.061 7.97007 232.655 8.14206 232.359 8.10576C231.956 8.05029 232.107 7.65414 231.597 7.63392C231.302 7.62281 230.459 8.51795 228.066 7.67828C227.76 7.82263 227.453 7.967 227.143 8.1114C226.858 7.9834 226.571 7.85541 226.283 7.72745C226.888 7.29889 227.488 6.87043 228.081 6.44207C225.739 6.87748 223.774 5.9502 222.341 6.68287C221.097 6.57576 220.476 6.47985 221.027 6.10218C220.645 6.09644 220.271 6.09089 219.909 6.08557C219.666 6.28841 219.423 6.49126 219.179 6.69413ZM312.733 10.6623C311.54 10.2885 311.166 11.2494 311.35 11.2948C312.396 11.5394 313.356 10.8554 312.733 10.6623ZM210.245 7.92323C211.557 8.18223 212.984 8.44332 214.317 8.70405C214.321 8.40526 214.324 8.10647 214.328 7.80767C212.991 7.84573 211.56 7.88344 210.245 7.92323ZM324.637 9.18833C324.722 9.31174 324.807 9.43509 324.893 9.55838C324.952 9.64346 325.011 9.72852 325.07 9.81354C326.374 8.83433 327.925 9.81177 328.597 9.47527C328.742 9.40208 328.383 9.05215 328.081 9.00704C327.915 8.98522 325.577 9.07011 324.845 9.15063C324.739 9.16276 324.667 9.17534 324.637 9.18833ZM387.702 3.43328C387.124 3.54726 386.561 3.66353 385.97 3.77978C386.016 3.5301 386.063 3.28044 386.11 3.0308C386.397 3.00066 386.687 2.97109 386.965 2.94115C387.21 3.10486 387.456 3.2689 387.702 3.43328ZM381.177 3.49347C380.113 3.43193 379.134 3.38049 378.057 3.33609C382.031 3.21622 378.767 3.00519 381.206 2.76163C381.196 3.00558 381.187 3.24952 381.177 3.49347ZM370.334 2.95516C370.465 2.79798 370.598 2.64115 370.732 2.48465C371.925 2.43251 372.954 2.41113 374.084 2.4022C373.383 1.88515 372.657 1.37514 371.947 0.873193C371.555 0.883007 371.088 0.898235 370.666 0.915753C370.551 1.59534 370.44 2.27516 370.334 2.95516ZM181.348 6.0356C180.747 6.02233 178.661 6.46456 178.754 6.63319C179.603 6.84521 180.48 7.05756 181.343 7.26993C181.349 6.97049 181.355 6.67106 181.361 6.37162C181.482 6.52155 181.603 6.67149 181.725 6.82142C182.217 6.71289 182.708 6.60439 183.198 6.49592C183.443 6.7594 183.687 7.02288 183.931 7.28637C184.18 6.98935 184.429 6.69234 184.678 6.39534C182.329 5.8484 182.398 6.37869 181.907 6.36958C181.656 6.36529 181.499 6.17877 181.411 6.08486C181.39 6.06844 181.369 6.05202 181.348 6.0356ZM211.193 6.02822C208.421 5.92055 206.702 6.69027 204.712 6.00972C205.773 7.22829 212.316 6.39683 215.931 6.91568C216.543 7.00009 217.074 7.11988 217.493 7.28946C217.81 7.06858 218.124 6.84772 218.438 6.62688C217.437 6.73593 216.613 6.59715 215.937 6.4559C215.532 6.36747 215.182 6.27803 214.879 6.24833C214.255 6.18721 214.316 6.42411 214.268 6.42011C214.266 6.42008 214.264 6.42005 214.261 6.42002C212.791 6.30422 212.326 6.07132 211.193 6.02822ZM326.482 7.85181C325.909 7.65563 325.066 7.71251 324.704 7.97101C324.584 8.05649 324.516 8.1642 324.528 8.29257C324.6 8.29941 324.673 8.30619 324.745 8.31294C325.384 8.37317 326.028 8.42958 326.674 8.4829C326.513 8.3694 326.612 7.89652 326.482 7.85181ZM368.875 1.59008C368.495 1.53173 367.87 1.57859 367.448 1.69424C367.095 1.80195 366.906 1.97082 367.24 2.16202C367.268 2.17793 367.368 2.165 367.493 2.14736C367.976 2.08135 368.799 1.97579 368.084 2.65823C369.743 2.51146 369.312 1.66008 368.875 1.59008ZM259.694 8.16591C260.174 8.16882 260.711 8.17424 261.21 8.17859C261.336 7.97367 261.461 7.76874 261.586 7.56383C260.968 7.76446 260.296 7.96359 259.694 8.16591ZM332.537 6.64015C333.328 7.55898 334.27 6.40572 335.61 7.05037C336.057 6.98724 336.509 6.92293 336.957 6.85888C336.958 6.8587 336.959 6.85853 336.96 6.85835C336.929 6.57991 336.897 6.30147 336.866 6.02303C335.412 6.23512 333.969 6.44226 332.537 6.64015ZM228.44 6.84106C228.735 6.97655 229.049 7.11242 229.361 7.24833C229.922 7.10684 230.478 6.96544 231.028 6.82413C230.734 6.70983 230.438 6.59556 230.141 6.48131C229.58 6.60113 228.979 6.72044 228.44 6.84106ZM340.396 5.3215C338.791 5.44742 338.338 6.42277 340.363 6.10209C341.215 5.96597 342.082 5.18843 340.396 5.3215ZM150.617 6.20014C151.169 6.27862 151.721 6.35713 152.272 6.43568C152.46 6.24899 152.649 6.06231 152.837 5.87563C152.098 5.98375 151.358 6.09191 150.617 6.20014ZM377.502 1.52561C377.429 1.71178 377.356 1.898 377.284 2.08428C376.76 2.03752 376.251 1.99345 375.696 1.95229C375.834 1.76693 375.972 1.58178 376.112 1.39685C376.593 1.43773 377.034 1.48049 377.502 1.52561ZM154.326 6.33139C154.766 6.36916 155.205 6.40694 155.644 6.44475C155.94 6.35495 156.233 6.26515 156.532 6.17539C156.117 6.08298 155.71 5.99063 155.299 5.89827C154.975 6.04263 154.651 6.18701 154.326 6.33139ZM355.719 3.08995C355.059 2.95068 352.641 3.9996 354.929 3.86069C356.386 3.7752 355.819 3.11134 355.719 3.08995ZM359.101 2.41945C356.637 2.30473 358.714 4.22277 361.424 2.47453C358.542 3.01902 359.247 2.42914 359.101 2.41945ZM381.683 0.190806C381.745 0.194552 381.782 0.509311 382.277 0.542251C384.084 0.659421 386.42 0.917018 387.667 1.01618C390.711 1.22593 399.917 1.4331 400.887 2.44898C401.092 2.65908 400.529 3.17901 400.616 3.2165C400.877 3.32193 402.415 3.18805 402.097 3.57928C400.612 3.43677 399.116 3.29796 397.622 3.16543C398.018 2.90296 398.409 2.64058 398.801 2.37851C395.052 2.21073 396.291 2.30343 395.168 2.85478C394.551 2.55406 393.935 2.25472 393.321 1.95688C391.935 2.10037 390.508 2.24719 389.111 2.40418C389.446 2.23947 389.767 2.0743 390.093 1.90985C388.024 1.42082 388.577 1.68731 387.407 2.06635C387.416 1.87973 387.425 1.6931 387.435 1.50647C385.377 1.83617 384.995 1.25996 384.556 1.22888C383.632 1.17439 382.4 3.30278 378.902 0.998835C377.339 2.01792 377.414 -0.129633 376.508 0.951784C373.87 -0.263531 378.907 0.203306 381.164 0.352011C381.165 0.352057 381.166 0.352105 381.167 0.352152C381.339 0.362289 381.085 0.151197 381.683 0.190806ZM367.812 1.41193C368.359 1.05555 368.015 0.861905 367.361 0.81356C366.185 0.686075 363.871 1.1995 365.314 2.00761C365.611 2.02177 365.91 2.03623 366.204 2.05158C366.611 1.88254 367.021 1.71409 367.434 1.5463C367.561 1.5009 367.688 1.45599 367.817 1.41155C367.815 1.41168 367.814 1.41181 367.812 1.41193ZM314.662 7.73219C309.692 8.42622 312.561 8.82172 314.225 8.17338C314.556 8.04392 314.731 7.88343 314.662 7.73219ZM207.167 5.23552C207.087 5.35117 207.006 5.46682 206.926 5.58247C208.752 5.49315 212.137 5.98345 212.13 5.1978C210.447 5.20901 208.852 5.22233 207.167 5.23552ZM221.317 4.90529C220.913 4.85166 219.369 4.71709 219.552 5.01387C220.212 5.23181 220.898 5.45037 221.585 5.6692C221.908 5.5439 222.228 5.41862 222.547 5.29337C222.106 5.24219 221.423 4.91927 221.317 4.90529Z" fill="#FEF08A"/>
</svg>
