<svg width="1280" height="60" viewBox="0 0 1280 60" fill="none" xmlns="http://www.w3.org/2000/svg">
<mask id="path-1-inside-1_1191_1235" fill="white">
<path d="M102.084 12C127.434 12 148.001 32.4674 148.165 57.7783C163.643 62.0972 174.999 76.2987 174.999 93.1543C174.999 113.437 158.557 129.881 138.273 129.881C127.215 129.881 117.299 124.993 110.566 117.261C103.874 126.275 93.1503 132.118 81.0605 132.118C70.2713 132.118 60.5688 127.466 53.8496 120.058C46.7407 125.485 37.8489 128.713 28.1992 128.713C4.89322 128.713 -14 109.898 -14 86.6895C-14 67.8068 -1.49349 51.8331 15.7207 46.5342C17.9426 31.5517 30.8576 20.0558 46.458 20.0557C54.4238 20.0557 61.6889 23.0542 67.1885 27.9824C75.6392 18.1946 88.1381 12 102.084 12Z"/>
</mask>
<path d="M102.084 12C127.434 12 148.001 32.4674 148.165 57.7783C163.643 62.0972 174.999 76.2987 174.999 93.1543C174.999 113.437 158.557 129.881 138.273 129.881C127.215 129.881 117.299 124.993 110.566 117.261C103.874 126.275 93.1503 132.118 81.0605 132.118C70.2713 132.118 60.5688 127.466 53.8496 120.058C46.7407 125.485 37.8489 128.713 28.1992 128.713C4.89322 128.713 -14 109.898 -14 86.6895C-14 67.8068 -1.49349 51.8331 15.7207 46.5342C17.9426 31.5517 30.8576 20.0558 46.458 20.0557C54.4238 20.0557 61.6889 23.0542 67.1885 27.9824C75.6392 18.1946 88.1381 12 102.084 12Z" fill="#64AB7B"/>
<path d="M102.084 12V9V9V12ZM148.165 57.7783L145.165 57.7978L145.18 60.0599L147.359 60.6679L148.165 57.7783ZM174.999 93.1543H177.999V93.1543L174.999 93.1543ZM138.273 129.881V132.881H138.273L138.273 129.881ZM110.566 117.261L112.829 115.291L110.38 112.479L108.158 115.473L110.566 117.261ZM81.0605 132.118V135.118H81.0606L81.0605 132.118ZM53.8496 120.058L56.0717 118.042L54.22 116.001L52.0292 117.673L53.8496 120.058ZM28.1992 128.713L28.1992 131.713H28.1992V128.713ZM-14 86.6895H-17V86.6895L-14 86.6895ZM15.7207 46.5342L16.6033 49.4014L18.4108 48.845L18.6882 46.9743L15.7207 46.5342ZM46.458 20.0557V17.0557H46.458L46.458 20.0557ZM67.1885 27.9824L65.1864 30.2166L67.4622 32.256L69.4592 29.943L67.1885 27.9824ZM102.084 12V15C125.783 15 145.011 34.1349 145.165 57.7978L148.165 57.7783L151.165 57.7588C150.99 30.8 129.084 9.00003 102.084 9V12ZM148.165 57.7783L147.359 60.6679C161.574 64.6345 171.999 77.6801 171.999 93.1543L174.999 93.1543L177.999 93.1543C177.999 74.9172 165.712 59.5599 148.971 54.8887L148.165 57.7783ZM174.999 93.1543H171.999C171.999 111.781 156.9 126.881 138.273 126.881L138.273 129.881L138.273 132.881C160.213 132.881 177.999 115.094 177.999 93.1543H174.999ZM138.273 129.881V126.881C128.12 126.881 119.017 122.397 112.829 115.291L110.566 117.261L108.304 119.231C115.582 127.589 126.311 132.881 138.273 132.881V129.881ZM110.566 117.261L108.158 115.473C102.007 123.758 92.1604 129.118 81.0605 129.118L81.0605 132.118L81.0606 135.118C94.1402 135.118 105.742 128.793 112.975 119.049L110.566 117.261ZM81.0605 132.118V129.118C71.1528 129.118 62.2463 124.85 56.0717 118.042L53.8496 120.058L51.6275 122.073C58.8913 130.082 69.3899 135.118 81.0605 135.118V132.118ZM53.8496 120.058L52.0292 117.673C45.4252 122.715 37.1687 125.713 28.1992 125.713V128.713V131.713C38.5291 131.713 48.0562 128.255 55.67 122.442L53.8496 120.058ZM28.1992 128.713L28.1992 125.713C6.53826 125.713 -11 108.229 -11 86.6894L-14 86.6895L-17 86.6895C-17 111.567 3.24818 131.713 28.1992 131.713L28.1992 128.713ZM-14 86.6895H-11C-11 69.1677 0.605168 54.326 16.6033 49.4014L15.7207 46.5342L14.8381 43.6669C-3.59215 49.3402 -17 66.446 -17 86.6895H-14ZM15.7207 46.5342L18.6882 46.9743C20.6953 33.4408 32.3664 23.0558 46.458 23.0557L46.458 20.0557L46.458 17.0557C29.3487 17.0558 15.19 29.6627 12.7532 46.0941L15.7207 46.5342ZM46.458 20.0557V23.0557C53.6563 23.0557 60.2154 25.7621 65.1864 30.2166L67.1885 27.9824L69.1906 25.7482C63.1624 20.3464 55.1914 17.0557 46.458 17.0557V20.0557ZM67.1885 27.9824L69.4592 29.943C77.3643 20.7871 89.0466 15 102.084 15V12V9C87.2296 9 73.914 15.6022 64.9177 26.0219L67.1885 27.9824Z" fill="#674305" mask="url(#path-1-inside-1_1191_1235)"/>
<mask id="path-3-inside-2_1191_1235" fill="white">
<path d="M1202.92 12C1177.57 12 1157 32.4674 1156.83 57.7783C1141.36 62.0972 1130 76.2987 1130 93.1543C1130 113.437 1146.44 129.881 1166.73 129.881C1177.78 129.881 1187.7 124.993 1194.43 117.261C1201.13 126.275 1211.85 132.118 1223.94 132.118C1234.73 132.118 1244.43 127.466 1251.15 120.058C1258.26 125.485 1267.15 128.713 1276.8 128.713C1300.11 128.713 1319 109.898 1319 86.6895C1319 67.8068 1306.49 51.8331 1289.28 46.5342C1287.06 31.5517 1274.14 20.0558 1258.54 20.0557C1250.58 20.0557 1243.31 23.0542 1237.81 27.9824C1229.36 18.1946 1216.86 12 1202.92 12Z"/>
</mask>
<path d="M1202.92 12C1177.57 12 1157 32.4674 1156.83 57.7783C1141.36 62.0972 1130 76.2987 1130 93.1543C1130 113.437 1146.44 129.881 1166.73 129.881C1177.78 129.881 1187.7 124.993 1194.43 117.261C1201.13 126.275 1211.85 132.118 1223.94 132.118C1234.73 132.118 1244.43 127.466 1251.15 120.058C1258.26 125.485 1267.15 128.713 1276.8 128.713C1300.11 128.713 1319 109.898 1319 86.6895C1319 67.8068 1306.49 51.8331 1289.28 46.5342C1287.06 31.5517 1274.14 20.0558 1258.54 20.0557C1250.58 20.0557 1243.31 23.0542 1237.81 27.9824C1229.36 18.1946 1216.86 12 1202.92 12Z" fill="#64AB7B"/>
<path d="M1202.92 12V9V9V12ZM1156.83 57.7783L1159.83 57.7978L1159.82 60.0599L1157.64 60.6679L1156.83 57.7783ZM1130 93.1543H1127V93.1543L1130 93.1543ZM1166.73 129.881V132.881H1166.73L1166.73 129.881ZM1194.43 117.261L1192.17 115.291L1194.62 112.479L1196.84 115.473L1194.43 117.261ZM1223.94 132.118V135.118H1223.94L1223.94 132.118ZM1251.15 120.058L1248.93 118.042L1250.78 116.001L1252.97 117.673L1251.15 120.058ZM1276.8 128.713L1276.8 131.713H1276.8V128.713ZM1319 86.6895H1322V86.6895L1319 86.6895ZM1289.28 46.5342L1288.4 49.4014L1286.59 48.845L1286.31 46.9743L1289.28 46.5342ZM1258.54 20.0557V17.0557H1258.54L1258.54 20.0557ZM1237.81 27.9824L1239.81 30.2166L1237.54 32.256L1235.54 29.943L1237.81 27.9824ZM1202.92 12V15C1179.22 15 1159.99 34.1349 1159.83 57.7978L1156.83 57.7783L1153.84 57.7588C1154.01 30.8 1175.92 9.00003 1202.92 9V12ZM1156.83 57.7783L1157.64 60.6679C1143.43 64.6345 1133 77.6801 1133 93.1543L1130 93.1543L1127 93.1543C1127 74.9172 1139.29 59.5599 1156.03 54.8887L1156.83 57.7783ZM1130 93.1543H1133C1133 111.781 1148.1 126.881 1166.73 126.881L1166.73 129.881L1166.73 132.881C1144.79 132.881 1127 115.094 1127 93.1543H1130ZM1166.73 129.881V126.881C1176.88 126.881 1185.98 122.397 1192.17 115.291L1194.43 117.261L1196.7 119.231C1189.42 127.589 1178.69 132.881 1166.73 132.881V129.881ZM1194.43 117.261L1196.84 115.473C1202.99 123.758 1212.84 129.118 1223.94 129.118L1223.94 132.118L1223.94 135.118C1210.86 135.118 1199.26 128.793 1192.02 119.049L1194.43 117.261ZM1223.94 132.118V129.118C1233.85 129.118 1242.75 124.85 1248.93 118.042L1251.15 120.058L1253.37 122.073C1246.11 130.082 1235.61 135.118 1223.94 135.118V132.118ZM1251.15 120.058L1252.97 117.673C1259.57 122.715 1267.83 125.713 1276.8 125.713V128.713V131.713C1266.47 131.713 1256.94 128.255 1249.33 122.442L1251.15 120.058ZM1276.8 128.713L1276.8 125.713C1298.46 125.713 1316 108.229 1316 86.6894L1319 86.6895L1322 86.6895C1322 111.567 1301.75 131.713 1276.8 131.713L1276.8 128.713ZM1319 86.6895H1316C1316 69.1677 1304.39 54.326 1288.4 49.4014L1289.28 46.5342L1290.16 43.6669C1308.59 49.3402 1322 66.446 1322 86.6895H1319ZM1289.28 46.5342L1286.31 46.9743C1284.3 33.4408 1272.63 23.0558 1258.54 23.0557L1258.54 20.0557L1258.54 17.0557C1275.65 17.0558 1289.81 29.6627 1292.25 46.0941L1289.28 46.5342ZM1258.54 20.0557V23.0557C1251.34 23.0557 1244.78 25.7621 1239.81 30.2166L1237.81 27.9824L1235.81 25.7482C1241.84 20.3464 1249.81 17.0557 1258.54 17.0557V20.0557ZM1237.81 27.9824L1235.54 29.943C1227.64 20.7871 1215.95 15 1202.92 15V12V9C1217.77 9 1231.09 15.6022 1240.08 26.0219L1237.81 27.9824Z" fill="#674305" mask="url(#path-3-inside-2_1191_1235)"/>
<mask id="path-5-inside-3_1191_1235" fill="white">
<path d="M608.084 132.118C625.973 132.118 641.482 121.925 649.118 107.029C652.343 107.955 655.751 108.452 659.273 108.452C679.556 108.452 695.999 92.0087 695.999 71.7256C695.999 51.4427 679.556 35.0003 659.273 35C648.605 35 639 39.551 632.29 46.8154C629.468 45.0698 626.444 43.6208 623.26 42.5107C620.307 25.1877 605.225 12.0002 587.061 12C576.271 12 566.569 16.6524 559.85 24.0605C552.741 18.6334 543.849 15.4053 534.199 15.4053C510.893 15.4055 492 34.2202 492 57.4287C492 76.3113 504.507 92.285 521.721 97.584C523.943 112.566 536.858 124.062 552.458 124.062C560.424 124.062 567.689 121.064 573.188 116.136C581.639 125.924 594.138 132.118 608.084 132.118Z"/>
</mask>
<path d="M608.084 132.118C625.973 132.118 641.482 121.925 649.118 107.029C652.343 107.955 655.751 108.452 659.273 108.452C679.556 108.452 695.999 92.0087 695.999 71.7256C695.999 51.4427 679.556 35.0003 659.273 35C648.605 35 639 39.551 632.29 46.8154C629.468 45.0698 626.444 43.6208 623.26 42.5107C620.307 25.1877 605.225 12.0002 587.061 12C576.271 12 566.569 16.6524 559.85 24.0605C552.741 18.6334 543.849 15.4053 534.199 15.4053C510.893 15.4055 492 34.2202 492 57.4287C492 76.3113 504.507 92.285 521.721 97.584C523.943 112.566 536.858 124.062 552.458 124.062C560.424 124.062 567.689 121.064 573.188 116.136C581.639 125.924 594.138 132.118 608.084 132.118Z" fill="#64AB7B"/>
<path d="M608.084 132.118V135.118V135.118V132.118ZM649.118 107.029L646.449 105.661L647.574 103.465L649.946 104.146L649.118 107.029ZM659.273 108.452L659.273 111.452H659.273V108.452ZM695.999 71.7256L698.999 71.7255V71.7256H695.999ZM659.273 35V32H659.273L659.273 35ZM632.29 46.8154L634.494 48.851L632.816 50.6679L630.712 49.3668L632.29 46.8154ZM623.26 42.5107L622.272 45.3435L620.6 44.7605L620.302 43.0149L623.26 42.5107ZM587.061 12V9H587.061L587.061 12ZM559.85 24.0605L562.072 26.076L560.22 28.1176L558.029 26.4451L559.85 24.0605ZM534.199 15.4053L534.199 12.4053H534.199V15.4053ZM492 57.4287H489V57.4287L492 57.4287ZM521.721 97.584L522.603 94.7168L524.411 95.2731L524.688 97.1439L521.721 97.584ZM552.458 124.062V127.062H552.458L552.458 124.062ZM573.188 116.136L571.186 113.902L573.462 111.862L575.459 114.175L573.188 116.136ZM608.084 132.118V129.118C624.805 129.118 639.305 119.594 646.449 105.661L649.118 107.029L651.788 108.398C643.658 124.256 627.142 135.118 608.084 135.118V132.118ZM649.118 107.029L649.946 104.146C652.905 104.995 656.034 105.452 659.273 105.452V108.452V111.452C655.467 111.452 651.781 110.915 648.29 109.913L649.118 107.029ZM659.273 108.452L659.273 105.452C677.9 105.452 692.999 90.3519 692.999 71.7256H695.999H698.999C698.999 93.6655 681.213 111.452 659.273 111.452L659.273 108.452ZM695.999 71.7256L692.999 71.7256C692.999 53.0996 677.899 38.0002 659.273 38L659.273 35L659.273 32C681.213 32.0003 698.999 49.7859 698.999 71.7255L695.999 71.7256ZM659.273 35V38C649.477 38 640.66 42.1752 634.494 48.851L632.29 46.8154L630.086 44.7799C637.34 36.9268 647.733 32 659.273 32V35ZM632.29 46.8154L630.712 49.3668C628.074 47.7349 625.247 46.3807 622.272 45.3435L623.26 42.5107L624.247 39.678C627.64 40.8608 630.862 42.4047 633.868 44.264L632.29 46.8154ZM623.26 42.5107L620.302 43.0149C617.591 27.1087 603.738 15.0001 587.061 15L587.061 12L587.061 9C606.712 9.00018 623.023 23.2666 626.217 42.0066L623.26 42.5107ZM587.061 12V15C577.153 15 568.246 19.2684 562.072 26.076L559.85 24.0605L557.627 22.0451C564.891 14.0364 575.39 9 587.061 9V12ZM559.85 24.0605L558.029 26.4451C551.425 21.4034 543.169 18.4053 534.199 18.4053V15.4053V12.4053C544.529 12.4053 554.056 15.8634 561.67 21.676L559.85 24.0605ZM534.199 15.4053L534.199 18.4053C512.538 18.4055 495 35.8888 495 57.4287L492 57.4287L489 57.4287C489 32.5515 509.248 12.4055 534.199 12.4053L534.199 15.4053ZM492 57.4287H495C495 74.9505 506.605 89.7921 522.603 94.7168L521.721 97.584L520.838 100.451C502.408 94.7779 489 77.6722 489 57.4287H492ZM521.721 97.584L524.688 97.1439C526.695 110.677 538.366 121.062 552.458 121.062L552.458 124.062L552.458 127.062C535.349 127.062 521.19 114.456 518.753 98.0241L521.721 97.584ZM552.458 124.062V121.062C559.656 121.062 566.215 118.356 571.186 113.902L573.188 116.136L575.191 118.37C569.162 123.772 561.191 127.062 552.458 127.062V124.062ZM573.188 116.136L575.459 114.175C583.364 123.331 595.047 129.118 608.084 129.118V132.118V135.118C593.23 135.118 579.914 128.516 570.918 118.096L573.188 116.136Z" fill="#674305" mask="url(#path-5-inside-3_1191_1235)"/>
<mask id="path-7-inside-4_1191_1235" fill="white">
<path d="M742.084 120.118C759.973 120.118 775.482 109.925 783.118 95.0293C786.343 95.9553 789.751 96.4521 793.273 96.4521C813.556 96.4519 829.999 80.0087 829.999 59.7256C829.999 39.4427 813.556 23.0003 793.273 23C782.605 23 773 27.551 766.29 34.8154C763.468 33.0698 760.444 31.6208 757.26 30.5107C754.307 13.1877 739.225 0.000160217 721.061 0C710.271 0 700.569 4.65244 693.85 12.0605C686.741 6.63343 677.849 3.40527 668.199 3.40527C644.893 3.40552 626 22.2202 626 45.4287C626 64.3113 638.507 80.285 655.721 85.584C657.943 100.566 670.858 112.062 686.458 112.062C694.424 112.062 701.689 109.064 707.188 104.136C715.639 113.924 728.138 120.118 742.084 120.118Z"/>
</mask>
<path d="M742.084 120.118C759.973 120.118 775.482 109.925 783.118 95.0293C786.343 95.9553 789.751 96.4521 793.273 96.4521C813.556 96.4519 829.999 80.0087 829.999 59.7256C829.999 39.4427 813.556 23.0003 793.273 23C782.605 23 773 27.551 766.29 34.8154C763.468 33.0698 760.444 31.6208 757.26 30.5107C754.307 13.1877 739.225 0.000160217 721.061 0C710.271 0 700.569 4.65244 693.85 12.0605C686.741 6.63343 677.849 3.40527 668.199 3.40527C644.893 3.40552 626 22.2202 626 45.4287C626 64.3113 638.507 80.285 655.721 85.584C657.943 100.566 670.858 112.062 686.458 112.062C694.424 112.062 701.689 109.064 707.188 104.136C715.639 113.924 728.138 120.118 742.084 120.118Z" fill="#64AB7B"/>
<path d="M742.084 120.118V123.118V123.118V120.118ZM783.118 95.0293L780.449 93.6607L781.574 91.4648L783.946 92.1458L783.118 95.0293ZM793.273 96.4521L793.273 99.4521H793.273V96.4521ZM829.999 59.7256L832.999 59.7255V59.7256H829.999ZM793.273 23V20H793.273L793.273 23ZM766.29 34.8154L768.494 36.851L766.816 38.6679L764.712 37.3668L766.29 34.8154ZM757.26 30.5107L756.272 33.3435L754.6 32.7605L754.302 31.0149L757.26 30.5107ZM721.061 0V-3H721.061L721.061 0ZM693.85 12.0605L696.072 14.076L694.22 16.1176L692.029 14.4451L693.85 12.0605ZM668.199 3.40527L668.199 0.405273H668.199V3.40527ZM626 45.4287H623V45.4287L626 45.4287ZM655.721 85.584L656.603 82.7168L658.411 83.2731L658.688 85.1439L655.721 85.584ZM686.458 112.062V115.062H686.458L686.458 112.062ZM707.188 104.136L705.186 101.902L707.462 99.8622L709.459 102.175L707.188 104.136ZM742.084 120.118V117.118C758.805 117.118 773.305 107.594 780.449 93.6607L783.118 95.0293L785.788 96.3979C777.658 112.256 761.142 123.118 742.084 123.118V120.118ZM783.118 95.0293L783.946 92.1458C786.905 92.9954 790.034 93.4521 793.273 93.4521V96.4521V99.4521C789.467 99.4521 785.781 98.9152 782.29 97.9128L783.118 95.0293ZM793.273 96.4521L793.273 93.4521C811.9 93.4519 826.999 78.3519 826.999 59.7256H829.999H832.999C832.999 81.6655 815.213 99.4519 793.273 99.4521L793.273 96.4521ZM829.999 59.7256L826.999 59.7256C826.999 41.0996 811.899 26.0002 793.273 26L793.273 23L793.273 20C815.213 20.0003 832.999 37.7859 832.999 59.7255L829.999 59.7256ZM793.273 23V26C783.477 26 774.66 30.1752 768.494 36.851L766.29 34.8154L764.086 32.7799C771.34 24.9268 781.733 20 793.273 20V23ZM766.29 34.8154L764.712 37.3668C762.074 35.7349 759.247 34.3807 756.272 33.3435L757.26 30.5107L758.247 27.678C761.64 28.8608 764.862 30.4047 767.868 32.264L766.29 34.8154ZM757.26 30.5107L754.302 31.0149C751.591 15.1087 737.738 3.00014 721.061 3L721.061 0L721.061 -3C740.712 -2.99982 757.023 11.2666 760.217 30.0066L757.26 30.5107ZM721.061 0V3C711.153 3 702.246 7.26843 696.072 14.076L693.85 12.0605L691.627 10.0451C698.891 2.03644 709.39 -3 721.061 -3V0ZM693.85 12.0605L692.029 14.4451C685.425 9.40343 677.169 6.40527 668.199 6.40527V3.40527V0.405273C678.529 0.405273 688.056 3.86343 695.67 9.67599L693.85 12.0605ZM668.199 3.40527L668.199 6.40527C646.538 6.4055 629 23.8888 629 45.4287L626 45.4287L623 45.4287C623 20.5515 643.248 0.405533 668.199 0.405273L668.199 3.40527ZM626 45.4287H629C629 62.9505 640.605 77.7921 656.603 82.7168L655.721 85.584L654.838 88.4512C636.408 82.7779 623 65.6722 623 45.4287H626ZM655.721 85.584L658.688 85.1439C660.695 98.6774 672.366 109.062 686.458 109.062L686.458 112.062L686.458 115.062C669.349 115.062 655.19 102.456 652.753 86.0241L655.721 85.584ZM686.458 112.062V109.062C693.656 109.062 700.215 106.356 705.186 101.902L707.188 104.136L709.191 106.37C703.162 111.772 695.191 115.062 686.458 115.062V112.062ZM707.188 104.136L709.459 102.175C717.364 111.331 729.047 117.118 742.084 117.118V120.118V123.118C727.23 123.118 713.914 116.516 704.918 106.096L707.188 104.136Z" fill="#674305" mask="url(#path-7-inside-4_1191_1235)"/>
<mask id="path-9-inside-5_1191_1235" fill="white">
<path d="M455.084 12C480.434 12 501.001 32.4674 501.165 57.7783C516.643 62.0972 527.999 76.2987 527.999 93.1543C527.999 113.437 511.557 129.881 491.273 129.881C480.215 129.881 470.299 124.993 463.566 117.261C456.874 126.275 446.15 132.118 434.061 132.118C413.777 132.118 397.334 115.676 397.334 95.3926C397.334 90.7436 398.2 86.2968 399.775 82.2031C399.67 82.2042 399.564 82.208 399.458 82.208C391.915 82.2079 385.001 79.5187 379.618 75.0488C373.546 90.8359 358.188 102.046 340.199 102.046C316.893 102.046 298 83.2318 298 60.0234C298 36.8149 316.893 18.0002 340.199 18C353.698 18 365.716 24.3124 373.44 34.1338C378.99 25.6567 388.57 20.0558 399.458 20.0557C407.424 20.0557 414.689 23.0542 420.188 27.9824C428.639 18.1946 441.138 12 455.084 12Z"/>
</mask>
<path d="M455.084 12C480.434 12 501.001 32.4674 501.165 57.7783C516.643 62.0972 527.999 76.2987 527.999 93.1543C527.999 113.437 511.557 129.881 491.273 129.881C480.215 129.881 470.299 124.993 463.566 117.261C456.874 126.275 446.15 132.118 434.061 132.118C413.777 132.118 397.334 115.676 397.334 95.3926C397.334 90.7436 398.2 86.2968 399.775 82.2031C399.67 82.2042 399.564 82.208 399.458 82.208C391.915 82.2079 385.001 79.5187 379.618 75.0488C373.546 90.8359 358.188 102.046 340.199 102.046C316.893 102.046 298 83.2318 298 60.0234C298 36.8149 316.893 18.0002 340.199 18C353.698 18 365.716 24.3124 373.44 34.1338C378.99 25.6567 388.57 20.0558 399.458 20.0557C407.424 20.0557 414.689 23.0542 420.188 27.9824C428.639 18.1946 441.138 12 455.084 12Z" fill="#64AB7B"/>
<path d="M455.084 12V9V9V12ZM501.165 57.7783L498.165 57.7978L498.18 60.0599L500.359 60.6679L501.165 57.7783ZM527.999 93.1543H530.999V93.1543L527.999 93.1543ZM491.273 129.881V132.881H491.273L491.273 129.881ZM463.566 117.261L465.829 115.291L463.38 112.479L461.158 115.473L463.566 117.261ZM434.061 132.118V135.118H434.061L434.061 132.118ZM397.334 95.3926H394.334V95.3926L397.334 95.3926ZM399.775 82.2031L402.575 83.2809L404.162 79.1591L399.745 79.2033L399.775 82.2031ZM399.458 82.208L399.458 85.208H399.458V82.208ZM379.618 75.0488L381.535 72.7409L378.319 70.0702L376.818 73.9719L379.618 75.0488ZM340.199 102.046L340.199 105.046H340.199V102.046ZM298 60.0234H295V60.0235L298 60.0234ZM340.199 18V15H340.199L340.199 18ZM373.44 34.1338L371.082 35.9884L373.664 39.2702L375.95 35.777L373.44 34.1338ZM399.458 20.0557V17.0557H399.458L399.458 20.0557ZM420.188 27.9824L418.186 30.2166L420.462 32.256L422.459 29.943L420.188 27.9824ZM455.084 12V15C478.783 15 498.011 34.1349 498.165 57.7978L501.165 57.7783L504.165 57.7588C503.99 30.8 482.084 9.00003 455.084 9V12ZM501.165 57.7783L500.359 60.6679C514.574 64.6345 524.999 77.6801 524.999 93.1543L527.999 93.1543L530.999 93.1543C530.999 74.9172 518.712 59.5599 501.971 54.8887L501.165 57.7783ZM527.999 93.1543H524.999C524.999 111.781 509.9 126.881 491.273 126.881L491.273 129.881L491.273 132.881C513.213 132.881 530.999 115.094 530.999 93.1543H527.999ZM491.273 129.881V126.881C481.12 126.881 472.017 122.397 465.829 115.291L463.566 117.261L461.304 119.231C468.582 127.589 479.311 132.881 491.273 132.881V129.881ZM463.566 117.261L461.158 115.473C455.007 123.758 445.16 129.118 434.061 129.118L434.061 132.118L434.061 135.118C447.14 135.118 458.742 128.793 465.975 119.049L463.566 117.261ZM434.061 132.118V129.118C415.434 129.118 400.334 114.019 400.334 95.3926L397.334 95.3926L394.334 95.3926C394.334 117.333 412.121 135.118 434.061 135.118V132.118ZM397.334 95.3926H400.334C400.334 91.1187 401.129 87.0369 402.575 83.2809L399.775 82.2031L396.976 81.1254C395.27 85.5568 394.334 90.3685 394.334 95.3926H397.334ZM399.775 82.2031L399.745 79.2033C399.491 79.2058 399.589 79.208 399.458 79.208V82.208V85.208C399.544 85.208 399.624 85.2065 399.679 85.2053C399.742 85.204 399.773 85.2033 399.805 85.203L399.775 82.2031ZM399.458 82.208L399.458 79.208C392.641 79.2079 386.399 76.7805 381.535 72.7409L379.618 75.0488L377.702 77.3568C383.602 82.2569 391.189 85.2079 399.458 85.208L399.458 82.208ZM379.618 75.0488L376.818 73.9719C371.179 88.6334 356.912 99.0459 340.199 99.0459V102.046V105.046C359.465 105.046 375.913 93.0384 382.418 76.1258L379.618 75.0488ZM340.199 102.046L340.199 99.0459C318.538 99.0457 301 81.5631 301 60.0234L298 60.0234L295 60.0235C295 84.9006 315.248 105.046 340.199 105.046L340.199 102.046ZM298 60.0234H301C301 38.4835 318.538 21.0002 340.199 21L340.199 18L340.199 15C315.248 15.0003 295 35.1462 295 60.0234H298ZM340.199 18V21C352.742 21 363.904 26.8612 371.082 35.9884L373.44 34.1338L375.798 32.2792C367.528 21.7637 354.654 15 340.199 15V18ZM373.44 34.1338L375.95 35.777C380.969 28.1104 389.624 23.0558 399.458 23.0557L399.458 20.0557L399.458 17.0557C387.515 17.0558 377.011 23.2031 370.93 32.4906L373.44 34.1338ZM399.458 20.0557V23.0557C406.656 23.0557 413.215 25.7621 418.186 30.2166L420.188 27.9824L422.191 25.7482C416.162 20.3464 408.191 17.0557 399.458 17.0557V20.0557ZM420.188 27.9824L422.459 29.943C430.364 20.7871 442.047 15 455.084 15V12V9C440.23 9 426.914 15.6022 417.918 26.0219L420.188 27.9824Z" fill="#674305" mask="url(#path-9-inside-5_1191_1235)"/>
<mask id="path-11-inside-6_1191_1235" fill="white">
<path d="M849.916 12C824.566 12 803.999 32.4674 803.835 57.7783C788.357 62.0972 777.001 76.2987 777.001 93.1543C777.001 113.437 793.443 129.881 813.727 129.881C824.785 129.881 834.701 124.993 841.434 117.261C848.126 126.275 858.85 132.118 870.939 132.118C891.223 132.118 907.666 115.676 907.666 95.3926C907.666 90.7436 906.8 86.2968 905.225 82.2031C905.33 82.2042 905.436 82.208 905.542 82.208C913.085 82.2079 919.999 79.5187 925.382 75.0488C931.454 90.8359 946.812 102.046 964.801 102.046C988.107 102.046 1007 83.2318 1007 60.0234C1007 36.8149 988.107 18.0002 964.801 18C951.302 18 939.284 24.3124 931.56 34.1338C926.01 25.6567 916.43 20.0558 905.542 20.0557C897.576 20.0557 890.311 23.0542 884.812 27.9824C876.361 18.1946 863.862 12 849.916 12Z"/>
</mask>
<path d="M849.916 12C824.566 12 803.999 32.4674 803.835 57.7783C788.357 62.0972 777.001 76.2987 777.001 93.1543C777.001 113.437 793.443 129.881 813.727 129.881C824.785 129.881 834.701 124.993 841.434 117.261C848.126 126.275 858.85 132.118 870.939 132.118C891.223 132.118 907.666 115.676 907.666 95.3926C907.666 90.7436 906.8 86.2968 905.225 82.2031C905.33 82.2042 905.436 82.208 905.542 82.208C913.085 82.2079 919.999 79.5187 925.382 75.0488C931.454 90.8359 946.812 102.046 964.801 102.046C988.107 102.046 1007 83.2318 1007 60.0234C1007 36.8149 988.107 18.0002 964.801 18C951.302 18 939.284 24.3124 931.56 34.1338C926.01 25.6567 916.43 20.0558 905.542 20.0557C897.576 20.0557 890.311 23.0542 884.812 27.9824C876.361 18.1946 863.862 12 849.916 12Z" fill="#64AB7B"/>
<path d="M849.916 12V9V9V12ZM803.835 57.7783L806.835 57.7978L806.82 60.0599L804.641 60.6679L803.835 57.7783ZM777.001 93.1543H774.001V93.1543L777.001 93.1543ZM813.727 129.881V132.881H813.727L813.727 129.881ZM841.434 117.261L839.171 115.291L841.62 112.479L843.842 115.473L841.434 117.261ZM870.939 132.118V135.118H870.939L870.939 132.118ZM907.666 95.3926H910.666V95.3926L907.666 95.3926ZM905.225 82.2031L902.425 83.2809L900.838 79.1591L905.255 79.2033L905.225 82.2031ZM905.542 82.208L905.542 85.208H905.542V82.208ZM925.382 75.0488L923.465 72.7409L926.681 70.0702L928.182 73.9719L925.382 75.0488ZM964.801 102.046L964.801 105.046H964.801V102.046ZM1007 60.0234H1010V60.0235L1007 60.0234ZM964.801 18V15H964.801L964.801 18ZM931.56 34.1338L933.918 35.9884L931.336 39.2702L929.05 35.777L931.56 34.1338ZM905.542 20.0557V17.0557H905.542L905.542 20.0557ZM884.812 27.9824L886.814 30.2166L884.538 32.256L882.541 29.943L884.812 27.9824ZM849.916 12V15C826.217 15 806.989 34.1349 806.835 57.7978L803.835 57.7783L800.835 57.7588C801.01 30.8 822.916 9.00003 849.916 9V12ZM803.835 57.7783L804.641 60.6679C790.426 64.6345 780.001 77.6801 780.001 93.1543L777.001 93.1543L774.001 93.1543C774.001 74.9172 786.288 59.5599 803.029 54.8887L803.835 57.7783ZM777.001 93.1543H780.001C780.001 111.781 795.1 126.881 813.727 126.881L813.727 129.881L813.727 132.881C791.787 132.881 774.001 115.094 774.001 93.1543H777.001ZM813.727 129.881V126.881C823.88 126.881 832.983 122.397 839.171 115.291L841.434 117.261L843.696 119.231C836.418 127.589 825.689 132.881 813.727 132.881V129.881ZM841.434 117.261L843.842 115.473C849.993 123.758 859.84 129.118 870.939 129.118L870.939 132.118L870.939 135.118C857.86 135.118 846.258 128.793 839.025 119.049L841.434 117.261ZM870.939 132.118V129.118C889.566 129.118 904.666 114.019 904.666 95.3926L907.666 95.3926L910.666 95.3926C910.666 117.333 892.879 135.118 870.939 135.118V132.118ZM907.666 95.3926H904.666C904.666 91.1187 903.871 87.0369 902.425 83.2809L905.225 82.2031L908.024 81.1254C909.73 85.5568 910.666 90.3685 910.666 95.3926H907.666ZM905.225 82.2031L905.255 79.2033C905.509 79.2058 905.411 79.208 905.542 79.208V82.208V85.208C905.456 85.208 905.376 85.2065 905.321 85.2053C905.258 85.204 905.227 85.2033 905.195 85.203L905.225 82.2031ZM905.542 82.208L905.542 79.208C912.359 79.2079 918.601 76.7805 923.465 72.7409L925.382 75.0488L927.298 77.3568C921.398 82.2569 913.811 85.2079 905.542 85.208L905.542 82.208ZM925.382 75.0488L928.182 73.9719C933.821 88.6334 948.088 99.0459 964.801 99.0459V102.046V105.046C945.535 105.046 929.087 93.0384 922.582 76.1258L925.382 75.0488ZM964.801 102.046L964.801 99.0459C986.462 99.0457 1004 81.5631 1004 60.0234L1007 60.0234L1010 60.0235C1010 84.9006 989.752 105.046 964.801 105.046L964.801 102.046ZM1007 60.0234H1004C1004 38.4835 986.462 21.0002 964.801 21L964.801 18L964.801 15C989.752 15.0003 1010 35.1462 1010 60.0234H1007ZM964.801 18V21C952.258 21 941.096 26.8612 933.918 35.9884L931.56 34.1338L929.202 32.2792C937.472 21.7637 950.346 15 964.801 15V18ZM931.56 34.1338L929.05 35.777C924.031 28.1104 915.376 23.0558 905.542 23.0557L905.542 20.0557L905.542 17.0557C917.485 17.0558 927.989 23.2031 934.07 32.4906L931.56 34.1338ZM905.542 20.0557V23.0557C898.344 23.0557 891.785 25.7621 886.814 30.2166L884.812 27.9824L882.809 25.7482C888.838 20.3464 896.809 17.0557 905.542 17.0557V20.0557ZM884.812 27.9824L882.541 29.943C874.636 20.7871 862.953 15 849.916 15V12V9C864.77 9 878.086 15.6022 887.082 26.0219L884.812 27.9824Z" fill="#674305" mask="url(#path-11-inside-6_1191_1235)"/>
<mask id="path-13-inside-7_1191_1235" fill="white">
<path d="M196.916 132.118C171.566 132.118 150.999 111.651 150.835 86.3398C135.357 82.021 124.001 67.8195 124.001 50.9639C124.001 30.6807 140.443 14.2375 160.727 14.2373C171.785 14.2373 181.701 19.1253 188.434 26.8574C195.126 17.8427 205.85 12.0001 217.939 12C228.729 12 238.431 16.6524 245.15 24.0605C252.259 18.6334 261.151 15.4053 270.801 15.4053C294.107 15.4055 313 34.2202 313 57.4287C313 76.3113 300.493 92.285 283.279 97.584C281.057 112.566 268.142 124.062 252.542 124.062C244.576 124.062 237.311 121.064 231.812 116.136C223.361 125.924 210.862 132.118 196.916 132.118Z"/>
</mask>
<path d="M196.916 132.118C171.566 132.118 150.999 111.651 150.835 86.3398C135.357 82.021 124.001 67.8195 124.001 50.9639C124.001 30.6807 140.443 14.2375 160.727 14.2373C171.785 14.2373 181.701 19.1253 188.434 26.8574C195.126 17.8427 205.85 12.0001 217.939 12C228.729 12 238.431 16.6524 245.15 24.0605C252.259 18.6334 261.151 15.4053 270.801 15.4053C294.107 15.4055 313 34.2202 313 57.4287C313 76.3113 300.493 92.285 283.279 97.584C281.057 112.566 268.142 124.062 252.542 124.062C244.576 124.062 237.311 121.064 231.812 116.136C223.361 125.924 210.862 132.118 196.916 132.118Z" fill="#64AB7B"/>
<path d="M196.916 132.118V135.118V135.118V132.118ZM150.835 86.3398L153.835 86.3204L153.82 84.0582L151.641 83.4502L150.835 86.3398ZM124.001 50.9639H121.001V50.9639L124.001 50.9639ZM160.727 14.2373V11.2373H160.727L160.727 14.2373ZM188.434 26.8574L186.171 28.8275L188.62 31.6396L190.842 28.6456L188.434 26.8574ZM217.939 12V9H217.939L217.939 12ZM245.15 24.0605L242.928 26.076L244.78 28.1176L246.971 26.4451L245.15 24.0605ZM270.801 15.4053L270.801 12.4053H270.801V15.4053ZM313 57.4287H316V57.4287L313 57.4287ZM283.279 97.584L282.397 94.7168L280.589 95.2731L280.312 97.1439L283.279 97.584ZM252.542 124.062V127.062H252.542L252.542 124.062ZM231.812 116.136L233.814 113.902L231.538 111.862L229.541 114.175L231.812 116.136ZM196.916 132.118V129.118C173.217 129.118 153.989 109.983 153.835 86.3204L150.835 86.3398L147.835 86.3593C148.01 113.318 169.916 135.118 196.916 135.118V132.118ZM150.835 86.3398L151.641 83.4502C137.426 79.4837 127.001 66.438 127.001 50.9638L124.001 50.9639L121.001 50.9639C121.001 69.2009 133.288 84.5582 150.029 89.2295L150.835 86.3398ZM124.001 50.9639H127.001C127.001 32.3375 142.1 17.2375 160.727 17.2373L160.727 14.2373L160.727 11.2373C138.787 11.2375 121.001 29.024 121.001 50.9639H124.001ZM160.727 14.2373V17.2373C170.88 17.2373 179.983 21.7217 186.171 28.8275L188.434 26.8574L190.696 24.8873C183.418 16.5288 172.689 11.2373 160.727 11.2373V14.2373ZM188.434 26.8574L190.842 28.6456C196.993 20.3602 206.84 15.0001 217.939 15L217.939 12L217.939 9C204.86 9.00011 193.258 15.3252 186.025 25.0692L188.434 26.8574ZM217.939 12V15C227.847 15 236.754 19.2684 242.928 26.076L245.15 24.0605L247.373 22.0451C240.109 14.0364 229.61 9 217.939 9V12ZM245.15 24.0605L246.971 26.4451C253.575 21.4034 261.831 18.4053 270.801 18.4053V15.4053V12.4053C260.471 12.4053 250.944 15.8634 243.33 21.676L245.15 24.0605ZM270.801 15.4053L270.801 18.4053C292.462 18.4055 310 35.8888 310 57.4287L313 57.4287L316 57.4287C316 32.5515 295.752 12.4055 270.801 12.4053L270.801 15.4053ZM313 57.4287H310C310 74.9505 298.395 89.7921 282.397 94.7168L283.279 97.584L284.162 100.451C302.592 94.7779 316 77.6722 316 57.4287H313ZM283.279 97.584L280.312 97.1439C278.305 110.677 266.634 121.062 252.542 121.062L252.542 124.062L252.542 127.062C269.651 127.062 283.81 114.456 286.247 98.0241L283.279 97.584ZM252.542 124.062V121.062C245.344 121.062 238.785 118.356 233.814 113.902L231.812 116.136L229.809 118.37C235.838 123.772 243.809 127.062 252.542 127.062V124.062ZM231.812 116.136L229.541 114.175C221.636 123.331 209.953 129.118 196.916 129.118V132.118V135.118C211.77 135.118 225.086 128.516 234.082 118.096L231.812 116.136Z" fill="#674305" mask="url(#path-13-inside-7_1191_1235)"/>
<mask id="path-15-inside-8_1191_1235" fill="white">
<path d="M1108.08 132.118C1133.43 132.118 1154 111.651 1154.17 86.3398C1169.64 82.021 1181 67.8195 1181 50.9639C1181 30.6807 1164.56 14.2375 1144.27 14.2373C1133.22 14.2373 1123.3 19.1253 1116.57 26.8574C1109.87 17.8427 1099.15 12.0001 1087.06 12C1076.27 12 1066.57 16.6524 1059.85 24.0605C1052.74 18.6334 1043.85 15.4053 1034.2 15.4053C1010.89 15.4055 992 34.2202 992 57.4287C992 76.3113 1004.51 92.285 1021.72 97.584C1023.94 112.566 1036.86 124.062 1052.46 124.062C1060.42 124.062 1067.69 121.064 1073.19 116.136C1081.64 125.924 1094.14 132.118 1108.08 132.118Z"/>
</mask>
<path d="M1108.08 132.118C1133.43 132.118 1154 111.651 1154.17 86.3398C1169.64 82.021 1181 67.8195 1181 50.9639C1181 30.6807 1164.56 14.2375 1144.27 14.2373C1133.22 14.2373 1123.3 19.1253 1116.57 26.8574C1109.87 17.8427 1099.15 12.0001 1087.06 12C1076.27 12 1066.57 16.6524 1059.85 24.0605C1052.74 18.6334 1043.85 15.4053 1034.2 15.4053C1010.89 15.4055 992 34.2202 992 57.4287C992 76.3113 1004.51 92.285 1021.72 97.584C1023.94 112.566 1036.86 124.062 1052.46 124.062C1060.42 124.062 1067.69 121.064 1073.19 116.136C1081.64 125.924 1094.14 132.118 1108.08 132.118Z" fill="#64AB7B"/>
<path d="M1108.08 132.118V135.118V135.118V132.118ZM1154.17 86.3398L1151.17 86.3204L1151.18 84.0582L1153.36 83.4502L1154.17 86.3398ZM1181 50.9639H1184V50.9639L1181 50.9639ZM1144.27 14.2373V11.2373H1144.27L1144.27 14.2373ZM1116.57 26.8574L1118.83 28.8275L1116.38 31.6396L1114.16 28.6456L1116.57 26.8574ZM1087.06 12V9H1087.06L1087.06 12ZM1059.85 24.0605L1062.07 26.076L1060.22 28.1176L1058.03 26.4451L1059.85 24.0605ZM1034.2 15.4053L1034.2 12.4053H1034.2V15.4053ZM992 57.4287H989V57.4287L992 57.4287ZM1021.72 97.584L1022.6 94.7168L1024.41 95.2731L1024.69 97.1439L1021.72 97.584ZM1052.46 124.062V127.062H1052.46L1052.46 124.062ZM1073.19 116.136L1071.19 113.902L1073.46 111.862L1075.46 114.175L1073.19 116.136ZM1108.08 132.118V129.118C1131.78 129.118 1151.01 109.983 1151.17 86.3204L1154.17 86.3398L1157.16 86.3593C1156.99 113.318 1135.08 135.118 1108.08 135.118V132.118ZM1154.17 86.3398L1153.36 83.4502C1167.57 79.4837 1178 66.438 1178 50.9638L1181 50.9639L1184 50.9639C1184 69.2009 1171.71 84.5582 1154.97 89.2295L1154.17 86.3398ZM1181 50.9639H1178C1178 32.3375 1162.9 17.2375 1144.27 17.2373L1144.27 14.2373L1144.27 11.2373C1166.21 11.2375 1184 29.024 1184 50.9639H1181ZM1144.27 14.2373V17.2373C1134.12 17.2373 1125.02 21.7217 1118.83 28.8275L1116.57 26.8574L1114.3 24.8873C1121.58 16.5288 1132.31 11.2373 1144.27 11.2373V14.2373ZM1116.57 26.8574L1114.16 28.6456C1108.01 20.3602 1098.16 15.0001 1087.06 15L1087.06 12L1087.06 9C1100.14 9.00011 1111.74 15.3252 1118.98 25.0692L1116.57 26.8574ZM1087.06 12V15C1077.15 15 1068.25 19.2684 1062.07 26.076L1059.85 24.0605L1057.63 22.0451C1064.89 14.0364 1075.39 9 1087.06 9V12ZM1059.85 24.0605L1058.03 26.4451C1051.43 21.4034 1043.17 18.4053 1034.2 18.4053V15.4053V12.4053C1044.53 12.4053 1054.06 15.8634 1061.67 21.676L1059.85 24.0605ZM1034.2 15.4053L1034.2 18.4053C1012.54 18.4055 995 35.8888 995 57.4287L992 57.4287L989 57.4287C989 32.5515 1009.25 12.4055 1034.2 12.4053L1034.2 15.4053ZM992 57.4287H995C995 74.9505 1006.61 89.7921 1022.6 94.7168L1021.72 97.584L1020.84 100.451C1002.41 94.7779 989 77.6722 989 57.4287H992ZM1021.72 97.584L1024.69 97.1439C1026.7 110.677 1038.37 121.062 1052.46 121.062L1052.46 124.062L1052.46 127.062C1035.35 127.062 1021.19 114.456 1018.75 98.0241L1021.72 97.584ZM1052.46 124.062V121.062C1059.66 121.062 1066.22 118.356 1071.19 113.902L1073.19 116.136L1075.19 118.37C1069.16 123.772 1061.19 127.062 1052.46 127.062V124.062ZM1073.19 116.136L1075.46 114.175C1083.36 123.331 1095.05 129.118 1108.08 129.118V132.118V135.118C1093.23 135.118 1079.91 128.516 1070.92 118.096L1073.19 116.136Z" fill="#674305" mask="url(#path-15-inside-8_1191_1235)"/>
</svg>
