<svg width="166" height="32" viewBox="0 0 166 32" fill="none" xmlns="http://www.w3.org/2000/svg">
<path d="M3.67593 1.19396C7.14807 -1.61388 9.53556 1.34972 12.737 1.81283C16.2535 2.31672 20.2985 2.33355 24.4259 2.22817C28.5648 2.12103 32.7814 1.88717 36.4397 1.91289C41.9471 1.95146 47.5105 2.13346 52.9802 2.27687C53.2582 2.28391 53.4254 2.58998 53.5518 2.59348C54.7423 2.62593 56.7538 2.34211 57.9357 2.37914C60.4354 2.45622 64.7697 2.39589 67.0581 2.67691C68.0268 2.79588 69.0242 2.84385 69.4044 3.57266C69.7605 3.60885 69.9501 2.94886 70.0428 2.91271C70.0439 2.91336 70.0449 2.91401 70.046 2.91466C70.3432 2.80251 71.0967 3.26281 71.2629 3.23357C71.2877 3.22899 71.1334 2.75175 71.5369 2.89493C71.5729 2.90723 71.5406 3.23209 71.8801 3.23578C71.968 3.23667 73.1047 2.73556 73.4277 2.70426C74.5054 2.60222 77.0867 2.98636 78.3769 2.97634C78.5744 2.97583 78.6876 2.78557 78.896 2.78165C79.0037 2.77941 79.1656 2.98521 79.1987 2.98399C79.3439 2.97628 79.9757 2.03817 79.7528 3.88685C80.4145 3.76798 80.2183 3.1575 80.2321 2.76066C80.9517 2.70153 81.3005 3.57105 81.486 2.64812C85.0217 2.75058 88.5584 2.8535 92.0969 2.95704C92.0976 2.80665 92.0983 2.65626 92.0991 2.50587C93.1433 3.10425 93.4925 2.08747 94.0919 2.95857C94.4603 2.76573 94.828 2.5729 95.195 2.38008C104.637 2.9523 114.012 2.23297 123.375 2.2323C123.767 2.2322 123.866 2.55217 124.504 2.55433C124.523 2.55439 124.543 2.55416 124.564 2.55364C125.296 2.53584 126.275 2.18472 127.176 2.1893C128.039 2.19291 129.214 2.49625 130.166 2.54451C130.378 2.55484 130.53 2.35231 130.553 2.35347C130.692 2.36152 130.699 2.68239 130.833 2.69163C130.993 2.70194 131.186 2.46447 131.368 2.47934C132.035 2.53304 132.831 2.45235 132.91 2.45804C133.333 2.48911 133.423 2.80309 133.458 2.80662C133.922 2.84576 133.748 2.56221 133.863 2.57886C134.467 2.66683 134.918 3.37479 135.739 2.69829C135.716 2.9606 135.693 3.2229 135.67 3.4852C136.296 3.63447 135.884 2.93625 136.012 2.81034C136.058 2.76359 137.457 2.85295 137.553 2.8658C137.918 2.91213 137.925 3.26083 137.956 3.26564C138.018 3.27708 138.983 2.88502 139.447 3.19149C140.002 3.55464 139.344 4.26094 139.481 4.39474C139.508 4.41738 140.077 4.3473 140.167 4.56978C140.251 4.80904 139.743 4.80157 139.753 4.90181C139.75 4.9705 140.608 5.46705 140.441 5.79767C140.295 6.12923 139.172 5.69789 138.922 5.85326C138.881 5.87897 138.956 6.28952 138.92 6.30442C138.762 6.35855 136.136 6.36214 136.004 6.2946C136.136 6.10812 136.281 5.92167 136.421 5.73523C136.233 5.71581 136.051 5.69643 135.873 5.67708C136.123 5.52801 136.395 5.37903 136.658 5.23008C136.254 3.69033 135.118 5.24707 135.061 6.01489C135.04 6.36991 135.746 7.28521 135.085 7.81568C135.186 7.90706 135.286 7.99844 135.385 8.08983C135.592 7.9406 135.796 7.7914 135.999 7.64221C135.865 7.54745 135.729 7.45269 135.593 7.35795C135.643 7.25131 135.694 7.14467 135.744 7.03803C136.118 6.86778 136.524 6.69771 136.913 6.5277C137.113 6.60723 137.07 6.92231 137.207 6.9837C138.892 7.75712 137.795 6.7764 138.921 6.9216C139.081 7.09152 139.24 7.26146 139.398 7.43142C139.352 6.73118 139.812 7.17266 140.439 6.87381C140.365 7.1 140.291 7.32619 140.216 7.55238C141.102 7.43574 142.846 8.58908 142.382 7.33604C142.582 7.4441 142.781 7.55219 142.978 7.66033C143.146 7.45706 143.313 7.25383 143.478 7.05063C143.717 7.07582 143.954 7.10109 144.188 7.12641C144.189 7.23709 144.189 7.34776 144.189 7.45844C144.002 7.45759 143.814 7.45678 143.624 7.456C143.764 7.79429 143.903 8.1326 144.041 8.47093C144.18 8.41604 144.317 8.36117 144.454 8.30632C143.882 7.98267 144.646 7.46791 144.828 7.02434C145.302 6.86393 145.63 7.44506 145.788 7.47267C145.868 7.48573 146.767 6.47549 146.407 7.59225C146.866 7.46102 147.354 7.33054 147.809 7.20019C147.985 7.28833 148.168 7.37665 148.354 7.46507C147.946 7.98152 149.098 8.62598 148.24 8.83083C147.606 8.98485 147.469 8.49541 147.166 8.49522C146.898 8.49451 146.738 8.82139 146.453 8.833C144.476 8.90472 142.902 8.83345 141.04 8.67769C140.674 8.64648 140.334 8.80593 140.081 8.78218C139.801 8.75486 140.15 8.34429 139.801 8.44298C139.435 8.54735 139.353 8.88342 139.255 8.88975C139.194 8.89331 139.002 8.58985 138.822 8.58913C138.063 8.58605 137.025 8.87535 136.91 8.87333C136.779 8.86932 134.73 8.59091 134.62 8.54117C134.567 8.51401 134.681 7.39666 134.213 8.58719C134.065 8.60902 133.928 8.63089 133.788 8.65276C133.811 8.4295 133.834 8.20624 133.857 7.98299C133.025 8.82799 133.314 8.35489 132.497 8.42012C130.565 8.57709 127.651 8.38721 125.555 8.4662C125.153 8.48139 124.958 8.67291 124.564 8.74492C124.493 8.75854 124.415 8.76789 124.327 8.77096C123.819 8.78791 122.449 7.99054 122.746 9.09556C121.561 8.13907 121.401 9.78935 120.817 8.76051C120.747 8.91028 120.677 9.06005 120.607 9.20983C119.975 8.56771 119.778 9.1325 119.08 9.21082C118.787 9.24486 119.125 8.56122 118.533 9.32256C118.42 9.26601 118.306 9.20946 118.192 9.15291C118.219 8.98753 118.245 8.82215 118.271 8.65677C117.61 8.79257 117.564 8.70646 117.641 9.32524C117.32 9.21289 116.996 9.10055 116.671 8.98823C116.631 9.19138 116.591 9.39454 116.55 9.5977C116.703 9.94793 122.693 9.49807 124.564 9.27286C124.767 9.2492 124.923 9.22797 125.021 9.21033C126.221 9.6699 128.626 9.0959 129.562 9.20592C129.957 9.25019 130.131 9.7097 130.693 9.76549C131.257 9.82123 131.937 9.40487 132.253 9.39044C133.256 9.33912 137.954 9.4426 134.759 10.0063C134.852 10.2304 134.944 10.4546 135.036 10.6788C136.307 9.91771 135.832 10.3869 136.907 10.469C137.359 10.504 138.394 10.0076 138.343 11.0247C137.521 11.2109 136.642 10.8831 135.919 10.8958C135.85 10.8972 135.009 11.3595 134.562 11.2324C134.168 11.1164 134.419 10.1471 133.579 11.2343C132.952 10.1696 132.575 11.134 132.404 11.2363C132.11 11.4137 132.073 10.8888 131.782 10.8273C131.472 10.7593 131.255 11.1075 131.212 11.1098C130.785 11.117 128.508 11.1628 128.412 10.9512C128.503 10.8582 128.593 10.7651 128.684 10.6721C128.098 10.522 128.219 11.0588 128.064 11.1229C127.948 11.1209 127.832 11.1189 127.715 11.1169C127.762 11.0056 127.808 10.8943 127.854 10.783C127.156 10.8064 127.67 11.1934 126.701 11.183C126.086 11.1761 125.433 10.7511 125.372 10.7825C125.354 10.7916 125.553 11.0781 125.295 11.1165C125.089 11.1469 124.81 11.161 124.565 11.1239C124.312 11.084 124.099 10.9847 124.057 10.7827C123.852 10.8379 123.87 11.2193 123.843 11.228C123.737 11.2652 121.629 11.3956 121.283 11.4184C120.274 11.4809 119.096 11.4003 118.007 11.4655C117.893 11.472 117.966 11.2272 117.851 11.2352C117.669 11.2478 116.72 11.6328 116.576 11.6601C116.209 11.7269 115.308 11.5755 115.159 11.6869C115.138 11.7027 115.442 12.0332 115.087 12.1362C114.693 12.2501 114.905 11.8049 114.883 11.8005C114.081 11.6492 113.557 11.959 113.013 12.0194C112.838 12.0388 112.511 11.7043 112.261 11.8036C112.233 11.8148 112.29 12.1242 112.262 12.1395C111.884 12.3023 111.528 11.7284 111.363 11.6914C110.959 11.601 111.179 12.0246 111.158 12.0276C110.89 12.0415 110.524 11.8891 110.115 11.9099C108.32 12.0026 106.819 12.0308 104.896 12.0059C104.653 12.0029 104.363 11.7045 104.326 11.7041C104.21 11.7066 104.244 12.0579 103.91 12.0505C103.215 12.0337 102.572 12.0519 101.879 12.0464C101.739 12.0452 101.679 11.7198 101.572 11.7129C101.214 11.6933 99.9988 12.548 99.9796 11.4874C99.278 12.4277 98.807 11.6194 98.2368 11.6295C96.8787 11.6524 94.7837 11.8481 93.4347 11.7293C93.1529 11.7038 93.02 11.4323 92.863 11.418C92.5824 11.3916 90.9681 11.547 90.8825 11.5044C90.7173 11.4225 90.8091 10.2256 89.9639 11.2702C89.4661 11.3456 89.5236 10.8543 89.4205 10.8281C88.6167 10.6326 87.8347 11.7306 87.979 10.7259C87.0396 11.0008 86.4359 11.5573 86.0517 10.6191C86.0577 11.0774 85.6184 11.3534 85.0867 11.18C85.6284 10.4089 85.561 9.91701 86.8736 10.0547C86.8943 10.0569 86.8557 10.3884 86.8763 10.3906C87.0631 10.4126 87.4569 10.2443 87.7773 10.2616C88.0981 10.2788 87.9205 10.5058 88.0489 10.5012C88.1663 10.4964 88.1617 10.1792 88.3316 10.1743C88.8828 10.1606 89.3693 10.0721 89.6819 10.0658C89.8788 10.062 90.0997 10.3402 90.2523 10.3399C90.8444 10.3362 92.1042 10.1158 92.8551 10.1446C93.0118 10.1514 92.9468 10.4642 93.2893 10.4894C93.3293 10.4923 93.4745 10.166 93.7736 10.0977C94.0742 10.0295 94.3102 10.1909 94.5037 10.1567C94.6657 10.1282 94.5975 9.83869 94.9294 9.81988C95.2083 9.80459 98.3288 10.0069 98.5036 10.0528C98.7483 10.119 98.8652 10.5255 99.0141 10.4756C99.0403 10.465 99.0839 10.072 99.1747 10.0437C100.66 9.57645 103.986 10.1064 105.707 10.1003C109.291 10.0888 112.586 9.85306 116.195 9.75819C116.258 9.68977 116.325 9.62135 116.39 9.55293C116.021 9.55068 115.667 9.54843 115.302 9.54621C115.3 9.36132 115.297 9.17643 115.295 8.99155C114.803 8.96279 114.868 9.39999 114.882 9.66384C114.7 9.55206 114.517 9.44028 114.333 9.32851C114.176 9.973 112.945 9.5459 112.327 9.54769C111.921 9.5482 111.434 9.79446 111.218 9.77568C110.76 9.73687 110.771 9.33927 110.735 9.33298C110.674 9.32405 110.032 9.67559 109.581 9.66271C108.907 9.64437 108.834 9.03399 107.904 9.55386C106.695 9.23898 105.411 9.40047 104.113 9.45457C104.354 8.88986 103.211 9.42593 102.695 9.418C99.5267 9.3684 95.656 9.13512 92.4526 8.91898C92.0418 8.89171 91.7299 8.55996 91.5004 8.57148C91.376 8.57739 91.3225 8.96942 91.1494 8.91795C91.1189 8.90805 91.0971 8.54163 90.7746 8.48716C89.9743 8.35029 87.9893 8.96646 87.4806 8.26427C84.7504 8.37939 82.0163 8.49485 79.2834 8.61058C79.2144 8.46102 79.1454 8.31146 79.0764 8.1619C78.5593 8.92841 76.5065 8.4841 75.505 8.52277C73.745 8.59168 71.4947 8.83572 69.9549 8.86592C69.621 8.87248 69.3438 8.65617 69.026 8.66147C68.8892 8.6641 68.7199 8.94601 68.5776 8.94787C66.9833 8.97373 64.8168 8.68999 63.2141 8.70139C59.5597 8.7266 56.1198 8.69417 52.4264 8.71784C43.0543 8.77947 33.7306 9.05177 24.4486 9.12977C21.3745 9.15556 18.2779 9.16015 15.2211 9.12871C15.0586 9.12699 15.0658 8.80337 14.941 8.80152C14.1681 8.78827 12.4776 9.06056 11.6363 9.04867C10.9381 9.03968 9.86589 8.54841 9.63222 9.04742C12.0602 9.7936 14.6157 9.72848 17.1334 9.93101C17.3113 9.94527 17.3351 10.2528 17.357 10.2584C17.7679 10.3639 17.5035 9.94114 18.1087 9.92C18.3064 9.91292 20.1248 10.889 19.9134 9.91211C20.3496 10.3018 23.4198 10.4871 24.0298 10.3556C24.2142 10.3155 24.0826 10.0263 24.1192 10.0116C24.2616 9.95387 24.3357 10.2672 24.4526 10.3409C24.4655 10.3496 24.479 10.355 24.4933 10.356C24.8507 10.3797 25.7892 10.0526 25.973 10.0543C26.4026 10.0563 27.6202 10.3774 28.1686 10.299C28.6711 10.2275 28.5756 9.81064 29.0153 9.77087C29.3609 9.74061 28.9947 10.0927 29.7422 10.1962C30.1093 10.2469 31.4329 9.9915 31.7642 9.99038C32.0839 9.98934 32.4306 10.2378 32.8711 10.2172C33.5015 10.1881 34.9071 10.0446 35.5388 9.96248C35.5772 9.95784 35.6699 9.63303 35.765 9.63949C35.962 9.65245 35.9041 10.0534 36.0533 10.0936C36.2085 10.1337 38.782 10.0764 39.2235 10.0795C39.5271 10.0808 39.7373 9.84138 39.9063 9.84295C40.039 9.84478 40.0543 10.1786 40.19 10.1819C40.2357 10.1817 40.5781 9.89068 40.9281 9.89632C41.2557 9.90208 42.5216 10.1738 42.671 10.1759C42.7671 10.1768 42.6608 9.93986 42.9454 9.9446C43.2059 9.94958 43.3748 10.2571 43.5188 10.2611C43.8545 10.2701 44.2305 10.0062 44.5899 10.0038C45.6249 9.99721 45.576 10.379 45.6378 10.3912C45.8113 10.4251 45.8799 10.0754 45.9369 10.068C46.1809 10.0379 46.7608 9.97154 46.9717 9.95732C47.2349 9.93959 47.3476 10.2714 47.6285 10.2717C47.8378 10.2708 48.2603 9.94564 48.7418 9.92837C49.8383 9.88777 51.0933 9.82277 52.1657 9.83189C52.4838 9.8343 52.5339 10.1373 52.6313 10.1449C53.1392 10.185 53.4182 9.84513 53.5632 9.84912C54.5903 9.87643 56.4501 10.4027 57.401 10.445C57.7881 10.4618 59.5109 10.2112 60.467 10.2523C60.5772 10.2565 60.4747 10.4946 60.5972 10.457C60.8903 10.367 60.8618 9.883 61.0108 9.89722C61.0827 9.90556 61.2475 10.178 61.4572 10.2045C62.5474 10.3422 63.293 10.1279 63.7868 10.1411C68.5464 10.2683 73.4004 10.3818 77.8456 10.4131C78.3412 10.4163 78.9549 10.1267 79.7035 10.4044C79.7269 10.5547 79.7503 10.705 79.7737 10.8554C79.7995 10.7075 79.8253 10.5597 79.8511 10.4118C80.6984 10.3296 81.019 10.1386 81.8847 10.3246C81.9593 10.3402 82.1884 11.0262 82.3271 10.1732C83.1852 10.7888 82.7137 10.1672 83.3491 10.1081C83.9851 10.0491 84.6058 10.238 85.2226 10.2793C85.5618 10.584 84.1438 11.292 84.0508 11.29C83.9015 11.2876 83.7454 10.864 83.6016 10.8419C83.1768 10.7755 82.7672 11.1129 82.671 10.7348C82.1231 11.1362 82.8059 10.9346 82.7382 11.2952C82.3716 11.147 82.0047 10.9988 81.6377 10.8506C81.4542 12.0767 79.4231 10.4835 79.5668 11.4164C79.4052 11.23 79.2437 11.0436 79.0821 10.8571C78.3786 12.0297 77.9609 11.2064 77.0175 10.8605C77.0859 11.0101 77.1543 11.1596 77.2227 11.3092C77.2036 11.3717 76.3725 11.6133 76.6682 10.9747C75.8173 11.8174 75.8494 10.4193 75.0875 11.432C74.6338 11.5628 74.9051 10.9751 74.0926 10.9874C73.6111 10.9943 73.0149 11.3029 72.4754 11.3257C72.3513 11.33 72.2964 10.9903 72.1859 10.9906C72.0755 10.991 72.0226 11.3244 71.8889 11.3332C71.6127 11.352 71.2542 11.119 71.0818 11.1421C70.9274 11.1617 70.7073 11.4562 70.3354 11.5035C69.0378 11.6704 69.4261 11.2496 69.2208 11.1081C68.9991 10.9577 68.8415 11.5112 68.4007 11.4483C68.3564 11.4417 68.4698 11.0967 68.3262 11.1106C68.2104 11.1215 68.153 11.4963 67.7699 11.5672C67.6175 11.5959 65.2487 11.6828 64.8855 11.6907C64.3301 11.7024 63.1026 11.3888 62.5282 11.3928C62.3064 11.3935 62.0705 11.6949 61.8354 11.6936C61.0536 11.6891 59.8218 11.6673 58.8298 11.6555C57.9361 11.6446 56.3847 10.9853 55.9009 11.5862C54.6469 11.6677 54.3459 11.1564 54.2514 11.1497C53.9977 11.1313 53.8813 11.471 53.5625 11.4878C49.4117 11.6976 43.9651 11.4903 40.0291 11.53C34.8358 11.5838 29.6273 11.6769 24.4571 11.7272C20.4791 11.7656 16.5542 11.7793 12.6072 11.7329C12.5831 11.8834 12.559 12.0339 12.535 12.1843C13.6369 12.2777 14.8891 12.5348 15.9544 12.5911C17.3769 12.6652 19.4831 12.032 20.5408 13.0565C20.1434 13.1479 19.4109 12.7562 19.4338 13.2847C20.2186 13.3199 20.9344 13.3553 21.7084 13.3905C21.6847 13.1464 21.6609 12.9024 21.6373 12.6583C22.4674 12.5846 23.2125 12.6354 24.0333 12.5977C24.174 12.5915 24.0735 12.3702 24.1963 12.3687C24.334 12.3674 24.2414 12.5933 24.2672 12.595C24.3419 12.5952 24.4055 12.5849 24.4599 12.5686C24.6472 12.5088 24.7158 12.3683 24.7475 12.3708C24.8517 12.3794 24.7707 12.5969 25.0726 12.6568C25.6337 12.7687 26.0456 12.1902 25.9136 13.1521C26.0984 13.1515 26.2846 13.1508 26.4719 13.1502C26.5196 12.8884 26.5673 12.6265 26.6151 12.3646C27.7361 13.4176 28.2457 11.5624 28.8865 13.031C29.0953 12.8057 29.3059 12.5804 29.5038 12.3551C29.6184 12.6165 29.7333 12.8778 29.8487 13.1391C29.8702 12.9145 29.8918 12.6898 29.9134 12.4651C31.0117 12.6271 32.2106 12.3536 33.2582 12.3761C33.9951 12.3917 34.1922 12.4797 34.8364 12.4608C36.2766 12.4178 34.8436 12.8681 36.0499 13.3455C35.986 13.0703 35.9221 12.7951 35.8584 12.52C36.058 12.4184 36.2584 12.3169 36.4596 12.2153C36.6007 12.4394 36.7421 12.6636 36.8838 12.8877C37.5144 11.7207 37.8977 12.6599 37.9848 12.6596C38.0526 12.6573 38.2795 11.9553 39.014 12.5469C38.7065 11.589 39.5741 12.5395 39.6448 12.5449C39.7118 12.5486 40.5567 12.3318 40.8894 12.3397C41.1546 12.3457 41.7241 12.5503 42.1247 12.5389C42.4782 12.5288 42.4416 12.2034 42.4674 12.2C42.9041 12.1715 42.631 12.4253 42.9475 12.4367C43.2668 12.4481 43.504 12.1699 43.5713 12.1945C43.605 12.2076 43.4934 12.5112 43.6477 12.54C44.0614 12.6185 44.8143 12.3507 45.2956 12.357C45.4659 12.3589 45.682 12.6155 45.8727 12.6228C46.1642 12.6331 46.304 12.291 46.4692 12.3006C46.5272 12.3049 46.8984 12.8315 47.3609 12.749C47.4489 12.7325 47.7039 11.6148 48.0541 13.196C48.08 12.9733 48.106 12.7506 48.1319 12.5279C49.6989 11.9718 50.1293 13.7792 50.8163 12.1719C51.9479 12.3477 51.1733 12.9754 51.2977 13.0708C51.3781 13.1311 51.7474 12.9581 51.7882 12.9677C51.8603 12.9867 51.8486 13.1874 51.9276 13.1861C53.3806 13.1444 52.7313 12.7675 53.1869 12.526C54.2659 11.9512 55.1159 13.2174 53.232 12.8422C53.2323 12.9542 53.2327 13.0662 53.233 13.1782C53.6939 13.0697 54.8753 13.117 54.4827 13.6861C54.173 14.1345 51.377 13.851 52.9652 14.4739C53.3233 14.6148 53.507 14.194 54.132 14.9801C54.5444 15.0216 54.6005 14.0006 55.1622 14.4086C55.0689 14.0528 54.9757 13.697 54.8825 13.3411C55.6472 12.8746 56.5883 13.4945 57.1699 13.2932C57.3677 13.2247 58.0792 11.5247 57.9172 13.2227C58.2505 13.1158 59.834 13.4238 60.1208 13.2708C60.1912 13.2339 60.2784 12.3299 61.2976 12.6424C61.3687 12.7555 61.4398 12.8685 61.511 12.9816C60.5797 13.3134 62.2274 13.6434 61.7826 14.5023C61.6291 14.1173 60.8896 13.8843 60.7705 13.6908C60.567 13.3577 61.169 12.9259 60.4006 13.0454C59.9203 14.4801 61.3041 13.8165 61.0965 15.1781C62.1063 14.5398 62.2108 15.1457 62.4405 15.1703C63.4213 15.27 64.0304 15.124 64.956 15.2802C65.1798 15 63.5077 14.6012 63.3028 14.7225C64.0582 13.7294 62.7562 13.6884 62.1981 14.2784C62.1506 13.9791 62.1031 13.6797 62.0557 13.3804C62.7821 13.5406 63.4785 13.622 64.1915 13.3742C64.2383 13.4861 64.285 13.5979 64.3318 13.7098C64.1723 13.8788 64.0129 14.0479 63.8536 14.217C64.4471 14.4914 64.0886 13.6192 64.8818 14.382C64.9053 14.0447 64.9289 13.7074 64.9524 13.3701C65.7122 13.4799 66.4726 13.5897 67.2284 13.6996C67.6199 13.0222 69.0809 13.27 68.816 14.1463C69.4061 14.2065 68.6765 13.7425 69.2288 13.528C69.4697 13.4349 69.9386 13.4076 70.0548 13.6429C70.0077 14.4767 69.3054 14.5821 69.0936 15.1552C69.2272 15.3396 72.4852 14.7354 72.1988 15.7111C72.4602 15.8276 72.3387 15.3257 72.8094 15.1958C74.126 14.8338 76.1705 15.8211 77.2287 14.5728C75.9808 13.8828 75.6131 14.618 74.6584 14.6499C74.0498 14.6706 70.3281 14.799 71.1572 13.9152C71.0209 14.0276 70.8847 14.1399 70.7485 14.2523C70.6098 13.9903 70.4712 13.7283 70.3326 13.4663C70.721 13.4275 71.1099 13.3887 71.499 13.3498C71.5926 13.6113 71.6862 13.8727 71.7799 14.1342C71.8223 13.9472 71.8647 13.7603 71.9071 13.5733C72.0709 13.5358 72.2348 13.4982 72.3987 13.4607C72.3533 13.6854 72.3078 13.9101 72.2623 14.1348C72.5152 14.1726 72.7682 14.2103 73.0213 14.248C72.9524 13.9481 72.8835 13.6481 72.8146 13.3482C74.0041 13.2695 73.6011 13.4586 74.2621 14.0181C74.7547 14.0742 73.9213 13.4996 74.9628 13.3503C76.1741 13.1769 75.3817 14.096 76.9507 13.8958C76.9729 13.746 76.9951 13.5962 77.0173 13.4464C77.3627 13.5952 77.7082 13.7441 78.0536 13.8929C78.0075 13.7068 77.9614 13.5208 77.9153 13.3347C78.6277 13.405 79.608 13.0471 79.8457 13.777C79.1233 13.4271 79.1335 14.7025 79.3218 14.9365C79.7097 15.4165 85.4362 14.9547 86.5426 14.9206C87.9606 14.8767 89.0388 15.2827 90.3277 14.6521C89.455 14.1391 86.3591 14.5682 85.7774 14.2135C85.7193 14.1786 85.7329 13.0095 85.3635 14.3258C84.1614 14.1056 82.7274 14.4818 81.2272 14.4473C81.2722 14.1106 81.3172 13.7739 81.3622 13.4372C82.2863 14.1507 83.1347 12.5763 83.018 13.8842C83.2013 13.8838 83.3845 13.8833 83.5678 13.8829C83.5672 13.6576 83.5667 13.4324 83.5661 13.2071C83.8433 13.2064 84.1205 13.2058 84.3974 13.2051C84.3979 13.4303 84.3985 13.6556 84.399 13.8808C84.6284 13.8803 84.8577 13.8797 85.0869 13.8792C85.1102 13.6545 85.1335 13.4299 85.1568 13.2052C85.8438 13.67 88.1789 12.4172 87.153 13.761C87.4762 13.7602 87.7991 13.7595 88.1218 13.7587C88.1203 13.594 88.1189 13.4293 88.1175 13.2646C88.2561 13.2421 88.3947 13.2197 88.5332 13.1972C88.488 13.3464 88.4427 13.4956 88.3974 13.6448C89.032 13.3762 89.6346 14.1597 90.0489 13.643C89.7745 13.5309 89.4999 13.4189 89.225 13.307C89.7525 13.5197 90.719 13.0742 90.8084 13.0729C91.0744 13.0701 91.2152 13.4027 91.5029 13.419C91.7626 13.4329 91.7262 13.1771 91.7746 13.186C93.1732 13.4434 92.6431 14.8297 93.2907 13.1885C93.3604 13.4123 93.4302 13.6361 93.4998 13.8599C93.5915 13.6729 93.6832 13.4858 93.7748 13.2988C94.1881 13.3155 94.6041 13.3322 95.0174 13.3489C94.8789 13.0692 94.7403 12.7896 94.6015 12.5099C95.2221 12.3837 95.5114 12.9444 95.5715 12.9571C95.7411 12.9894 95.8179 12.637 95.8703 12.6362C98.3828 12.6615 96.8576 12.9748 98.1232 14.2956C98.5729 13.7754 98.116 13.2557 98.0508 12.7275C98.6507 12.9741 98.8371 12.8275 99.4666 12.8556C99.6303 12.8632 99.8066 13.1479 99.9097 13.1516C99.999 13.1548 100.277 12.8513 100.491 12.8497C100.85 12.8468 101.333 13.0264 101.825 13.021C102.239 13.0158 103.472 12.7996 104.354 12.7959C104.728 12.7952 104.642 13.0487 104.738 13.0491C104.778 13.049 105.069 12.7451 105.308 12.7435C107.244 12.7335 109.246 12.9225 111.209 12.9143C112.587 12.9091 113.992 12.6633 115.371 12.6867C115.663 12.692 115.508 12.915 115.636 12.9227C115.679 12.9247 115.732 12.5358 116.181 12.6917C116.344 12.7479 116.155 13.02 116.318 13.0334C116.398 13.0397 116.433 12.6989 116.897 12.6207C117.739 12.478 118.183 12.932 118.257 12.9184C118.397 12.8921 118.356 12.6101 118.54 12.5998C119.43 12.5495 120.227 12.5012 121.028 12.4771C121.386 12.4655 124.039 12.4076 124.164 12.4584C124.474 12.5685 124.2 13.1336 124.565 13.1404C124.574 13.1405 124.583 13.1404 124.592 13.1399C124.711 12.9908 124.829 12.8417 124.946 12.6927C124.819 12.6158 124.692 12.539 124.565 12.4622C124.507 12.4257 124.449 12.3893 124.391 12.3529C124.448 12.3747 124.506 12.3905 124.565 12.4013C125.034 12.4841 125.525 12.2755 125.856 12.2845C125.926 12.2868 126.558 12.5539 126.875 12.5248C126.74 12.6355 126.604 12.7461 126.468 12.8568C126.516 12.9512 126.564 13.0456 126.612 13.14C127.233 12.997 127.963 13.0009 128.617 13.0216C128.855 13.0286 128.775 13.2579 129.015 13.266C130.412 13.3153 130.091 12.3615 131.431 14.1529C130.992 13.99 129.271 14.2162 129.052 14.1566C128.886 14.1148 128.231 12.602 128.471 14.1543C127.107 14.1469 128.294 13.2913 127.011 13.478C127.036 13.6674 127.061 13.8569 127.085 14.0463C126.653 14.1656 126.329 14.2613 126.061 13.927C126 14.5499 125.292 14.5036 124.565 14.4284C124.235 14.3927 123.903 14.3505 123.639 14.3705C122.443 14.4587 121.102 14.6835 119.916 14.7238C119.505 14.7374 119.27 14.3774 119.218 14.3785C119.139 14.3812 118.936 14.6968 118.788 14.6992C118.246 14.7085 116.54 14.1767 116.116 15.053C118.949 15.0503 121.764 15.0484 124.565 15.0481C125.07 15.048 125.567 15.048 126.058 15.0481C125.635 14.6173 128.998 14.5763 129.152 14.598C129.307 14.6174 129.177 14.9196 129.222 14.9379C129.557 15.0678 129.87 14.6298 129.98 14.6299C130.065 14.6301 130.238 14.8358 130.539 14.8316C130.594 14.831 130.609 14.6136 130.668 14.613C131.059 14.6134 131.44 14.6169 131.823 14.6163C131.845 14.6184 131.947 14.9362 132.048 14.9369C132.149 14.937 132.249 14.6198 132.275 14.6188C132.594 14.6215 133.132 14.8288 133.426 14.8316C133.528 14.8317 133.458 14.599 133.572 14.6014C133.925 14.6077 133.795 15.0628 134.246 14.9464C134.396 14.9073 134.388 14.559 134.674 14.6056C134.876 14.6387 134.852 15.2592 134.884 15.2818C134.929 15.3091 135.619 14.8208 135.838 15.2275C135.351 16.2985 136.366 15.2849 136.328 14.8324C136.607 14.9471 136.883 15.0619 137.156 15.1767C137.25 15.0624 137.343 14.9481 137.436 14.8339C138.515 15.3538 139.219 15.0467 140.294 15.2108C140.351 15.2189 141.266 15.4785 141.22 15.6395C140.681 15.9137 140.109 15.9236 139.771 15.4095C139.198 16.3842 139.198 15.6053 138.25 15.7313C137.93 15.774 137.918 16.0392 137.881 16.0424C136.68 16.1698 134.739 16.2791 133.908 15.5024C133.678 15.7116 134.506 15.7964 134.182 15.9502C134.021 16.0338 129.814 16.2759 131.157 15.385C131.019 15.4095 130.88 15.4341 130.741 15.4587C130.602 16.3017 129.902 16.1083 129.982 15.2686C129.915 15.4404 129.848 15.6122 129.781 15.784C129.648 15.9293 129.492 16.0071 129.283 16.0532C128.722 16.1751 126.181 16.0693 124.565 16.0356C123.889 16.0208 123.381 16.0195 123.302 16.0561C123.296 16.2553 123.291 16.4545 123.285 16.6538C123.718 16.6987 124.144 16.7149 124.565 16.7166C126.319 16.7233 128.028 16.4981 129.908 16.956C129.838 16.7691 129.768 16.5822 129.698 16.3953C130.673 16.6577 131.556 16.9204 132.533 17.1836C131.519 17.5202 129.937 17.8026 128.901 17.5236C128.717 17.4738 128.852 17.2133 128.81 17.1817C128.699 17.0997 128.581 17.5517 128.179 17.5954C127.776 17.6391 126.752 17.3184 126.671 17.3274C126.496 17.3459 126.019 17.8631 125.714 17.8565C125.314 17.8475 125.582 17.5274 125.502 17.5206C125.169 17.4891 124.867 17.6478 124.601 17.6242C124.59 17.6231 124.578 17.6216 124.565 17.6197C124.179 17.557 123.423 17.0506 123.161 17.853C123.436 17.8907 123.71 17.9283 123.982 17.9661C122.498 18.2628 121.327 17.2066 119.855 18.0225C119.52 19.0237 120.743 18.8877 119.709 19.3155C119.897 19.3011 120.085 19.2867 120.272 19.2722C120.315 19.0626 120.359 18.8529 120.403 18.6433C120.724 18.7928 121.044 18.9424 121.361 19.0919C121.271 18.9051 121.18 18.7183 121.089 18.5315C122.196 18.39 123.393 18.1981 123.775 19.2024C123.798 18.9595 123.821 18.7167 123.844 18.4739C124.07 18.5375 124.318 18.5395 124.565 18.5172C125.51 18.4358 126.424 18.031 126.193 19.0909C126.243 19.0193 126.293 18.9477 126.342 18.8761C126.973 19.1524 126.703 18.5936 126.939 18.5305C126.995 18.5127 128.266 18.8017 127.705 19.2026C128.925 19.5097 128.545 18.2468 128.878 18.1915C129.62 18.8175 131.062 17.8805 130.462 18.8685C130.578 18.9057 130.694 18.9429 130.809 18.9802C131.19 18.2028 131.549 19.0832 131.96 19.378C132.103 19.3958 132.244 19.4136 132.385 19.4313C132.48 19.1698 132.575 18.9082 132.669 18.6466C133.978 19.8944 133.557 16.4872 134.151 19.3504C134.054 19.5214 133.962 19.6925 133.871 19.8635C133.655 19.9445 133.437 20.0255 133.217 20.1065C134.08 20.1835 135.016 20.261 135.882 20.3388C137.03 21.1442 137.63 20.2756 138.915 20.9154C139.033 20.8397 139.151 20.764 139.268 20.6884C139.145 21.336 138.695 21.2388 139.534 21.5333C139.604 21.9919 139.038 22.0487 138.775 21.6961C138.712 21.61 139.253 21.2612 138.646 21.2463C138.235 21.2359 138.972 21.7893 137.749 21.5809C137.793 21.693 137.837 21.8051 137.881 21.9173C137.751 21.9135 137.62 21.9098 137.489 21.9061C137.372 21.6466 137.256 21.3871 137.138 21.1276C136.834 21.5009 136.654 22.0247 135.956 21.9112C136.141 21.7495 135.894 21.2284 135.554 21.2364C135.553 21.4239 135.553 21.6114 135.553 21.7989C134.725 21.9174 135.013 21.368 134.31 21.796C134.24 21.6468 134.17 21.4975 134.099 21.3483C133.729 21.9618 132.343 22.3775 132.596 21.457C132.196 22.3514 131.381 21.9465 131.083 21.2304C131.06 21.4166 131.036 21.6027 131.013 21.7889C130.852 21.8265 130.69 21.8641 130.527 21.9017C130.437 21.789 130.346 21.6762 130.254 21.5635C130.138 21.6761 130.022 21.7886 129.905 21.9011C129.834 21.7142 129.764 21.5273 129.693 21.3404C129.499 21.5642 129.327 21.788 129.143 22.0119C129.032 21.8627 128.921 21.7136 128.809 21.5644C128.8 21.9541 127.68 22.0403 127.357 21.7845C127.262 21.8977 127.164 22.0109 127.073 22.1242C127.028 21.9386 126.984 21.7531 126.939 21.5675C126.871 21.716 126.803 21.8644 126.735 22.0128C126.578 21.8643 126.42 21.7159 126.261 21.5674C125.613 22.477 125.589 21.6789 125.439 21.6845C125.28 21.6905 124.897 21.8814 124.566 22.0371C124.333 22.1521 124.127 22.2479 124.061 22.2354C123.906 22.2059 123.831 21.8795 123.705 21.8488C121.615 21.3365 122.468 22.2124 122.047 22.3513C121.813 22.4269 121.664 22.1224 121.465 22.1562C121.133 22.2127 119.4 22.6168 119.294 22.5775C119.148 22.5206 119.488 21.0842 119.018 21.4546C119.005 22.2258 118.009 21.4482 118.475 22.5234C118.065 22.4293 117.652 22.3352 117.236 22.2412C117.284 23.1554 116.77 22.5678 116.207 22.6191C115.436 22.6909 113.654 23.294 113.715 22.3562C113.526 22.5719 113.33 22.7876 113.146 23.0033C111.879 22.7096 110.573 23.0207 109.314 23.0338C105.51 23.0742 101.374 22.878 97.5934 22.7008C97.4103 22.692 97.436 22.3856 97.3041 22.3791C96.6204 22.3466 94.8335 22.567 93.862 22.5015C93.5546 22.4807 93.404 22.1822 93.3064 22.1687C92.9748 22.1209 93.0538 22.5145 92.901 22.5035C92.6605 22.486 91.3817 22.1233 90.9393 22.086C90.7208 22.0675 90.4616 22.381 90.208 22.2849C90.1861 22.2771 90.2258 21.9546 90.2073 21.949C89.7436 21.9106 90.0231 22.1887 89.8662 22.1744C88.7485 22.0721 87.5415 22.0685 86.328 22.0049C86.0263 21.9887 85.5636 21.7625 85.3041 21.7417C85.2051 21.7344 85.3832 21.9786 85.0411 21.9591C84.9239 21.9525 84.8831 21.6345 84.7507 21.6142C84.1803 21.5288 83.9913 22.5515 83.4991 21.7305C82.5558 21.7869 80.9106 22.0535 80.0473 22.0614C79.8434 22.0628 79.7436 21.8752 79.5492 21.8791C79.4113 21.8817 79.1693 22.1734 78.9541 22.1775C78.7389 22.1814 78.3984 21.9051 77.9844 21.9163C77.5486 21.9276 77.0071 22.0937 76.9089 22.0929C76.7902 22.0932 76.734 21.7433 76.6154 21.748C76.2564 21.7602 75.2962 22.1068 74.8342 22.1453C74.3376 22.186 74.0392 22.0171 73.8696 22.0209C73.7125 22.026 73.5302 22.3219 73.4584 22.3247C73.3469 22.3295 73.3196 21.9844 73.1779 21.9876C72.946 21.9939 72.707 22.2116 72.3591 22.2183C66.0982 22.3424 59.9615 22.1706 53.8693 21.9377C53.1924 21.9116 52.8153 22.1549 51.8065 22.0475C51.3995 22.0037 51.5697 21.6469 51.2539 21.7152C51.1132 21.7461 51.1496 22.0262 50.9719 22.0403C50.1865 22.1013 49.2778 21.8438 48.9298 21.8494C48.7937 21.8511 48.6392 22.1698 48.3612 22.1753C46.3004 22.2178 43.8718 22.1361 41.6266 22.1985C40.4697 22.2315 38.6519 22.3994 37.3272 22.4251C33.5967 22.4969 29.5714 22.4364 26.1631 22.4791C25.5941 22.4861 25.0371 22.4959 24.4926 22.5075C19.8853 22.6026 15.3484 22.8171 10.7827 22.5218C13.1746 23.2839 16.4534 23.2089 19.1173 23.2835C20.913 23.3323 22.6451 23.3453 24.4953 23.3359C30.5868 23.3045 36.8533 23.0208 42.9682 23.0145C45.7042 23.0115 49.1975 22.9828 52.2007 23.1518C52.3374 23.1592 52.6251 22.9136 52.9187 22.9386C52.9806 22.9445 53.7552 23.3886 54.0172 23.3923C53.7666 22.5995 54.7941 23.3037 55.1133 23.2835C55.5157 23.2574 56.3518 22.8583 57.2844 23.0798C58.134 23.2801 57.9013 23.5861 57.9481 23.6051C58.2494 23.7279 58.3532 23.2357 58.5841 23.1853C59.5299 22.984 64.3628 23.2558 65.7189 23.27C66.0691 23.2735 66.08 23.5862 66.159 23.5871C66.3677 23.5886 66.6616 23.2789 66.9949 23.2801C67.5952 23.2829 68.2893 23.5761 68.6209 23.5763C69.4164 23.5774 70.9142 23.2251 71.9447 23.2155C72.2344 23.2127 72.2176 23.5382 72.3488 23.5367C72.9276 23.5294 74.4268 23.1419 75.1434 23.1366C76.307 23.1279 77.5043 23.3351 78.6864 23.225C78.7617 23.37 78.837 23.515 78.9123 23.6599C79.0301 23.5073 79.1479 23.3547 79.2658 23.202C81.2668 23.313 83.2974 22.981 85.2894 22.9976C85.5188 22.9993 86.6521 23.2744 86.8404 23.2751C86.997 23.2747 87.1515 22.9148 87.3855 22.9672C87.7132 23.0399 87.4068 23.7255 87.9409 23.5284C88.0845 23.4751 87.9446 23.1822 88.2329 23.0902C88.329 23.0595 90.1746 22.9366 90.2727 22.9566C90.4373 22.9904 90.5869 23.6182 90.63 23.6316C90.8531 23.702 90.8425 23.22 90.9919 23.1757C91.4328 23.0431 92.0083 23.3661 92.0797 23.3588C92.9425 23.2679 94.5547 22.8797 95.4646 23.1055C95.5901 23.137 95.5758 23.4959 95.5979 23.5075C95.74 23.5816 95.8274 23.1728 95.9622 23.163C96.6863 23.1153 97.826 23.3882 98.5604 23.4566C98.6448 23.4641 98.8223 23.2671 98.9726 23.2859C99.8218 23.3947 99.5465 23.7107 99.5949 23.7241C99.7091 23.7574 99.9092 23.4091 100.212 23.387C100.993 23.328 102.512 23.3752 103.345 23.4008C103.97 23.4211 103.964 23.8196 104.005 23.8274C104.095 23.8415 104.342 23.523 104.759 23.4863C105.56 23.4139 105.469 23.7271 105.797 23.713C105.824 23.713 105.776 23.4068 106.139 23.3746C106.829 23.3127 108.431 23.6113 109.177 23.5945C109.466 23.5885 109.533 23.293 109.827 23.287C110.285 23.2762 111.368 23.5942 111.448 23.5933C111.471 23.5933 111.524 23.2534 111.662 23.2532C111.814 23.2531 111.963 23.4278 112.076 23.4265C112.716 23.421 113.821 22.8266 113.515 24.0399C113.724 23.7402 113.932 23.4405 114.139 23.1408C115.491 23.199 116.798 23.0778 118.136 23.0158C118.435 23.0021 118.683 23.2316 118.933 23.2203C119.18 23.2088 120.32 22.828 120.503 22.8208C120.835 22.8082 122.725 22.7673 122.969 22.7943C123.432 22.846 123.874 23.3472 124.059 23.2491C124.207 23.1701 124.07 22.8877 124.352 22.8076C124.418 22.7889 124.49 22.7793 124.566 22.7768C125.073 22.7606 125.724 23.0312 125.855 23.0263C125.919 23.024 125.8 22.8038 126.402 22.7881C126.725 22.7791 126.896 23.0217 127.012 23.0206C127.049 23.0194 126.989 22.626 127.648 22.6791C128.101 22.7164 128.289 23.02 128.337 23.0211C128.407 23.0232 128.577 22.6995 128.856 22.7109C129.488 22.7395 130.74 23.1118 131.347 23.1408C131.467 23.1466 131.424 22.7553 131.902 22.7919C132.255 22.8183 132.193 23.1294 132.324 23.1421C132.532 23.1615 132.842 22.7809 133.291 22.794C133.844 22.8099 138.099 23.2167 138.3 23.3211C138.45 23.3904 138.623 23.3955 138.696 23.5648C138.632 23.7267 138.568 23.8885 138.504 24.0504C137.847 23.479 138.11 24.1302 137.94 24.1713C137.701 24.2301 136.767 24.1442 136.533 24.2878C136.45 24.3397 136.639 24.6862 136.195 24.863C135.73 25.052 135.533 24.4355 135.345 25.2768C134.69 24.3407 134.039 25.3312 134.814 25.5978C135.228 25.7455 139.438 26.0926 140.277 26.15C140.976 26.195 142.274 25.9521 143.112 26.0225C143.609 26.0641 144.843 26.118 144.78 26.5651C145.216 26.6253 144.756 26.1757 144.849 26.1145C145.056 25.9866 146.413 26.3078 146.683 26.2989C147.957 26.2543 149.598 25.7773 150.814 26.3657C150.754 26.4843 150.693 26.603 150.633 26.7217C150.349 26.9357 149.062 26.6004 148.913 27.1736C150.789 27.2016 152.685 27.2394 154.511 27.2967C154.497 26.804 156.753 26.8929 156.851 27.1219C156.801 27.357 156.752 27.592 156.702 27.827C155.475 26.8763 155.547 28.0705 154.699 27.4102C154.354 27.3903 154.446 27.785 154.272 27.854C152.516 28.5433 154.269 27.0487 152.928 27.3634C153.315 27.9413 152.225 28.1212 151.724 28.1832C151.612 28.1958 150.131 28.0234 149.965 28.0303C148.953 28.0632 147.281 28.3522 146.27 28.0308C145.51 27.9855 145.036 28.3857 144.347 28.4735C143.808 28.54 143.964 28.257 143.707 28.2515C143.153 28.2394 142.996 29.1039 142.659 27.8943C142.299 28.0423 141.922 28.1903 141.559 28.3385C141.56 28.151 141.561 27.9636 141.562 27.7761C141.339 27.7748 141.114 27.7735 140.886 27.7723C140.818 27.9587 140.75 28.1452 140.681 28.3317C139.952 28.0721 140.257 27.6222 140.123 27.0906C139.961 27.0534 139.807 27.0162 139.654 26.979C139.533 27.386 139.412 27.793 139.29 28.2C138.595 28.1638 137.877 28.1279 137.19 28.0925C137.145 27.9055 137.101 27.7185 137.056 27.5315C137.054 27.7183 137.052 27.9052 137.05 28.092C135.836 28.1266 134.673 28.1622 133.482 28.1985C133.159 28.4976 135.075 28.7285 135.216 28.747C135.991 28.8478 138.149 28.5544 138.135 29.2207C138.659 28.7255 140.119 28.8553 140.602 29.4543C139.875 29.4147 139.202 29.3759 138.481 29.3373C138.503 29.5607 138.526 29.7841 138.548 30.0075C137.645 29.1034 137.556 29.1527 136.633 30.0008C136.633 29.7014 136.633 29.4019 136.633 29.1024C135.969 30.1417 134.899 28.3727 134.851 29.6583C134.516 29.5533 134.16 29.4484 133.832 29.3437C133.111 29.4992 134.249 30.4893 131.388 30.0977C131.194 30.0704 131.235 29.7429 130.941 29.7651C130.857 29.7718 130.37 30.2477 129.422 30.1974C129.28 30.1893 129.269 29.9052 129.12 29.869C128.778 29.7831 128.081 30.3447 128.398 29.4292C127.006 29.1615 127.579 29.9133 127.143 30.2119C126.86 30.41 126.919 29.8682 126.675 29.9911C126.37 30.1434 126.603 30.6895 125.37 30.4382C125.509 30.4011 125.648 30.364 125.785 30.3269C125.716 30.1784 125.647 30.03 125.577 29.8816C124.87 30.2377 124.935 29.7173 124.598 30.5515C124.587 30.5442 124.577 30.537 124.567 30.53C124.08 30.1785 123.649 30.1514 122.963 30.2179C121.596 30.3503 122.29 31.2489 120.757 30.0392C120.507 30.2092 120.256 30.3793 120.004 30.5494C119.588 30.1924 119.925 29.7451 119.302 29.6554C119.785 30.5376 118.489 30.2167 118.275 31.0037C118.252 30.8163 118.229 30.6288 118.206 30.4413C118.07 30.4414 117.933 30.4415 117.796 30.4417C117.796 30.592 117.795 30.7424 117.795 30.8928C117.612 30.7803 117.429 30.6679 117.245 30.5554C117.107 30.7046 116.969 30.8538 116.83 31.003C116.602 30.6888 116.368 30.3746 116.145 30.0604C116.005 30.039 115.865 30.0177 115.724 29.9963C115.769 30.2202 115.813 30.4441 115.858 30.668C115.678 30.5934 115.497 30.5187 115.315 30.444C115.526 30.8113 115.395 31.2423 114.828 31.2316C114.359 31.2231 114.889 30.4555 113.875 30.7757C113.809 30.7985 113.665 31.3456 112.728 31.4313C111.593 31.5341 112.143 31.1372 111.941 31.1237C111.901 31.1215 111.553 31.3972 111.224 31.4371C111.038 31.4598 110.858 31.2378 110.833 31.2384C110.718 31.2487 110.685 31.5632 110.525 31.5748C110.112 31.6024 109.587 31.4491 109.192 31.4654C109.013 31.4724 108.845 31.6589 108.765 31.6613C108.641 31.6636 108.484 31.3793 108.358 31.3807C107.895 31.3873 107.183 32.3324 106.968 31.0215C106.53 32.2279 105.597 30.7717 105.666 31.5802C104.467 31.2769 101.305 32.2747 101.39 30.9158C100.716 32.0789 100.771 31.2374 100.49 31.2554C100.177 31.2752 100.34 31.5002 100.09 31.4905C99.5072 31.468 98.9476 31.3722 98.3628 31.3689C98.4543 31.1825 98.5457 30.9961 98.637 30.8098C98.0232 30.7512 98.2357 31.1841 97.6081 31.2688C96.4577 31.4233 96.9439 31.0766 96.7729 30.5889C96.82 31.06 95.468 30.9895 95.3289 30.9278C95.2464 30.8902 95.6066 30.2821 94.7755 30.4798C94.8214 30.6665 94.8673 30.8533 94.9131 31.04C94.5333 30.7853 93.5043 31.1117 93.3325 31.0492C93.2528 31.0201 92.8229 29.5142 92.434 30.7075C92.3863 30.5207 92.3386 30.334 92.291 30.1472C91.8566 30.3728 91.4215 30.5984 90.9855 30.824C90.9151 30.4875 90.8447 30.1511 90.7742 29.8147C90.6358 29.815 90.4964 29.8153 90.3595 29.8156C90.4512 30.1142 90.5436 30.4128 90.6364 30.7115C89.7853 30.5781 88.747 31.0517 88.5684 30.0443C88.3862 30.2316 88.2039 30.4189 88.0215 30.6061C87.9017 30.2711 87.7819 29.9361 87.662 29.6011C86.8137 29.6877 86.8031 29.9119 86.2263 30.2705C86.2482 30.0088 86.2702 29.747 86.2921 29.4852C85.8674 29.8537 85.0903 30.1977 84.4744 30.2454C84.1816 30.2675 83.6776 29.9081 83.6085 29.9409C83.5389 29.9756 82.8574 31.3942 82.7799 30.1676C81.7721 30.7134 81.3257 30.1596 80.9158 30.1742C80.6495 30.184 80.5287 30.4787 80.2278 30.5099C79.7974 30.555 79.3642 30.4137 79.1159 30.4346C78.9738 30.4474 78.948 30.7346 78.8501 30.7439C78.3871 30.7889 78.6577 30.4948 78.1695 30.5152C78.1245 30.5186 77.7685 30.8698 77.3661 30.8259C77.1411 30.8016 76.5584 30.4091 76.507 30.4102C76.2792 30.4175 76.4633 31.2047 75.6824 30.2971C75.7054 30.4468 75.7284 30.5964 75.7514 30.7461C74.7891 31.1286 74.6355 30.4613 74.4409 30.4156C74.4161 30.4119 74.1823 30.6706 74.0421 30.6354C73.8051 30.5753 73.7086 30.2222 73.6562 30.2068C73.4716 30.1532 72.849 30.3103 72.4404 29.9699C72.5286 30.9751 71.1026 31.3366 70.7841 30.199C70.5325 30.4243 70.281 30.6496 70.0297 30.8749C69.9152 30.6877 69.8008 30.5005 69.6862 30.3134C69.6171 30.5004 69.548 30.6874 69.4789 30.8745C69.1088 30.464 68.7391 30.0536 68.3698 29.6432C68.3475 30.0554 68.3252 30.4675 68.3029 30.8797C68.1997 30.8331 68.0965 30.7865 67.9933 30.7399C67.912 30.4127 67.8307 30.0855 67.7494 29.7582C67.6208 29.8211 67.4924 29.8839 67.3639 29.9468C67.3328 30.1839 67.3016 30.4209 67.2704 30.658C66.5789 30.9331 66.9334 28.6719 65.6154 30.6627C65.4092 30.4764 65.203 30.2902 64.9971 30.1039C64.7677 31.0139 64.3317 30.4645 63.9822 30.5677C63.7359 30.6406 63.7503 31.0018 63.4148 31.0108C63.0793 31.0196 63.0905 30.6741 63.0643 30.6719C62.7922 30.6515 62.5831 30.9567 62.3812 30.8966C62.3507 30.8876 62.2731 30.4776 62.0157 30.4523C61.7583 30.4272 61.6045 30.8639 61.2219 30.7828C61.0259 30.7416 60.9684 30.3961 60.7947 30.3661C59.9682 30.2197 59.1426 31.9725 58.5112 29.8982C58.3712 30.1616 57.3578 31.0854 56.9255 31.0337C56.2525 30.9512 56.5107 30.5432 56.2434 30.4694C56.206 30.4582 55.9992 30.5964 55.429 30.5734C55.3271 30.5692 55.3515 30.7991 55.3368 30.8022C54.6712 30.7997 53.3936 30.622 52.67 30.5915C52.6047 30.5883 52.2637 31.2303 51.6839 30.3699C50.8295 31.0094 49.2309 29.6461 48.1 30.6095C47.944 30.6303 47.7543 30.4016 47.6855 30.4096C47.0904 30.4825 47.3207 31.1778 45.9679 30.1631C46.079 30.5177 45.762 30.8391 45.3161 30.8135C44.6466 30.7751 45.1194 30.1116 44.5833 30.1674C44.5839 30.3543 44.5845 30.5411 44.5851 30.7279C43.3581 30.2292 43.1086 31.0289 41.8655 31.0373C41.419 31.0399 40.7653 30.6279 40.6606 30.6271C40.621 30.6284 40.1376 31.0805 40.0878 31.084C39.8222 31.0984 39.6722 30.8912 39.4443 30.8908C38.6905 30.8888 37.8103 31.4776 37.9667 30.4131C37.7632 30.6384 37.5643 30.8636 37.3584 31.0889C36.5643 29.9552 35.9902 31.5231 35.824 30.42C35.6862 30.6483 35.5487 30.8766 35.4116 31.1049C32.0756 31.0005 28.7422 30.8962 25.4094 30.792C25.341 30.978 24.9139 31.0334 24.5206 31.0362C24.1389 31.0387 23.7865 30.9974 23.7506 30.9712C23.406 30.7221 23.7631 29.9466 23.0688 30.1258C22.9934 30.4653 22.9182 30.8047 22.8433 31.1441C21.987 31.2574 22.3961 30.9185 22.0449 30.6897C21.8971 30.7321 21.9454 30.9951 21.7464 31.0149C20.675 31.1233 18.5392 31.1427 17.3416 31.1681C17.1086 31.1733 17.1434 30.9272 17.0715 30.9268C16.8734 30.9297 16.4946 31.241 16.0773 31.2425C13.5863 31.2485 10.0842 31.0851 7.57701 30.8329C7.40889 30.8154 7.38799 30.522 7.2769 30.5077C7.13315 30.4891 6.7514 30.7275 6.5916 30.7033C6.43471 30.6812 6.34109 30.4586 6.17361 30.4332C5.39214 30.314 4.36162 30.6939 3.53582 30.0394C3.4723 29.9841 2.61496 28.8054 2.58113 28.728C2.46775 28.2685 3.22867 27.5435 1.96822 26.8746C3.0884 26.2837 2.74151 25.2466 1.27321 24.744C2.02176 24.6108 2.73255 24.4777 3.47126 24.3444C3.4719 24.2214 3.47254 24.0983 3.47318 23.9753C2.79705 23.3677 2.15586 23.1668 1.12906 23.1136C1.16453 22.9996 1.19193 22.8856 1.2219 22.7716C2.11417 22.1995 3.20064 22.0908 3.88338 21.3119C2.86918 20.7403 1.8663 20.1687 0.870169 19.597C0.924733 19.507 0.964853 19.417 1.01602 19.327C1.50991 19.0921 2.53867 18.9518 2.93982 18.733C4.45925 17.8985 1.62315 18.1164 2.07375 17.6088C3.69804 17.6219 5.2768 17.635 6.89754 17.6479C6.94995 17.2751 0.770632 16.2656 0.826835 15.1402C1.33301 15.0631 1.83166 14.986 2.34013 14.9088C2.11894 14.6238 1.89585 14.3387 1.66127 14.0536C1.72216 13.9629 1.79647 13.8722 1.84994 13.7815C2.68942 13.5569 3.5583 13.3321 4.40305 13.1073C1.82971 13.3387 0.582255 13.181 0 10.9316C0.0525081 10.8743 0.128701 10.8168 0.193768 10.7594C0.753001 12.1658 3.40055 11.7018 4.80817 11.4166C4.53244 11.0051 3.2814 11.3277 3.0188 11.0806C2.9426 11.0097 3.2069 10.7226 3.03006 10.5767C2.5752 10.1972 0.671906 9.71298 0.941212 9.24545C1.11622 8.94512 4.20408 8.5238 4.79888 8.55342C3.39973 8.01913 1.92924 7.86807 0.524351 7.21748C1.41216 6.30172 2.19504 5.18183 3.83225 5.12695C4.30636 4.64635 0.880763 3.99371 0.793 3.73238C1.38076 3.44997 1.98891 3.16743 2.57945 2.88495C2.08181 2.96141 1.57042 3.03791 1.06792 3.11435C1.06605 3.02061 1.06419 2.92687 1.06233 2.83313C2.35923 2.39394 3.5595 1.59139 5.05405 1.64065C4.99997 1.14484 4.10553 1.19708 3.67593 1.19396ZM146.857 29.174C146.885 29.5856 146.329 29.5119 146.039 29.501C146.083 29.5764 146.127 29.6517 146.171 29.727C145.538 29.6423 144.314 29.4738 144.27 30.2717C143.807 30.3671 144.016 29.6748 143.867 29.5946C143.809 29.5625 143.189 29.9616 142.719 29.467C142.604 29.4682 142.489 29.4693 142.373 29.4705C142.349 29.7321 142.325 29.9937 142.3 30.2552C142.141 29.9365 141.979 29.6178 141.817 29.2991C143.501 29.2533 145.19 29.2109 146.854 29.174C146.855 29.174 146.856 29.174 146.857 29.174ZM130.041 29.4342C129.395 29.286 128.491 29.0523 128.672 29.7692C129.064 29.7316 129.427 29.6941 129.835 29.6567C129.904 29.5825 129.973 29.5084 130.041 29.4342ZM68.4401 28.9731C67.9204 28.2689 67.4455 28.8806 66.647 28.7555C66.6485 28.9046 66.65 29.0537 66.6514 29.2027C66.9766 28.8438 67.8411 29.0796 68.4401 28.9731ZM161.476 26.9995C161.573 27.0631 161.671 27.127 161.769 27.191C161.285 27.954 161.261 27.3852 160.784 27.4261C160.755 27.4288 160.751 27.6125 160.741 27.6129C160.626 27.6165 160.536 27.3883 160.431 27.384C160.224 27.3759 160.053 27.5878 159.693 27.5559C159.414 27.5307 159.438 27.18 159.339 27.1827C159.254 27.1856 158.373 28.1021 157.859 27.6584C156.88 26.802 161.196 26.8793 161.476 26.9995ZM164.388 27.9498C164.287 27.9418 164.187 27.934 164.086 27.9264C164.447 27.422 163.826 27.436 163.382 27.4023C163.448 26.887 164.368 27.2071 164.819 27.1039C164.674 27.3856 164.531 27.6675 164.388 27.9498ZM151.549 26.101C151.976 26.0571 151.889 26.7028 151.868 26.8951C151.735 26.8921 151.593 26.8891 151.466 26.8865C151.493 26.6246 151.521 26.3628 151.549 26.101ZM154.679 25.9577C154.548 26.3929 153.632 26.5578 153.215 26.5835C153.196 26.5831 153.321 26.3449 153.017 26.3595C152.918 26.3637 152.015 27.2206 152.232 26.2292C153.043 26.1351 153.878 26.0447 154.678 25.9576C154.679 25.9576 154.679 25.9577 154.679 25.9577ZM155.571 26.2479C155.402 26.3799 155.231 26.512 155.058 26.6443C154.978 26.4351 154.897 26.2259 154.815 26.0168C155.012 25.9711 155.206 25.9255 155.396 25.8802C155.455 26.0027 155.513 26.1253 155.571 26.2479ZM23.4857 25.6422C23.5275 25.8627 23.5694 26.0833 23.6113 26.3038C23.769 26.4386 24.5556 25.475 24.305 25.2899C24.0288 25.4073 23.7557 25.5247 23.4857 25.6422ZM20.2431 25.1899C20.0769 25.0792 19.9121 24.9684 19.7486 24.8576C19.5623 25.2325 19.3777 25.6075 19.195 25.9824C20.0059 26.2322 20.857 26.5203 20.7143 25.4169C20.8945 25.4163 21.0763 25.4157 21.2598 25.4151C21.1076 25.872 21.1261 26.0223 21.611 26.3104C21.7089 25.675 22.2399 25.9968 22.7824 25.8554C22.3854 25.8196 21.9547 25.7839 21.5382 25.7482C21.5378 25.6362 21.5374 25.5242 21.5371 25.4122C22.4737 25.4496 21.2997 24.7432 20.716 25.1903C20.669 25.0414 20.6222 24.8925 20.5754 24.7435C20.4641 24.8923 20.3541 25.0411 20.2431 25.1899ZM86.8356 25.2184C86.7214 25.1061 86.6072 24.9937 86.4929 24.8814C86.0554 26.3493 86.948 24.9557 87.5961 26.1151C87.3817 25.2337 88.3616 25.2682 88.4172 25.2089C88.3039 24.9123 88.1906 24.6157 88.0772 24.3191C87.6638 24.6188 87.2476 24.9186 86.8356 25.2184ZM83.5957 24.2146C83.993 24.9452 82.0503 24.9948 81.3965 24.8352C81.2377 24.796 80.9537 24.395 80.8392 24.446C80.7701 24.5946 80.701 24.7432 80.6319 24.8919C80.5479 24.379 79.2752 24.9591 78.7739 25.2364C78.7261 25.0497 78.6784 24.863 78.6306 24.6763C78.4478 24.751 78.2649 24.8256 78.0821 24.9003C78.1046 24.7141 78.1272 24.5278 78.1497 24.3416C78.0118 24.5659 77.8739 24.7902 77.736 25.0145C77.193 25.265 77.5256 24.2491 77.118 24.5669C76.665 24.9198 77.4104 25.5223 77.3976 25.9158C77.7658 25.8133 78.603 25.5841 78.9768 25.5718C79.1914 25.5652 78.95 26.2707 79.873 25.4582C80.0761 25.6465 80.2798 25.8348 80.4833 26.0231C80.8552 25.722 81.227 25.4209 81.5987 25.1199C81.6688 25.3808 81.7389 25.6416 81.809 25.9025C81.8489 25.9433 82.7083 25.3484 82.6618 25.1524C83.0116 25.6506 83.727 25.7377 84.4831 25.7612C84.5555 25.6191 84.6278 25.477 84.7001 25.3349C83.9705 25.6432 84.4674 25.1853 84.249 24.9141C84.1229 24.7577 83.7373 24.4509 83.5957 24.2146ZM28.5718 25.0532C27.3443 25.6941 28.0971 25.1661 26.7931 25.1704C26.8887 25.5073 26.9769 25.8442 27.0693 26.1811C27.7011 25.5629 28.7854 25.9691 28.5731 25.0532C28.5727 25.0532 28.5722 25.0532 28.5718 25.0532ZM15.6132 26.2168C16.3107 26.0105 15.9804 25.4872 16.8534 25.3163C16.8538 25.3163 16.8542 25.3163 16.8546 25.3163C16.4228 25.28 15.9187 25.2439 15.4713 25.2076C15.5185 25.544 15.5658 25.8804 15.6132 26.2168ZM56.5936 25.6775C57.2631 25.822 57.1305 25.56 57.7413 26.0822C58.6481 25.4438 57.879 25.5359 57.8773 24.9588C57.6702 25.1287 57.4634 25.2986 57.2568 25.4684C56.7534 24.9302 57.2284 24.6571 57.2283 24.6053C57.2279 24.6053 57.2275 24.6053 57.227 24.6053C57.2266 24.432 57.2426 24.3955 57.0499 24.2914C56.8976 24.7534 56.7455 25.2154 56.5936 25.6775ZM59.47 24.956C59.2389 25.34 59.1408 25.8323 59.7435 26.0763C59.7439 26.0763 59.7443 26.0763 59.7448 26.0763C59.7905 25.2196 60.371 25.9093 60.6354 25.851C60.7045 25.7577 60.7736 25.6644 60.8427 25.5711C60.384 25.3661 59.9264 25.1611 59.47 24.956ZM69.5999 24.1399C69.6049 25.0861 69.0962 25.1776 69.8148 26.0475C69.9533 26.0302 70.0919 26.0129 70.2305 25.9956C70.321 25.7876 70.4115 25.5797 70.502 25.3718C72.2681 27.0792 72.7837 24.1622 69.8126 25.2604C69.8121 25.2611 69.8117 25.2617 69.8113 25.2624C69.741 24.8882 69.6707 24.5141 69.5999 24.1399ZM66.4965 24.2287C66.4757 24.7255 66.4547 25.2223 66.4338 25.7191C66.0428 24.5219 65.539 25.6667 64.7735 24.8234C64.7048 24.9747 64.6362 25.1259 64.5676 25.2771C64.2818 24.9456 61.4819 24.8579 62.09 25.6202C62.3564 25.9531 62.9361 25.4982 62.9838 25.5083C63.1515 25.5452 63.3714 25.9714 63.6548 25.9458C63.8185 25.9304 64.1626 25.4278 64.4977 25.4277C65.2468 25.4278 66.6223 26.7706 67.6007 25.4931C67.672 25.6427 67.7433 25.7922 67.8146 25.9417C68.5455 25.8483 68.3 25.3746 68.9827 25.9385C69.4452 23.5778 66.2487 26.0625 66.9107 24.1475C66.9103 24.1475 66.9099 24.1475 66.9094 24.1475C66.7718 24.1745 66.6341 24.2016 66.4965 24.2287ZM46.3716 24.9959C46.3249 24.5724 45.4719 25.2288 45.6697 24.213C45.3921 24.5674 45.1155 24.9217 44.8399 25.2761C44.8423 25.3705 44.8447 25.4649 44.8471 25.5593C45.122 25.4842 45.3978 25.4091 45.6745 25.334C45.676 25.4838 45.6775 25.6335 45.6791 25.7832C46.0996 25.2402 47.7935 25.4709 47.7464 26.0014C47.8369 25.7771 47.9276 25.5529 48.0183 25.3287C48.8372 25.9359 49.5542 25.2853 50.4361 25.8778C50.5043 25.692 50.5725 25.5063 50.6407 25.3205C50.686 25.4701 50.7313 25.6197 50.7766 25.7693C51.1005 25.7872 51.4255 25.8051 51.7513 25.823C52.8117 25.2168 50.7455 24.4426 50.5007 24.5319C50.4678 24.5444 50.474 24.9321 50.2683 24.9936C49.9142 25.1015 47.8311 24.722 47.2055 24.9796C47.1993 24.7225 47.193 24.4654 47.1868 24.2082C46.9142 24.4708 46.644 24.7333 46.3716 24.9959ZM73.5337 25.1409C73.5808 25.4025 73.6279 25.664 73.675 25.9256C74.4752 25.6621 74.9806 25.8892 74.7728 25.0243C74.7724 25.0243 74.772 25.0243 74.7715 25.0243C74.3588 25.0631 73.9461 25.102 73.5337 25.1409ZM133.076 25.278C133.056 24.7577 132.677 24.5625 132.173 24.9348C132.197 25.0859 132.221 25.2369 132.245 25.388C132.506 24.9454 132.835 25.7179 133.617 25.6168C133.618 25.3551 133.618 25.0934 133.619 24.8317C133.439 24.9804 133.258 25.1292 133.076 25.278ZM72.8417 25.0295C72.5962 24.7215 71.9124 25.6596 72.3642 25.7046C72.7096 25.7386 72.9735 25.1948 72.8417 25.0295ZM12.8578 25.72C13.039 25.7741 13.2389 25.8281 13.4094 25.8823C13.5001 25.6593 13.5914 25.4364 13.6833 25.2134C13.6829 25.2134 13.6825 25.2134 13.682 25.2134C13.4166 25.3823 13.1396 25.5511 12.8578 25.72ZM54.293 25.7274C54.9065 25.6929 55.5243 25.6585 56.1421 25.6241C56.1477 25.4789 56.1534 25.3337 56.159 25.1885C55.5424 25.7202 55.2913 25.1499 55.1474 25.1154C55.148 25.1154 55.1487 25.1154 55.1493 25.1154C54.6865 25.0018 54.2473 24.9186 53.8122 24.7464C53.9723 25.0734 54.1326 25.4004 54.293 25.7274ZM52.1867 24.8178C52.291 25.8432 52.4401 25.9622 53.3711 25.238C53.3335 25.1118 53.296 24.9856 53.2585 24.8594C52.775 24.9364 52.4853 25.1741 52.5708 24.6389C52.4426 24.6985 52.3146 24.7581 52.1867 24.8178ZM61.8078 25.1171C61.693 24.7909 60.7948 25.1215 60.8444 25.286C60.8633 25.3513 62.0306 25.7568 61.8078 25.1171ZM139.861 25.0718C139.66 24.996 139.458 24.9202 139.254 24.8445C139.529 24.7344 139.787 24.6242 140.069 24.5142C139.999 24.7001 139.926 24.8859 139.861 25.0718ZM142.136 23.6253C142.282 23.757 141.8 24.6761 142.676 24.9199C142.037 24.9351 141.396 24.9508 140.763 24.967C141.063 24.8195 141.36 24.672 141.652 24.5247C141.603 24.2594 141.553 23.9942 141.504 23.7289C141.703 23.6943 141.926 23.6598 142.136 23.6253ZM142.817 24.3056C142.475 23.602 144.291 23.5627 144.454 23.6501C144.491 23.6708 144.663 24.2037 144.726 24.3185C144.459 24.3168 144.187 24.3152 143.912 24.3137C144.003 24.4817 144.093 24.6498 144.183 24.8178C143.867 24.8725 143.531 24.9272 143.217 24.9822C143.348 24.8152 143.493 24.6483 143.633 24.4814C143.348 24.4226 143.09 24.3641 142.817 24.3056ZM135.546 24.4433C135.775 24.4615 135.99 24.4796 136.227 24.4979C136.181 24.236 136.134 23.9742 136.088 23.7123C135.955 23.712 135.82 23.7116 135.685 23.7113C135.638 23.9553 135.592 24.1993 135.546 24.4433ZM140.216 24.1224C139.859 25.3807 138.992 22.622 140.034 23.6469C140.143 23.7511 140.248 24.0008 140.216 24.1224ZM145.125 23.8064C145.852 22.8946 145.674 24.9212 144.997 24.3209C144.963 24.289 145.07 23.8738 145.125 23.8064ZM150.42 23.8463C150.476 23.8542 150.573 24.5125 151.126 23.8987C151.214 23.9753 151.301 24.0519 151.387 24.1285C151.179 24.4284 149.379 24.5786 149.637 23.9326C149.914 23.9269 150.143 23.8211 150.42 23.8463ZM148.72 21.389C148.45 21.4034 148.175 21.4179 147.895 21.4325C147.985 21.6394 148.074 21.8463 148.162 22.0532C148.027 22.1074 147.883 22.1615 147.755 22.2159C147.536 21.8582 147.314 21.5007 147.088 21.1432C147.675 21.0934 148.277 21.0446 148.864 20.9966C148.816 21.1274 148.768 21.2582 148.72 21.389ZM141.466 20.8127C141.982 21.0739 142.652 20.8032 143.488 20.8534C143.489 20.854 143.489 20.8547 143.49 20.8554C143.533 20.8587 143.608 21.1419 143.747 21.1542C143.871 21.1634 146.175 20.8741 145.988 21.3519C145.096 21.7723 144.758 21.1168 144.543 22.1802C144.502 21.9552 144.461 21.7303 144.419 21.5053C143.568 21.1094 143.302 21.8851 142.831 22.167C142.834 21.9978 142.837 21.8285 142.84 21.6593C142.521 21.6402 142.198 21.6211 141.869 21.6022C141.914 21.7138 141.96 21.8254 142.006 21.937C141.89 21.9363 141.77 21.9356 141.658 21.9349C141.391 21.4318 141.044 21.3129 141.466 20.8127ZM149.947 21.6875C150.203 20.4064 152.645 21.3323 153.754 21.0962C153.159 21.8528 152.274 21.2986 151.624 21.2774C150.405 21.2384 151.239 21.7283 151.028 21.9316C150.923 22.032 150.232 21.196 149.947 21.6875ZM139.544 21.0275C140.142 21.1339 140.527 20.8402 141.052 21.3143C141.007 21.4078 140.962 21.5013 140.916 21.5948C140.733 21.5078 139.226 21.2299 139.544 21.0275ZM155.366 21.482C154.196 20.982 154.755 22.1636 154.163 21.2739C154.572 21.2304 154.968 21.1876 155.378 21.1463C155.374 21.2582 155.37 21.3701 155.366 21.482ZM71.4487 20.2033C70.9408 20.1753 70.3739 19.9426 70.0723 20.4278C70.4168 20.5017 70.7616 20.5756 71.1067 20.6495C71.2206 20.5008 71.3346 20.352 71.4487 20.2033ZM85.917 15.4338C85.8009 15.318 85.3435 15.6617 85.2952 15.6618C85.2054 15.662 85.2295 15.4932 85.2281 15.4491C84.6406 15.4811 85.184 16.0033 84.7494 16.1182C84.6757 16.1372 83.6507 15.8809 83.2368 15.9032C82.5988 15.9374 81.9607 15.9051 81.722 15.9147C81.3191 15.9305 80.5711 16.3251 79.9086 16.347C79.6357 16.3554 79.5396 16.0413 79.2651 16.0499C77.5032 16.1073 74.0344 16.5482 72.47 16.353C72.0831 16.3044 71.7134 15.8937 71.5092 15.9279C71.3485 16.0787 71.1878 16.2295 71.0272 16.3803C70.5284 15.0279 70.3661 16.2325 69.8334 16.3602C69.4953 16.4409 69.3338 16.0403 69.2885 16.0414C68.9856 16.0501 68.8368 16.2415 68.5993 16.2738C68.3327 16.3095 67.9494 16.1296 67.8543 16.1626C67.7961 16.1847 67.9834 16.7173 66.9517 16.71C65.9046 16.7025 64.8537 16.6491 63.7865 16.6273C64.1478 18.2358 64.452 17.1333 64.8895 17.0733C65.0069 17.0572 64.9331 17.313 65.0353 17.3014C65.324 17.2701 65.877 17.0174 66.117 17.0776C66.3757 17.1425 66.2884 17.7351 66.614 17.5157C66.6304 17.5043 66.5776 17.2599 66.6542 17.2187C67.4241 16.8118 67.6778 17.2366 68.6559 17.2463C69.3087 17.2534 73.2334 16.9999 73.3711 17.1591C74.0786 18.0139 69.9324 18.031 69.45 17.9647C69.2799 17.9414 69.4574 17.6709 69.3024 17.6194C69.2366 17.5989 68.6477 18.1156 68.0658 18.16C67.3612 18.2138 65.9513 17.8665 65.2762 17.8808C59.5049 18.0043 53.8326 17.7101 48.0599 17.7213C47.9371 17.7217 47.776 18.0307 47.3774 18.032C39.9082 18.0496 32.149 17.8317 24.6096 18.0019C24.5656 18.0029 24.5216 18.0042 24.4778 18.0055C22.8376 18.0549 21.2762 18.3283 19.6519 18.11C19.4432 18.336 19.2369 18.5619 19.0327 18.7878C19.5536 18.607 20.5501 19.1132 20.6227 19.1205C20.654 19.1226 20.8486 18.868 21.1706 18.8804C21.6242 18.897 21.8301 19.1165 21.8677 19.1164C21.9855 19.1167 21.9075 18.8827 22.0203 18.8835C22.847 18.8909 23.4566 18.8224 24.2344 18.8176C24.3201 18.8171 24.4019 18.8208 24.4805 18.8275C25.1613 18.8891 25.5684 19.2004 26.1329 18.7664C26.2047 18.953 26.2767 19.1397 26.3489 19.3263C26.8174 18.5167 29.5835 18.597 30.6879 18.6363C31.0423 18.6487 30.9817 18.9771 31.1013 18.9767C31.1759 18.976 31.1522 18.5464 32.0779 18.6278C32.5355 18.6692 32.6584 18.9818 32.8902 18.9709C33.0163 18.9645 32.9947 18.6541 33.1766 18.6535C34.2381 18.6501 35.0929 18.748 36.1214 18.8022C36.4121 18.817 36.4166 19.0761 36.4818 19.0725C36.7179 19.0601 37.1539 18.62 37.7471 18.6192C38.7276 18.6183 40.7477 18.6133 41.5495 18.8238C41.6694 18.855 41.7698 19.1655 41.8582 19.1607C41.992 19.1523 42.0436 18.8279 42.0671 18.8261C42.5159 18.819 42.2467 19.1214 42.5478 19.0472C42.7104 19.0072 42.8787 18.6368 43.2588 18.5938C43.7501 18.537 43.654 18.9763 43.8593 18.9317C43.881 18.9248 43.8863 18.6195 44.0884 18.6087C44.8512 18.5702 45.9874 18.4962 46.7125 18.495C46.9204 18.4944 47.0757 18.6994 47.3668 18.702C47.9538 18.7069 51.3051 18.5655 51.5802 18.6831C51.6093 18.6954 51.3119 19.1466 51.788 19.1316C51.9258 18.9437 52.0638 18.7558 52.202 18.5679C52.4342 18.8673 52.6706 19.1667 52.8999 19.4661C52.8874 18.4292 54.2373 18.265 54.2281 19.3254C54.3765 19.3679 54.5251 19.4104 54.6738 19.4529C54.9812 18.7194 55.188 18.9892 55.7879 18.557C55.8823 18.7813 55.9767 19.0057 56.0713 19.23C56.0942 19.0802 56.1169 18.9304 56.1398 18.7806C56.4586 19.591 56.977 18.7747 57.0403 18.7701C57.2837 18.7513 57.4676 18.957 57.5821 18.9501C58.0089 18.9274 58.9372 18.6404 59.4404 18.7707C59.4637 18.7774 59.4418 19.1244 59.5833 19.1668C59.8385 19.2434 59.8619 18.7355 60.2043 19.331C60.2727 19.181 60.3411 19.0311 60.4095 18.8812C60.4828 18.9584 60.5562 19.0357 60.6296 19.1129C61.0611 19.072 61.4937 19.031 61.9271 18.99C61.5347 19.5784 61.9889 19.9051 62.4172 19.4417C62.5622 19.2846 62.4322 18.9274 62.4805 18.8732C62.5517 18.7997 64.4827 18.9761 64.6142 19.2069C64.7057 19.094 64.7973 18.9811 64.8889 18.8682C64.936 19.0933 64.9832 19.3184 65.0303 19.5435C65.0808 19.4646 65.1314 19.3857 65.1819 19.3068C65.6903 19.7021 66.9978 18.7884 67.2347 18.8596C67.3616 18.8975 67.25 19.858 67.8581 19.7582C67.8784 19.4945 67.8988 19.2307 67.9192 18.967C68.0584 18.9289 68.1977 18.8907 68.337 18.8526C68.5987 18.8753 68.9813 19.3312 68.9944 19.6437C69.0757 19.456 69.1571 19.2682 69.2385 19.0805C69.462 19.6908 70.628 19.471 71.0979 19.0832C71.236 19.2671 71.3742 19.4509 71.5124 19.6348C71.6967 19.4103 71.8811 19.1859 72.0656 18.9614C72.4943 18.8928 72.0422 19.2664 72.1337 19.2972C72.327 19.3609 73.3119 18.7293 73.2484 19.5129C73.3825 19.5145 73.5167 19.5161 73.6508 19.5177C73.7192 19.2935 73.7876 19.0694 73.856 18.8452C74.0884 19.6168 74.4862 19.3431 75.3051 19.6226C75.3732 19.4447 75.4414 19.2668 75.5095 19.0889C75.7632 19.3408 76.0169 19.5927 76.2707 19.8447C76.3219 19.5503 76.3731 19.2559 76.4243 18.9615C76.5342 18.9189 76.6442 18.8763 76.754 18.8337C76.9792 19.4922 77.3786 18.7789 77.5837 19.0502C77.8828 19.4462 77.6535 19.9196 77.1004 20.0124C77.143 20.4924 78.7909 20.2676 79.1707 20.2316C79.1454 20.138 79.12 20.0443 79.0947 19.9506C78.7062 20.0258 78.3178 20.101 77.9293 20.1763C77.6005 18.9698 78.6568 19.2909 79.1407 19.1341C79.1849 19.1191 79.4348 18.661 79.9229 18.7024C80.1117 18.7188 80.8518 19.3855 80.9926 19.4223C82.1305 19.7248 81.2922 18.7716 82.4062 19.6063C82.1729 18.9655 82.8131 19.4969 83.4769 19.3712C83.5897 19.3498 84.5506 18.8275 84.6152 18.8138C85.0196 18.7294 84.5806 19.2974 85.1655 19.1484C85.2354 18.9991 85.3054 18.8499 85.3753 18.7006C85.5115 18.7003 85.6476 18.7 85.7837 18.6996C86.6126 20.0263 86.801 19.0474 87.0946 18.9211C87.2135 18.8701 87.0611 19.2171 87.3696 19.1431C87.4857 19.1156 87.6139 18.8269 87.9261 18.8059C88.9028 18.7406 89.2364 19.9744 90.1279 18.6876C90.2657 18.8734 90.4024 19.0593 90.5412 19.2452C90.634 19.0217 90.7268 18.7982 90.8195 18.5747C91.5338 19.221 91.2749 18.5579 91.5321 18.5653C92.2119 18.584 93.595 18.7081 93.7164 19.2421C94.2988 18.0135 95.0056 19.3966 95.2356 19.3483C95.3725 19.1989 95.5092 19.0495 95.6459 18.9002C95.8072 19.0496 95.9685 19.199 96.1295 19.3484C96.0491 18.1433 96.8831 19.3268 96.9624 19.3447C97.049 19.3625 98.3434 19.0033 98.8192 19.009C99.2969 19.0148 100.125 19.3398 100.197 19.3403C100.278 19.3401 101.095 19.011 101.731 19.0132C102.288 19.0157 105.578 19.4753 105.371 18.9385C105.155 18.7901 104.848 18.6616 104.581 18.5922C103.753 18.3793 98.9373 18.1138 97.6949 18.0308C95.225 17.8655 92.6441 17.9026 90.1537 17.791C90.0079 17.7846 89.985 17.4723 89.8599 17.4655C89.67 17.457 89.1881 17.7707 89.0005 17.7644C88.2999 17.7389 87.4449 17.6899 87.0681 17.6829C86.231 17.6691 85.6558 17.4824 85.0207 17.4535C84.8226 17.4449 83.8155 17.8346 83.128 17.6729C83.0031 17.5853 82.8782 17.4978 82.7533 17.4102C83.107 17.3067 84.0373 17.039 84.4701 17.0075C85.1135 16.9621 85.4492 17.2146 85.6864 17.2097C85.8859 17.2058 86.8961 16.9148 87.3611 16.9069C87.505 16.9043 87.5353 17.2318 87.6584 17.2304C88.3266 17.2209 89.2043 17.2102 89.7802 16.8876C89.5445 16.993 91.0167 17.1906 91.0961 17.1893C91.2289 17.1889 91.3724 16.8821 91.6432 16.8815C92.1638 16.8805 92.0994 17.5218 92.7472 16.879C92.9082 17.0655 93.0691 17.252 93.2299 17.4385C93.2335 16.5843 95.2775 17.7418 95.8515 16.7025C95.8692 16.5852 93.2167 16.2582 93.0043 16.2418C91.6988 16.1421 89.7583 16.3559 88.4908 16.209C88.1092 16.1648 86.9015 15.6483 86.813 15.6582C86.6671 15.6732 86.7996 15.9699 86.7366 15.9806C85.4468 16.2046 86.089 15.6061 85.917 15.4338ZM142.844 20.2589C142.458 20.2211 142.059 20.1834 141.662 20.1459C141.691 19.9586 141.72 19.7712 141.75 19.5839C141.934 19.6579 142.116 19.732 142.296 19.8061C142.436 19.695 142.575 19.5839 142.713 19.4729C142.757 19.7349 142.8 19.9969 142.844 20.2589ZM143.812 19.4809C144.156 19.3891 144.168 19.7847 144.246 19.8046C144.479 19.8652 144.679 19.707 144.9 19.7145C144.639 20.6514 144.091 20.2164 143.812 19.4809ZM136.801 19.1071C136.878 19.1523 137.391 20.1649 137.962 19.2262C138.396 19.5266 138.844 19.8272 139.273 20.1279C138.535 19.6681 137.507 20.139 137.15 20.1199C137.012 20.1126 136.987 19.8022 136.876 19.7968C136.23 19.77 135.622 20.4717 135.561 19.4435C136.14 19.7436 136.706 19.0516 136.801 19.1071ZM140.622 19.4878C140.723 19.7032 140.823 19.9185 140.923 20.1339C140.56 20.132 140.179 20.13 139.817 20.1284C139.913 19.9114 140.015 19.6944 140.117 19.4775C140.287 19.4809 140.455 19.4843 140.622 19.4878ZM112.414 18.7563C112.639 18.7586 112.863 18.7609 113.087 18.7633C113.074 18.6067 112.818 18.6076 112.723 18.502C112.724 18.502 112.724 18.502 112.725 18.502C112.619 18.3826 112.664 18.181 112.472 18.0922C112.453 18.3135 112.433 18.5349 112.414 18.7563ZM18.7597 18.1169C18.3925 18.1068 14.8642 18.1172 15.1791 18.6872C15.3107 18.972 16.5582 18.7192 16.8807 18.7226C17.3387 18.7269 18.6637 19.3401 18.7597 18.1169ZM12.5529 18.0259C12.5026 18.5951 14.6773 18.6785 14.9087 18.5787C14.8652 18.4977 14.7947 18.3173 14.7311 18.2766C14.4101 18.0815 13.0465 18.1798 12.5529 18.0259ZM99.735 17.1342C99.9114 17.4216 100.088 17.709 100.263 17.9965C100.217 17.6222 100.17 17.248 100.123 16.8737C99.9937 16.9605 99.8644 17.0474 99.735 17.1342ZM82.612 17.5844C79.6708 17.5734 76.7302 17.5628 73.7898 17.5525C74.0479 17.3962 74.306 17.2399 74.5642 17.0836C77.0994 17.1321 79.8002 17.2826 82.2479 17.0364C82.3693 17.2191 82.4906 17.4017 82.612 17.5844ZM135.97 17.4192C135.237 17.4117 134.587 17.6851 133.772 17.2462C134.548 16.8239 134.955 17.4806 135.701 16.858C135.702 16.858 135.702 16.858 135.702 16.858C135.792 17.045 135.881 17.2321 135.97 17.4192ZM119.153 17.2965C119.386 17.0346 119.618 16.7727 119.849 16.5109C119.573 16.511 119.287 16.5112 119.014 16.5114C119.061 16.7731 119.105 17.0348 119.153 17.2965ZM56.9556 16.2001C56.1816 16.7736 54.1415 15.7459 53.5119 16.435C53.4709 16.4803 53.8504 16.7691 53.24 17.3323C53.7017 17.216 54.0293 17.0977 54.0625 16.656C54.2008 16.8053 54.3392 16.9547 54.4778 17.104C54.7066 16.99 54.9358 16.876 55.1654 16.7621C55.1419 17.2018 55.1598 17.1783 55.5126 16.8762C55.6743 16.9871 55.8361 17.0979 55.9982 17.2088C56.0666 17.0224 56.133 16.836 56.2001 16.6496C56.3388 16.9096 56.4777 17.1696 56.6168 17.4296C57.1551 17.1454 56.8252 16.6419 56.9556 16.2001ZM59.7172 16.2993C59.59 16.2029 55.9315 16.5295 57.5952 17.4012C58.0264 17.372 58.4588 17.3427 58.8923 17.3134C58.5288 15.8626 59.7151 17.1575 59.8081 17.1877C60.2685 17.3281 60.8556 16.9812 61.1912 16.9981C61.4797 17.013 61.6521 17.273 61.8554 17.2657C62.5508 17.2411 63.6382 17.2285 63.7865 16.6273C63.2504 16.6163 62.7082 16.6114 62.1458 16.6281C61.5535 16.6456 61.0307 16.0801 59.9276 16.8611C59.6542 16.7784 59.7503 16.324 59.7172 16.2993ZM120.542 16.571C120.518 17.1744 121.899 17.0294 121.905 16.791C121.907 16.6512 121.461 16.6547 121.396 16.6018C121.396 16.6018 121.395 16.6018 121.395 16.6018C121.368 16.5786 121.504 16.3476 121.293 16.2835C121.044 16.3793 120.794 16.4751 120.542 16.571ZM24.2088 16.7494C23.9869 16.4115 19.74 16.5472 19.5805 16.7099C19.5458 16.755 19.5949 16.9034 19.5815 16.9892C20.597 16.5081 22.0379 17.0688 22.9671 17.1031C23.2303 17.1123 23.1512 16.8726 23.166 16.868C23.1666 16.868 23.1672 16.868 23.1679 16.868C23.3161 16.867 24.0043 17.4508 24.2088 16.7494ZM52.1339 16.7146C52.3183 16.8085 52.503 16.9023 52.688 16.9961C52.7342 16.8091 52.7808 16.6222 52.826 16.4352C52.8256 16.4352 52.8252 16.4352 52.8248 16.4352C52.5956 16.5283 52.3637 16.6215 52.1339 16.7146ZM45.7891 16.1191C45.8344 16.2504 45.8798 16.3818 45.9251 16.5132C46.3954 16.5299 46.8451 16.5467 47.3053 16.5635C47.2593 16.6379 47.2133 16.7122 47.1674 16.7866C47.8614 16.9828 48.1498 16.5198 48.5224 16.5851C48.522 16.5851 48.5216 16.5851 48.5212 16.5851C48.5613 16.5927 48.6107 16.8666 48.7601 16.8754C49.1054 16.8957 50.0816 16.9947 50.1962 16.7186C50.4476 16.1296 48.4774 16.4149 48.1097 16.3892C47.9438 16.3773 47.7441 16.1381 47.6436 16.1328C47.5335 16.1279 47.3844 16.4522 47.1172 16.443C47.0386 16.4399 46.1738 16.0616 45.7891 16.1191ZM37.6573 16.5375C37.7983 16.8335 38.0912 16.5462 38.1998 16.5943C38.2257 16.6057 38.0253 16.8545 38.2694 16.9281C38.3379 16.7586 38.4065 16.5891 38.4751 16.4196C38.2012 16.4589 37.9286 16.4982 37.6573 16.5375ZM122.885 16.2847C122.845 16.2211 122.088 16.2447 122.05 16.2851C121.595 16.8263 123.167 16.7671 122.885 16.2847ZM141.763 15.7012C141.45 14.9116 145.487 15.714 145.91 15.6791C145.889 16.173 144.91 15.6669 145.419 16.3501C144.923 15.972 143.597 16.1594 143.274 16.0491C143.087 15.9823 143.041 15.5551 143.013 15.5414C142.905 15.4924 141.89 15.9791 141.763 15.7012ZM149.272 16.0569C148.895 15.9574 148.51 15.8582 148.115 15.7592C148.587 15.7095 149.027 15.6598 149.492 15.6111C149.419 15.7597 149.343 15.9083 149.272 16.0569ZM149.771 15.8402C149.768 15.3606 151.078 15.7483 151.426 15.6454C151.023 16.4524 150.381 15.672 149.771 15.8402ZM127.85 15.0485C127.235 14.7315 126.967 16.1918 127.718 15.5563C127.741 15.5352 127.875 15.0653 127.85 15.0485ZM56.7627 14.146C56.6618 14.1373 55.3711 13.6677 55.2955 13.9024C55.0602 14.6511 55.9114 14.3485 56.194 14.6301C56.6496 15.0864 55.9816 15.4655 57.0915 15.186C57.0465 15.3359 57.0015 15.4857 56.9565 15.6356C57.6075 15.6833 57.3916 14.6466 57.5081 14.5129C57.5437 14.4723 57.952 14.5583 58.0256 14.4918C58.9438 13.6535 56.8561 14.1527 56.7627 14.146ZM112.811 14.9454C111.609 14.5073 112.129 15.1516 110.883 15.1139C110.845 15.443 112.659 15.2341 112.811 14.9454ZM68.5366 14.7037C67.2843 14.8368 66.2625 14.4092 65.0922 14.9908C65.1744 15.881 68.8597 14.9327 68.5366 14.7037ZM9.78386 13.9862C14.3778 15.4571 19.5332 15.0757 24.4678 14.9871C24.7881 14.9812 25.1113 14.9765 25.4368 14.9739C26 14.9698 26.0588 15.3227 26.2654 15.2837C26.4014 15.2584 26.3765 14.9741 26.5582 14.9722C32.9735 14.9048 39.1455 14.5127 45.2901 14.6636C45.6857 14.6737 47.5658 15.2785 47.9665 14.3564C48.2684 13.6569 46.9173 14.2058 46.6953 14.2003C46.5272 14.1963 46.519 13.868 46.4071 13.8672C46.2874 13.8664 46.3872 14.0904 46.2465 14.0942C45.6489 14.1119 45.0016 14.0263 44.4693 14.0471C39.2517 14.2473 34.1213 14.2113 28.9309 14.1968C28.29 14.1955 28.4228 13.932 28.3902 13.931C28.3897 13.9317 28.3893 13.9323 28.3889 13.933C27.1415 13.9278 25.7797 14.0084 24.4649 14.1002C22.1641 14.2551 19.8129 14.4425 17.5667 14.3084C15.0348 14.1357 12.5502 13.9629 10.0029 13.7902C9.92935 13.8556 9.85633 13.9209 9.78386 13.9862ZM59.4389 15.0658C59.1206 14.0748 59.0502 15.0751 57.9184 14.6738C57.827 14.8433 57.7356 15.0129 57.6443 15.1824C58.2409 15.1435 58.8407 15.1046 59.4408 15.0658C59.4402 15.0658 59.4395 15.0658 59.4389 15.0658ZM51.9769 14.7269C51.7741 13.3878 49.2718 14.3423 48.1203 14.0904C47.9092 14.7638 49.5814 14.4564 49.9604 14.526C50.1531 14.5604 51.1923 15.2492 51.9881 14.8636C51.9844 14.818 51.9806 14.7724 51.9769 14.7269ZM137.506 13.713C137.324 13.7515 137.14 13.7899 136.955 13.8284C137.421 13.9783 137.857 14.1282 138.326 14.2785C137.592 14.18 136.878 14.082 136.121 13.9842C136.262 13.7066 136.402 13.429 136.542 13.1514C136.867 13.3386 137.189 13.5258 137.506 13.713ZM135.127 13.8488C136.401 13.7473 135.074 14.4881 134.748 14.1565C134.555 13.9577 134.996 13.8598 135.127 13.8488ZM131.774 13.3643C132.388 12.877 133.596 12.8454 133.165 13.8195C132.527 13.3619 132.071 13.7405 131.16 13.4768C131.296 13.2901 131.431 13.1034 131.566 12.9168C131.567 12.9168 131.567 12.9168 131.568 12.9168C131.637 13.0659 131.706 13.2151 131.774 13.3643ZM135.711 13.2604C136.543 13.8225 134.122 13.6251 134.886 13.2584C134.924 13.2416 135.68 13.2389 135.711 13.2604ZM15.1603 12.9608C15.0609 13.2797 15.6983 13.2717 15.9188 13.2923C16.8601 13.3839 18.0773 13.2413 19.0159 13.2822C18.9431 13.1776 18.8705 13.073 18.7982 12.9684C17.5902 12.9659 16.3707 12.9634 15.1603 12.9608ZM22.0597 13.2741C22.7288 13.2719 23.3707 13.2698 24.0549 13.2676C24.118 13.2673 24.416 12.993 24.1936 12.9273C23.4604 13.043 22.7723 13.1585 22.0597 13.2741ZM63.6381 13.1434C63.1274 12.9665 64.594 12.048 64.5312 13.0276C64.2331 13.0662 63.9354 13.1048 63.6381 13.1434ZM68.3929 12.7393C68.0723 12.8333 67.752 12.9273 67.4321 13.0213C67.4313 12.9087 67.4306 12.796 67.4299 12.6834C67.7506 12.702 68.0716 12.7207 68.3929 12.7393ZM12.5356 12.7448C12.8841 13.1291 13.6855 13.0672 14.1911 13.0734C13.8378 12.7434 13.0265 12.9089 12.5356 12.7448ZM55.9823 12.7714C56.0226 13.0339 53.9834 12.974 54.6877 12.5097C55.1179 12.5969 55.5494 12.6842 55.9823 12.7714ZM51.8463 12.3953C52.284 12.3365 52.6253 12.4257 52.536 12.8385C52.3029 12.8216 52.0702 12.8048 51.8379 12.7879C51.8407 12.657 51.8435 12.5262 51.8463 12.3953ZM129.493 12.5769C128.776 12.6134 128.042 12.6502 127.291 12.6871C127.318 12.5744 127.346 12.4618 127.374 12.3492C128.097 12.313 128.804 12.2769 129.496 12.2409C129.495 12.3529 129.494 12.4649 129.493 12.5769ZM12.121 11.7345C11.6412 11.8097 11.0923 11.885 10.6126 11.9602C11.0932 12.0341 11.6432 12.1078 12.1237 12.1818C12.1232 12.032 12.1227 11.8823 12.1223 11.7326C12.1218 11.7332 12.1214 11.7339 12.121 11.7345ZM139.584 11.1411C137.35 10.6065 140.184 10.0628 140.804 10.8385C140.804 10.8379 140.805 10.8372 140.806 10.8366C140.857 10.9051 140.745 11.2344 140.832 11.3679C140.603 11.2176 140.372 11.0674 140.138 10.9172C139.918 11.1017 139.724 11.2863 139.515 11.4709C139.447 11.3977 139.379 11.3245 139.311 11.2513C139.402 11.2146 139.493 11.1779 139.584 11.1411ZM148.69 10.925C150.727 11.0165 148.634 11.8087 147.623 11.1453C147.627 10.9945 148.501 10.9165 148.69 10.925ZM143.317 11.0475C143.001 11.1201 142.681 11.1927 142.356 11.2655C142.315 11.1709 142.275 11.0762 142.233 10.9815C142.484 10.8894 142.732 10.7973 142.977 10.7052C143.091 10.8193 143.204 10.9334 143.317 11.0475ZM132.756 9.54939C132.233 9.44492 131.573 10.4935 133.238 10.2201C133.237 10.1075 133.236 9.99482 133.236 9.8822C133.17 9.90007 132.976 10.0054 132.966 9.99698C132.935 9.96875 132.972 9.59271 132.756 9.54939ZM152.566 8.02759C152.627 7.98619 152.683 6.7987 153.27 8.04233C153.462 7.97221 153.653 7.9022 153.84 7.83231C153.882 8.09521 153.922 8.35811 153.963 8.62102C153.251 8.39902 153.15 8.92692 153.098 8.93679C152.863 8.98069 153.043 8.71257 152.892 8.70521C152.503 8.68666 151.575 8.85024 152.008 8.08179C152.166 7.8066 152.506 8.06904 152.566 8.02759ZM151.171 7.32271C151.257 7.42352 150.967 7.76563 151.032 7.86509C151.093 7.95167 151.944 8.32327 151.699 8.90562C151.56 8.87804 151.42 8.85052 151.278 8.82303C151.233 8.66133 151.188 8.49963 151.142 8.33794C151.001 8.48371 150.858 8.62954 150.714 8.77541C150.496 8.3746 150.018 7.8523 150.6 7.53884C150.389 7.56896 150.175 7.59918 149.958 7.62949C149.843 7.81773 149.727 8.00601 149.611 8.1943C149.675 7.90557 149.739 7.61684 149.802 7.32812C150.267 7.3258 150.699 7.32353 151.171 7.32271ZM157.94 7.63803C157.907 7.7864 157.873 7.93478 157.84 8.08316C158.662 7.83981 159.953 7.80584 159.172 8.70357C158.063 8.72281 156.968 8.75505 155.878 8.79528C155.81 8.68022 155.742 8.56519 155.673 8.45017C156.465 8.91192 156.285 7.05768 156.978 7.61475C157.095 7.7095 156.717 8.3398 157.49 7.95843C157.469 7.80701 157.448 7.6556 157.427 7.50419C157.6 7.54864 157.771 7.59325 157.94 7.63803ZM165.032 8.36683C163.635 8.01334 165.253 7.62038 165.468 8.10091C165.467 8.10086 165.467 8.10082 165.467 8.10077C166.05 9.41071 164.582 8.6558 164.485 8.65669C164.358 8.65584 163.99 9.51341 163.423 8.16171C163.961 8.22653 164.498 8.29505 165.032 8.36683ZM160.41 7.77096C160.53 7.74907 160.451 7.97057 160.502 7.97042C160.503 7.97045 160.503 7.97047 160.503 7.9705C161.26 7.96507 163.097 7.90451 163.227 8.65068C162.656 8.65555 160.149 8.64129 160.022 8.14285C160.152 8.01875 160.281 7.89479 160.41 7.77096ZM155.135 8.07695C154.7 7.59087 155.72 7.55995 155.981 7.78851C156.031 7.8377 155.584 8.58042 155.135 8.07695ZM121.358 6.61966C120.404 6.90422 121.657 7.18706 121.224 7.63142C121.406 7.59356 121.587 7.55572 121.768 7.51788C121.631 7.21847 121.495 6.91906 121.358 6.61966ZM77.4776 5.80282C77.2532 5.75092 77.3601 6.02177 77.3407 6.02583C77.1934 6.01865 77.0539 5.79815 76.9974 5.82165C75.9532 6.27027 76.6491 6.49615 76.6597 6.54908C76.6825 6.81725 76.4086 7.13183 76.79 7.43738C77.0208 7.34173 77.2516 7.24608 77.4824 7.15043C77.5974 7.29921 77.7125 7.448 77.8276 7.59678C78.2857 7.27573 77.6849 7.18956 77.6157 6.76532C77.589 6.59856 78.0202 6.39772 77.4776 5.80282ZM119.632 5.72226C119.474 6.19355 119.086 6.78822 119.467 7.26139C119.468 7.26139 119.468 7.26139 119.469 7.26139C119.539 7.34795 119.826 7.3954 119.913 7.51694C120.536 6.88883 120.299 6.24025 119.632 5.72226ZM81.6204 4.9485C81.9932 5.05759 82.366 5.16669 82.7385 5.27579C82.7329 5.55835 82.7272 5.8409 82.7216 6.12346C82.5222 6.04779 82.3227 5.97211 82.1232 5.89644C82.0537 6.02552 81.9841 6.15459 81.9145 6.28367C82.1628 6.60531 82.411 6.92694 82.6592 7.24859C82.9569 7.13522 83.2544 7.02186 83.5519 6.9085C83.4146 6.75976 83.2775 6.61101 83.1402 6.46226C83.8672 6.2959 83.712 6.98334 84.3163 7.24452C84.5225 6.9823 84.7286 6.72009 84.9346 6.45788C85.2344 6.72017 85.5341 6.98246 85.8335 7.24476C86.3351 7.12069 86.3787 6.92027 86.0402 6.62124C86.2889 6.27799 86.5633 6.81628 86.8631 6.67592C86.8878 6.6646 86.8404 6.34199 86.8623 6.33804C88.4206 6.11681 88.3392 6.96451 88.588 7C88.7636 7.02435 89.4616 6.45083 89.4721 6.2558C89.4846 5.993 88.0298 4.96005 90.3045 4.92778C89.1286 4.21366 87.7875 4.94641 88.6573 5.99596C88.2849 5.89099 86.6347 6.15724 86.5325 6.12594C86.3797 6.07867 86.4323 5.67958 86.2411 5.66961C86.1279 5.66425 85.8311 6.57691 84.9329 5.78212C84.8188 5.93213 84.7046 6.08215 84.5904 6.23216C84.4827 6.10938 84.375 5.98659 84.2673 5.86381C84.4874 5.42449 84.7074 4.98516 84.9274 4.54584C84.0529 5.02473 83.3229 4.13086 82.7932 4.88699C82.3327 4.80028 82.1086 4.71399 82.3055 4.32767C82.1673 4.32801 82.029 4.32836 81.8906 4.3287C81.8006 4.5353 81.7105 4.7419 81.6204 4.9485ZM116.803 6.39834C116.34 5.96069 116.172 6.90597 116.245 6.9594C116.654 7.2531 117.044 6.62603 116.803 6.39834ZM78.3102 6.3026C78.8159 6.54477 79.3217 6.78696 79.8273 7.02915C79.8265 6.73033 79.8257 6.43151 79.825 6.1327C79.3201 6.18932 78.8152 6.24595 78.3102 6.3026ZM121.496 5.94774C121.542 6.17167 121.588 6.3956 121.634 6.61953C122.179 5.80124 122.75 6.97473 123.02 6.73226C123.08 6.67929 122.96 6.28389 122.846 6.19913C122.777 6.14616 121.582 5.87215 121.496 5.94774ZM144.612 6.11037C144.405 6.25901 144.196 6.40769 143.984 6.55643C143.998 6.30458 144.012 6.05273 144.025 5.80089C144.129 5.75483 144.233 5.70879 144.336 5.66276C144.429 5.81195 144.521 5.96116 144.612 6.11037ZM142.244 6.49337C141.862 6.47078 141.504 6.4485 141.136 6.4263C142.527 6.2032 141.38 6.08372 142.248 5.76099C142.247 6.00512 142.245 6.24924 142.244 6.49337ZM138.502 5.96487C138.549 5.81466 138.595 5.66446 138.642 5.51426C139.016 5.51573 139.384 5.5173 139.747 5.51896C139.52 4.9958 139.291 4.47267 139.059 3.94958C138.923 3.94771 138.787 3.94585 138.649 3.94401C138.6 4.61763 138.551 5.29125 138.502 5.96487ZM67.541 4.70675C67.3187 4.69835 66.5484 5.1568 66.582 5.32467C66.9029 5.53013 67.2242 5.7356 67.5457 5.94107C67.5464 5.6416 67.547 5.34213 67.5476 5.04265C67.5934 5.19161 67.6392 5.34057 67.685 5.48952C67.8673 5.37703 68.0497 5.26455 68.2322 5.15206C68.325 5.41351 68.4179 5.67496 68.5108 5.93642C68.6026 5.63734 68.6944 5.33826 68.7862 5.03919C67.9015 4.51187 67.9339 5.04131 67.7503 5.03623C67.6572 5.03395 67.5978 4.8487 67.5646 4.75551C67.5567 4.73925 67.5488 4.723 67.541 4.70675ZM78.6543 4.39551C77.6008 4.32383 77.0012 5.11382 76.2371 4.4565C76.7302 5.85966 79.8804 4.40078 80.9976 5.56919C81.1126 5.34365 81.2276 5.1181 81.3426 4.89256C80.7371 5.09467 80.3156 4.63181 80.0199 4.56584C79.7851 4.51345 79.8103 4.74944 79.7923 4.7461C79.7915 4.7461 79.7906 4.7461 79.7898 4.74611C79.2403 4.65057 79.0698 4.42378 78.6543 4.39551ZM122.279 4.84587C121.986 4.49009 121.5 4.52591 121.494 5.04542C121.765 5.19568 122.042 5.34594 122.323 5.49622C122.266 5.36323 122.328 4.90672 122.279 4.84587ZM138.071 4.51211C137.856 4.34223 137.336 4.48864 137.559 4.93804C137.599 5.01779 138.113 4.70424 137.81 5.51311C138.307 5.50236 138.196 4.60977 138.071 4.51211ZM96.6566 5.41799C96.8417 5.40264 97.0266 5.38729 97.2112 5.37194C97.2541 5.16222 97.2975 4.95251 97.3406 4.74279C97.11 4.96786 96.8849 5.19292 96.6566 5.41799ZM124.665 4.48589C124.919 5.51178 125.348 4.51338 125.813 5.35694C125.985 5.36346 126.155 5.36998 126.325 5.37652C126.326 5.37652 126.326 5.37652 126.327 5.37652C126.331 5.09658 126.336 4.81664 126.34 4.5367C125.791 4.5197 125.233 4.50276 124.665 4.48589ZM85.0666 4.93807C85.1814 5.068 85.2962 5.19793 85.4109 5.32786C85.6143 5.17568 85.8176 5.0235 86.0209 4.87133C85.9105 4.76287 85.8001 4.65442 85.6896 4.54596C85.482 4.67666 85.2743 4.80737 85.0666 4.93807ZM127.689 4.39838C127.079 4.26966 126.847 5.16145 127.629 5.16396C127.957 5.16408 128.324 4.53291 127.689 4.39838ZM56.1012 5.07205C56.3052 5.14761 56.5095 5.22317 56.7141 5.29872C56.7832 5.11102 56.8522 4.92332 56.9214 4.73562C56.6474 4.84776 56.374 4.95991 56.1012 5.07205ZM140.94 4.62644C140.915 4.8138 140.889 5.00117 140.864 5.18853C140.68 5.14979 140.494 5.11108 140.306 5.0724C140.354 4.88644 140.402 4.70049 140.45 4.51453C140.615 4.55182 140.778 4.58912 140.94 4.62644ZM57.4771 5.18317C57.6411 5.21848 57.8054 5.2538 57.9697 5.28912C58.0798 5.19765 58.19 5.10618 58.3002 5.01471C58.146 4.92467 57.992 4.83464 57.8381 4.7446C57.7177 4.89079 57.5974 5.03698 57.4771 5.18317ZM133.383 4.49003C133.156 4.26417 132.227 4.96511 133.06 5.14571C133.588 5.26042 133.416 4.52439 133.383 4.49003ZM134.628 4.26787C133.73 3.83655 134.412 6.01756 135.46 4.60769C134.404 4.79881 134.679 4.29395 134.628 4.26787ZM142.401 3.1741C142.424 3.17537 142.44 3.4889 142.619 3.50168C143.251 3.54637 144.109 3.67674 144.565 3.6998C145.663 3.75304 149.086 3.22756 149.457 4.14274C149.535 4.33446 149.34 4.90078 149.373 4.93059C149.465 5.01364 150.056 4.74682 149.94 5.1641C149.358 5.15143 148.834 5.14055 148.258 5.12967C148.401 4.83598 148.544 4.54233 148.686 4.24871C147.277 4.38766 147.758 4.37626 147.346 5.01477C147.114 4.76267 146.878 4.51064 146.64 4.25871C146.14 4.50395 145.626 4.74954 145.101 4.99548C145.22 4.8097 145.341 4.62396 145.46 4.43822C144.681 4.08502 144.91 4.31411 144.485 4.76359C144.486 4.57675 144.486 4.38991 144.487 4.20306C143.745 4.65239 143.589 4.09145 143.432 4.0835C143.111 4.07025 142.669 6.27743 141.42 4.0705C140.888 5.12547 140.909 2.97337 140.589 4.06602C139.687 2.87023 141.402 3.30972 142.216 3.35456C142.216 3.35456 142.216 3.35456 142.217 3.35457C142.279 3.35834 142.182 3.15711 142.401 3.1741ZM137.766 4.24736C138.313 3.27801 136.168 3.18014 136.875 4.58427C136.982 4.63017 137.088 4.67608 137.194 4.72199C137.386 4.56376 137.578 4.40555 137.768 4.24737C137.767 4.24736 137.767 4.24736 137.766 4.24736ZM117.633 3.58909C115.638 3.98993 116.775 4.54753 117.449 4.00135C117.583 3.89302 117.656 3.7446 117.633 3.58909ZM77.1476 3.65335C77.119 3.76996 77.0903 3.88656 77.0617 4.00317C77.7257 3.89236 79.0115 4.33857 78.9917 3.55287C78.3771 3.58635 77.7623 3.61984 77.1476 3.65335ZM82.402 3.12629C82.2593 3.07925 81.6762 2.96884 81.7473 3.26269C82.0005 3.47038 82.2535 3.67808 82.5065 3.88578C82.6237 3.75528 82.7409 3.62479 82.8582 3.49429C82.6939 3.45042 82.4407 3.13859 82.402 3.12629Z" fill="#FEF08A"/>
</svg>
