<svg width="30" height="30" viewBox="0 0 30 30" fill="none" xmlns="http://www.w3.org/2000/svg">
<g opacity="0.8">
<path d="M24.5254 8.87492C24.4413 8.399 24.2095 7.96164 23.8629 7.62492C23.4764 7.42277 23.0489 7.31161 22.6129 7.29992C19.9901 7.14807 17.3607 7.14807 14.7379 7.29992C10.8754 7.47492 7.01287 7.98742 5.98787 8.73742C5.81192 8.8624 5.69102 9.05047 5.65037 9.26242C5.519 9.97547 5.46037 10.7 5.47537 11.4249C5.44196 14.4809 5.58805 17.5361 5.91287 20.5749C5.93454 20.6761 5.99456 20.7649 6.08031 20.8227C6.16606 20.8805 6.27089 20.9029 6.37278 20.8851C6.47468 20.8673 6.56572 20.8108 6.6268 20.7273C6.68788 20.6438 6.71424 20.5399 6.70037 20.4374C6.54913 18.9507 6.4782 17.4568 6.48787 15.9624C6.48787 14.0124 6.48787 11.8999 6.61287 10.5749C6.60684 10.4959 6.60684 10.4165 6.61287 10.3374C7.96287 11.2749 10.2879 12.8374 12.2379 13.9624C13.2425 14.597 14.3649 15.0222 15.5379 15.2124C16.5804 14.8724 17.5449 14.3285 18.3754 13.6124C20.0475 12.3353 21.615 10.9266 23.0629 9.39992C23.1034 9.49623 23.1328 9.5969 23.1504 9.69992C23.3057 10.7805 23.3851 11.8707 23.3879 12.9624C23.4365 15.1072 23.3531 17.2529 23.1379 19.3874C23.1438 19.4748 23.1438 19.5625 23.1379 19.6499H22.6254C20.8754 19.8374 17.1004 20.1124 13.6379 20.3374C10.7629 20.5249 8.10037 20.6624 6.97537 20.6874C6.91684 20.6874 6.85891 20.6991 6.805 20.7219C6.75109 20.7446 6.7023 20.778 6.6615 20.8199C6.62071 20.8619 6.58875 20.9116 6.56751 20.9662C6.54627 21.0207 6.53619 21.0789 6.53787 21.1374C6.53787 21.2568 6.58528 21.3712 6.66967 21.4556C6.75406 21.54 6.86852 21.5874 6.98787 21.5874C9.03787 21.5874 16.1129 21.3374 20.3879 21.0999C21.8004 21.0249 22.8879 20.9499 23.4379 20.8874C23.6507 20.8737 23.8587 20.8185 24.0504 20.7249C24.1784 20.6389 24.2784 20.5172 24.3379 20.3749C24.4248 20.1146 24.4876 19.8468 24.5254 19.5749C24.8043 17.3736 24.938 15.1563 24.9254 12.9374C24.9301 11.5732 24.796 10.212 24.5254 8.87492ZM16.3754 13.1749C16.0946 13.3893 15.7768 13.5503 15.4379 13.6499C15.1327 13.6088 14.8367 13.5158 14.5629 13.3749C13.8629 13.0874 12.9504 12.6374 11.9754 12.1249C10.1379 11.2499 8.11287 10.1249 6.92537 9.47492C8.93633 8.97344 11.0029 8.72982 13.0754 8.74992C16.1525 8.59226 19.2357 8.59226 22.3129 8.74992C21.5379 9.46242 20.3254 10.4249 19.1004 11.3249C18.1254 12.0624 17.1379 12.7249 16.3754 13.1749Z" fill="white"/>
<path d="M3.2267 4.33738C3.12794 4.19304 3.01487 4.05902 2.8892 3.93738C2.7714 3.81986 2.64151 3.71511 2.5017 3.62488C2.1642 3.39988 1.8142 3.27488 1.4642 3.07488C1.42988 3.0306 1.38664 2.99402 1.33728 2.96752C1.28792 2.94101 1.23355 2.92517 1.17767 2.92102C1.1218 2.91687 1.06568 2.9245 1.01295 2.94343C0.960214 2.96235 0.912044 2.99214 0.871558 3.03087C0.831071 3.06959 0.799172 3.11639 0.777925 3.16823C0.756679 3.22007 0.74656 3.2758 0.748223 3.3318C0.749887 3.3878 0.763296 3.44283 0.787582 3.49331C0.811868 3.5438 0.84649 3.58863 0.889203 3.62488C1.09453 4.06416 1.34149 4.48274 1.6267 4.87488C1.80176 5.06816 1.99895 5.24018 2.2142 5.38738C2.5267 5.62488 2.8642 5.78738 3.1767 6.03738C3.26059 6.11834 3.37262 6.16359 3.4892 6.16359C3.60579 6.16359 3.71782 6.11834 3.8017 6.03738C3.84366 5.99557 3.87694 5.9459 3.89965 5.8912C3.92237 5.8365 3.93406 5.77786 3.93406 5.71863C3.93406 5.6594 3.92237 5.60076 3.89965 5.54606C3.87694 5.49136 3.84366 5.44169 3.8017 5.39988C3.64363 5.02854 3.45113 4.67282 3.2267 4.33738Z" fill="white"/>
<path d="M1.35082 15C1.52912 15.025 1.71002 15.025 1.88832 15C2.17582 15 2.40082 14.8625 2.68832 14.85C2.74413 14.8651 2.80238 14.8689 2.8597 14.8614C2.91701 14.8538 2.97226 14.8349 3.02224 14.8059C3.07222 14.7768 3.11594 14.7381 3.15089 14.6921C3.18583 14.646 3.2113 14.5935 3.22582 14.5375C3.2428 14.4809 3.24813 14.4214 3.24148 14.3626C3.23484 14.3039 3.21635 14.2471 3.18715 14.1957C3.15794 14.1443 3.11862 14.0993 3.07155 14.0636C3.02449 14.0278 2.97066 14.0019 2.91332 13.9875C2.63697 13.8063 2.33301 13.6712 2.01332 13.5875C1.88704 13.5494 1.7572 13.5243 1.62582 13.5125C1.50113 13.5001 1.37551 13.5001 1.25082 13.5125C0.938319 13.5875 0.713319 13.725 0.413319 13.825C0.309285 13.8216 0.208003 13.8588 0.130981 13.9288C0.0539601 13.9988 0.00726716 14.0961 0.000818745 14.2C-0.0025613 14.2519 0.00454694 14.304 0.0217197 14.3531C0.0388924 14.4022 0.0657779 14.4474 0.100773 14.4858C0.135769 14.5243 0.178157 14.5554 0.225411 14.5772C0.272666 14.5989 0.323818 14.6109 0.375819 14.6125C0.684098 14.7803 1.01145 14.9104 1.35082 15Z" fill="white"/>
<path d="M2.71254 24.55C2.38754 24.7375 2.07504 24.8625 1.76254 25.05C1.62797 25.1229 1.50215 25.211 1.38754 25.3125C1.26708 25.408 1.15803 25.517 1.06254 25.6375C0.841853 25.9401 0.649381 26.2622 0.487543 26.6C0.451261 26.636 0.422465 26.6788 0.402814 26.726C0.383164 26.7732 0.373047 26.8239 0.373047 26.875C0.373047 26.9261 0.383164 26.9767 0.402814 27.0239C0.422465 27.0711 0.451261 27.114 0.487543 27.15C0.523561 27.1863 0.566404 27.2151 0.613601 27.2347C0.660799 27.2544 0.711418 27.2645 0.762543 27.2645C0.813668 27.2645 0.864287 27.2544 0.911484 27.2347C0.958682 27.2151 1.00152 27.1863 1.03754 27.15C1.38754 26.975 1.70004 26.8875 2.02504 26.6875C2.15371 26.6113 2.27506 26.5235 2.38754 26.425C2.49799 26.3229 2.60234 26.2143 2.70004 26.1C2.93754 25.8 3.11254 25.5 3.32504 25.1875C3.36856 25.1466 3.40323 25.0972 3.42694 25.0424C3.45064 24.9875 3.46287 24.9285 3.46287 24.8687C3.46287 24.809 3.45064 24.7499 3.42694 24.6951C3.40323 24.6403 3.36856 24.5909 3.32504 24.55C3.2418 24.4727 3.1324 24.4297 3.01879 24.4297C2.90519 24.4297 2.79578 24.4727 2.71254 24.55Z" fill="white"/>
<path d="M26.9508 5.61246C27.2713 5.42726 27.5802 5.22272 27.8758 4.99996C27.9902 4.90225 28.0987 4.7979 28.2008 4.68746C28.299 4.58364 28.3869 4.47062 28.4633 4.34996C28.6633 4.03746 28.7633 3.72496 28.9633 3.42496C29.0345 3.3486 29.0741 3.24809 29.0741 3.14371C29.0741 3.03932 29.0345 2.93882 28.9633 2.86246C28.8891 2.79212 28.7906 2.75293 28.6883 2.75293C28.586 2.75293 28.4876 2.79212 28.4133 2.86246C28.0489 3.00824 27.7011 3.19262 27.3758 3.41246C27.2486 3.50431 27.1349 3.61373 27.0383 3.73746C26.9399 3.84994 26.852 3.97129 26.7758 4.09996C26.5758 4.41246 26.4508 4.72496 26.2758 5.04996C26.2343 5.09069 26.2012 5.13931 26.1787 5.19297C26.1561 5.24663 26.1445 5.30425 26.1445 5.36246C26.1445 5.42066 26.1561 5.47828 26.1787 5.53194C26.2012 5.5856 26.2343 5.63422 26.2758 5.67496C26.3224 5.71922 26.3778 5.75302 26.4385 5.77408C26.4991 5.79514 26.5636 5.80297 26.6275 5.79705C26.6915 5.79113 26.7534 5.77159 26.8092 5.73975C26.8649 5.70791 26.9132 5.66451 26.9508 5.61246Z" fill="white"/>
<path d="M29.5266 13.1249C29.1641 13.1249 28.8641 12.9499 28.5016 12.8999C28.3477 12.8875 28.1931 12.8875 28.0391 12.8999C27.8811 12.8876 27.7222 12.8876 27.5641 12.8999C27.1656 12.964 26.7756 13.0731 26.4016 13.2249C26.2841 13.2434 26.1786 13.3077 26.1083 13.4037C26.038 13.4998 26.0087 13.6197 26.0266 13.7374C26.0342 13.7963 26.0536 13.8531 26.0838 13.9043C26.114 13.9555 26.1543 14 26.2023 14.0351C26.2502 14.0702 26.3048 14.0951 26.3628 14.1084C26.4207 14.1217 26.4807 14.1231 26.5391 14.1124C26.9016 14.1124 27.2391 14.2749 27.6016 14.3249C27.8552 14.3499 28.1106 14.3499 28.3641 14.3249C28.8297 14.2503 29.2783 14.0937 29.6891 13.8624C29.7402 13.8537 29.7889 13.8344 29.8321 13.8059C29.8754 13.7774 29.9123 13.7403 29.9404 13.6969C29.9686 13.6534 29.9875 13.6046 29.9959 13.5535C30.0043 13.5024 30.002 13.4501 29.9891 13.3999C29.9601 13.3048 29.8966 13.2239 29.811 13.173C29.7255 13.1222 29.6241 13.105 29.5266 13.1249Z" fill="white"/>
<path d="M28.0265 24.475C27.869 24.3151 27.702 24.1649 27.5265 24.025L26.964 23.6375C26.489 23.35 26.014 23.125 25.5265 22.8875C25.4786 22.8523 25.424 22.8272 25.3662 22.8138C25.3083 22.8004 25.2483 22.7989 25.1898 22.8094C25.1313 22.8199 25.0756 22.8423 25.026 22.875C24.9764 22.9078 24.9341 22.9503 24.9015 23C24.8369 23.0989 24.8126 23.2187 24.8335 23.3349C24.8544 23.4511 24.919 23.5549 25.014 23.625C25.4015 24 25.7265 24.4125 26.114 24.7875C26.3673 25.0366 26.6389 25.2664 26.9265 25.475C27.4567 25.7952 28.0079 26.0792 28.5765 26.325C28.66 26.3861 28.764 26.4124 28.8666 26.3985C28.9692 26.3845 29.0623 26.3313 29.1265 26.25C29.1577 26.2085 29.1802 26.1611 29.1927 26.1107C29.2052 26.0602 29.2074 26.0078 29.1993 25.9565C29.1911 25.9052 29.1727 25.856 29.1452 25.812C29.1176 25.7679 29.0815 25.7298 29.039 25.7C28.7515 25.2875 28.389 24.8625 28.0265 24.475Z" fill="white"/>
</g>
</svg>
