<svg width="707" height="415" viewBox="0 0 707 415" fill="none" xmlns="http://www.w3.org/2000/svg">
<path d="M506.5 0C578.573 0 637 58.4268 637 130.5C637 137.192 636.494 143.766 635.522 150.188C677.032 163.842 707 202.921 707 249C707 306.438 660.438 353 603 353C575.514 353 550.518 342.336 531.924 324.921C519.395 368.287 479.402 400 432 400C409.952 400 389.506 393.138 372.682 381.435C351.168 402.21 321.835 415 289.5 415C242.939 415 202.598 388.481 182.875 349.784C163.802 371.957 135.542 386 104 386C46.5624 386 0 339.438 0 282C0 233.296 33.48 192.412 78.6807 181.105C73.0866 167.508 70 152.615 70 137C70 72.935 121.935 21 186 21C224.556 21 258.718 39.8106 279.811 68.7549C295.806 52.2553 318.205 42 343 42C363.151 42 381.721 48.7737 396.556 60.168C419.753 23.9812 460.326 0 506.5 0Z" fill="#64AB7B"/>
</svg>
