<svg width="24" height="24" viewBox="0 0 24 24" fill="none" xmlns="http://www.w3.org/2000/svg">
<g clip-path="url(#clip0_1434_47)">
<path fill-rule="evenodd" clip-rule="evenodd" d="M24.0007 12.38C24.0396 11.8876 23.9853 11.3922 23.8407 10.92C23.381 10.1168 22.7855 9.39952 22.0807 8.79996C20.5907 7.41996 18.5607 6.07996 17.4407 4.99996L13.8207 1.50996C13.7307 1.42996 13.0607 0.729957 12.7707 0.509957C12.6636 0.401038 12.5284 0.323797 12.3802 0.286745C12.232 0.249692 12.0765 0.254264 11.9307 0.299957C11.5685 0.476862 11.2321 0.702266 10.9307 0.969958C10.3307 1.49996 9.75068 2.20996 9.26068 2.64996C8.19068 3.64996 7.12068 4.56996 6.09068 5.54996C5.06068 6.52996 4.02068 7.54996 3.09068 8.61996C2.48068 9.20996 1.60068 9.99996 1.00068 10.73C0.666988 11.1015 0.40582 11.5323 0.230684 12C-0.00470217 13.8433 -0.0816505 15.7035 0.000684217 17.56C0.00233997 19.4028 0.156196 21.2424 0.460684 23.06C0.478792 23.1195 0.512425 23.1731 0.558122 23.2152C0.60382 23.2574 0.659932 23.2867 0.720684 23.3C0.743677 23.3809 0.794271 23.4512 0.863684 23.4987C0.933097 23.5461 1.01695 23.5678 1.10068 23.56C3.82083 23.4505 6.54493 23.4906 9.26068 23.68C11.1107 23.75 12.9907 23.76 14.7607 23.74C16.7469 23.7431 18.7311 23.6162 20.7007 23.36C20.8025 23.3474 20.8953 23.2953 20.959 23.2148C21.0226 23.1343 21.052 23.0319 21.0407 22.93C21.0281 22.8274 20.9763 22.7336 20.8962 22.6684C20.816 22.6031 20.7137 22.5714 20.6107 22.58C17.8837 22.6856 15.1529 22.6422 12.4307 22.45C11.3407 22.45 10.2307 22.38 9.14068 22.37H6.93068C4.98908 22.3981 3.05149 22.5551 1.13068 22.84C0.890292 21.0841 0.796635 19.3113 0.850684 17.54C0.819414 15.7806 0.92977 14.0216 1.18068 12.28C1.37608 11.8437 1.65461 11.4497 2.00068 11.12C2.60068 10.5 3.35068 9.90996 3.84068 9.40996C4.63068 8.60996 5.46068 7.82996 6.29068 7.05996C7.59068 5.89996 8.86068 4.76996 10.1407 3.62996C10.6407 3.19996 11.2107 2.49996 11.8107 1.96996C11.9171 1.87153 12.0307 1.78127 12.1507 1.69996C12.4507 1.98996 12.8307 2.39996 12.8907 2.45996L16.5707 5.99996C17.7307 6.99996 19.7807 8.34996 21.3207 9.68996C21.9387 10.1857 22.4665 10.7845 22.8807 11.46C23.0026 12.1701 23.0228 12.8941 22.9407 13.61C22.8807 16.47 22.5507 21.06 22.7107 23.37C22.7208 23.4734 22.7698 23.5691 22.8477 23.6378C22.9257 23.7065 23.0268 23.743 23.1307 23.74C23.1832 23.7374 23.2348 23.7245 23.2823 23.702C23.3299 23.6795 23.3725 23.6478 23.4078 23.6088C23.4431 23.5698 23.4704 23.5242 23.488 23.4746C23.5057 23.4251 23.5134 23.3725 23.5107 23.32C23.3707 20.61 24.0007 14.92 24.0007 12.38Z" fill="#2C2C2C"/>
<path d="M13.5708 22.17C13.6623 22.2456 13.7772 22.2869 13.8958 22.2869C14.0145 22.2869 14.1294 22.2456 14.2208 22.17C14.4045 20.6439 14.4814 19.1068 14.4508 17.57C14.4802 17.0504 14.4802 16.5295 14.4508 16.01C14.4083 15.6224 14.3036 15.2442 14.1408 14.89C14.0345 14.7136 13.889 14.5642 13.7156 14.4532C13.5422 14.3422 13.3455 14.2726 13.1408 14.25C12.5484 14.2043 11.9533 14.2043 11.3608 14.25C10.8122 14.1958 10.2595 14.1958 9.71083 14.25C9.39506 14.3115 9.10154 14.4565 8.86083 14.67C8.70001 14.835 8.6011 15.0504 8.58083 15.28C8.51083 15.71 8.24083 20.96 8.37083 21.45C8.40114 21.5516 8.46793 21.6384 8.55838 21.6938C8.64882 21.7492 8.75654 21.7692 8.86083 21.75C9.44083 21.64 9.50083 15.42 9.67083 15.4H11.3508C11.7008 15.4 12.0808 15.34 12.5608 15.34C12.7768 15.3468 12.9914 15.377 13.2008 15.43C13.2979 15.6674 13.3781 15.9113 13.4408 16.16C13.5121 16.6303 13.5555 17.1045 13.5708 17.58C13.6208 18.58 13.5708 19.37 13.5708 20.25C13.4808 20.55 13.3808 22 13.5708 22.17Z" fill="#2C2C2C"/>
</g>
<defs>
<clipPath id="clip0_1434_47">
<rect width="24" height="24" fill="white"/>
</clipPath>
</defs>
</svg>
