<svg width="28" height="29" viewBox="0 0 28 29" fill="none" xmlns="http://www.w3.org/2000/svg">
<g opacity="0.8">
<path fill-rule="evenodd" clip-rule="evenodd" d="M2.11775 8.8966C2.70275 8.8966 2.36692 8.3116 2.32359 5.85244C2.32359 4.0216 2.21525 3.36077 4.27359 3.05744C5.43275 2.89494 6.68942 3.05744 7.84859 3.00327C7.95039 2.98702 8.04306 2.93501 8.10996 2.85658C8.17687 2.77815 8.21362 2.67844 8.21362 2.57535C8.21362 2.47226 8.17687 2.37255 8.10996 2.29412C8.04306 2.21569 7.95039 2.16368 7.84859 2.14744C5.80109 1.98494 3.55859 1.0316 1.52192 2.82994C0.362754 3.91327 1.52192 7.26077 1.71692 8.5716C1.72784 8.66748 1.77595 8.75525 1.85091 8.81603C1.92587 8.87681 2.02169 8.90574 2.11775 8.8966Z" fill="white"/>
<path fill-rule="evenodd" clip-rule="evenodd" d="M7.84911 26.49C6.68994 26.4358 5.43327 26.5983 4.27411 26.4358C2.20494 26.1325 2.29161 25.4608 2.32411 23.6408C2.32411 21.1925 2.70327 20.6508 2.11827 20.5966C2.01942 20.5906 1.92214 20.6235 1.84724 20.6883C1.77233 20.7531 1.72575 20.8446 1.71744 20.9433C1.47911 22.33 0.352439 25.6341 1.52244 26.6633C3.54827 28.4291 5.79077 27.4866 7.85994 27.3241C7.95052 27.2974 8.02987 27.2417 8.08592 27.1657C8.14196 27.0897 8.17163 26.9974 8.1704 26.903C8.16917 26.8085 8.13712 26.7171 8.07912 26.6425C8.02112 26.568 7.94035 26.5144 7.84911 26.49Z" fill="white"/>
<path fill-rule="evenodd" clip-rule="evenodd" d="M20.1129 3.00336C21.272 3.05753 22.5287 2.89503 23.6879 3.05753C25.7462 3.36086 25.6704 4.02169 25.6379 5.85253C25.6379 8.31169 25.2587 8.84253 25.8437 8.89669C25.8929 8.90113 25.9426 8.8956 25.9897 8.88044C26.0367 8.86528 26.0803 8.84079 26.1177 8.80844C26.1551 8.77609 26.1856 8.73653 26.2074 8.69214C26.2292 8.64774 26.2418 8.59941 26.2445 8.55003C26.4829 7.16336 27.6095 3.91336 26.4395 2.83002C24.4137 1.04252 22.1712 1.98502 20.102 2.14752C20.0004 2.16502 19.9083 2.21818 19.8424 2.29746C19.7764 2.37674 19.7409 2.47695 19.7422 2.58006C19.7435 2.68318 19.7816 2.78245 19.8495 2.86004C19.9174 2.93763 20.0108 2.98845 20.1129 3.00336Z" fill="white"/>
<path fill-rule="evenodd" clip-rule="evenodd" d="M25.8966 20.5967C25.3116 20.6509 25.6475 21.1817 25.6908 23.6409C25.6908 25.4609 25.81 26.1326 23.7408 26.4359C22.5816 26.5984 21.325 26.4359 20.1658 26.4901C20.064 26.5063 19.9713 26.5583 19.9044 26.6367C19.8375 26.7152 19.8008 26.8149 19.8008 26.918C19.8008 27.0211 19.8375 27.1208 19.9044 27.1992C19.9713 27.2776 20.064 27.3296 20.1658 27.3459C22.2241 27.5084 24.4991 28.4292 26.5033 26.6851C27.6625 25.6017 26.5033 22.3517 26.3083 20.9434C26.3042 20.8935 26.2903 20.845 26.2674 20.8005C26.2444 20.7561 26.2129 20.7166 26.1747 20.6844C26.1364 20.6521 26.0921 20.6278 26.0444 20.6128C25.9967 20.5977 25.9465 20.5923 25.8966 20.5967Z" fill="white"/>
<path fill-rule="evenodd" clip-rule="evenodd" d="M11.8145 10.4134C11.5768 10.2249 11.2857 10.1163 10.9826 10.103C10.6796 10.0896 10.38 10.1723 10.1267 10.3392C9.87339 10.5061 9.6792 10.7486 9.57182 11.0323C9.46443 11.316 9.44933 11.6264 9.52866 11.9192C9.5187 11.9669 9.51822 12.016 9.52726 12.0638C9.5363 12.1117 9.55467 12.1573 9.58133 12.198C9.60799 12.2388 9.64241 12.2739 9.68263 12.3013C9.72285 12.3287 9.76808 12.348 9.81574 12.3579C9.8634 12.3679 9.91255 12.3684 9.9604 12.3593C10.0082 12.3503 10.0538 12.3319 10.0946 12.3053C10.1353 12.2786 10.1704 12.2442 10.1978 12.204C10.2253 12.1637 10.2445 12.1185 10.2545 12.0709C10.2545 11.995 11.2728 11.215 11.5112 11.2475C11.6218 11.2878 11.7438 11.2824 11.8505 11.2326C11.9572 11.1828 12.0397 11.0927 12.0799 10.9821C12.1201 10.8715 12.1148 10.7494 12.065 10.6428C12.0152 10.5361 11.9251 10.4536 11.8145 10.4134Z" fill="white"/>
<path fill-rule="evenodd" clip-rule="evenodd" d="M13.9805 10.9765L15.2046 10.5107C15.3291 10.4592 15.4606 10.4264 15.5946 10.4132C15.6465 10.4338 15.702 10.444 15.7579 10.4432C15.8138 10.4424 15.8689 10.4306 15.9202 10.4084C15.9715 10.3863 16.018 10.3543 16.0569 10.3142C16.0958 10.2741 16.1265 10.2268 16.1471 10.1748C16.1678 10.1229 16.178 10.0674 16.1771 10.0116C16.1763 9.95569 16.1645 9.90052 16.1424 9.84922C16.1203 9.79792 16.0882 9.75147 16.0482 9.71254C16.0081 9.67361 15.9607 9.64296 15.9088 9.62233C15.7042 9.42648 15.4489 9.29181 15.1718 9.23358C14.8946 9.17535 14.6067 9.19588 14.3406 9.29284C14.0746 9.3898 13.8409 9.55932 13.6662 9.78221C13.4915 10.0051 13.3827 10.2725 13.3521 10.554C13.3026 10.6373 13.2868 10.7364 13.3081 10.831C13.3293 10.9256 13.386 11.0084 13.4664 11.0625C13.5469 11.1166 13.645 11.1378 13.7406 11.1218C13.8362 11.1058 13.922 11.0538 13.9805 10.9765Z" fill="white"/>
<path fill-rule="evenodd" clip-rule="evenodd" d="M15.0642 13.6634C15.0757 13.5513 15.0422 13.4393 14.9711 13.3519C14.8999 13.2646 14.797 13.209 14.685 13.1975C14.5729 13.186 14.4609 13.2195 14.3735 13.2906C14.2862 13.3617 14.2307 13.4646 14.2192 13.5767C14.184 13.6862 14.1263 13.7871 14.0498 13.8729C13.9733 13.9587 13.8797 14.0276 13.775 14.075C13.2114 14.1511 12.6379 14.0568 12.1283 13.8042C12.0987 13.7597 12.0599 13.7219 12.0146 13.6934C11.9693 13.6649 11.9185 13.6464 11.8655 13.6389C11.8125 13.6315 11.7586 13.6353 11.7072 13.6502C11.6558 13.6651 11.6081 13.6907 11.5674 13.7254C11.5266 13.76 11.4936 13.8029 11.4705 13.8512C11.4475 13.8995 11.4349 13.9521 11.4337 14.0056C11.4325 14.0591 11.4425 14.1122 11.4633 14.1615C11.4841 14.2108 11.515 14.2552 11.5542 14.2917C12.54 16.3609 15.1942 15.7542 15.0642 13.6634Z" fill="white"/>
<path fill-rule="evenodd" clip-rule="evenodd" d="M20.676 23.175C20.7324 23.175 20.7882 23.1638 20.8402 23.1419C20.8922 23.1199 20.9392 23.0879 20.9786 23.0475C21.018 23.0071 21.0489 22.9592 21.0695 22.9067C21.0901 22.8542 21.0999 22.7981 21.0985 22.7417C21.3801 19.2642 20.1018 17.325 18.1626 15.9709C18.8727 15.3016 19.3952 14.4581 19.6782 13.5242C19.9612 12.5904 19.9948 11.5988 19.7757 10.6479C19.5566 9.69703 19.0925 8.82008 18.4294 8.10423C17.7663 7.38839 16.9273 6.8586 15.996 6.56752C10.1026 4.45502 4.0143 9.94752 7.6868 15.4184C8.22158 16.2173 8.92398 16.8901 9.74513 17.39C7.92513 18.6142 6.8093 20.1634 6.8743 23.5542C6.88091 23.6585 6.925 23.7569 6.99844 23.8313C7.07188 23.9056 7.16973 23.951 7.27395 23.9589C7.37817 23.9668 7.48174 23.9368 7.56557 23.8743C7.6494 23.8119 7.70784 23.7213 7.73013 23.6192C8.16172 21.4504 9.1682 19.4374 10.6443 17.7909C11.1694 18.0106 11.7326 18.1247 12.3018 18.1267C12.3562 18.136 12.412 18.1333 12.4652 18.1188C12.5185 18.1043 12.568 18.0783 12.6102 18.0427C12.6523 18.0072 12.6863 17.9628 12.7095 17.9127C12.7328 17.8627 12.7448 17.8081 12.7448 17.7529C12.7448 17.6977 12.7328 17.6432 12.7095 17.5932C12.6863 17.5431 12.6523 17.4987 12.6102 17.4631C12.568 17.4275 12.5185 17.4016 12.4652 17.3871C12.412 17.3726 12.3562 17.3699 12.3018 17.3792C11.7518 17.3331 11.2172 17.1746 10.731 16.9134C9.57356 16.3649 8.66659 15.3988 8.19231 14.2091C7.71804 13.0194 7.7116 11.6943 8.1743 10.5C9.72346 7.25002 15.086 6.55669 17.5668 9.22169C20.0476 11.8867 18.1626 16.2417 14.6093 16.9134C14.5109 16.9457 14.4274 17.0121 14.3738 17.1007C14.3201 17.1893 14.3 17.2942 14.3171 17.3963C14.3341 17.4984 14.3871 17.5911 14.4666 17.6575C14.546 17.7239 14.6466 17.7597 14.7501 17.7584C15.7561 17.6118 16.7074 17.2088 17.5126 16.5884C18.4143 17.6779 19.1249 18.9123 19.6143 20.2392C20.481 22.525 20.0151 23.1859 20.676 23.175Z" fill="white"/>
</g>
</svg>
