<svg width="30" height="30" viewBox="0 0 30 30" fill="none" xmlns="http://www.w3.org/2000/svg">
<g opacity="0.8" clip-path="url(#clip0_1268_6521)">
<path fill-rule="evenodd" clip-rule="evenodd" d="M21.1367 5.06232C20.6757 4.73614 20.1366 4.53776 19.5742 4.48732C18.5343 4.40071 17.489 4.40071 16.4492 4.48732H12.9367C12.1398 4.47457 11.3437 4.54579 10.5617 4.69982C9.96577 4.81448 9.40497 5.06705 8.92418 5.43732C8.62221 5.71227 8.40532 6.06796 8.29918 6.46232C8.17444 6.94788 8.11972 7.44878 8.13668 7.94982C7.62418 23.0873 7.49918 22.6248 7.79918 23.9748C7.88833 24.5092 8.12666 25.0075 8.48668 25.4123C8.87107 25.7115 9.33778 25.886 9.82418 25.9123C10.7295 26.0038 11.6392 26.0456 12.5492 26.0373L17.9742 26.0998C18.9072 26.1618 19.8406 25.9854 20.6867 25.5873C21.0118 25.3959 21.286 25.1289 21.4862 24.8091C21.6864 24.4893 21.8066 24.1259 21.8367 23.7498C21.9492 23.0123 22.0117 22.2498 22.0617 21.4873C22.1242 20.3623 22.1492 19.2373 22.1742 18.1498L22.2867 10.9748C22.3895 9.60975 22.3265 8.23725 22.0992 6.88732C21.9783 6.19288 21.6415 5.55424 21.1367 5.06232ZM12.9117 5.79982H16.4742H18.7992C18.6617 6.38183 18.4735 6.95067 18.2367 7.49982C18.1377 7.79171 17.9497 8.04525 17.6992 8.22482C17.4652 8.29968 17.2192 8.32937 16.9742 8.31232C16.1617 8.31232 15.1492 8.23732 14.6367 8.22482C11.8992 8.28732 12.3867 8.41232 12.1367 7.94982C12.0095 7.73676 11.8968 7.51543 11.7992 7.28732L11.2492 5.86232C11.8008 5.79781 12.3567 5.77691 12.9117 5.79982ZM20.8492 10.9498C20.8492 11.9623 20.7867 12.9123 20.7867 13.8623V18.1873V21.4748C20.7867 22.1998 20.7117 22.9248 20.6242 23.6248C20.601 23.8585 20.5126 24.0809 20.3689 24.2666C20.2252 24.4523 20.0321 24.5938 19.8117 24.6748C19.222 24.8623 18.6053 24.951 17.9867 24.9373L12.6117 24.9998H10.3367C9.93247 25.0203 9.53038 24.9295 9.17418 24.7373C8.85292 24.3518 8.66057 23.8753 8.62418 23.3748C8.32418 21.4498 8.62418 18.7373 9.24918 7.98732C9.25333 7.65171 9.28679 7.31711 9.34918 6.98732C9.39114 6.74161 9.51439 6.51711 9.69918 6.34982C9.91751 6.18751 10.1696 6.07643 10.4367 6.02482L10.7992 7.57482C10.9079 7.98109 11.0587 8.3749 11.2492 8.74982C11.38 9.00039 11.5794 9.20851 11.8242 9.34982C12.1325 9.48436 12.4631 9.56064 12.7992 9.57482H14.6117H17.0367C17.4739 9.5416 17.8995 9.41817 18.2867 9.21232C18.6357 8.94449 18.9039 8.58545 19.0617 8.17482C19.3406 7.44204 19.5294 6.67812 19.6242 5.89982C19.8262 5.93166 20.0184 6.00856 20.1867 6.12482C20.5372 6.5756 20.7304 7.12882 20.7367 7.69982C20.872 8.77756 20.9096 9.86531 20.8492 10.9498Z" fill="white"/>
<path fill-rule="evenodd" clip-rule="evenodd" d="M28.4493 1.43744C28.436 1.17902 28.3768 0.925041 28.2743 0.687442C28.2086 0.551848 28.1042 0.438756 27.9743 0.362442C27.5329 0.17513 27.0469 0.118721 26.5743 0.199942C25.7671 0.337515 24.9757 0.55526 24.2118 0.849942C24.163 0.861587 24.117 0.882909 24.0766 0.912643C24.0362 0.942378 24.0021 0.97992 23.9765 1.02305C23.9509 1.06617 23.9341 1.11401 23.9273 1.16372C23.9205 1.21343 23.9237 1.264 23.9368 1.31244C23.9633 1.40925 24.0263 1.49201 24.1125 1.54331C24.1988 1.5946 24.3016 1.61042 24.3993 1.58744H26.0868L25.9243 1.71244C25.7571 1.85277 25.5984 2.00304 25.4493 2.16244C25.3118 2.33744 25.1743 2.49994 25.0493 2.67494C24.7243 3.14994 24.4743 3.59994 24.2493 3.92494C24.1769 4.01467 24.1429 4.12935 24.1546 4.24405C24.1663 4.35874 24.2228 4.46418 24.3118 4.53744C24.3552 4.57293 24.4052 4.59948 24.4589 4.61555C24.5127 4.63163 24.569 4.63691 24.6248 4.6311C24.6806 4.62529 24.7346 4.6085 24.7839 4.5817C24.8332 4.5549 24.8766 4.51862 24.9118 4.47494C25.2493 4.18744 25.6493 3.88744 26.0618 3.52494C26.2243 3.37494 26.3743 3.23744 26.5243 3.07494C26.6746 2.92714 26.8087 2.76371 26.9243 2.58744C27.0368 2.43744 27.1118 2.29994 27.2118 2.14994C27.3337 2.68497 27.4172 3.22801 27.4618 3.77494C27.451 3.88718 27.484 3.99924 27.5539 4.08774C27.6238 4.17624 27.7251 4.23435 27.8368 4.24994C27.8927 4.25691 27.9494 4.2527 28.0036 4.23757C28.0578 4.22243 28.1085 4.19667 28.1527 4.16178C28.1969 4.12689 28.2337 4.08357 28.261 4.03433C28.2883 3.98508 28.3056 3.93091 28.3118 3.87494C28.4283 3.06798 28.4743 2.25239 28.4493 1.43744Z" fill="white"/>
<path fill-rule="evenodd" clip-rule="evenodd" d="M26.4617 26.25C26.457 26.2006 26.4426 26.1527 26.4193 26.109C26.3959 26.0652 26.3642 26.0266 26.3258 25.9952C26.2875 25.9638 26.2433 25.9403 26.1958 25.9261C26.1483 25.9119 26.0985 25.9073 26.0492 25.9125C25.9508 25.925 25.861 25.9747 25.7983 26.0515C25.7355 26.1282 25.7045 26.2261 25.7117 26.325V27.475C25.5837 27.3282 25.4459 27.1904 25.2992 27.0625C25.1469 26.9417 24.9883 26.8291 24.8242 26.725C24.4248 26.4943 24.0067 26.2977 23.5742 26.1375C23.4897 26.0828 23.3868 26.0639 23.2884 26.085C23.1899 26.1061 23.1039 26.1654 23.0492 26.25C22.9945 26.3345 22.9756 26.4373 22.9967 26.5358C23.0178 26.6342 23.0772 26.7203 23.1617 26.775C23.3492 26.9625 23.6117 27.375 24.0117 27.8C24.137 27.9377 24.2751 28.0633 24.4242 28.175C24.5702 28.2944 24.7248 28.4031 24.8867 28.5L25.1867 28.6875C24.7117 28.8875 24.2367 29.075 24.0742 29.125C24.0181 29.1326 23.9641 29.1513 23.9154 29.1801C23.8667 29.2089 23.8242 29.2471 23.7904 29.2925C23.7567 29.3379 23.7323 29.3896 23.7188 29.4445C23.7053 29.4995 23.7029 29.5566 23.7117 29.6125C23.7302 29.7242 23.7913 29.8245 23.8823 29.8921C23.9732 29.9597 24.0868 29.9894 24.1992 29.975C24.8865 29.9493 25.5713 29.8783 26.2492 29.7625C26.5829 29.7005 26.8865 29.5289 27.1117 29.275C27.23 28.9593 27.2517 28.6155 27.1742 28.2875C26.9617 27.625 26.5492 26.625 26.4617 26.25Z" fill="white"/>
<path fill-rule="evenodd" clip-rule="evenodd" d="M5.48666 28.9498C5.14916 28.9498 4.23666 28.7998 3.54916 28.6748L3.96166 28.3623C4.13643 28.2125 4.29941 28.0496 4.44916 27.8748C4.60545 27.7044 4.75154 27.5249 4.88666 27.3373C5.22416 26.8748 5.49917 26.4123 5.78666 25.9873C5.86457 25.9044 5.90636 25.794 5.90285 25.6803C5.89933 25.5666 5.85079 25.459 5.76791 25.381C5.68503 25.3031 5.5746 25.2613 5.46091 25.2649C5.34721 25.2684 5.23957 25.3169 5.16166 25.3998C4.76166 25.7123 4.31166 26.0373 3.91166 26.4248C3.73306 26.5701 3.5659 26.7289 3.41166 26.8998C3.25173 27.067 3.10543 27.2467 2.97416 27.4373C2.97416 26.6623 2.87416 25.8498 2.89916 25.4623C2.91002 25.4113 2.91049 25.3587 2.90054 25.3075C2.89059 25.2564 2.87042 25.2078 2.84125 25.1646C2.81208 25.1214 2.77449 25.0846 2.73075 25.0563C2.68701 25.0279 2.638 25.0087 2.58666 24.9998C2.53735 24.9889 2.48633 24.9881 2.43669 24.9974C2.38705 25.0067 2.33979 25.0259 2.29777 25.0539C2.25574 25.082 2.21981 25.1182 2.19213 25.1604C2.16444 25.2027 2.14558 25.2501 2.13666 25.2998C1.87079 26.1774 1.68257 27.0767 1.57416 27.9873C1.52215 28.373 1.52215 28.764 1.57416 29.1498C1.58979 29.282 1.63233 29.4096 1.69916 29.5248C1.79092 29.6564 1.90978 29.7669 2.04776 29.8489C2.18574 29.9308 2.33965 29.9823 2.49916 29.9998C3.48846 30.0093 4.4775 29.9634 5.46166 29.8623C5.518 29.8624 5.57377 29.851 5.62552 29.8287C5.67727 29.8064 5.7239 29.7738 5.76255 29.7328C5.8012 29.6918 5.83105 29.6433 5.85024 29.5903C5.86944 29.5374 5.87758 29.481 5.87416 29.4248C5.88109 29.368 5.87646 29.3103 5.86055 29.2553C5.84465 29.2003 5.81779 29.1491 5.7816 29.1047C5.74541 29.0604 5.70063 29.0238 5.64995 28.9972C5.59927 28.9705 5.54373 28.9544 5.48666 28.9498Z" fill="white"/>
<path fill-rule="evenodd" clip-rule="evenodd" d="M6.06134 0.962382C6.117 0.965898 6.17278 0.957736 6.2251 0.938418C6.27743 0.9191 6.32513 0.889055 6.36515 0.85021C6.40517 0.811365 6.43663 0.76458 6.4575 0.712859C6.47837 0.661138 6.48819 0.605624 6.48634 0.549882C6.48975 0.493646 6.48161 0.437306 6.46242 0.384337C6.44322 0.331368 6.41338 0.282893 6.37473 0.241901C6.33608 0.200909 6.28944 0.168268 6.23769 0.145993C6.18594 0.123717 6.13018 0.112278 6.07384 0.112382C5.34064 0.0146661 4.60067 -0.0229591 3.86134 -0.000118199C3.42485 0.00792226 2.99647 0.119299 2.61134 0.324882C2.2889 0.686926 2.10705 1.15264 2.09884 1.63738C2.0512 2.4168 2.13572 3.19866 2.34884 3.94988C2.36308 3.99783 2.38677 4.04244 2.41851 4.0811C2.45025 4.11975 2.4894 4.15167 2.53366 4.17496C2.57793 4.19826 2.6264 4.21246 2.67623 4.21674C2.72607 4.22102 2.77625 4.21529 2.82384 4.19988C2.87328 4.19117 2.92037 4.17229 2.96214 4.14443C3.0039 4.11658 3.03942 4.08035 3.06645 4.03804C3.09348 3.99574 3.11142 3.94828 3.11915 3.89867C3.12688 3.84907 3.12422 3.7984 3.11134 3.74988C3.14988 3.25895 3.23782 2.77316 3.37384 2.29988C3.37384 2.13322 3.41134 1.98322 3.48634 1.84988C3.58341 2.03964 3.69194 2.22332 3.81134 2.39988C3.92215 2.55768 4.04325 2.70801 4.17384 2.84988L4.58634 3.26238C5.06134 3.67488 5.48634 3.97488 5.63634 4.11238C5.66999 4.15752 5.7122 4.1956 5.76057 4.22442C5.80893 4.25325 5.8625 4.27227 5.91822 4.2804C5.97393 4.28852 6.0307 4.28559 6.08529 4.27178C6.13987 4.25796 6.1912 4.23353 6.23634 4.19988C6.28148 4.16623 6.31955 4.12402 6.34838 4.07565C6.37721 4.02729 6.39623 3.97372 6.40435 3.918C6.41248 3.86229 6.40955 3.80552 6.39574 3.75094C6.38192 3.69635 6.35749 3.64502 6.32384 3.59988C6.10832 3.17107 5.87049 2.75383 5.61134 2.34988C5.49884 2.19988 5.38634 2.03738 5.26134 1.88738C5.12919 1.7365 4.98722 1.59453 4.83634 1.46238L4.52384 1.24988L4.89884 1.16238L6.06134 0.962382Z" fill="white"/>
</g>
<defs>
<clipPath id="clip0_1268_6521">
<rect width="30" height="30" fill="white"/>
</clipPath>
</defs>
</svg>
