<svg width="207" height="32" viewBox="0 0 207 32" fill="none" xmlns="http://www.w3.org/2000/svg">
<path d="M4.7076 1.16482C9.01961 -1.60928 11.9495 1.37759 15.9513 1.8722C18.8939 2.23676 22.1814 2.38053 25.5707 2.41512C32.2771 2.48391 39.3686 2.12232 45.3768 2.19607C52.1689 2.2803 59.095 2.50152 65.8667 2.67286C66.2119 2.68132 66.4179 2.98823 66.5747 2.99236C68.0529 3.03085 70.5396 2.75599 72.0086 2.79751C75.0979 2.88491 80.4767 2.83587 83.3045 3.11902C84.506 3.23921 85.7389 3.28776 86.2069 4.01673C86.6459 4.05307 86.8839 3.3931 86.9984 3.35698C86.9997 3.35763 87.001 3.35828 87.0023 3.35893C87.3703 3.24687 88.3045 3.70713 88.5104 3.67782C88.5411 3.67323 88.3505 3.19605 88.8502 3.33911C88.8947 3.35139 88.8545 3.67628 89.2748 3.67983C89.3845 3.68073 90.7874 3.17887 91.1875 3.14716C92.5277 3.0443 95.7157 3.42351 97.3141 3.40911C97.558 3.40799 97.6974 3.21736 97.9545 3.21276C98.0873 3.21016 98.2873 3.4154 98.328 3.41407C98.5045 3.4059 99.2903 2.46542 99.0163 4.31493C99.8379 4.19354 99.592 3.58377 99.6087 3.18689C100.499 3.1249 100.931 3.99278 101.158 3.06903C105.532 3.15531 109.903 3.23307 114.268 3.29801C114.268 3.14762 114.268 2.99722 114.267 2.84683C115.558 3.4337 115.978 2.41261 116.731 3.27622C117.184 3.0788 117.635 2.88125 118.083 2.68357C122.495 2.85267 126.898 2.8208 131.256 2.68517C138.389 2.46167 145.495 1.95903 152.432 1.57287C152.909 1.54589 153.025 1.86021 153.815 1.81578C154.68 1.76677 155.86 1.32017 156.978 1.24798C157.974 1.18378 159.419 1.38155 160.536 1.33945C160.781 1.33001 160.939 1.11382 160.966 1.11275C161.131 1.1072 161.167 1.42619 161.328 1.42206C161.521 1.41634 161.73 1.16034 161.947 1.15662C162.769 1.14028 163.635 0.978982 163.748 0.974031C164.252 0.958154 164.386 1.26035 164.427 1.26C164.971 1.24689 164.749 0.98335 164.886 0.986717C165.61 1.00396 166.186 1.65765 167.089 0.88113C167.09 1.14489 167.09 1.40865 167.09 1.67242C167.862 1.73974 167.289 1.09898 167.43 0.957203C167.485 0.905422 169.099 0.814984 169.236 0.810965C169.678 0.806582 169.726 1.15171 169.765 1.15213C169.855 1.15355 170.914 0.633232 171.522 0.867428C172.238 1.14604 171.528 1.94409 171.711 2.05657C171.737 2.07631 172.449 1.91864 172.569 2.12785C172.703 2.35242 172.085 2.42089 172.105 2.51929C172.122 2.58666 173.203 2.9537 173.048 3.30594C172.927 3.65541 171.491 3.3967 171.213 3.586C171.167 3.61741 171.307 4.0141 171.266 4.03411C171.103 4.11215 167.936 4.47957 167.799 4.4219C167.942 4.21877 168.084 4.01569 168.224 3.81266C168.009 3.81684 167.792 3.82105 167.572 3.82527C167.869 3.64341 168.147 3.46303 168.448 3.27961C167.823 1.80111 166.618 3.49456 166.637 4.26377C166.648 4.61965 167.585 5.44194 166.853 6.05177C166.983 6.13018 167.112 6.20859 167.24 6.28698C167.464 6.11336 167.709 5.93709 167.939 5.76216C167.764 5.68578 167.588 5.6094 167.41 5.53301C167.461 5.42037 167.511 5.30774 167.562 5.19513C168.011 4.97585 168.447 4.75683 168.895 4.53534C169.14 4.58774 169.125 4.90645 169.294 4.94912C171.424 5.4815 169.988 4.66122 171.342 4.64656C171.557 4.79188 171.77 4.93723 171.983 5.08265C171.83 4.39569 172.486 4.76108 173.179 4.37412C173.117 4.60971 173.057 4.84495 172.997 5.08025C174.035 4.83413 176.372 5.70831 175.633 4.53692C175.894 4.61385 176.159 4.69056 176.422 4.76788C176.609 4.54057 176.801 4.31303 176.993 4.08583C177.291 4.07586 177.592 4.0663 177.893 4.05728C177.907 4.16717 177.92 4.27705 177.933 4.38694C177.695 4.41329 177.457 4.44007 177.222 4.46701C177.436 4.78242 177.651 5.09803 177.865 5.41394C178.033 5.33927 178.202 5.26478 178.372 5.19049C177.878 5.03709 178.077 4.72547 178.336 4.39817C178.48 4.2163 178.642 4.02988 178.711 3.86296C179.321 3.63468 179.777 4.17149 179.989 4.17728C180.087 4.17934 181.154 3.05719 180.801 4.2148C181.384 4.02478 181.968 3.83762 182.552 3.65313C182.792 3.71966 183.031 3.78665 183.27 3.85406C182.809 4.41369 184.311 4.92694 183.259 5.22636C182.474 5.45183 182.236 4.98316 181.856 5.01901C181.514 5.05108 181.362 5.39443 180.991 5.44284C180.109 5.55603 179.283 5.6513 178.477 5.73398C177.004 5.88537 175.629 5.98989 174.136 6.07331C173.687 6.09754 173.288 6.30747 172.99 6.32023C172.648 6.33476 173.025 5.87485 172.604 6.02595C172.158 6.18563 172.108 6.53013 171.987 6.55111C171.914 6.56358 171.641 6.2909 171.424 6.31619C170.542 6.4199 169.276 6.85539 169.156 6.86636C169.003 6.88254 166.506 6.86994 166.369 6.83077C166.303 6.81004 166.326 5.68509 165.899 6.92427C165.731 6.96299 165.561 7.00171 165.389 7.04044C165.396 6.81545 165.403 6.59048 165.409 6.3655C164.482 7.30405 164.781 6.80044 163.811 6.95557C161.489 7.32885 158.011 7.40223 155.422 7.64053C154.857 7.69392 154.655 7.97424 153.96 8.03467C153.342 8.08906 151.612 7.38478 152.04 8.468C150.603 7.5869 150.41 9.24758 149.675 8.2538C149.597 8.40753 149.519 8.56126 149.441 8.71498C148.645 8.11018 148.405 8.68674 147.586 8.80171C147.225 8.85165 147.616 8.15042 146.913 8.94298C146.769 8.89257 146.625 8.84213 146.48 8.79166C146.506 8.62503 146.532 8.4584 146.558 8.29177C145.731 8.46257 145.698 8.3772 145.81 8.99202C145.418 8.89567 145.02 8.79913 144.618 8.70239C144.577 8.90731 144.535 9.11223 144.493 9.31715C144.688 9.71397 153.623 8.70721 154.833 8.42254C156.312 8.79598 159.188 8.02024 160.352 8.03637C160.83 8.04322 161.065 8.48578 161.748 8.48547C162.443 8.48411 163.249 7.99536 163.612 7.94791C164.8 7.80487 170.503 7.30275 166.687 8.27111C166.822 8.48259 166.957 8.69404 167.092 8.90547C168.552 7.98649 168.036 8.51341 169.332 8.45229C169.868 8.42811 171.1 7.78391 171.146 8.80215C170.166 9.10597 169.052 8.90196 168.193 9.00728C168.102 9.01886 167.128 9.58726 166.575 9.5149C166.089 9.44693 166.329 8.45028 165.384 9.63462C164.522 8.64797 164.146 9.6501 163.959 9.76993C163.623 9.97844 163.538 9.45902 163.174 9.42935C162.778 9.39598 162.554 9.76441 162.499 9.77134C161.953 9.8289 159.226 10.0872 159.069 9.88368C159.175 9.7826 159.28 9.68152 159.385 9.58044C158.649 9.48422 158.838 10.0082 158.657 10.0857C158.519 10.0936 158.38 10.1015 158.24 10.1094C158.288 9.99447 158.335 9.87953 158.382 9.76458C157.542 9.84701 158.208 10.1894 157.005 10.2605C156.252 10.3041 155.409 9.93076 155.349 9.96595C155.328 9.9763 155.583 10.2475 155.278 10.305C154.778 10.3995 153.85 10.4469 153.743 10.0624C153.498 10.132 153.54 10.5115 153.508 10.5221C153.365 10.5693 150.846 10.8361 150.373 10.8805C149.134 11.005 147.727 10.989 146.343 11.1121C146.199 11.1246 146.28 10.8762 146.142 10.8899C145.925 10.9119 144.783 11.3429 144.604 11.3768C144.151 11.4615 143.038 11.351 142.855 11.4688C142.83 11.4855 143.218 11.8023 142.782 11.921C142.296 12.0523 142.543 11.598 142.517 11.5945C141.488 11.4793 140.917 11.8077 140.228 11.8903C140.009 11.9167 139.58 11.5955 139.275 11.704C139.241 11.7163 139.32 12.0235 139.286 12.0398C138.832 12.2165 138.378 11.6557 138.174 11.6246C137.675 11.5485 137.958 11.9641 137.932 11.9679C137.604 11.9911 137.134 11.8519 136.641 11.886C134.835 12.0098 133.294 12.079 131.465 12.1137C131.06 12.1212 130.638 12.127 130.193 12.131C129.894 12.1339 129.53 11.8423 129.483 11.8429C129.34 11.848 129.389 12.1985 128.974 12.1989C128.098 12.1982 127.323 12.2297 126.456 12.2384C126.283 12.2401 126.203 11.9159 126.07 11.9112C125.608 11.8992 124.152 12.7758 124.103 11.7157C123.247 12.6684 122.625 11.8685 121.939 11.8876C120.278 11.9327 117.674 12.1576 115.989 12.0547C115.643 12.0326 115.476 11.7626 115.282 11.7501C114.938 11.7272 112.936 11.8999 112.827 11.858C112.618 11.7777 112.731 10.58 111.692 11.6326C111.076 11.7127 111.143 11.2209 111.016 11.1956C110.018 11.0075 109.046 12.1118 109.221 11.106C108.071 11.3884 107.321 11.9492 106.839 11.0137C106.849 11.472 106.302 11.7511 105.639 11.5812C106.309 10.8064 106.228 10.3153 107.857 10.4433C107.883 10.4454 107.837 10.7772 107.862 10.7792C108.095 10.7998 108.577 10.6285 108.971 10.6432C109.365 10.6579 109.148 10.8863 109.307 10.8806C109.454 10.8749 109.446 10.5578 109.658 10.5514C110.345 10.5331 110.947 10.4402 111.335 10.4309C111.578 10.4254 111.853 10.7014 112.042 10.6996C112.762 10.6905 114.34 10.4568 115.262 10.4769C115.455 10.4818 115.378 10.7954 115.8 10.8166C115.849 10.819 116.025 10.491 116.401 10.419C116.776 10.3471 117.068 10.5055 117.307 10.4688C117.507 10.4382 117.42 10.1497 117.83 10.1265C118.16 10.1089 122.052 10.2646 122.246 10.3068C122.541 10.369 122.701 10.7734 122.885 10.721C122.918 10.7099 122.967 10.3162 123.08 10.2863C124.927 9.79491 129.045 10.2572 131.147 10.2059C131.239 10.2038 131.331 10.2015 131.422 10.1992C135.743 10.0878 139.745 9.75003 144.061 9.49433C144.139 9.42289 144.217 9.35144 144.295 9.27999C143.83 9.29555 143.409 9.30896 142.956 9.32309C142.947 9.13843 142.937 8.95377 142.927 8.76911C142.32 8.76216 142.414 9.1961 142.441 9.45919C142.211 9.35549 141.978 9.25171 141.745 9.14787C141.579 9.79874 140.083 9.42104 139.287 9.44672C138.797 9.46227 138.209 9.72585 137.942 9.71469C137.378 9.69199 137.379 9.29404 137.334 9.28902C137.255 9.28237 136.482 9.6554 135.926 9.65693C135.098 9.65995 134.974 9.05278 133.848 9.5997C133.081 9.45093 132.26 9.43616 131.406 9.46777C130.68 9.49514 129.931 9.55914 129.18 9.59862C129.47 9.02847 128.056 9.59087 127.426 9.59344C123.524 9.61158 118.719 9.43671 114.755 9.25583C114.248 9.23316 113.858 8.90475 113.574 8.91869C113.419 8.92592 113.356 9.3185 113.14 9.26882C113.102 9.25922 113.073 8.89307 112.671 8.84187C111.696 8.71322 109.215 9.3469 108.596 8.64828C105.208 8.7849 101.837 8.91498 98.4423 9.04036C98.3568 8.89105 98.2714 8.74172 98.186 8.5924C97.5531 9.36087 94.9956 8.9224 93.7629 8.96266C91.579 9.03502 88.7952 9.28048 86.8811 9.31018C86.4656 9.31665 86.1247 9.10023 85.7312 9.10535C85.5619 9.10791 85.3518 9.3897 85.1755 9.39146C83.1957 9.4163 80.5191 9.12905 78.523 9.13646C73.9949 9.15273 69.7307 9.10654 65.1431 9.11088C51.9045 9.1254 38.6687 9.37342 25.5346 9.2854C23.3189 9.27079 21.1478 9.24738 18.9768 9.21221C18.765 9.20884 18.7775 8.8853 18.6149 8.88218C17.6593 8.86138 15.604 9.11732 14.5064 9.09691C13.6915 9.08136 12.3255 8.5794 12.0317 9.0761C15.0165 9.8459 18.233 9.80607 21.3429 10.0332C21.5602 10.0492 21.5864 10.357 21.6132 10.3628C22.1144 10.4723 21.7952 10.047 22.5348 10.0317C22.8079 10.0267 25.0303 11.0205 24.7789 10.0415C24.8959 10.1257 25.1647 10.2017 25.5294 10.268C26.794 10.5119 29.3084 10.6242 29.8923 10.5254C30.1201 10.4871 29.9605 10.1966 30.0057 10.1822C30.2025 10.1192 30.2897 10.519 30.4666 10.5303C30.9211 10.5574 32.0831 10.2394 32.3116 10.2428C32.8414 10.249 34.3522 10.5817 35.036 10.5084C35.6613 10.4416 35.5462 10.0239 36.0922 9.98818C36.5092 9.96107 36.051 10.3098 36.9844 10.4202C37.4384 10.4743 39.1134 10.2311 39.4914 10.2328C39.8841 10.2346 40.3221 10.4862 40.8721 10.4695C41.6762 10.4461 43.3749 10.3145 44.1853 10.2378C44.2335 10.2335 44.3523 9.90951 44.4713 9.91677C44.718 9.9314 44.6422 10.3319 44.8288 10.3733C45.023 10.4148 48.2096 10.3786 48.7632 10.385C49.1345 10.3886 49.3931 10.1509 49.5994 10.1537C49.7614 10.1566 49.7775 10.4905 49.9431 10.4948C49.9944 10.495 50.432 10.2066 50.871 10.2149C51.291 10.2233 52.8499 10.5043 53.0306 10.5075C53.1485 10.509 53.0198 10.2714 53.3687 10.2781C53.6869 10.285 53.8955 10.5937 54.0776 10.5988C54.4988 10.6101 54.9792 10.349 55.4228 10.349C56.6987 10.3495 56.635 10.7308 56.7112 10.7435C56.9246 10.7785 57.0113 10.4293 57.0815 10.4223C57.3776 10.3938 58.1065 10.3313 58.3727 10.3184C58.7052 10.3024 58.8406 10.6349 59.1883 10.6369C59.4473 10.6374 59.9717 10.3149 60.5661 10.3005C61.9128 10.2666 63.4952 10.2088 64.8146 10.2235C65.2079 10.2276 65.268 10.5309 65.3884 10.539C66.0229 10.5817 66.3694 10.2432 66.55 10.248C67.8283 10.2805 70.122 10.8152 71.3088 10.8612C71.7943 10.8797 73.9166 10.6355 75.1125 10.6796C75.2495 10.6842 75.1212 10.9219 75.2736 10.8847C75.6384 10.7956 75.6046 10.3116 75.7897 10.3262C75.879 10.3348 76.0827 10.6077 76.343 10.6349C77.6904 10.7758 78.6157 10.5632 79.2309 10.5775C85.1345 10.7156 91.1541 10.829 96.6661 10.8474C97.2818 10.8492 98.0362 10.5578 98.9673 10.8326C98.9967 10.9829 99.0262 11.1331 99.0556 11.2834C99.0874 11.1354 99.1192 10.9875 99.1511 10.8395C100.204 10.754 100.6 10.5617 101.67 10.7437C101.763 10.7589 102.047 11.4438 102.216 10.5901C103.288 11.2012 102.698 10.5821 103.489 10.5196C104.279 10.4571 105.042 10.6422 105.804 10.6796C106.223 10.9821 104.478 11.6991 104.362 11.6975C104.178 11.696 103.983 11.2733 103.805 11.2519C103.278 11.188 102.768 11.5276 102.647 11.1499C101.965 11.5542 102.816 11.3491 102.732 11.7099C102.273 11.5637 101.821 11.4173 101.367 11.2708C101.145 12.498 98.6205 10.913 98.7988 11.8452C98.5963 11.6594 98.3976 11.4735 98.1974 11.2876C97.3296 12.4626 96.811 11.6406 95.6383 11.2971C95.7234 11.4465 95.8085 11.5959 95.8937 11.7453C95.8703 11.8079 94.8362 12.0515 95.2037 11.4122C94.1496 12.2568 94.1909 10.8586 93.2466 11.8726C92.6837 12.0042 93.0209 11.4161 92.0113 11.4295C91.4114 11.4371 90.6734 11.7462 90.0058 11.7695C89.8521 11.7738 89.7843 11.4341 89.6475 11.4345C89.5107 11.435 89.4449 11.7684 89.2791 11.7773C88.9367 11.7962 88.4918 11.5633 88.2776 11.5864C88.0859 11.606 87.811 11.9006 87.3498 11.9478C85.737 12.1145 86.2232 11.6937 85.9682 11.5521C85.694 11.4016 85.4981 11.955 84.9517 11.8918C84.8969 11.8851 85.0381 11.5402 84.86 11.554C84.7163 11.5648 84.6447 11.9396 84.1688 12.0101C83.9793 12.0388 81.0383 12.1224 80.5907 12.1293C79.9039 12.1401 78.3726 11.8237 77.6629 11.8261C77.3892 11.8262 77.0969 12.127 76.8064 12.125C75.8409 12.1184 74.2952 12.0926 73.0762 12.0772C71.9711 12.0631 70.0397 11.3974 69.4395 11.996C67.8879 12.0719 67.5146 11.5591 67.3979 11.5519C67.083 11.5323 66.9367 11.8714 66.5404 11.8866C61.4012 12.0762 54.608 11.8329 49.7366 11.8417C41.6855 11.8589 33.576 11.9257 25.5209 11.8913C22.2498 11.8775 18.9509 11.8473 15.7033 11.7907C15.6728 11.9409 15.6424 12.0911 15.6121 12.2413C16.933 12.3452 18.5447 12.615 19.8433 12.6815C21.6293 12.7691 24.1638 12.1669 25.5141 13.1672C25.5245 13.1753 25.5347 13.1836 25.5449 13.192C25.5347 13.1938 25.5244 13.1953 25.514 13.1967C24.966 13.2638 24.1459 12.8912 24.1593 13.4093C24.6022 13.4295 25.0532 13.4498 25.5126 13.4701C25.9929 13.4925 26.4823 13.515 26.9804 13.5374C26.9535 13.2932 26.9266 13.0489 26.8997 12.8046C27.9089 12.7389 28.8736 12.7972 29.8759 12.7674C30.0494 12.7626 29.9276 12.5403 30.079 12.54C30.2487 12.54 30.1325 12.765 30.1643 12.767C30.5978 12.7715 30.7171 12.5439 30.7687 12.5474C30.8983 12.5571 30.7956 12.7738 31.1704 12.8366C31.8668 12.9539 32.3819 12.3794 32.2096 13.3399C32.4387 13.3411 32.6691 13.3423 32.9009 13.3434C32.9622 13.082 33.0236 12.8206 33.0851 12.5592C34.4667 13.6228 35.1222 11.7725 35.9033 13.247C36.1694 13.0237 36.4113 12.8002 36.6672 12.5768C36.8082 12.8392 36.9496 13.1016 37.0914 13.364C37.1204 13.1396 37.1493 12.9151 37.1783 12.6906C38.5593 12.8628 40.0143 12.5999 41.3378 12.6317C42.27 12.6539 42.4729 12.7434 43.2833 12.73C45.0906 12.6994 43.2896 13.1375 44.7978 13.6251C44.72 13.3494 44.6423 13.0737 44.5647 12.798C44.8151 12.6981 45.0696 12.5982 45.3183 12.4983C45.4881 12.7236 45.6584 12.9489 45.829 13.1742C46.5947 12.0123 47.0904 12.9547 47.195 12.9551C47.2801 12.9534 47.5711 12.2532 48.4878 12.8507C48.1158 11.8904 49.1744 12.8476 49.2594 12.8536C49.3394 12.8578 50.3783 12.6475 50.8039 12.658C51.136 12.666 51.8571 12.8749 52.3429 12.8665C52.7771 12.8589 52.7345 12.5333 52.7662 12.53C53.3022 12.5047 52.9654 12.7565 53.3535 12.7702C53.742 12.7838 54.0457 12.5074 54.1298 12.5325C54.1722 12.5458 54.0295 12.8486 54.2235 12.8785C54.7468 12.96 55.6863 12.6974 56.2765 12.707C56.4864 12.7101 56.7507 12.9681 56.9854 12.9766C57.3452 12.9888 57.5148 12.6477 57.7245 12.6584C57.7966 12.663 58.2647 13.1921 58.8413 13.1125C58.9503 13.0965 59.2731 11.9806 59.696 13.5639C59.7295 13.3414 59.763 13.1188 59.7965 12.8962C61.7285 12.3497 62.2744 14.1595 63.1303 12.5562C64.5317 12.7382 63.5682 13.3616 63.7218 13.4577C63.8211 13.5184 64.2794 13.3474 64.3299 13.3573C64.4191 13.3767 64.4034 13.5773 64.5012 13.5764C66.2968 13.5424 65.5025 13.162 66.0679 12.9229C67.4124 12.3535 68.4613 13.6239 66.1222 13.2394C66.122 13.3514 66.1218 13.4633 66.1217 13.5753C66.696 13.4693 68.1621 13.5222 67.6718 14.0894C67.2869 14.5365 63.8077 14.2385 65.7814 14.8696C66.2263 15.0124 66.4572 14.5926 67.2296 15.3817C67.7416 15.4252 67.8166 14.4045 68.5111 14.8151C68.3972 14.4588 68.2834 14.1026 68.1697 13.7463C69.1203 13.2834 70.2819 13.9073 71.0084 13.7085C71.255 13.6407 72.1463 11.9436 71.9376 13.6409C72.3552 13.5354 74.3066 13.8491 74.6699 13.697C74.7575 13.6602 74.8705 12.7567 76.1358 13.0723C76.2238 13.1856 76.3117 13.2988 76.3997 13.4121C75.242 13.7412 77.2862 14.076 76.7312 14.9335C76.5428 14.5481 75.6242 14.313 75.4768 14.119C75.2249 13.7853 75.9755 13.3554 75.0191 13.4725C74.4158 14.9057 76.14 14.2464 75.8766 15.6073C77.1352 14.9721 77.2571 15.5781 77.5419 15.6033C78.7557 15.7056 79.5216 15.561 80.6681 15.719C80.9478 15.4393 78.8708 15.0371 78.6141 15.1577C79.5597 14.1665 77.9314 14.1224 77.2455 14.7108C77.1879 14.4114 77.1303 14.1119 77.0726 13.8125C77.9657 13.9747 78.8381 14.0578 79.7243 13.8115C79.7821 13.9235 79.8398 14.0354 79.8976 14.1473C79.6989 14.3161 79.5001 14.4848 79.3014 14.6535C80.0386 14.9292 79.5964 14.0563 80.5786 14.8207C80.6087 14.4834 80.6388 14.1462 80.669 13.8089C81.6095 13.9202 82.5506 14.0312 83.4917 14.1419C83.9805 13.4651 85.792 13.714 85.4618 14.59C86.1928 14.6506 85.2898 14.1862 85.9742 13.972C86.2721 13.879 86.8542 13.8519 86.9985 14.0871C86.9384 14.921 86.067 15.0262 85.8042 15.5992C85.964 15.784 90.0194 15.1795 89.66 16.155C89.9841 16.2714 89.8341 15.7695 90.4172 15.6393C92.0522 15.2764 94.5877 16.2601 95.9042 15.0088C94.3477 14.322 93.9025 15.0578 92.7144 15.0912C91.9527 15.1136 87.3404 15.2437 88.3683 14.3595C88.1988 14.4719 88.0293 14.5842 87.8597 14.6966C87.6872 14.4346 87.5156 14.1726 87.3438 13.9106C87.8256 13.8719 88.3106 13.833 88.7935 13.794C88.9095 14.0555 89.0255 14.3169 89.1416 14.5783C89.1943 14.3913 89.2471 14.2044 89.2998 14.0174C89.5031 13.9797 89.7063 13.9421 89.9095 13.9044C89.853 14.1292 89.7965 14.3539 89.74 14.5787C90.0535 14.6163 90.3668 14.6538 90.68 14.6913C90.5948 14.3914 90.5097 14.0916 90.4245 13.7917C91.8975 13.7119 91.4005 13.9013 92.2218 14.46C92.834 14.5154 91.7988 13.942 93.0922 13.7911C94.5953 13.6155 93.6091 14.5364 95.5578 14.3325C95.5853 14.1827 95.6128 14.0328 95.6403 13.883C96.0702 14.0309 96.4995 14.1788 96.9283 14.3267C96.8709 14.1407 96.8134 13.9548 96.756 13.7688C97.6411 13.8371 98.8496 13.4758 99.1509 14.2047C98.2479 13.8576 98.2689 15.1328 98.5007 15.3661C98.9961 15.8466 106.078 15.3564 107.47 15.3116C109.22 15.2573 110.574 15.654 112.165 15.011C111.078 14.5074 107.245 14.9613 106.513 14.6099C106.441 14.5755 106.453 13.4063 105.997 14.7251C104.516 14.5128 102.717 14.8973 100.868 14.8693C100.923 14.5324 100.978 14.1955 101.033 13.8586C102.174 14.568 103.231 12.989 103.089 14.2975C103.318 14.2961 103.546 14.2946 103.774 14.2931C103.772 14.0679 103.771 13.8426 103.769 13.6174C104.113 13.6151 104.456 13.6128 104.798 13.6105C104.799 13.8357 104.801 14.061 104.802 14.2862C105.086 14.2843 105.369 14.2823 105.651 14.2803C105.679 14.0555 105.707 13.8307 105.734 13.6059C106.601 14.0666 109.482 12.7958 108.221 14.1474C108.621 14.1442 109.014 14.141 109.416 14.1375C109.414 13.9728 109.411 13.8081 109.408 13.6434C109.581 13.6198 109.754 13.5962 109.927 13.5726C109.871 13.7221 109.815 13.8717 109.76 14.0213C110.55 13.7473 111.303 14.5252 111.813 14.0046C111.472 13.8952 111.131 13.7857 110.788 13.6762C111.447 13.8843 112.636 13.4294 112.746 13.4272C113.077 13.4216 113.255 13.7528 113.613 13.766C113.936 13.7772 113.889 13.5217 113.949 13.5301C115.685 13.7722 115.039 15.1642 115.825 13.5156C115.913 13.7386 115.999 13.9616 116.09 14.1845C116.204 13.9963 116.317 13.8082 116.431 13.62C116.948 13.6316 117.462 13.643 117.973 13.6542C117.799 13.3764 117.625 13.0986 117.45 12.8207C118.217 12.6865 118.577 13.2431 118.652 13.255C118.861 13.285 118.951 12.9315 119.016 12.93C122.156 12.9183 120.256 13.2542 121.833 14.5554C122.377 14.028 121.811 13.5156 121.725 12.9885C122.46 13.2256 122.694 13.0758 123.482 13.0928C123.687 13.0976 123.91 13.3791 124.039 13.3809C124.15 13.3825 124.492 13.074 124.757 13.0684C125.197 13.0589 125.786 13.2295 126.405 13.214C126.927 13.2004 128.427 12.9588 129.538 12.9338C130.001 12.9243 129.899 13.1798 130.018 13.1778C130.068 13.1768 130.42 12.8659 130.713 12.8584C130.97 12.8522 131.226 12.8482 131.481 12.8459C133.679 12.8251 135.841 12.9222 138.02 12.8523C139.706 12.7987 141.423 12.4979 143.154 12.4585C143.515 12.4507 143.332 12.6804 143.489 12.6824C143.543 12.6823 143.594 12.2916 144.152 12.4265C144.361 12.4748 144.134 12.7557 144.338 12.7613C144.436 12.7639 144.468 12.4218 145.035 12.3213C146.058 12.1381 146.62 12.5681 146.719 12.5504C146.894 12.5166 146.83 12.2371 147.062 12.2169C148.174 12.1185 149.128 12.0259 150.112 11.9534C150.584 11.9218 153.81 11.6893 153.972 11.7277C154.375 11.8169 154.04 12.4267 154.553 12.3762C154.688 12.2188 154.822 12.0613 154.955 11.9039C154.723 11.8045 154.488 11.7051 154.252 11.6056C154.901 11.757 155.56 11.4478 156.033 11.4278C156.121 11.4246 156.923 11.6404 157.308 11.585C157.15 11.7065 156.991 11.8281 156.83 11.9496C156.895 12.0399 156.961 12.1301 157.026 12.2204C157.81 12.025 158.647 11.9704 159.477 11.9296C159.773 11.9146 159.691 12.1507 159.988 12.1363C161.733 12.0508 161.2 11.1368 163.028 12.7802C162.459 12.6681 160.391 13.0606 160.102 13.0209C159.894 12.995 158.964 11.5466 159.378 13.0727C157.703 13.1859 159.108 12.2286 157.544 12.5243C157.589 12.7112 157.633 12.898 157.678 13.0849C157.137 13.2413 156.753 13.3623 156.394 13.0505C156.334 13.9762 154.437 13.5562 153.436 13.6738C151.943 13.8469 150.32 14.1547 148.848 14.2631C148.327 14.3009 148.048 13.9527 147.982 13.9569C147.891 13.9636 147.648 14.2903 147.463 14.3008C146.757 14.3421 144.671 13.8939 144.16 14.7892C148.284 14.6299 152.369 14.4329 156.462 14.1695C155.925 13.7771 160.05 13.4526 160.259 13.4516C160.452 13.4563 160.314 13.7699 160.372 13.7839C160.802 13.8812 161.152 13.4141 161.284 13.4036C161.388 13.3955 161.614 13.5839 161.975 13.55C162.042 13.5439 162.045 13.3255 162.119 13.3188C162.613 13.2782 163.07 13.2428 163.561 13.199C163.591 13.1985 163.742 13.5042 163.865 13.4939C163.988 13.4831 164.08 13.1563 164.111 13.1526C164.486 13.1216 165.182 13.2651 165.543 13.2332C165.669 13.2212 165.56 12.9979 165.7 12.9868C166.136 12.9508 166.044 13.4173 166.573 13.2479C166.751 13.1907 166.702 12.8457 167.052 12.857C167.306 12.8644 167.341 13.4845 167.383 13.5029C167.446 13.5242 168.231 12.9512 168.561 13.3244C168.06 14.4553 169.236 13.3094 169.12 12.8662C169.469 12.9433 169.825 13.019 170.168 13.0955C170.267 12.9693 170.373 12.8421 170.476 12.7153C171.892 13.0755 172.685 12.6695 174.042 12.6679C174.112 12.6676 175.265 12.7864 175.234 12.9524C174.592 13.3082 173.92 13.4014 173.427 12.9437C172.832 13.9981 172.721 13.2279 171.594 13.4886C171.208 13.5772 171.217 13.8428 171.172 13.8513C169.698 14.1545 167.288 14.5198 166.212 13.8422C165.948 14.0786 166.977 14.062 166.596 14.2543C166.385 14.3721 161.209 15.0703 162.795 14.0368C162.625 14.0759 162.454 14.115 162.281 14.154C162.164 15.01 161.312 14.8847 161.338 14.0401C161.27 14.2178 161.202 14.3956 161.133 14.5733C160.985 14.7308 160.788 14.8243 160.532 14.8901C159.532 15.1577 153.403 15.2542 153.111 15.3803C153.115 15.5796 153.118 15.7789 153.122 15.9782C155.838 16.0516 158.381 15.3927 161.382 15.7293C161.281 15.5498 161.181 15.3702 161.08 15.1907C162.263 15.3609 163.463 15.5232 164.656 15.6784C163.438 16.129 161.495 16.5737 160.169 16.3924C159.933 16.3602 160.084 16.0877 160.028 16.0602C159.883 15.9887 159.767 16.4509 159.262 16.5314C158.786 16.6104 157.475 16.3786 157.378 16.3937C157.161 16.4268 156.597 16.982 156.209 16.9999C155.712 17.0222 156.025 16.6817 155.925 16.6812C155.519 16.6751 155.159 16.8559 154.831 16.8518C154.326 16.847 153.335 16.3398 153.033 17.1842C153.382 17.2027 153.726 17.221 154.065 17.2392C152.213 17.6427 150.722 16.6614 148.924 17.5619C148.547 18.5816 150.08 18.3742 148.798 18.8621C149.035 18.8367 149.27 18.8113 149.504 18.7858C149.549 18.5738 149.593 18.3618 149.638 18.1498C150.048 18.2799 150.44 18.4105 150.854 18.5396C150.726 18.3589 150.604 18.178 150.483 17.9969C151.913 17.7851 153.323 17.5144 153.878 18.4883C153.893 18.2442 153.908 18.0001 153.923 17.7561C155.263 17.9763 157.175 16.8209 156.894 18.1928C156.953 18.1173 157.01 18.0418 157.068 17.9662C157.879 18.1895 157.502 17.6543 157.793 17.5716C157.887 17.5482 159.455 17.7276 158.798 18.1758C160.323 18.3746 159.781 17.1461 160.189 17.0607C161.196 17.6143 162.864 16.5362 162.214 17.5809C162.355 17.6067 162.512 17.631 162.66 17.6561C163.081 16.8408 163.594 17.6805 164.153 17.9269C164.331 17.929 164.507 17.9311 164.681 17.9331C164.774 17.6621 164.865 17.3911 164.955 17.1201C166.726 18.2077 165.866 14.8652 166.898 17.6413C166.798 17.8231 166.697 18.005 166.594 18.1868C166.315 18.2955 166.058 18.4016 165.786 18.5087C166.909 18.4798 168.043 18.4428 169.17 18.3997C170.679 19.046 171.385 18.0909 173.03 18.5382C173.17 18.4452 173.308 18.3523 173.445 18.2594C173.371 18.9207 172.795 18.8928 173.882 19.0574C174.027 19.5018 173.323 19.6447 172.949 19.3342C172.859 19.2584 173.492 18.8311 172.737 18.9067C172.225 18.9569 173.221 19.3973 171.656 19.3709C171.725 19.4757 171.795 19.5806 171.864 19.6854C171.698 19.701 171.53 19.7166 171.361 19.7324C171.184 19.4916 170.998 19.2516 170.826 19.01C170.494 19.4231 170.314 19.9713 169.438 19.9523C169.658 19.7657 169.284 19.2825 168.843 19.3373C168.862 19.5238 168.882 19.7103 168.901 19.8968C167.874 20.124 168.161 19.5417 167.339 20.055C167.237 19.9152 167.135 19.7754 167.033 19.6356C166.604 20.2964 164.884 20.8739 165.125 19.9267C164.725 20.8621 163.634 20.5513 163.199 19.869C163.185 20.057 163.171 20.245 163.157 20.433C162.954 20.4878 162.747 20.5427 162.543 20.5972C162.422 20.4941 162.301 20.3909 162.179 20.2877C162.044 20.4115 161.909 20.5353 161.772 20.659C161.669 20.4797 161.566 20.3003 161.463 20.121C161.243 20.3627 161.025 20.6041 160.814 20.8447C160.662 20.7067 160.509 20.5687 160.355 20.4306C160.367 20.8212 158.961 21.0102 158.547 20.7815C158.436 20.9027 158.325 21.0239 158.213 21.1451C158.141 20.9639 158.07 20.7828 157.999 20.6016C157.923 20.7555 157.847 20.9094 157.771 21.0632C157.563 20.9284 157.353 20.7934 157.142 20.6585C156.373 21.6198 156.289 20.8247 156.108 20.8418C155.777 20.8734 154.6 21.5146 154.411 21.4958C154.215 21.4776 154.102 21.157 153.942 21.1354C151.268 20.7705 152.419 21.5825 151.894 21.75C151.613 21.8403 151.395 21.5466 151.141 21.5933C150.72 21.6725 148.545 22.1793 148.438 22.1436C148.256 22.0949 148.614 20.6411 148.047 21.0371C148.066 21.8086 146.76 21.0864 147.402 22.135C146.866 22.0638 146.352 21.991 145.833 21.9177C145.928 22.8287 145.269 22.2674 144.557 22.3457C143.599 22.4551 141.363 23.1347 141.427 22.1936C141.2 22.4169 140.971 22.6402 140.74 22.8634C139.099 22.6222 137.509 22.9787 135.931 23.0324C134.53 23.08 133.17 23.1035 131.709 23.1125C128.214 23.1322 124.643 23.052 121.28 22.9682C121.054 22.9623 121.082 22.6555 120.918 22.6511C120.047 22.6297 117.839 22.875 116.623 22.8212C116.234 22.8043 116.042 22.5076 115.922 22.4953C115.511 22.4514 115.612 22.844 115.422 22.8349C115.125 22.8202 113.529 22.4717 112.973 22.4387C112.696 22.4225 112.386 22.7384 112.068 22.6448C112.041 22.6373 112.088 22.3143 112.065 22.3089C111.489 22.275 111.838 22.5504 111.642 22.5376C110.247 22.4459 108.748 22.4523 107.236 22.3974C106.86 22.3834 106.28 22.1604 105.954 22.1414C105.831 22.1347 106.052 22.3777 105.628 22.3605C105.483 22.3546 105.431 22.0368 105.267 22.0173C104.561 21.9355 104.33 22.9593 103.715 22.1411C102.531 22.203 100.497 22.4773 99.4185 22.4883C99.1638 22.4906 99.0388 22.3033 98.7957 22.3079C98.6222 22.311 98.3247 22.6036 98.0573 22.6084C97.7903 22.613 97.3672 22.3378 96.8523 22.3503C96.3103 22.3629 95.6351 22.5303 95.5124 22.5298C95.3643 22.5304 95.2939 22.1806 95.1458 22.1856C94.6997 22.1987 93.5094 22.5472 92.9336 22.5863C92.3156 22.6279 91.9433 22.4593 91.7317 22.4633C91.5357 22.4686 91.3081 22.7648 91.2192 22.7676C91.0806 22.7726 91.0468 22.4274 90.8707 22.4308C90.5829 22.4373 90.2866 22.6552 89.8545 22.6622C82.0665 22.7901 74.4399 22.6007 66.8664 22.3379C66.0256 22.3085 65.5476 22.5498 64.301 22.4371C63.7965 22.391 64.0097 22.0352 63.6175 22.1018C63.4427 22.1319 63.4863 22.4122 63.2656 22.4253C62.2951 22.482 61.1473 22.2189 60.7243 22.2224C60.5561 22.2234 60.3631 22.5412 60.0191 22.5449C57.4601 22.5748 54.4023 22.4764 51.6571 22.5221C50.1765 22.5463 47.9779 22.7003 46.2924 22.7149C41.6528 22.7562 36.6786 22.659 32.4335 22.669C30.1302 22.6742 27.7491 22.7117 25.4638 22.7393C21.3885 22.7868 17.3684 22.8036 13.3289 22.5612C16.2973 23.3467 20.3871 23.3039 23.6781 23.4047C24.2555 23.4224 24.8493 23.4376 25.46 23.4505C34.4917 23.648 44.082 23.3022 53.3032 23.3479C56.7261 23.3648 61.0452 23.3587 64.7833 23.5434C64.9536 23.5516 65.3072 23.3075 65.6764 23.334C65.7551 23.3402 66.7166 23.7883 67.0426 23.7932C66.7352 22.9992 68.0095 23.7084 68.4058 23.6897C68.9065 23.6654 69.9423 23.2701 71.1059 23.4954C72.163 23.6992 71.8716 24.0041 71.9298 24.0234C72.3042 24.1474 72.4353 23.6555 72.7226 23.606C73.889 23.4091 79.9125 23.6947 81.5925 23.7102C82.0267 23.7143 82.0393 24.0269 82.1371 24.028C82.3962 24.0298 82.7647 23.7205 83.1798 23.7221C83.928 23.7257 84.7911 24.0195 85.2031 24.0199C86.1889 24.0217 88.0565 23.6697 89.3388 23.6596C89.6989 23.6566 89.6777 23.9821 89.8407 23.9805C90.557 23.973 92.4273 23.5838 93.3185 23.5772C94.7617 23.5665 96.2587 23.7708 97.7266 23.6568C97.8204 23.8015 97.9141 23.9463 98.0078 24.091C98.1538 23.938 98.2997 23.7849 98.4455 23.6319C100.94 23.7358 103.476 23.3937 105.941 23.3973C106.23 23.3976 107.648 23.6646 107.882 23.6638C108.078 23.6623 108.267 23.3012 108.557 23.3518C108.962 23.4219 108.587 24.1099 109.246 23.9085C109.423 23.8541 109.247 23.5624 109.608 23.468C109.731 23.4367 112.034 23.297 112.153 23.3159C112.358 23.3481 112.547 23.9744 112.6 23.9874C112.874 24.0556 112.861 23.5737 113.047 23.5279C113.599 23.3908 114.319 23.7075 114.408 23.6994C115.475 23.5992 117.498 23.1911 118.623 23.4043C118.779 23.4341 118.764 23.7932 118.792 23.8045C118.969 23.8766 119.072 23.4666 119.239 23.455C120.15 23.397 121.584 23.6523 122.483 23.7086C122.585 23.7147 122.807 23.5148 122.997 23.5309C124.07 23.6249 123.726 23.9456 123.787 23.9582C123.931 23.9894 124.178 23.6376 124.557 23.6099C125.515 23.5371 127.433 23.5534 128.463 23.5603C129.242 23.5666 129.253 23.9647 129.302 23.9716C129.414 23.9837 129.72 23.6595 130.239 23.6127C131.234 23.5208 131.124 23.836 131.529 23.8136C131.556 23.8131 131.521 23.6267 131.718 23.5255C131.776 23.4971 131.852 23.4754 131.953 23.4663C132.86 23.3856 134.805 23.6394 135.773 23.5973C136.136 23.582 136.213 23.2844 136.58 23.2687C137.142 23.2434 138.523 23.5225 138.618 23.5186C138.647 23.5177 138.703 23.176 138.875 23.1708C139.064 23.1651 139.254 23.3342 139.393 23.3287C140.196 23.2994 141.585 22.6592 141.234 23.8846C141.482 23.5766 141.728 23.2686 141.972 22.9604C143.684 22.9607 145.323 22.7775 146.988 22.6455C147.372 22.6155 147.699 22.8311 148.017 22.8058C148.326 22.7812 149.727 22.3356 149.961 22.3166C150.368 22.2862 152.764 22.1222 153.059 22.1315C153.654 22.1509 154.24 22.6193 154.466 22.5079C154.65 22.4181 154.452 22.1468 154.816 22.0453C155.456 21.8692 156.504 22.1673 156.716 22.1479C156.798 22.1402 156.634 21.9306 157.4 21.8648C157.812 21.8287 158.037 22.0566 158.193 22.0449C158.239 22.0403 158.149 21.6529 158.972 21.6486C159.537 21.6463 159.792 21.9317 159.857 21.9282C159.948 21.9236 160.144 21.5847 160.502 21.5693C161.32 21.5376 162.902 21.784 163.698 21.7437C163.855 21.7359 163.752 21.3526 164.384 21.3337C164.829 21.3207 164.778 21.6375 164.943 21.6353C165.2 21.6316 165.561 21.2166 166.137 21.175C166.863 21.1371 172.279 20.9572 172.558 21.0173C172.753 21.0641 172.967 21.0437 173.077 21.2011C173.018 21.3711 172.958 21.5412 172.899 21.7113C172.015 21.2406 172.413 21.849 172.205 21.915C171.902 22.0101 170.7 22.0606 170.422 22.2353C170.326 22.2981 170.593 22.6175 170.063 22.8535C169.495 23.1056 169.148 22.5221 169.007 23.3829C168.069 22.5402 167.344 23.6078 168.359 23.7729C168.927 23.877 174.341 23.606 175.382 23.5247C176.256 23.4624 177.815 23.0229 178.833 22.9726C179.187 22.9549 179.834 22.9076 180.299 22.9661C180.626 23.007 180.867 23.0991 180.861 23.2853C181.383 23.289 180.792 22.9011 180.894 22.8285C181.107 22.6745 182.758 22.8264 183.065 22.7893C184.574 22.5958 186.475 21.9544 188.01 22.4259C187.947 22.5498 187.885 22.6737 187.823 22.7977C187.501 23.0367 185.928 22.8298 185.797 23.4174C188.053 23.2519 190.335 23.1245 192.642 23.0225C192.574 22.5329 195.452 22.4245 195.6 22.6432C195.557 22.8818 195.515 23.1205 195.473 23.3591C193.812 22.5205 194.005 23.7039 192.892 23.1191C192.45 23.1295 192.601 23.5149 192.387 23.5989C190.265 24.4389 192.312 22.7959 190.679 23.2275C191.203 23.7693 189.866 24.0452 189.272 24.1526C189.135 24.1744 187.339 24.1409 187.129 24.1659C185.941 24.2939 183.946 24.7616 182.76 24.5599C181.841 24.6068 181.38 25.059 180.569 25.238C180.559 25.2402 180.549 25.2422 180.54 25.2441C179.955 25.3659 180.094 25.0743 179.801 25.1028C179.173 25.1642 179.061 26.0487 178.515 24.8963C178.095 25.0962 177.677 25.2969 177.248 25.4992C177.226 25.313 177.204 25.1268 177.182 24.9406C176.905 24.9735 176.621 25.0074 176.338 25.0411C176.278 25.2365 176.217 25.4319 176.156 25.6274C175.218 25.4817 175.544 24.9881 175.312 24.4811C175.113 24.4681 174.912 24.4553 174.708 24.4428C174.6 24.866 174.499 25.2884 174.393 25.7112C173.492 25.784 172.607 25.8528 171.688 25.9217C171.61 25.7424 171.532 25.5631 171.454 25.3838C171.472 25.5697 171.491 25.7556 171.51 25.9415C169.983 26.1492 168.442 26.3468 166.9 26.5312C166.51 26.8711 169.02 26.8552 169.207 26.8512C170.266 26.8459 172.979 26.2395 173.053 26.8995C173.639 26.333 175.553 26.2304 176.198 26.7534C175.313 26.823 174.414 26.8942 173.504 26.9635C173.559 27.182 173.613 27.4004 173.668 27.6188C172.427 26.8555 172.267 26.9237 171.19 27.8982C171.157 27.6006 171.123 27.303 171.089 27.0054C170.379 28.1315 168.742 26.5238 168.827 27.8067C168.362 27.749 167.937 27.6862 167.476 27.6259C166.537 27.8696 168.111 28.7283 164.351 28.6701C164.095 28.6647 164.122 28.3339 163.738 28.3886C163.62 28.4049 163.041 28.9325 161.804 28.9782C161.614 28.9848 161.582 28.7024 161.385 28.6812C160.935 28.6297 160.055 29.2568 160.406 28.3132C158.606 28.1744 159.396 28.8705 158.857 29.2076C158.491 29.4311 158.535 28.8851 158.227 29.0288C157.846 29.2062 158.171 29.7345 156.566 29.5839C156.739 29.5359 156.908 29.4881 157.09 29.4394C156.991 29.297 156.885 29.1549 156.791 29.0121C155.926 29.4229 155.974 28.898 155.596 29.7565C154.891 29.4258 154.369 29.4266 153.455 29.5446C151.741 29.7686 152.656 30.6217 150.627 29.5113C150.318 29.6966 150.006 29.8817 149.689 30.0667C149.143 29.7345 149.533 29.269 148.762 29.2141C149.408 30.0684 147.76 29.8208 147.502 30.6188C147.464 30.4327 147.426 30.2467 147.389 30.0607C147.211 30.0683 147.03 30.076 146.861 30.0831C146.867 30.2333 146.873 30.3836 146.879 30.5339C146.645 30.431 146.411 30.328 146.174 30.2249C146.006 30.381 145.837 30.537 145.667 30.693C145.365 30.3904 145.058 30.0877 144.755 29.7848C144.578 29.7701 144.4 29.7554 144.221 29.7407C144.286 29.9623 144.351 30.184 144.415 30.4056C144.184 30.3395 143.951 30.2733 143.717 30.207C143.999 30.5643 143.85 31.0013 143.122 31.0164C142.524 31.0286 143.148 30.2395 141.9 30.602C141.81 30.6277 141.684 31.1802 140.464 31.3044C139.01 31.452 139.712 31.0331 139.452 31.0276C139.402 31.0269 138.974 31.3156 138.559 31.3674C138.324 31.3968 138.089 31.1813 138.057 31.1828C137.911 31.1973 137.877 31.5128 137.673 31.53C137.155 31.572 136.491 31.4362 135.987 31.4653C135.76 31.4781 135.55 31.6699 135.447 31.6749C135.289 31.6811 135.079 31.4019 134.918 31.4072C134.33 31.4282 133.482 32.3929 133.174 31.0884C132.853 31.8203 132.281 31.5969 131.895 31.4761C131.649 31.3954 131.483 31.3603 131.524 31.6826C130.028 31.4121 126.046 32.477 126.13 31.1156C125.301 32.2918 125.37 31.449 125.017 31.4723C124.622 31.498 124.831 31.7199 124.516 31.7149C123.785 31.703 123.055 31.6174 122.337 31.6235C122.448 31.4357 122.558 31.2478 122.669 31.06C121.909 31.0115 122.178 31.4409 121.399 31.5355C119.959 31.7079 120.56 31.3536 120.341 30.8685C120.401 31.3391 118.702 31.2882 118.533 31.2281C118.429 31.1916 118.873 30.5788 117.838 30.7875C117.897 30.9736 117.957 31.1598 118.016 31.3459C117.543 31.0963 116.245 31.4357 116.031 31.3752C115.931 31.347 115.384 29.8463 114.908 31.0438C114.847 30.8576 114.786 30.6714 114.725 30.4852C114.184 30.7157 113.641 30.9459 113.094 31.176C113.003 30.8403 112.912 30.5046 112.821 30.1689C112.65 30.1706 112.479 30.1723 112.308 30.1739C112.425 30.4716 112.541 30.7693 112.657 31.067C111.601 30.9422 110.299 31.425 110.069 30.4191C109.841 30.6079 109.613 30.7967 109.385 30.9855C109.234 30.6515 109.084 30.3175 108.934 29.9834C107.884 30.0766 107.868 30.3008 107.148 30.6637C107.174 30.4018 107.201 30.1399 107.227 29.8779C106.697 30.2495 105.719 30.5989 104.959 30.6503C104.595 30.6741 103.966 30.3176 103.88 30.3509C103.794 30.3859 102.944 31.8083 102.843 30.5821C101.581 31.1332 101.032 30.5812 100.519 30.5976C100.187 30.6085 100.037 30.9037 99.6609 30.9361C99.1229 30.9829 98.5784 30.8432 98.2715 30.865C98.0949 30.8783 98.0633 31.1656 97.9415 31.1752C97.3652 31.2217 97.7018 30.9267 97.0935 30.9486C97.0373 30.9522 96.5939 31.3045 96.0911 31.2616C95.8103 31.2379 95.0801 30.8468 95.0166 30.848C94.7336 30.8559 94.9633 31.6427 93.9914 30.7367C94.02 30.8863 94.0487 31.0359 94.0774 31.1856C92.8793 31.5698 92.6864 30.9027 92.4437 30.8573C92.4127 30.8536 92.1208 31.1127 91.9454 31.0777C91.6492 31.0178 91.5286 30.6649 91.463 30.6495C91.2324 30.5961 90.4584 30.7538 89.9503 30.4136C90.06 31.4189 88.2825 31.7811 87.8852 30.6434C87.5705 30.8687 87.2574 31.0939 86.9433 31.3192C86.8007 31.132 86.658 30.9448 86.5154 30.7576C86.4293 30.9446 86.3432 31.1316 86.257 31.3186C85.7978 30.908 85.3386 30.4974 84.8795 30.0866C84.851 30.4988 84.8224 30.9109 84.7938 31.3231C84.6654 31.2764 84.5369 31.2297 84.4084 31.1831C84.3077 30.8557 84.207 30.5284 84.1062 30.2011C83.9459 30.2638 83.7856 30.3266 83.6253 30.3893C83.5859 30.6263 83.5465 30.8633 83.5071 31.1003C82.6449 31.3746 83.0855 29.114 81.4449 31.1027C81.1892 30.916 80.9336 30.7294 80.678 30.5428C80.3905 31.4524 79.8482 30.9021 79.4117 31.0045C79.104 31.0768 79.1209 31.4381 78.7018 31.4463C78.2824 31.4543 78.2973 31.1088 78.2647 31.1066C77.923 31.0854 77.6656 31.3901 77.415 31.3294C77.3772 31.3204 77.2826 30.9102 76.9635 30.8842C76.6449 30.8583 76.4512 31.2946 75.9746 31.2123C75.7303 31.1706 75.6598 30.8249 75.4433 30.7943C74.411 30.6454 73.377 32.3952 72.603 30.3186C72.4278 30.5815 71.1612 31.5013 70.6214 31.4478C69.7816 31.3624 70.1058 30.9555 69.7722 30.8805C69.7237 30.8692 69.471 31.0065 68.7615 30.9809C68.6349 30.9763 68.664 31.2063 68.6458 31.2093C67.8185 31.2038 66.2294 31.0199 65.3235 30.9856C65.2426 30.982 64.8163 31.6222 64.1014 30.7587C63.0421 31.3936 61.0409 30.021 59.6422 30.9774C59.4487 30.9972 59.215 30.7673 59.1295 30.7749C58.3963 30.844 58.657 31.5408 56.9852 30.5172C57.1198 30.8725 56.7267 31.1919 56.1761 31.1632C55.3493 31.1202 55.9381 30.46 55.275 30.5121C55.2744 30.699 55.2739 30.8858 55.2733 31.0727C53.7302 30.5653 53.4183 31.3632 51.889 31.3625C51.3333 31.3617 50.5081 30.9448 50.377 30.9431C50.3255 30.9442 49.7178 31.3924 49.6603 31.3956C49.3352 31.408 49.153 31.1996 48.8739 31.1974C47.951 31.1896 46.8215 31.7711 47.0307 30.7079C46.7736 30.9315 46.5172 31.1551 46.2617 31.3787C45.3104 30.2386 44.574 31.8016 44.3742 30.6972C44.1992 30.9243 44.0247 31.1514 43.8505 31.3785C39.7069 31.2458 35.561 31.1107 31.4221 30.9743C31.2638 31.3286 29.4522 31.1932 29.3569 31.1375C28.9331 30.885 29.3823 30.113 28.5212 30.2855C28.4246 30.6242 28.3284 30.9628 28.2324 31.3015C27.1516 31.4063 27.6649 31.0715 27.2338 30.8393C27.0514 30.8801 27.1085 31.1437 26.8633 31.1615C26.4716 31.1904 25.9646 31.2106 25.4191 31.2252C24.0375 31.2596 22.4135 31.2617 21.4004 31.2715C21.1155 31.2745 21.1604 31.0286 21.0724 31.0275C20.8296 31.0285 20.3137 31.3359 19.8202 31.3335C16.7595 31.3151 12.3679 31.1172 9.2778 30.8406C9.06184 30.8214 9.03776 30.5278 8.89517 30.5124C8.69414 30.4923 8.27797 30.7273 8.05338 30.7014C7.85399 30.6778 7.72968 30.4542 7.52493 30.4271C6.56401 30.3003 5.28313 30.6702 4.26233 30.0077C4.17678 29.9518 3.12581 28.7649 3.09051 28.6872C2.9545 28.2266 3.90638 27.5089 2.34542 26.8279C3.7435 26.2478 3.32025 25.2074 1.50327 24.6908C2.43076 24.5647 3.31657 24.4384 4.23369 24.3123C4.23564 24.1893 4.23759 24.0663 4.23954 23.9432C3.40854 23.3291 2.61104 23.122 1.33709 23.0591C1.37923 22.9454 1.42187 22.8316 1.4578 22.7179C2.5688 22.1544 3.91585 22.0562 4.76764 21.2839C3.53503 20.7026 2.27773 20.1212 1.0471 19.5401C1.11787 19.4506 1.16993 19.361 1.23275 19.2715C1.84609 19.0413 3.12932 18.911 3.62654 18.696C5.51633 17.8763 1.99311 18.0667 2.5617 17.5635C4.56376 17.5921 6.54854 17.6208 8.55312 17.6495C8.63006 17.2772 0.952552 16.2076 1.03392 15.083C1.66789 15.0108 2.28431 14.9384 2.91596 14.8662C2.64849 14.579 2.36749 14.2917 2.08147 14.0045C2.15806 13.9144 2.24968 13.8243 2.31773 13.7342C3.36508 13.5176 4.44462 13.3013 5.50032 13.0848C2.26838 13.2912 0.803138 13.1211 0 10.8673C0.123472 10.8102 0.191654 10.7535 0.283701 10.6966C0.975067 12.1078 4.26727 11.6696 6.01432 11.398C5.67729 10.9839 4.11128 11.2943 3.79676 11.0447C3.70151 10.9731 4.03682 10.6886 3.8156 10.5409C3.2538 10.1569 0.886084 9.6545 1.23102 9.18963C1.45392 8.89086 5.28207 8.49939 6.02929 8.53488C4.30586 7.98707 2.46905 7.82155 0.729961 7.15782C1.84444 6.25041 2.82663 5.13814 4.85363 5.09911C5.46865 4.62322 1.19826 3.93732 1.09368 3.67535C1.83197 3.39852 2.58721 3.12185 3.32657 2.8451C2.69708 2.9167 2.07426 2.98833 1.44135 3.05995C1.4399 2.9662 1.43846 2.87244 1.43702 2.77869C3.06425 2.35194 4.53693 1.56098 6.41902 1.62493C6.34829 1.12857 5.23 1.17206 4.7076 1.16482ZM183.554 25.6304C183.624 26.037 182.991 26.0247 182.638 26.0498C182.698 26.1194 182.758 26.1891 182.818 26.2588C182.125 26.2496 180.893 26.2361 180.709 26.8426C180.691 26.9007 180.683 26.9644 180.686 27.0344C180.165 27.1898 180.325 26.4749 180.144 26.415C180.072 26.3908 179.414 26.8697 178.779 26.4484C178.642 26.4662 178.504 26.4841 178.365 26.5023C178.369 26.7654 178.372 27.0285 178.376 27.2916C178.147 26.9984 177.916 26.7057 177.682 26.4135C178.69 26.2664 179.668 26.1259 180.62 25.9975C181.59 25.8664 182.568 25.7444 183.551 25.6306C183.552 25.6305 183.553 25.6305 183.554 25.6304ZM162.546 28.1543C161.718 28.0725 160.496 27.9288 160.791 28.6257C161.297 28.5504 161.785 28.4754 162.301 28.397C162.383 28.3161 162.464 28.2352 162.546 28.1543ZM84.9684 29.4166C84.3226 28.712 83.73 29.3233 82.7332 29.1971C82.7347 29.3462 82.7362 29.4952 82.7377 29.6443C83.1448 29.2859 84.2225 29.5226 84.9684 29.4166ZM201.727 22.0549C201.868 22.1067 202.01 22.1586 202.151 22.2105C201.601 23.0257 201.486 22.4635 200.845 22.5577C200.806 22.5636 200.824 22.7466 200.811 22.7481C200.654 22.7645 200.503 22.5476 200.362 22.5547C200.088 22.5687 199.872 22.7983 199.388 22.8038C199.015 22.8074 199.001 22.4559 198.87 22.4686C198.758 22.4804 197.682 23.48 196.962 23.0855C195.581 22.3296 201.297 21.9848 201.727 22.0549ZM205.81 22.6219C205.674 22.6283 205.538 22.6346 205.402 22.6409C205.799 22.0911 204.973 22.1919 204.369 22.217C204.376 21.6981 205.662 21.8908 206.235 21.7235C206.094 22.023 205.952 22.3225 205.81 22.6219ZM188.889 22.0931C189.398 22.0108 189.349 22.6622 189.338 22.8557C189.176 22.8649 189.014 22.8742 188.852 22.8838C188.864 22.6202 188.877 22.3567 188.889 22.0931ZM192.745 21.673C192.602 22.1188 191.493 22.3617 190.967 22.4248C190.944 22.4261 191.077 22.1777 190.704 22.219C190.591 22.2312 189.539 23.167 189.727 22.1593C190.727 21.9917 191.732 21.8299 192.743 21.673C192.744 21.673 192.744 21.673 192.745 21.673ZM193.891 21.885C193.685 22.0314 193.478 22.178 193.273 22.3248C193.155 22.1232 193.037 21.9216 192.919 21.7202C193.157 21.6578 193.396 21.5956 193.635 21.5337C193.721 21.6508 193.806 21.7678 193.891 21.885ZM29.0789 25.806C29.1285 26.027 29.1782 26.2479 29.228 26.4689C29.4222 26.6052 30.4013 25.6493 30.0939 25.4617C29.7522 25.5765 29.4138 25.6912 29.0789 25.806ZM25.0413 25.322C24.8385 25.2096 24.6374 25.0972 24.4379 24.9848C24.2059 25.3579 23.976 25.7311 23.7483 26.1042C24.3945 26.2744 25.0925 26.4617 25.4453 26.2504C25.6153 26.1418 25.6983 25.9283 25.6437 25.5537C25.8659 25.5548 26.09 25.556 26.316 25.5572C26.1242 26.0126 26.1457 26.1631 26.7403 26.4559C26.8683 25.8214 27.5111 26.1484 28.206 26.0124C27.7121 25.9727 27.1632 25.9327 26.6559 25.893C26.6565 25.781 26.657 25.669 26.6576 25.557C27.8105 25.6035 26.3719 24.8857 25.6479 25.3271C25.5914 25.1777 25.5351 25.0283 25.4788 24.879C25.47 24.8884 25.4612 24.8978 25.4523 24.9072C25.3146 25.0455 25.1776 25.1837 25.0413 25.322ZM107.886 25.6072C107.743 25.4957 107.599 25.3842 107.456 25.2727C106.915 26.7438 108.03 25.3437 108.834 26.4979C108.563 25.6183 109.778 25.645 109.851 25.585C109.708 25.2894 109.564 24.9937 109.42 24.6981C108.908 25.0013 108.399 25.3043 107.886 25.6072ZM103.844 24.6246C104.345 25.353 101.91 25.4134 101.104 25.2565C100.907 25.218 100.553 24.8183 100.41 24.8697C100.325 25.0186 100.239 25.1675 100.153 25.3164C100.049 24.8041 98.4566 25.3891 97.8383 25.6679C97.7787 25.4814 97.7191 25.2948 97.6594 25.1082C97.4323 25.1835 97.205 25.2588 96.9775 25.334C97.0054 25.1477 97.0332 24.9614 97.0609 24.7751C96.8896 24.9998 96.7182 25.2245 96.5466 25.4492C95.87 25.7012 96.2836 24.6844 95.7755 25.0033C95.2103 25.3573 96.1413 25.9579 96.1257 26.3514C96.5852 26.248 97.627 26.0162 98.0908 26.0027C98.3587 25.9953 98.054 26.7017 99.2073 25.8858C99.4619 26.0733 99.7162 26.2608 99.9703 26.4483C100.433 26.1457 100.895 25.843 101.356 25.5402C101.444 25.8008 101.532 26.0613 101.619 26.3219C101.668 26.3625 102.736 25.7633 102.679 25.5675C103.119 26.0639 104.015 26.1472 104.952 26.166C105.041 26.0234 105.131 25.8809 105.22 25.7384C104.316 26.0511 104.93 25.5902 104.658 25.3203C104.501 25.1647 104.021 24.8602 103.844 24.6246ZM35.4048 25.2658C33.8717 25.8951 34.8115 25.3743 33.1887 25.3661C33.2998 25.7039 33.4106 26.0417 33.5221 26.3795C34.3175 25.7674 35.6623 26.1837 35.4064 25.2658C35.4058 25.2658 35.4053 25.2658 35.4048 25.2658ZM19.3019 26.3035C20.1625 26.104 19.7231 25.5772 20.8483 25.4151C20.8489 25.4151 20.8494 25.4151 20.85 25.4151C20.2631 25.3743 19.6928 25.3335 19.1386 25.2929C19.1928 25.6297 19.2473 25.9666 19.3019 26.3035ZM70.2324 26.0902C71.0669 26.2375 70.9028 25.975 71.6613 26.4996C72.7929 25.8648 71.8352 25.9539 71.8357 25.3768C71.5771 25.5458 71.3187 25.7149 71.0605 25.8839C70.4355 25.3436 71.0289 25.0725 71.029 25.0206C71.0284 25.0206 71.0279 25.0206 71.0274 25.0206C71.0276 24.8474 71.0478 24.811 70.808 24.706C70.6161 25.1674 70.4242 25.6288 70.2324 26.0902ZM73.8108 25.3799C73.5245 25.763 73.3953 26.2551 74.1479 26.5011C74.1484 26.5011 74.149 26.5011 74.1495 26.5011C74.2102 25.6446 74.9321 26.3362 75.2619 26.2788C75.3484 26.1857 75.4349 26.0926 75.5214 25.9995C74.9505 25.7931 74.3802 25.5865 73.8108 25.3799ZM86.4176 24.5841C86.4226 25.5303 85.7901 25.6215 86.6821 26.4917C86.8549 26.4745 87.0276 26.4572 87.2004 26.4399C87.3134 26.232 87.4264 26.0241 87.5393 25.8161C89.7391 27.5232 90.3844 24.6065 86.6805 25.7046C86.68 25.7053 86.6795 25.7059 86.6789 25.7066C86.5918 25.3324 86.5047 24.9583 86.4176 24.5841ZM82.5562 24.6701C82.5289 25.1668 82.5016 25.6636 82.4743 26.1603C81.9889 24.9626 81.3644 26.1066 80.4148 25.2619C80.3291 25.413 80.2432 25.5641 80.1573 25.7152C79.8007 25.3833 76.3176 25.2885 77.0725 26.0523C77.4017 26.386 78.1192 25.9326 78.1811 25.9427C78.3904 25.9801 78.6637 26.4068 79.0174 26.3818C79.2218 26.3668 79.6524 25.865 80.0698 25.8656C81.002 25.8673 82.7051 27.2124 83.9298 25.9359C84.0183 26.0855 84.1068 26.2351 84.1954 26.3847C85.1055 26.2919 84.8009 25.818 85.6486 26.3823C86.2295 24.0222 82.245 26.5039 83.073 24.5894C83.0724 24.5894 83.0719 24.5894 83.0714 24.5894C82.8997 24.6163 82.7279 24.6432 82.5562 24.6701ZM57.5173 25.3528C57.4628 24.929 56.4066 25.5797 56.6573 24.5652C56.3126 24.9177 55.9688 25.2702 55.6259 25.6227C55.6283 25.7171 55.6306 25.8115 55.6329 25.9059C55.9729 25.8327 56.3139 25.7595 56.6557 25.6863C56.6566 25.836 56.6574 25.9857 56.6583 26.1355C57.1667 25.5953 59.3057 25.837 59.2333 26.3671C59.347 26.1434 59.4608 25.9198 59.5746 25.6961C60.5854 26.3085 61.4727 25.6622 62.5773 26.2597C62.6632 26.0743 62.749 25.889 62.8349 25.7036C62.8903 25.8535 62.9457 26.0033 63.0012 26.1532C63.4036 26.1729 63.8069 26.1925 64.211 26.2122C65.5297 25.6118 62.9715 24.8264 62.6656 24.9142C62.6246 24.9265 62.6301 25.3142 62.374 25.3745C61.9153 25.4805 59.351 25.0885 58.5682 25.3419C58.562 25.0848 58.5558 24.8276 58.5496 24.5704C58.2047 24.8312 57.8606 25.092 57.5173 25.3528ZM91.3119 25.5837C91.3703 25.8452 91.4291 26.1068 91.4878 26.3683C92.4876 26.1038 93.1163 26.33 92.8575 25.4654C92.857 25.4654 92.8565 25.4654 92.8559 25.4654C92.3418 25.505 91.8265 25.5444 91.3119 25.5837ZM166.097 23.6739C166.023 23.1582 165.506 23.0111 164.916 23.4377C164.96 23.5855 165.004 23.7332 165.048 23.8809C165.33 23.4108 165.828 24.1424 166.825 23.9448C166.8 23.6843 166.775 23.4238 166.75 23.1632C166.536 23.3334 166.318 23.5037 166.097 23.6739ZM90.4521 25.4729C90.1476 25.1652 89.2968 26.1037 89.8584 26.1484C90.2877 26.1822 90.6155 25.6382 90.4521 25.4729ZM15.8768 25.7796C16.0984 25.8355 16.3231 25.8913 16.5509 25.9472C16.671 25.7252 16.7919 25.5032 16.9136 25.2812C16.9131 25.2812 16.9125 25.2812 16.912 25.2812C16.5596 25.4473 16.2146 25.6134 15.8768 25.7796ZM67.3736 26.1296C68.1365 26.0982 68.9068 26.0666 69.6691 26.0349C69.6769 25.8897 69.6846 25.7445 69.6924 25.5994C68.9287 26.1283 68.6168 25.5569 68.4389 25.5217C68.4397 25.5217 68.4405 25.5217 68.4413 25.5217C67.867 25.406 67.3211 25.3207 66.7804 25.1463C66.9779 25.4741 67.1757 25.8019 67.3736 26.1296ZM64.7566 25.2093C64.8823 26.2353 65.0569 26.3552 66.2283 25.6357C66.1822 25.5093 66.1361 25.3829 66.09 25.2566C65.4859 25.3311 65.124 25.5672 65.2335 25.0325C65.0744 25.0914 64.9154 25.1504 64.7566 25.2093ZM76.7247 25.5484C76.5838 25.2219 75.4636 25.5498 75.5246 25.7144C75.5482 25.7798 77.0004 26.1887 76.7247 25.5484ZM174.738 22.5177C174.471 22.4741 174.202 22.4306 173.936 22.3864C174.263 22.2359 174.601 22.0836 174.927 21.9327C174.864 22.1276 174.802 22.3226 174.738 22.5177ZM177.357 20.7369C177.55 20.846 177.081 21.829 178.169 21.9419C177.402 22.0503 176.625 22.1627 175.835 22.2766C176.183 22.085 176.543 21.8918 176.887 21.7009C176.793 21.4453 176.698 21.1897 176.603 20.9342C176.851 20.8686 177.108 20.8021 177.357 20.7369ZM178.266 21.3115C177.82 20.7252 179.546 20.4232 180.03 20.4232C180.083 20.4229 180.122 20.4259 180.142 20.4322C180.189 20.4477 180.455 20.9543 180.544 21.0601C180.397 21.0755 180.25 21.0911 180.103 21.1069C179.928 21.1258 179.752 21.145 179.576 21.1645C179.703 21.319 179.829 21.4737 179.954 21.6285C179.583 21.7258 179.211 21.8246 178.835 21.9247C178.98 21.7393 179.124 21.5542 179.268 21.3693C178.937 21.3489 178.6 21.3301 178.266 21.3115ZM169.175 22.527C169.476 22.5134 169.772 22.4998 170.063 22.4862C169.977 22.2322 169.891 21.9782 169.805 21.7241C169.632 21.7426 169.456 21.7612 169.279 21.7798C169.245 22.0288 169.21 22.2779 169.175 22.527ZM175.056 21.522C174.796 22.8221 173.321 20.2229 174.777 21.0773C174.922 21.1645 175.08 21.3965 175.056 21.522ZM180.96 20.4996C181.714 19.5025 181.718 21.5394 180.869 21.027C180.825 20.9996 180.903 20.5735 180.96 20.4996ZM187.324 19.9527C187.394 19.9552 187.556 20.6021 188.18 19.9382C188.294 20.0063 188.407 20.0744 188.521 20.1427C188.281 20.4597 186.115 20.7844 186.372 20.1163C186.705 20.0831 186.977 19.9549 187.324 19.9527ZM185.03 17.6774C184.701 17.7204 184.372 17.7642 184.043 17.8089C184.168 18.0052 184.293 18.2017 184.418 18.3982C184.26 18.4668 184.103 18.5355 183.946 18.6044C183.641 18.2732 183.335 17.9428 183.027 17.6131C183.739 17.4951 184.454 17.3813 185.17 17.2713C185.123 17.4066 185.076 17.542 185.03 17.6774ZM176.19 18.0468C176.867 18.2264 177.625 17.8593 178.665 17.7871C178.666 17.7877 178.666 17.7883 178.667 17.7889C178.719 17.7861 178.841 18.0568 179.008 18.0498C179.053 18.0477 179.367 17.9828 179.765 17.9144C180.607 17.7681 181.839 17.6136 181.722 17.9517C180.691 18.4802 180.226 17.8743 180.08 18.96C180.005 18.742 179.93 18.5241 179.854 18.3062C179.838 18.3019 179.821 18.2979 179.805 18.2941C178.776 18.0539 178.561 18.8428 178.02 19.1871C178.003 19.0187 177.986 18.8502 177.969 18.6818C177.576 18.7099 177.182 18.739 176.785 18.7689C176.854 18.8729 176.922 18.9768 176.991 19.0809C176.852 19.0973 176.711 19.1139 176.571 19.1305C176.174 18.6725 175.725 18.6084 176.19 18.0468ZM186.551 17.8489C186.769 16.5429 189.826 17.2372 191.188 16.9075C190.503 17.7141 189.362 17.2406 188.576 17.2791C187.06 17.3554 188.136 17.7649 187.892 17.9873C187.773 18.0971 186.862 17.3302 186.551 17.8489ZM173.831 18.5541C174.624 18.5646 175.018 18.2195 175.735 18.6085C175.69 18.7083 175.646 18.808 175.602 18.9076C175.371 18.849 173.465 18.8031 173.831 18.5541ZM193.222 17.1526C191.732 16.7547 192.51 17.8851 191.707 17.0491C192.206 16.9705 192.707 16.8932 193.208 16.817C193.213 16.9288 193.218 17.0407 193.222 17.1526ZM88.7244 20.6475C88.0925 20.6197 87.3866 20.387 87.0109 20.8721C87.4395 20.9461 87.8684 21.02 88.2983 21.0939C88.4404 20.9451 88.5824 20.7963 88.7244 20.6475ZM106.693 15.8293C106.548 15.7143 105.978 16.0611 105.917 16.0616C105.805 16.0624 105.835 15.8934 105.833 15.8493C105.106 15.8851 105.78 16.4038 105.244 16.5214C105.153 16.5409 103.886 16.2908 103.369 16.3153C102.572 16.3531 101.779 16.3238 101.485 16.3345C100.986 16.3522 100.06 16.75 99.2343 16.7745C98.8945 16.784 98.7712 16.4702 98.4325 16.4797C96.2522 16.544 91.9349 16.9915 89.996 16.7967C89.5163 16.7484 89.0575 16.3379 88.8037 16.3721C88.6039 16.5229 88.404 16.6738 88.204 16.8247C87.5843 15.4723 87.3824 16.6768 86.7195 16.8044C86.2984 16.885 86.1007 16.4843 86.0441 16.4854C85.6689 16.494 85.484 16.6853 85.1893 16.7174C84.8585 16.7529 84.3827 16.5727 84.2645 16.6056C84.1919 16.6276 84.4244 17.1605 83.1409 17.152C81.8322 17.1431 80.5427 17.0879 79.2106 17.0637C79.6553 18.6729 80.0378 17.5712 80.5806 17.512C80.7262 17.4961 80.6341 17.7517 80.7609 17.7404C81.119 17.7096 81.8045 17.4579 82.1012 17.5184C82.4214 17.5837 82.3127 18.1762 82.7185 17.9572C82.7391 17.9459 82.6738 17.7014 82.7693 17.6603C83.7288 17.2544 84.0436 17.6795 85.2579 17.6899C86.0614 17.6982 90.9473 17.4437 91.1126 17.6021C91.9912 18.4567 86.8415 18.4761 86.2412 18.4088C86.0305 18.3855 86.2509 18.115 86.0588 18.0635C85.9774 18.0429 85.2467 18.5593 84.5233 18.6032C83.6485 18.6564 81.8909 18.3072 81.0579 18.3202C73.8928 18.4333 66.8322 18.1138 59.6745 18.0891C59.5225 18.0888 59.3212 18.3968 58.8275 18.3956C49.5649 18.3659 39.9034 18.0801 30.545 18.177C28.8297 18.1942 27.1477 18.387 25.487 18.3197C25.1141 18.3052 24.7458 18.2789 24.382 18.2366C24.124 18.4605 23.8687 18.6844 23.6161 18.9083C24.1639 18.7579 25.1353 19.1142 25.4823 19.2251C25.5367 19.2437 25.5741 19.2554 25.5895 19.2566C25.628 19.2591 25.8703 19.0063 26.267 19.0219C26.8257 19.0429 27.0771 19.2644 27.1233 19.2647C27.2683 19.2661 27.1744 19.0314 27.3133 19.0332C28.3655 19.0489 29.1032 18.9863 30.0665 18.989C31.1396 18.9924 31.6435 19.4312 32.43 18.9562C32.5173 19.1435 32.6047 19.3308 32.6923 19.518C33.28 18.713 36.7021 18.8194 38.0909 18.8687C38.5331 18.8844 38.4545 19.2121 38.6036 19.2128C38.6953 19.2129 38.6766 18.7831 39.8061 18.8727C40.3795 18.9182 40.5307 19.2318 40.821 19.223C40.979 19.2177 40.9546 18.9072 41.1822 18.9082C42.5177 18.9142 43.5402 19.0193 44.8428 19.0822C45.2067 19.0995 45.2114 19.3586 45.2902 19.3555C45.5832 19.3451 46.0947 18.9084 46.8486 18.9126C48.1047 18.9198 50.5536 18.9304 51.5853 19.1469C51.7362 19.179 51.8588 19.4902 51.967 19.4861C52.1316 19.4787 52.1974 19.1547 52.2264 19.153C52.7781 19.1492 52.445 19.4497 52.8155 19.3776C53.0154 19.3388 53.2248 18.9696 53.6915 18.9293C54.3083 18.8761 54.1859 19.3147 54.4444 19.2716C54.4717 19.2648 54.4807 18.9595 54.7352 18.9502C55.6997 18.9172 57.0744 18.8507 57.9897 18.8542C58.2508 18.855 58.4487 19.061 58.8101 19.0654C59.5306 19.0744 63.703 18.9527 64.0396 19.0714C64.0756 19.0839 63.7044 19.5335 64.2946 19.5211C64.4665 19.334 64.6385 19.1468 64.8106 18.9596C65.0973 19.2603 65.3844 19.5609 65.672 19.8615C65.6643 18.8246 67.3434 18.6671 67.3263 19.7274C67.5105 19.7706 67.6949 19.8138 67.8794 19.8571C68.2649 19.125 68.5204 19.3958 69.2662 18.9663C69.3827 19.191 69.4966 19.4157 69.6119 19.6405C69.6411 19.4908 69.6702 19.3411 69.6994 19.1914C70.0932 20.0032 70.7429 19.1891 70.8218 19.1847C71.125 19.167 71.3529 19.3734 71.4953 19.3669C72.0266 19.346 73.1818 19.0625 73.7994 19.1946C73.8285 19.2013 73.7997 19.5482 73.9761 19.5911C74.2943 19.6686 74.3254 19.1608 74.7499 19.7574C74.8358 19.6077 74.9216 19.458 75.0074 19.3082C75.0985 19.3857 75.1895 19.4632 75.2806 19.5407C75.8179 19.5011 76.3575 19.4614 76.8941 19.4217C76.4062 20.009 76.9676 20.337 77.4987 19.8747C77.6784 19.7179 77.5189 19.3605 77.5788 19.3063C77.6604 19.2332 80.0725 19.4142 80.2328 19.645C80.3471 19.5323 80.4609 19.4196 80.5749 19.3069C80.6327 19.5321 80.6906 19.7573 80.7485 19.9825C80.8114 19.9037 80.8743 19.8248 80.9371 19.746C81.5649 20.1423 83.193 19.2305 83.4883 19.3019C83.6462 19.34 83.5054 20.3003 84.2619 20.2012C84.2878 19.9375 84.3136 19.6738 84.3395 19.4101C84.5127 19.372 84.6859 19.334 84.859 19.296C85.1841 19.319 85.658 19.7751 85.6737 20.0876C85.7749 19.8999 85.8761 19.7122 85.9773 19.5245C86.2517 20.135 87.7029 19.9155 88.2891 19.5275C88.4608 19.7113 88.6325 19.8952 88.8042 20.079C89.0337 19.8545 89.2631 19.6299 89.4923 19.4054C90.0246 19.3366 89.4631 19.7103 89.5767 19.7411C89.8172 19.8048 91.0376 19.1724 90.9593 19.956C91.1261 19.9575 91.2919 19.9589 91.4595 19.9603C91.5448 19.7361 91.6301 19.5119 91.7155 19.2877C92.0049 20.0589 92.5012 19.7848 93.5186 20.0629C93.6032 19.8848 93.6878 19.7068 93.7724 19.5288C94.0873 19.7802 94.4021 20.0316 94.7166 20.283C94.7799 19.9885 94.8431 19.694 94.9063 19.3995C95.0419 19.3566 95.1799 19.3138 95.3167 19.2709C95.5981 19.9289 96.0951 19.2146 96.3504 19.4853C96.7229 19.8805 96.4387 20.3546 95.7495 20.4488C95.8041 20.9288 97.8536 20.6993 98.3227 20.6618C98.2912 20.5682 98.2596 20.4746 98.228 20.381C97.7468 20.4576 97.2646 20.534 96.7816 20.6104C96.3714 19.4049 97.6851 19.7229 98.2837 19.5644C98.3385 19.5492 98.6462 19.0903 99.2566 19.1298C99.4928 19.1456 100.414 19.8092 100.589 19.8454C102.002 20.1427 100.959 19.1935 102.343 20.0228C102.049 19.3831 102.852 19.9113 103.679 19.782C103.821 19.7599 105.009 19.232 105.089 19.2178C105.588 19.1309 105.048 19.7017 105.77 19.5489C105.857 19.3992 105.944 19.2495 106.031 19.0998C106.201 19.0986 106.371 19.0973 106.541 19.096C107.583 20.4169 107.812 19.4365 108.176 19.308C108.323 19.2561 108.136 19.6042 108.517 19.5279C108.66 19.4994 108.817 19.2098 109.201 19.1862C110.42 19.1128 110.846 20.3435 111.945 19.0483C112.117 19.2329 112.288 19.4174 112.46 19.6019C112.573 19.3775 112.683 19.1531 112.799 18.9287C113.696 19.5677 113.367 18.9073 113.688 18.9119C114.54 18.9236 116.241 19.0316 116.41 19.5638C117.131 18.3281 118.017 19.7019 118.302 19.6504C118.469 19.4992 118.637 19.348 118.804 19.1967C119.005 19.3439 119.204 19.4911 119.406 19.6382C119.292 18.4344 120.356 19.6055 120.455 19.6221C120.575 19.6387 122.157 19.2596 122.749 19.257C123.352 19.2547 124.393 19.5647 124.483 19.5638C124.593 19.562 125.567 19.2184 126.38 19.2074C127.077 19.2006 131.186 19.5837 130.91 19.0507C130.642 18.9077 130.259 18.7868 129.927 18.7237C128.88 18.5348 122.883 18.3642 121.351 18.297C118.254 18.171 115.073 18.2392 111.97 18.1516C111.79 18.1465 111.759 17.8344 111.604 17.8289C111.368 17.8221 110.771 18.1402 110.536 18.1356C109.659 18.1164 108.601 18.0742 108.137 18.07C107.098 18.0625 106.374 17.8798 105.584 17.855C105.339 17.8477 104.099 18.2436 103.239 18.0856C103.083 17.9987 102.926 17.9118 102.77 17.8249C103.213 17.7196 104.368 17.4467 104.902 17.4125C105.696 17.3631 106.117 17.6133 106.413 17.6068C106.662 17.6016 107.924 17.3033 108.494 17.2917C108.672 17.288 108.711 17.6153 108.863 17.6129C109.686 17.5982 110.791 17.5796 111.501 17.2517C111.212 17.3594 113.029 17.5429 113.134 17.5405C113.3 17.5388 113.477 17.2304 113.814 17.2269C114.462 17.2203 114.387 17.8624 115.185 17.2123C115.386 17.397 115.586 17.5816 115.786 17.7662C115.78 16.9123 118.346 18.044 119.035 16.9964C119.066 16.8794 115.755 16.5868 115.498 16.5721C113.879 16.4879 111.474 16.7209 109.891 16.5846C109.406 16.5439 107.925 16.0367 107.81 16.0472C107.629 16.0633 107.795 16.359 107.717 16.3702C106.112 16.6035 106.908 16.0003 106.693 15.8293ZM177.802 17.2914C177.32 17.3115 176.84 17.3325 176.352 17.355C176.364 17.1647 176.378 16.9743 176.391 16.7839C176.621 16.8301 176.85 16.8766 177.076 16.9234C177.231 16.7926 177.389 16.6615 177.544 16.5308C177.63 16.7843 177.716 17.0378 177.802 17.2914ZM178.887 16.3792C179.289 16.2402 179.351 16.6316 179.448 16.6406C179.511 16.6468 179.571 16.6427 179.63 16.6324C179.838 16.5958 180.024 16.4793 180.239 16.4618C180.134 16.9228 179.917 17.0822 179.674 17.0482C179.407 17.0109 179.106 16.741 178.887 16.3792ZM170.178 17.0498C170.276 17.0842 171.035 18.0182 171.649 17.0011C172.232 17.2353 172.802 17.4699 173.383 17.7024C172.405 17.3584 171.189 17.9744 170.725 18.0073C170.554 18.0193 170.487 17.7144 170.35 17.7245C169.541 17.7885 168.857 18.5669 168.66 17.5537C169.454 17.7715 170.046 17.0086 170.178 17.0498ZM174.977 16.8619C175.128 17.0603 175.278 17.2587 175.427 17.4572C174.979 17.5107 174.522 17.5654 174.069 17.6192C174.167 17.3886 174.264 17.1581 174.36 16.9277C174.562 16.9062 174.772 16.8838 174.977 16.8619ZM139.673 18.6478C139.962 18.6413 140.248 18.6346 140.532 18.6279C140.511 18.4719 140.186 18.4832 140.061 18.3814C140.062 18.3814 140.062 18.3813 140.063 18.3813C139.925 18.2662 139.976 18.0629 139.728 17.9817C139.71 18.2037 139.691 18.4258 139.673 18.6478ZM23.2873 18.2347C22.7835 18.2208 18.4666 18.197 18.8309 18.7699C19.0256 19.0561 20.4798 18.815 20.947 18.822C21.5153 18.8308 23.1297 19.4568 23.2873 18.2347ZM15.5798 18.0829C15.4873 18.6514 18.2088 18.7562 18.4795 18.6586C18.4225 18.5772 18.3354 18.3961 18.2599 18.3548C17.8997 18.1567 16.1447 18.2414 15.5798 18.0829ZM123.875 17.3663C124.099 17.6506 124.323 17.9347 124.546 18.2189C124.483 17.8455 124.419 17.4722 124.355 17.0988C124.196 17.188 124.035 17.2772 123.875 17.3663ZM102.594 17.9998C98.9464 18.0039 95.286 18.0019 91.6333 17.995C91.9549 17.8384 92.2763 17.6818 92.5974 17.5251C95.7359 17.5699 99.1113 17.7121 102.138 17.4537C102.288 17.6358 102.442 17.8178 102.594 17.9998ZM168.966 15.4851C168.021 15.5795 167.279 15.9312 166.209 15.5947C167.145 15.0787 167.689 15.6829 168.563 14.9639C168.564 14.9639 168.564 14.9638 168.565 14.9638C168.699 15.1376 168.833 15.3114 168.966 15.4851ZM148.033 16.8755C148.305 16.6012 148.563 16.3274 148.847 16.0521C148.489 16.0688 148.169 16.0835 147.826 16.0989C147.895 16.3577 147.964 16.6166 148.033 16.8755ZM70.7283 16.6144C69.7551 17.1848 67.2419 16.1477 66.451 16.8336C66.3997 16.8786 66.8705 17.1693 66.1078 17.7295C66.6832 17.6155 67.0908 17.4987 67.1344 17.0573C67.3055 17.2072 67.4767 17.3572 67.6481 17.5072C67.9328 17.3943 68.2179 17.2814 68.5033 17.1685C68.4719 17.6081 68.4943 17.5847 68.9332 17.2843C69.1328 17.3959 69.3342 17.5074 69.5318 17.619C69.6162 17.4329 69.7005 17.2468 69.7849 17.0607C69.9567 17.3213 70.1285 17.5818 70.3005 17.8424C70.9724 17.5606 70.5639 17.0556 70.7283 16.6144ZM74.1548 16.7241C73.9996 16.6276 69.4551 16.9398 71.5186 17.8182C72.0548 17.7906 72.5933 17.763 73.1295 17.7353C72.6874 16.2832 74.1442 17.5823 74.2645 17.6128C74.8381 17.7548 75.5703 17.4097 75.9875 17.4276C76.346 17.4434 76.5602 17.7039 76.8114 17.6971C77.6681 17.6746 79.0242 17.6645 79.2106 17.0637C78.5432 17.0515 77.8657 17.0452 77.1728 17.0604C76.4416 17.0762 75.7919 16.5093 74.4148 17.2866C74.0743 17.2029 74.1959 16.7489 74.1548 16.7241ZM149.713 16.0715C149.705 16.6768 151.431 16.4458 151.433 16.2062C151.43 16.0664 150.861 16.099 150.775 16.0502C150.774 16.0503 150.774 16.0503 150.773 16.0503C150.738 16.0289 150.9 15.7895 150.626 15.739C150.319 15.8502 150.021 15.9608 149.713 16.0715ZM30.054 16.9206C29.8816 16.6781 27.0902 16.6563 25.4954 16.7226C24.8207 16.749 24.3532 16.7896 24.3075 16.8358C24.2645 16.8806 24.3233 17.0295 24.306 17.1151C24.6621 16.9808 25.0659 16.9315 25.4943 16.9307C26.4919 16.9283 27.7022 17.2313 28.5162 17.2622C28.842 17.274 28.7463 17.0336 28.7646 17.0292C28.7654 17.0292 28.7662 17.0292 28.767 17.0292C28.9507 17.0295 29.7957 17.62 30.054 16.9206ZM64.7366 17.106C64.9644 17.2008 65.1924 17.2956 65.4207 17.3904C65.479 17.2037 65.5373 17.0169 65.5956 16.8302C65.5951 16.8302 65.5946 16.8302 65.5941 16.8302C65.3079 16.9221 65.0221 17.0141 64.7366 17.106ZM56.859 16.4723C56.914 16.6039 56.9689 16.7356 57.0239 16.8672C57.5961 16.8871 58.1732 16.9069 58.7477 16.9266C58.6904 17.0007 58.6324 17.0748 58.574 17.1488C59.4354 17.3495 59.7929 16.8882 60.2536 16.9558C60.2531 16.9558 60.2526 16.9558 60.252 16.9558C60.3016 16.9637 60.3609 17.2378 60.5455 17.2475C60.9673 17.27 62.1893 17.3747 62.3339 17.0993C62.65 16.5118 60.194 16.7854 59.7445 16.7573C59.5394 16.7444 59.2937 16.504 59.1694 16.4981C59.0323 16.4924 58.8492 16.8158 58.513 16.8049C58.414 16.8013 57.3261 16.4174 56.859 16.4723ZM46.7522 16.8302C46.9273 17.1274 47.2978 16.8425 47.4338 16.8915C47.4662 16.903 47.2125 17.1502 47.5187 17.2258C47.6061 17.0568 47.6935 16.8879 47.7811 16.719C47.4367 16.7561 47.0938 16.7931 46.7522 16.8302ZM152.599 15.6374C152.536 15.5774 151.631 15.6491 151.584 15.6918C151.061 16.2614 152.96 16.1015 152.599 15.6374ZM175.921 12.9297C175.592 12.4624 177.577 12.3592 179.176 12.3438C180.075 12.3345 180.849 12.3521 181.024 12.3206C181.046 12.8141 179.799 12.4373 180.493 13.0507C180.209 12.9107 179.724 12.9064 179.239 12.9408C178.641 12.9831 178.044 13.0841 177.822 13.049C177.578 13.0109 177.47 12.5936 177.433 12.5842C177.287 12.5519 176.106 13.1866 175.921 12.9297ZM185.228 12.3087C184.741 12.2498 184.253 12.1927 183.765 12.1374C184.328 12.0366 184.891 11.9382 185.455 11.8421C185.379 11.9976 185.303 12.1531 185.228 12.3087ZM185.816 12.0419C185.768 11.5638 187.427 11.8198 187.85 11.6855C187.415 12.5279 186.561 11.8117 185.816 12.0419ZM158.68 14.0197C157.912 13.7561 157.683 15.2354 158.557 14.5374C158.583 14.5145 158.713 14.0342 158.68 14.0197ZM70.4977 14.5595C70.3696 14.5504 68.7742 14.0752 68.6789 14.3095C68.3836 15.0571 69.4398 14.7584 69.7871 15.0412C70.3525 15.4994 69.5191 15.8757 70.9022 15.6009C70.8454 15.7506 70.7887 15.9003 70.732 16.0499C71.5419 16.1003 71.2779 15.0628 71.4234 14.9295C71.4679 14.889 71.9749 14.9766 72.0666 14.9105C73.2108 14.0757 70.6152 14.5667 70.4977 14.5595ZM140.063 14.8229C138.533 14.4318 139.229 15.0557 137.677 15.0626C137.649 15.3934 139.854 15.1193 140.063 14.8229ZM85.1143 15.1473C83.5613 15.2794 82.2847 14.8504 80.8377 15.4298C80.9322 16.3208 85.5175 15.377 85.1143 15.1473ZM12.1809 14.0163C16.3563 15.1308 20.8932 15.2467 25.5034 15.2145C27.5224 15.1995 29.6236 15.1547 31.6015 15.1571C32.3006 15.1584 32.3696 15.5118 32.6259 15.4748C32.7944 15.4508 32.7662 15.1663 32.991 15.1661C40.9828 15.1602 48.6008 14.8209 56.254 15.0135C56.7287 15.0263 59.088 15.6434 59.5802 14.7238C59.9583 14.0262 58.2842 14.5665 57.9966 14.5595C57.7848 14.5544 57.7767 14.226 57.6358 14.2245C57.4862 14.223 57.6091 14.4476 57.4356 14.4505C56.7003 14.4642 55.9031 14.3742 55.246 14.3914C48.7296 14.5552 42.3965 14.4761 35.9481 14.4132C35.1523 14.4059 35.3192 14.1437 35.2788 14.1423C35.2782 14.143 35.2777 14.1436 35.2772 14.1443C32.2223 14.1112 28.8384 14.4032 25.5073 14.4664C24.2329 14.4896 23.0508 14.4819 21.8319 14.4146C18.7146 14.2172 15.562 14.0197 12.4506 13.8224C12.3609 13.887 12.2789 13.9517 12.1809 14.0163ZM73.8128 15.4896C73.4226 14.4974 73.3381 15.4977 71.9326 15.092C71.8182 15.2612 71.7039 15.4304 71.5897 15.5995C72.3315 15.563 73.0767 15.5264 73.8152 15.4896C73.8144 15.4896 73.8136 15.4896 73.8128 15.4896ZM64.5535 15.1175C64.3178 13.7774 61.1832 14.7179 59.7722 14.4586C59.511 15.1308 61.563 14.8335 62.0524 14.9054C62.2955 14.9409 63.5789 15.6356 64.5666 15.2542C64.5622 15.2086 64.5578 15.163 64.5535 15.1175ZM170.433 11.592C170.209 11.6565 169.99 11.7202 169.771 11.7836C170.344 11.8697 170.928 11.9533 171.513 12.0352C170.602 12.0439 169.691 12.0493 168.781 12.05C168.919 11.7557 169.05 11.4621 169.192 11.167C169.613 11.3087 170.008 11.4523 170.433 11.592ZM167.533 12.0468C169.087 11.7806 167.536 12.6904 167.098 12.4009C166.839 12.2276 167.375 12.0744 167.533 12.0468ZM163.388 11.9574C164.088 11.408 165.559 11.2368 165.125 12.2562C164.275 11.8762 163.805 12.2999 162.636 12.1352C162.789 11.935 162.939 11.7347 163.087 11.5344C163.088 11.5343 163.089 11.5343 163.09 11.5342C163.185 11.6756 163.288 11.8164 163.388 11.9574ZM168.188 11.386C169.281 11.8358 166.271 11.9535 167.176 11.4902C167.224 11.4687 168.137 11.3702 168.188 11.386ZM18.861 13.0436C18.7406 13.3615 19.5287 13.3596 19.7935 13.3824C20.9677 13.4833 22.4353 13.3524 23.6466 13.4027C23.5582 13.2974 23.4701 13.1922 23.3824 13.0869C21.8529 13.0723 20.3485 13.0579 18.861 13.0436ZM27.4138 13.4245C28.2717 13.429 29.048 13.433 29.8963 13.4374C29.9742 13.4378 30.344 13.1664 30.0705 13.0985C29.1612 13.2071 28.3268 13.316 27.4138 13.4245ZM79.0366 13.5795C78.4019 13.4014 80.2289 12.4862 80.1474 13.4656C79.7771 13.5036 79.4068 13.5415 79.0366 13.5795ZM84.9397 13.1828C84.542 13.2765 84.1439 13.3702 83.7463 13.4638C83.7456 13.3512 83.745 13.2386 83.7443 13.126C84.1425 13.1449 84.5413 13.1639 84.9397 13.1828ZM15.6076 12.8019C15.9988 13.1893 17.0626 13.1356 17.6538 13.1466C17.2546 12.8133 16.1707 12.9705 15.6076 12.8019ZM69.5337 13.1816C69.5864 13.4444 67.0559 13.375 67.9322 12.914C68.465 13.0033 69.0015 13.0925 69.5337 13.1816ZM64.405 12.7852C64.9471 12.7288 65.3684 12.8197 65.2558 13.2321C64.9676 13.214 64.6798 13.1959 64.3924 13.1778C64.3966 13.0469 64.4008 12.9161 64.405 12.7852ZM160.528 11.4038C159.643 11.5093 158.734 11.6126 157.837 11.7115C157.863 11.5968 157.889 11.4821 157.915 11.3674C158.775 11.2715 159.654 11.1708 160.505 11.0686C160.513 11.1803 160.52 11.2921 160.528 11.4038ZM15.094 11.7875C14.4447 11.8576 13.8663 11.9281 13.2088 11.9982C13.8661 12.0772 14.4442 12.1558 15.0933 12.2347C15.0941 12.085 15.0948 11.9352 15.0956 11.7855C15.0951 11.7862 15.0945 11.7868 15.094 11.7875ZM172.664 8.7368C169.863 8.53665 173.293 7.57592 174.119 8.25283C174.119 8.25208 174.12 8.25135 174.121 8.25061C174.192 8.31073 174.097 8.6544 174.219 8.77391C173.922 8.6592 173.615 8.54576 173.322 8.43047C173.091 8.64489 172.852 8.86012 172.62 9.07436C172.528 9.01177 172.437 8.9492 172.344 8.88664C172.451 8.83665 172.558 8.78671 172.664 8.7368ZM184.019 7.2614C186.602 7.13427 184.028 8.14209 182.7 7.60149C182.696 7.44981 183.781 7.27304 184.019 7.2614ZM177.269 8.07792C176.873 8.19803 176.482 8.31857 176.09 8.43984C176.028 8.35203 175.966 8.26424 175.904 8.17646C176.197 8.04767 176.498 7.91824 176.795 7.78984C176.952 7.88584 177.111 7.9818 177.269 8.07792ZM164.222 8.05189C163.599 8.00355 162.885 9.12361 164.872 8.66461C164.861 8.55257 164.849 8.44052 164.838 8.32848C164.76 8.35383 164.534 8.48086 164.52 8.47369C164.48 8.44905 164.49 8.07052 164.222 8.05189ZM188.627 3.98771C188.698 3.94105 188.676 2.75157 189.511 3.93842C189.74 3.85158 189.968 3.76504 190.197 3.67877C190.27 3.9372 190.343 4.19564 190.416 4.45412C189.508 4.29573 189.44 4.83073 189.375 4.84514C189.08 4.91039 189.286 4.62671 189.093 4.63324C188.596 4.65014 187.474 4.89883 187.942 4.09291C188.112 3.80411 188.555 4.03448 188.627 3.98771ZM186.82 3.4168C186.936 3.50891 186.604 3.87789 186.693 3.97072C186.772 4.05097 187.881 4.3394 187.621 4.94322C187.442 4.92909 187.262 4.91516 187.083 4.90144C187.012 4.74466 186.942 4.58791 186.871 4.43119C186.708 4.59011 186.544 4.74921 186.381 4.90848C186.065 4.53117 185.407 4.05988 186.126 3.68812C185.856 3.73966 185.586 3.79169 185.317 3.84422C185.189 4.04358 185.061 4.24306 184.934 4.44266C184.987 4.14845 185.041 3.85426 185.095 3.56009C185.671 3.51007 186.246 3.46237 186.82 3.4168ZM195.191 3.13243C195.164 3.28321 195.136 3.434 195.109 3.58478C196.083 3.27148 197.605 3.11932 196.768 4.08459C195.445 4.20445 194.118 4.32971 192.787 4.46286C192.694 4.35398 192.601 4.24515 192.507 4.13635C193.52 4.5288 193.139 2.69626 194.027 3.19226C194.176 3.27664 193.777 3.93728 194.679 3.49066C194.641 3.34156 194.603 3.19245 194.564 3.04335C194.774 3.07288 194.982 3.10258 195.191 3.13243ZM203.586 3.12504C201.922 2.94721 203.737 2.35834 204.054 2.80567C204.053 2.80568 204.052 2.80569 204.052 2.8057C204.918 4.02935 203.103 3.47003 202.992 3.48071C202.845 3.49517 202.526 4.39264 201.697 3.11496C202.327 3.11784 202.958 3.12128 203.586 3.12504ZM198.14 3.04079C198.28 3.00744 198.209 3.2356 198.269 3.23051C198.27 3.23049 198.271 3.23048 198.271 3.23046C199.167 3.15533 201.285 2.89905 201.532 3.62303C200.876 3.69843 197.921 3.93617 197.724 3.44767C197.863 3.31199 198.002 3.17637 198.14 3.04079ZM191.819 3.81025C191.241 3.3631 192.492 3.24488 192.828 3.45057C192.892 3.49542 192.416 4.27347 191.819 3.81025ZM150.228 6.08303C149.078 6.42498 150.621 6.63165 150.11 7.10191C150.337 7.05274 150.563 7.00342 150.786 6.95408C150.601 6.66378 150.415 6.37343 150.228 6.08303ZM96.2045 6.2382C95.9262 6.1869 96.0591 6.45746 96.035 6.46157C95.8522 6.45479 95.6789 6.23463 95.6088 6.25828C94.312 6.70941 95.1765 6.93363 95.1899 6.98653C95.2184 7.25465 94.8782 7.56989 95.3525 7.87453C95.6393 7.77831 95.9257 7.68207 96.2119 7.58579C96.3548 7.73426 96.4976 7.88273 96.6403 8.03119C97.2075 7.70881 96.4631 7.62438 96.3768 7.20032C96.3436 7.03363 96.8778 6.83159 96.2045 6.2382ZM148.084 5.28719C147.92 5.76652 147.489 6.38113 147.96 6.83355C147.961 6.83353 147.961 6.8335 147.962 6.83348C148.045 6.91641 148.399 6.94767 148.513 7.06406C149.245 6.40087 148.926 5.76699 148.084 5.28719ZM101.33 5.36879C101.79 5.47616 102.248 5.58345 102.714 5.69059C102.708 5.97317 102.702 6.25576 102.695 6.53835C102.448 6.46371 102.196 6.38906 101.952 6.31435C101.867 6.44376 101.781 6.57317 101.696 6.70258C102.002 7.02304 102.311 7.34344 102.621 7.66379C102.992 7.54888 103.361 7.43391 103.73 7.31887C103.559 7.1709 103.388 7.02291 103.217 6.87491C104.12 6.70453 103.927 7.39285 104.675 7.65045C104.928 7.387 105.18 7.12352 105.433 6.86002C105.8 7.12043 106.18 7.38068 106.552 7.64091C107.175 7.51334 107.228 7.31258 106.806 7.01595C107.114 6.67096 107.457 7.20726 107.827 7.06466C107.858 7.05315 107.797 6.7309 107.824 6.72679C109.736 6.49376 109.651 7.34146 109.958 7.37496C110.177 7.39785 111.039 6.8181 111.05 6.62295C111.063 6.35995 109.26 5.34056 112.069 5.28714C110.617 4.58446 108.951 5.32814 110.038 6.37034C109.566 6.2689 107.548 6.54782 107.415 6.51713C107.225 6.47097 107.288 6.07151 107.051 6.06291C106.912 6.05831 106.543 6.97328 105.428 6.18427C105.288 6.335 105.148 6.48572 105.008 6.63644C104.875 6.51432 104.742 6.39219 104.609 6.27005C104.878 5.82941 105.147 5.38874 105.416 4.94803C104.343 5.43243 103.438 4.54258 102.781 5.3015C102.207 5.21721 101.93 5.13197 102.172 4.74469C102.001 4.74572 101.832 4.74673 101.661 4.74773C101.551 4.95476 101.44 5.16178 101.33 5.36879ZM144.679 6.10813C144.098 5.69285 143.927 6.6451 144.018 6.69514C144.532 6.96954 144.98 6.32412 144.679 6.10813ZM97.2362 6.73557C97.8633 6.97619 98.4825 7.21669 99.1149 7.45695C99.1134 7.15813 99.1119 6.85932 99.1103 6.5605C98.4796 6.61906 97.8619 6.67737 97.2362 6.73557ZM150.368 5.40321C150.436 5.62396 150.505 5.8447 150.574 6.06542C151.217 5.21338 151.91 6.35129 152.249 6.08984C152.319 6.03294 152.15 5.64624 152.005 5.56922C151.916 5.52157 150.493 5.32177 150.368 5.40321ZM178.323 2.98631C178.281 3.01584 178.238 3.04538 178.196 3.07494C177.985 3.22339 177.775 3.37212 177.567 3.52111C177.554 3.26904 177.541 3.01697 177.529 2.7649C177.656 2.70387 177.784 2.64294 177.911 2.58212C177.998 2.66715 178.085 2.75224 178.171 2.83737C178.222 2.887 178.272 2.93664 178.323 2.98631ZM175.359 3.72155C174.892 3.75599 174.435 3.79011 173.974 3.82481C175.691 3.3879 174.244 3.44607 175.273 2.99415C175.302 3.23662 175.33 3.47908 175.359 3.72155ZM170.731 3.75606C170.768 3.60039 170.805 3.44473 170.842 3.28908C171.279 3.23837 171.73 3.1853 172.175 3.13254C171.827 2.64804 171.493 2.16175 171.148 1.67641C170.983 1.69442 170.823 1.71183 170.662 1.7291C170.686 2.40472 170.709 3.08038 170.731 3.75606ZM83.8989 5.14941C83.6236 5.14081 82.6662 5.59827 82.7074 5.76616C83.1056 5.97207 83.5039 6.17793 83.9022 6.38374C83.9036 6.08427 83.905 5.7848 83.9064 5.48533C83.9629 5.63433 84.0194 5.78333 84.0759 5.93234C84.3022 5.82003 84.5284 5.70771 84.7546 5.59538C84.8691 5.85691 84.9837 6.11843 85.0982 6.37996C85.2124 6.08095 85.3265 5.78193 85.4406 5.48292C84.3469 4.95498 84.3852 5.48434 84.1577 5.47911C84.0423 5.47674 83.969 5.29143 83.928 5.19819C83.9183 5.18193 83.9086 5.16567 83.8989 5.14941ZM97.6588 4.8274C96.3583 4.75906 95.6107 5.55054 94.6655 4.8949C95.28 6.29749 99.1742 4.82936 100.562 5.99225C100.704 5.76621 100.845 5.54017 100.987 5.31411C100.24 5.51892 99.7162 5.05772 99.3494 4.9929C99.0578 4.94142 99.0894 5.1773 99.0671 5.17403C99.066 5.17404 99.0649 5.17404 99.0639 5.17405C98.3787 5.08057 98.1728 4.85432 97.6588 4.8274ZM151.262 4.25373C150.905 3.91637 150.302 3.98297 150.32 4.50214C150.667 4.63506 151.01 4.76783 151.348 4.90045C151.273 4.77122 151.323 4.31144 151.262 4.25373ZM170.049 2.37385C169.772 2.23545 169.162 2.45298 169.482 2.8685C169.541 2.94214 170.122 2.55881 169.852 3.40464C170.448 3.32424 170.215 2.45264 170.049 2.37385ZM119.918 5.70084C120.149 5.68274 120.379 5.6646 120.609 5.64643C120.659 5.43608 120.71 5.22572 120.76 5.01536C120.481 5.24391 120.2 5.4724 119.918 5.70084ZM154.125 3.73228C154.491 4.73809 154.922 3.71166 155.539 4.51765C155.749 4.51079 155.958 4.50387 156.164 4.49691C156.165 4.49688 156.165 4.49685 156.166 4.49681C156.153 4.21711 156.14 3.9374 156.128 3.65769C155.453 3.68481 154.797 3.7089 154.125 3.73228ZM105.589 5.33938C105.729 5.46858 105.875 5.59774 106.018 5.7269C106.27 5.57336 106.522 5.41979 106.774 5.2662C106.636 5.15851 106.499 5.05082 106.361 4.94312C106.104 5.07524 105.844 5.20735 105.589 5.33938ZM157.735 3.40979C157.008 3.33159 156.793 4.2402 157.719 4.1784C158.105 4.15129 158.487 3.49112 157.735 3.40979ZM69.7176 5.48282C69.9712 5.55926 70.2249 5.6357 70.4789 5.71212C70.5656 5.52471 70.6523 5.3373 70.7391 5.14988C70.3982 5.26089 70.0577 5.37186 69.7176 5.48282ZM173.508 2.06893C173.5 2.25863 173.493 2.44833 173.486 2.63803C173.257 2.62733 173.024 2.61711 172.796 2.60631C172.829 2.41485 172.864 2.22311 172.899 2.03144C173.103 2.04385 173.306 2.05634 173.508 2.06893ZM71.4272 5.5997C71.6306 5.63567 71.8342 5.67164 72.0379 5.70759C72.1748 5.61655 72.3118 5.5255 72.4489 5.43445C72.2582 5.34383 72.0676 5.25321 71.8771 5.16257C71.7271 5.30828 71.5771 5.45399 71.4272 5.5997ZM164.5 2.94415C164.213 2.74508 163.162 3.54622 164.179 3.63311C164.818 3.68795 164.542 2.97449 164.5 2.94415ZM165.944 2.57869C164.876 2.25189 165.856 4.34877 166.96 2.81504C165.737 3.13509 166.004 2.59826 165.944 2.57869ZM175.14 0.404185C175.169 0.402005 175.226 0.710755 175.454 0.695932C176.246 0.643126 177.321 0.642628 177.935 0.602102C177.951 0.601044 177.966 0.599958 177.981 0.598844C179.436 0.476376 183.803 -0.455412 184.375 0.423571C184.495 0.605906 184.292 1.19133 184.337 1.21743C184.469 1.28944 185.179 0.962852 185.073 1.39041C184.359 1.43661 183.644 1.48634 182.927 1.54001C183.079 1.2314 183.232 0.92297 183.386 0.614716C181.606 0.913235 182.197 0.850444 181.736 1.53421C181.412 1.31165 181.086 1.08992 180.759 0.869066C180.118 1.17852 179.479 1.49137 178.841 1.80783C178.973 1.60673 179.105 1.40577 179.237 1.20497C178.232 0.967977 178.484 1.14812 178.043 1.62264C178.029 1.63721 178.015 1.65206 178 1.66719C177.98 1.4815 177.959 1.29582 177.938 1.11013C177.022 1.666 176.782 1.1313 176.572 1.14772C176.144 1.1852 175.856 3.44182 174.034 1.44363C173.497 2.57302 173.266 0.433169 173.011 1.56568C171.77 0.514361 173.904 0.692694 174.933 0.611366C174.934 0.611303 174.934 0.611241 174.935 0.611177C175.012 0.605525 174.867 0.420568 175.14 0.404185ZM169.652 2.15358C170.185 1.1173 167.639 1.3088 168.632 2.60927C168.762 2.64085 168.891 2.67242 169.02 2.704C169.227 2.52115 169.445 2.33685 169.654 2.15341C169.653 2.15346 169.653 2.15352 169.652 2.15358ZM145.567 3.26105C143.181 3.75736 144.575 4.26027 145.363 3.68193C145.52 3.56716 145.601 3.41527 145.567 3.26105ZM95.7932 4.08959C95.7578 4.20628 95.7224 4.32296 95.687 4.43964C96.5116 4.32725 98.1 4.76934 98.0739 3.98365C97.3159 4.0192 96.5555 4.05451 95.7932 4.08959ZM102.289 3.54283C102.11 3.49654 101.394 3.38888 101.482 3.68239C101.795 3.8889 102.104 4.09539 102.421 4.30178C102.566 4.17068 102.712 4.03958 102.857 3.90847C102.653 3.86547 102.337 3.55493 102.289 3.54283Z" fill="#FEF08A"/>
</svg>
