<svg width="24" height="24" viewBox="0 0 24 24" fill="none" xmlns="http://www.w3.org/2000/svg">
<g clip-path="url(#clip0_1434_51)">
<path fill-rule="evenodd" clip-rule="evenodd" d="M19.9194 12.42C18.2894 12.18 10.2994 12.54 9.6194 12.54C8.7194 12.54 8.8194 12.82 8.6194 12.03C8.57872 11.3133 8.36606 10.617 7.9994 9.99995C7.1894 9.18995 1.8194 9.99995 1.1594 11.42C0.829403 12.11 1.5494 13.8 1.7694 14.52C2.34788 16.9038 3.09646 19.2431 4.0094 21.52C4.04256 21.5929 4.10332 21.6497 4.17834 21.6778C4.25335 21.7059 4.33647 21.7031 4.4094 21.67C4.48234 21.6368 4.53912 21.576 4.56725 21.501C4.59538 21.426 4.59256 21.3429 4.5594 21.27C3.73047 19.0133 3.06214 16.7009 2.5594 14.35C2.2579 13.542 2.06293 12.6983 1.9794 11.84C2.2994 11.2 5.1594 10.73 5.9794 10.74L7.3694 10.8C7.6094 11.15 7.5494 12.8 8.1494 13.41C8.7494 14.02 12.4094 13.47 17.0094 13.59C17.2094 13.59 20.2494 13.38 20.6394 13.85C21.0294 14.32 20.3594 16.79 20.2094 17.34C19.8694 18.62 19.4694 21.45 18.8494 22.52C18.6894 22.8 18.7194 22.98 17.0194 23.12C14.8094 23.31 13.3094 23.06 8.8094 23.12L6.6594 23C6.1094 23 5.5694 22.74 5.4794 23.21C5.3494 23.94 6.6394 23.61 14.3894 24.01C15.8733 24.1225 17.3656 24.018 18.8194 23.7C20.1794 23.2 20.5894 19.56 21.1494 17.6C21.4894 16.44 22.1494 14.03 21.4194 13.1C21.0119 12.7084 20.4825 12.4683 19.9194 12.42Z" fill="#2C2C2C"/>
<path fill-rule="evenodd" clip-rule="evenodd" d="M5.58961 8.36998C5.71961 8.79998 6.09961 8.76998 6.20961 8.51998C6.41961 8.05998 6.06961 7.13998 6.06961 7.11998C6.06961 7.09998 5.72961 2.99998 6.07961 1.90998C6.33961 1.11998 8.87961 1.13998 9.70961 1.12998C10.9496 1.12998 17.9896 1.38998 18.5496 2.18998C18.7096 2.42998 18.6296 2.79998 18.5496 3.18998C18.3406 5.59681 17.9461 7.9839 17.3696 10.33C17.3547 10.375 17.3494 10.4226 17.3539 10.4698C17.3585 10.517 17.3729 10.5627 17.3962 10.604C17.4195 10.6453 17.4512 10.6813 17.4892 10.7096C17.5272 10.7379 17.5708 10.758 17.617 10.7685C17.6632 10.779 17.7111 10.7797 17.7577 10.7706C17.8042 10.7615 17.8483 10.7428 17.8872 10.7156C17.926 10.6884 17.9588 10.6534 17.9833 10.6128C18.0078 10.5723 18.0236 10.527 18.0296 10.48C18.6996 8.1231 19.1943 5.71987 19.5096 3.28998C19.5959 3.01 19.6262 2.71576 19.5988 2.42406C19.5713 2.13237 19.4866 1.84894 19.3496 1.58998C18.7996 0.699982 17.1696 0.609982 16.1596 0.449982C13.5696 0.079982 8.63961 -0.400018 6.19961 0.579982C5.13961 0.999982 5.11961 1.77998 5.09961 2.83998C5.12825 4.69278 5.29202 6.54102 5.58961 8.36998Z" fill="#2C2C2C"/>
<path fill-rule="evenodd" clip-rule="evenodd" d="M22.8195 5.32992C22.3751 4.71989 21.7312 4.28471 20.9995 4.09992C20.9299 4.07801 20.8548 4.08218 20.7881 4.11165C20.7214 4.14111 20.6677 4.19386 20.6371 4.26002C20.6064 4.32619 20.601 4.40125 20.6216 4.47116C20.6423 4.54108 20.6878 4.60107 20.7495 4.63992C22.3995 5.57992 21.9295 5.90992 21.6695 6.47992C21.1827 7.90168 20.5842 9.28266 19.8795 10.6099C19.8344 10.6882 19.8222 10.7811 19.8457 10.8683C19.8691 10.9555 19.9262 11.0298 20.0045 11.0749C20.0827 11.12 20.1756 11.1322 20.2629 11.1087C20.3501 11.0853 20.4244 11.0282 20.4695 10.9499C20.8795 10.1899 23.5295 6.69992 22.8195 5.32992Z" fill="#2C2C2C"/>
<path fill-rule="evenodd" clip-rule="evenodd" d="M16.5399 5.27002C16.6054 5.24337 16.6627 5.19983 16.7059 5.14383C16.7491 5.08783 16.7767 5.02137 16.7858 4.95123C16.795 4.8811 16.7853 4.80979 16.7579 4.74458C16.7306 4.67937 16.6864 4.62259 16.6299 4.58002C16.4499 4.41002 16.0099 4.36002 14.7199 4.18002C13.3277 3.98729 11.917 3.96714 10.5199 4.12002C8.87986 4.12002 8.79986 4.12002 8.51986 4.26002C8.48228 4.29857 8.45617 4.34681 8.44445 4.39936C8.43274 4.4519 8.43588 4.50667 8.45352 4.55753C8.47117 4.60839 8.50262 4.65333 8.54436 4.68733C8.5861 4.72133 8.63648 4.74304 8.68986 4.75002L9.25986 4.83002C11.0383 5.17126 12.8545 5.27217 14.6599 5.13002C14.7299 5.14002 16.4599 5.31002 16.5399 5.27002Z" fill="#2C2C2C"/>
<path fill-rule="evenodd" clip-rule="evenodd" d="M16.0704 7.82993C15.4735 7.5443 14.822 7.39081 14.1604 7.37993C13.1497 7.21077 12.1242 7.14709 11.1004 7.18993C10.0004 7.26993 8.19036 6.99993 8.42036 7.71993C8.43279 7.75739 8.45249 7.79203 8.47833 7.82186C8.50416 7.8517 8.53563 7.87614 8.57093 7.89379C8.60624 7.91144 8.64467 7.92195 8.68404 7.92472C8.72341 7.92749 8.76294 7.92247 8.80036 7.90993C9.34036 7.77993 9.54036 8.28993 14.0904 8.34993C14.629 8.26995 15.1777 8.28688 15.7104 8.39993C15.7476 8.43091 15.7909 8.45358 15.8376 8.46644C15.8843 8.4793 15.9331 8.48205 15.9809 8.47451C16.0288 8.46696 16.0744 8.4493 16.1148 8.42269C16.1553 8.39608 16.1896 8.36115 16.2154 8.32022C16.2412 8.2793 16.2581 8.23333 16.2647 8.18539C16.2714 8.13744 16.2677 8.08863 16.254 8.04222C16.2402 7.9958 16.2168 7.95285 16.1851 7.91625C16.1534 7.87964 16.1143 7.85021 16.0704 7.82993Z" fill="#2C2C2C"/>
<path fill-rule="evenodd" clip-rule="evenodd" d="M1.92904 6.04994C2.21798 6.74333 2.47164 7.45091 2.68904 8.16994C2.69699 8.24951 2.73623 8.32265 2.79812 8.37329C2.86 8.42392 2.93947 8.4479 3.01904 8.43994C3.0986 8.43199 3.17175 8.39275 3.22238 8.33086C3.27302 8.26898 3.29699 8.18951 3.28904 8.10994C3.21685 7.06095 3.05289 6.02031 2.79904 4.99994C2.66904 4.38994 2.26904 3.99994 4.32904 3.28994C4.4126 3.26512 4.48344 3.20914 4.52691 3.13358C4.57038 3.05802 4.58317 2.96864 4.56263 2.88392C4.54209 2.7992 4.4898 2.7256 4.41655 2.67834C4.3433 2.63107 4.25469 2.61375 4.16904 2.62994C1.47904 2.99994 1.18904 3.99994 1.92904 6.04994Z" fill="#2C2C2C"/>
</g>
<defs>
<clipPath id="clip0_1434_51">
<rect width="24" height="24" fill="white"/>
</clipPath>
</defs>
</svg>
