<svg width="93" height="60" viewBox="0 0 93 60" fill="none" xmlns="http://www.w3.org/2000/svg">
<mask id="path-1-inside-1_1182_950" fill="white">
<path d="M57.1221 0C69.5956 0.000229973 79.7151 10.0718 79.7959 22.5264C87.4115 24.652 92.999 31.64 92.999 39.9336C92.999 49.9142 84.9074 58.0049 74.9268 58.0049C69.4856 58.0048 64.607 55.5996 61.2939 51.7949C58.0009 56.231 52.7236 59.1064 46.7744 59.1064C41.4655 59.1064 36.691 56.8171 33.3848 53.1719C29.8869 55.8418 25.5124 57.4307 20.7646 57.4307C9.29663 57.4305 0 48.172 0 36.752C0.000148227 27.4604 6.15435 19.6004 14.625 16.9932C15.7184 9.62093 22.0737 3.96402 29.75 3.96387C33.6694 3.96387 37.2441 5.43958 39.9502 7.86426C44.1085 3.04798 50.2598 0 57.1221 0Z"/>
</mask>
<path d="M57.1221 0C69.5956 0.000229973 79.7151 10.0718 79.7959 22.5264C87.4115 24.652 92.999 31.64 92.999 39.9336C92.999 49.9142 84.9074 58.0049 74.9268 58.0049C69.4856 58.0048 64.607 55.5996 61.2939 51.7949C58.0009 56.231 52.7236 59.1064 46.7744 59.1064C41.4655 59.1064 36.691 56.8171 33.3848 53.1719C29.8869 55.8418 25.5124 57.4307 20.7646 57.4307C9.29663 57.4305 0 48.172 0 36.752C0.000148227 27.4604 6.15435 19.6004 14.625 16.9932C15.7184 9.62093 22.0737 3.96402 29.75 3.96387C33.6694 3.96387 37.2441 5.43958 39.9502 7.86426C44.1085 3.04798 50.2598 0 57.1221 0Z" fill="#FFFCF5"/>
<path d="M57.1221 0L57.1221 -3H57.1221V0ZM79.7959 22.5264L76.796 22.5458L76.8106 24.8078L78.9894 25.4159L79.7959 22.5264ZM92.999 39.9336H95.999V39.9336L92.999 39.9336ZM74.9268 58.0049L74.9267 61.0049H74.9268V58.0049ZM61.2939 51.7949L63.5564 49.8248L61.1077 47.0127L58.8851 50.0068L61.2939 51.7949ZM46.7744 59.1064L46.7744 62.1064H46.7744V59.1064ZM33.3848 53.1719L35.6069 51.1564L33.7553 49.1149L31.5645 50.7872L33.3848 53.1719ZM20.7646 57.4307L20.7646 60.4307H20.7646V57.4307ZM0 36.752L-3 36.7519V36.752H0ZM14.625 16.9932L15.5075 19.8604L17.3151 19.3041L17.5925 17.4333L14.625 16.9932ZM29.75 3.96387V0.963867H29.7499L29.75 3.96387ZM39.9502 7.86426L37.9482 10.0986L40.224 12.1377L42.221 9.82479L39.9502 7.86426ZM57.1221 0L57.122 3C67.9449 3.0002 76.7259 11.7391 76.796 22.5458L79.7959 22.5264L82.7958 22.5069C82.7044 8.40454 71.2463 -2.99974 57.1221 -3L57.1221 0ZM79.7959 22.5264L78.9894 25.4159C85.3425 27.1892 89.999 33.0214 89.999 39.9336L92.999 39.9336L95.999 39.9336C95.999 30.2585 89.4805 22.1148 80.6024 19.6368L79.7959 22.5264ZM92.999 39.9336H89.999C89.999 48.2572 83.2508 55.0049 74.9268 55.0049V58.0049V61.0049C86.564 61.0049 95.999 51.5713 95.999 39.9336H92.999ZM74.9268 58.0049L74.9268 55.0049C70.3898 55.0048 66.3241 53.0033 63.5564 49.8248L61.2939 51.7949L59.0315 53.765C62.8898 58.1959 68.5814 61.0048 74.9267 61.0049L74.9268 58.0049ZM61.2939 51.7949L58.8851 50.0068C56.1334 53.7136 51.7336 56.1064 46.7744 56.1064V59.1064V62.1064C53.7136 62.1064 59.8684 58.7485 63.7028 53.5831L61.2939 51.7949ZM46.7744 59.1064L46.7745 56.1064C42.3469 56.1064 38.3684 54.2011 35.6069 51.1564L33.3848 53.1719L31.1626 55.1873C35.0136 59.4332 40.5841 62.1064 46.7744 62.1064L46.7744 59.1064ZM33.3848 53.1719L31.5645 50.7872C28.5712 53.072 24.8319 54.4307 20.7646 54.4307V57.4307V60.4307C26.1929 60.4307 31.2026 58.6117 35.205 55.5565L33.3848 53.1719ZM20.7646 57.4307L20.7647 54.4307C10.9418 54.4305 3 46.5035 3 36.752H0H-3C-3 49.8406 7.65149 60.4305 20.7646 60.4307L20.7646 57.4307ZM0 36.752L3 36.752C3.00013 28.8214 8.25296 22.0933 15.5075 19.8604L14.625 16.9932L13.7425 14.1259C4.05573 17.1074 -2.99983 26.0995 -3 36.7519L0 36.752ZM14.625 16.9932L17.5925 17.4333C18.471 11.51 23.5825 6.96399 29.7501 6.96387L29.75 3.96387L29.7499 0.963867C20.5649 0.964045 12.9657 7.73183 11.6575 16.5531L14.625 16.9932ZM29.75 3.96387V6.96387C32.9017 6.96387 35.7705 8.14734 37.9482 10.0986L39.9502 7.86426L41.9522 5.62995C38.7177 2.73183 34.4371 0.963867 29.75 0.963867V3.96387ZM39.9502 7.86426L42.221 9.82479C45.8335 5.64058 51.1681 3 57.1221 3V0V-3C49.3515 -3 42.3834 0.455372 37.6794 5.90373L39.9502 7.86426Z" fill="#674305" mask="url(#path-1-inside-1_1182_950)"/>
</svg>
