<svg width="24" height="24" viewBox="0 0 24 24" fill="none" xmlns="http://www.w3.org/2000/svg">
<g clip-path="url(#clip0_1434_69)">
<path fill-rule="evenodd" clip-rule="evenodd" d="M23.9991 17.35C23.9991 16.67 24.0591 15.68 23.4191 15.35C22.1291 14.64 18.8991 14.6 17.6891 15.35C17.0191 15.78 17.1391 16.79 16.9491 17.35C16.8791 17.56 8.76913 17.71 7.27913 17.27C6.35913 17 6.99913 16 5.99913 15.42C5.48913 15.12 1.25913 15.42 0.839132 15.5C-0.840868 15.93 0.429132 20.5 0.979132 22.12C0.985444 22.1649 1.00152 22.2078 1.02623 22.2458C1.05095 22.2838 1.08369 22.3159 1.12216 22.3399C1.16063 22.3639 1.20389 22.3791 1.24889 22.3846C1.29389 22.39 1.33954 22.3855 1.38262 22.3714C1.42569 22.3573 1.46515 22.3339 1.49821 22.3029C1.53127 22.2719 1.55712 22.234 1.57395 22.1919C1.59078 22.1498 1.59818 22.1045 1.59562 22.0593C1.59306 22.014 1.5806 21.9699 1.55913 21.93C1.16913 20.71 0.449132 17.73 0.809132 16.54C0.809132 16.39 0.899132 16.27 1.01913 16.24C2.43265 16.1229 3.85221 16.0962 5.26913 16.16C5.40913 16.16 5.55913 16.25 5.58913 16.21C5.98913 16.54 5.58913 17.75 6.97913 18.21C8.36913 18.67 16.5191 18.89 17.4691 18.4C18.0591 18.09 18.1291 17.4 18.2191 16.75C18.2191 16.59 18.4291 16.4 18.3391 16.32C19.0354 16.0342 19.7886 15.9144 20.5391 15.97C21.2743 16.0223 22.0057 16.1192 22.7291 16.26C22.9991 16.1 22.8091 17.26 22.8291 17.45C22.8891 18.24 22.7091 21.45 22.0791 21.99C21.4491 22.53 15.0791 22.73 14.1991 22.75C1.88913 23.05 1.52913 22.25 1.40913 22.92C1.40052 22.9647 1.40098 23.0107 1.41048 23.0552C1.41999 23.0998 1.43834 23.1419 1.46446 23.1792C1.49057 23.2166 1.52392 23.2482 1.56251 23.2724C1.60111 23.2966 1.64417 23.3128 1.68913 23.32C2.44913 23.47 20.8791 24.32 22.7591 22.85C23.8391 22 24.0691 18.56 23.9991 17.35Z" fill="#2C2C2C"/>
<path fill-rule="evenodd" clip-rule="evenodd" d="M6.79863 10.67C7.06863 12.15 10.3586 15.74 11.9686 15.97C13.5786 16.2 16.6086 11.55 16.5286 10.59C16.4486 9.62995 15.3486 9.64995 14.4686 9.39995C14.3716 9.35568 14.2713 9.31891 14.1686 9.28995C14.1686 9.20995 13.9986 6.89995 13.9986 6.99995C13.8586 5.46995 12.9986 2.15995 12.9386 0.669951C12.9386 0.578451 12.9023 0.490699 12.8376 0.425999C12.7729 0.361299 12.6851 0.324951 12.5936 0.324951C12.5021 0.324951 12.4144 0.361299 12.3497 0.425999C12.285 0.490699 12.2486 0.578451 12.2486 0.669951C12.2486 2.25995 13.0186 5.51995 13.1086 7.06995C13.1834 7.82095 13.2201 8.57524 13.2186 9.32995C13.2886 10.24 13.8486 10.2 14.2186 10.33C14.5886 10.46 15.2186 10.52 15.4986 10.63C15.0267 11.6786 14.4034 12.6523 13.6486 13.52C13.4086 13.81 12.4886 14.83 12.1586 14.79C10.9586 14.62 8.15863 11.37 7.98863 10.59L10.1786 10.11C10.445 9.94642 10.6356 9.68388 10.7086 9.37995C10.8786 8.86995 11.7086 0.639951 11.7086 0.569951C11.6186 0.159951 11.2286 0.229951 11.0786 0.489951C11.0049 0.654772 10.9447 0.825338 10.8986 0.999951C10.2186 6.33995 9.95863 8.39995 9.89863 8.77995C9.89863 8.96995 9.63863 9.13995 9.70863 9.24995C8.78863 9.53995 6.54863 9.26995 6.79863 10.67Z" fill="#2C2C2C"/>
<path fill-rule="evenodd" clip-rule="evenodd" d="M0.598325 14.8299C0.637502 14.8561 0.681828 14.8735 0.728322 14.8811C0.774816 14.8887 0.822399 14.8863 0.867873 14.874C0.913347 14.8617 0.955656 14.8398 0.991957 14.8097C1.02826 14.7797 1.05771 14.7423 1.07832 14.6999C1.2475 14.3956 1.39132 14.0778 1.50832 13.7499C2.67832 11.3999 2.50832 11.9299 2.92832 10.9399C3.19632 10.1495 3.63699 9.42872 4.21832 8.82989C5.2711 8.43883 6.37036 8.18671 7.48832 8.07989C7.57982 8.07989 7.66758 8.04354 7.73228 7.97884C7.79698 7.91414 7.83332 7.82639 7.83332 7.73489C7.83332 7.64339 7.79698 7.55564 7.73228 7.49094C7.66758 7.42624 7.57982 7.38989 7.48832 7.38989C6.16295 7.36792 4.84369 7.57427 3.58832 7.99989C2.30832 8.85989 1.78832 10.5899 0.818325 13.5299C0.688325 13.8399 0.318325 14.5699 0.598325 14.8299Z" fill="#2C2C2C"/>
<path fill-rule="evenodd" clip-rule="evenodd" d="M17.9997 7.7099C18.6072 7.73268 19.2047 7.87186 19.7597 8.1199C20.4397 8.6799 21.9797 13.3299 22.2097 14.4499C22.2373 14.528 22.2918 14.5938 22.3633 14.6356C22.4349 14.6774 22.519 14.6924 22.6006 14.678C22.6822 14.6636 22.756 14.6207 22.809 14.557C22.8619 14.4932 22.8905 14.4128 22.8897 14.3299C22.6797 12.5599 21.8897 8.2699 20.4197 7.2499C19.6777 6.90311 18.8502 6.78142 18.0397 6.8999C17.8997 6.8999 15.3397 6.8999 15.2997 7.3299C15.2597 7.7599 16.5497 7.5399 17.9997 7.7099Z" fill="#2C2C2C"/>
</g>
<defs>
<clipPath id="clip0_1434_69">
<rect width="24" height="24" fill="white"/>
</clipPath>
</defs>
</svg>
