<svg width="24" height="24" viewBox="0 0 24 24" fill="none" xmlns="http://www.w3.org/2000/svg">
<g opacity="0.8" clip-path="url(#clip0_1297_213)">
<path fill-rule="evenodd" clip-rule="evenodd" d="M23.9991 17.3501C23.9991 16.6701 24.0591 15.6801 23.4191 15.3501C22.1291 14.6401 18.8991 14.6001 17.6891 15.3501C17.0191 15.7801 17.1391 16.7901 16.9491 17.3501C16.8791 17.5601 8.76913 17.7101 7.27913 17.2701C6.35913 17.0001 6.99913 16.0001 5.99913 15.4201C5.48913 15.1201 1.25913 15.4201 0.839132 15.5001C-0.840868 15.9301 0.429132 20.5001 0.979132 22.1201C0.985444 22.165 1.00152 22.2079 1.02623 22.2459C1.05095 22.2839 1.08369 22.3161 1.12216 22.34C1.16063 22.364 1.20389 22.3792 1.24889 22.3847C1.29389 22.3901 1.33954 22.3856 1.38262 22.3715C1.42569 22.3574 1.46515 22.334 1.49821 22.303C1.53127 22.272 1.55712 22.2341 1.57395 22.192C1.59078 22.1499 1.59818 22.1047 1.59562 22.0594C1.59306 22.0142 1.5806 21.97 1.55913 21.9301C1.16913 20.7101 0.449132 17.7301 0.809132 16.5401C0.809132 16.3901 0.899132 16.2701 1.01913 16.2401C2.43265 16.1231 3.85221 16.0963 5.26913 16.1601C5.40913 16.1601 5.55913 16.2501 5.58913 16.2101C5.98913 16.5401 5.58913 17.7501 6.97913 18.2101C8.36913 18.6701 16.5191 18.8901 17.4691 18.4001C18.0591 18.0901 18.1291 17.4001 18.2191 16.7501C18.2191 16.5901 18.4291 16.4001 18.3391 16.3201C19.0354 16.0343 19.7886 15.9145 20.5391 15.9701C21.2743 16.0224 22.0057 16.1193 22.7291 16.2601C22.9991 16.1001 22.8091 17.2601 22.8291 17.4501C22.8891 18.2401 22.7091 21.4501 22.0791 21.9901C21.4491 22.5301 15.0791 22.7301 14.1991 22.7501C1.88913 23.0501 1.52913 22.2501 1.40913 22.9201C1.40052 22.9648 1.40098 23.0108 1.41048 23.0553C1.41999 23.0999 1.43834 23.1421 1.46446 23.1794C1.49057 23.2167 1.52392 23.2484 1.56251 23.2725C1.60111 23.2967 1.64417 23.3129 1.68913 23.3201C2.44913 23.4701 20.8791 24.3201 22.7591 22.8501C23.8391 22.0001 24.0691 18.5601 23.9991 17.3501Z" fill="white"/>
<path fill-rule="evenodd" clip-rule="evenodd" d="M6.79863 10.6701C7.06863 12.1501 10.3586 15.7401 11.9686 15.9701C13.5786 16.2001 16.6086 11.5501 16.5286 10.5901C16.4486 9.63007 15.3486 9.65007 14.4686 9.40007C14.3716 9.3558 14.2713 9.31903 14.1686 9.29007C14.1686 9.21007 13.9986 6.90007 13.9986 7.00007C13.8586 5.47007 12.9986 2.16007 12.9386 0.670073C12.9386 0.578573 12.9023 0.490821 12.8376 0.426121C12.7729 0.361421 12.6851 0.325073 12.5936 0.325073C12.5021 0.325073 12.4144 0.361421 12.3497 0.426121C12.285 0.490821 12.2486 0.578573 12.2486 0.670073C12.2486 2.26007 13.0186 5.52007 13.1086 7.07007C13.1834 7.82107 13.2201 8.57537 13.2186 9.33007C13.2886 10.2401 13.8486 10.2001 14.2186 10.3301C14.5886 10.4601 15.2186 10.5201 15.4986 10.6301C15.0267 11.6787 14.4034 12.6525 13.6486 13.5201C13.4086 13.8101 12.4886 14.8301 12.1586 14.7901C10.9586 14.6201 8.15863 11.3701 7.98863 10.5901L10.1786 10.1101C10.445 9.94654 10.6356 9.684 10.7086 9.38007C10.8786 8.87007 11.7086 0.640073 11.7086 0.570073C11.6186 0.160073 11.2286 0.230073 11.0786 0.490073C11.0049 0.654895 10.9447 0.82546 10.8986 1.00007C10.2186 6.34007 9.95863 8.40007 9.89863 8.78007C9.89863 8.97007 9.63863 9.14007 9.70863 9.25007C8.78863 9.54007 6.54863 9.27007 6.79863 10.6701Z" fill="white"/>
<path fill-rule="evenodd" clip-rule="evenodd" d="M0.598325 14.83C0.637502 14.8562 0.681828 14.8737 0.728322 14.8813C0.774816 14.8889 0.822399 14.8864 0.867873 14.8741C0.913347 14.8618 0.955656 14.8399 0.991957 14.8099C1.02826 14.7798 1.05771 14.7424 1.07832 14.7C1.2475 14.3957 1.39132 14.078 1.50832 13.75C2.67832 11.4 2.50832 11.93 2.92832 10.94C3.19632 10.1496 3.63699 9.42884 4.21832 8.83001C5.2711 8.43896 6.37036 8.18683 7.48832 8.08001C7.57982 8.08001 7.66758 8.04367 7.73228 7.97897C7.79698 7.91427 7.83332 7.82651 7.83332 7.73501C7.83332 7.64351 7.79698 7.55576 7.73228 7.49106C7.66758 7.42636 7.57982 7.39001 7.48832 7.39001C6.16295 7.36805 4.84369 7.57439 3.58832 8.00001C2.30832 8.86001 1.78832 10.59 0.818325 13.53C0.688325 13.84 0.318325 14.57 0.598325 14.83Z" fill="white"/>
<path fill-rule="evenodd" clip-rule="evenodd" d="M17.9997 7.71002C18.6072 7.7328 19.2047 7.87199 19.7597 8.12002C20.4397 8.68002 21.9797 13.33 22.2097 14.45C22.2373 14.5282 22.2918 14.594 22.3633 14.6357C22.4349 14.6775 22.519 14.6925 22.6006 14.6781C22.6822 14.6637 22.756 14.6208 22.809 14.5571C22.8619 14.4933 22.8905 14.4129 22.8897 14.33C22.6797 12.56 21.8897 8.27002 20.4197 7.25002C19.6777 6.90323 18.8502 6.78155 18.0397 6.90002C17.8997 6.90002 15.3397 6.90002 15.2997 7.33002C15.2597 7.76002 16.5497 7.54002 17.9997 7.71002Z" fill="white"/>
</g>
<defs>
<clipPath id="clip0_1297_213">
<rect width="24" height="24" fill="white"/>
</clipPath>
</defs>
</svg>
