<svg width="323" height="33" viewBox="0 0 323 33" fill="none" xmlns="http://www.w3.org/2000/svg">
<path d="M7.2429 1.17664C14.0731 -1.61157 18.5773 1.36644 24.8829 1.84983C38.7427 2.91176 56.8413 2.00949 71.0256 2.11514C81.6812 2.1948 92.5412 2.4201 103.16 2.60707C103.702 2.61633 104.027 2.92374 104.274 2.92825C106.626 2.97029 110.497 2.70254 112.806 2.74916C117.709 2.84652 126.11 2.82164 130.545 3.12159C132.44 3.24861 134.404 3.30492 135.113 4.03682C135.795 4.07593 136.171 3.41754 136.35 3.38216C136.352 3.38282 136.354 3.38348 136.356 3.38413C136.932 3.27445 138.393 3.74103 138.717 3.71317C138.766 3.7088 138.469 3.23029 139.254 3.37684C139.324 3.38944 139.258 3.71402 139.921 3.72055C140.092 3.72217 142.321 3.23063 142.961 3.20207C145.021 3.10894 150.042 3.5148 152.581 3.51578C152.961 3.51692 153.18 3.32761 153.582 3.32544C153.789 3.3241 154.1 3.53126 154.164 3.53032C154.443 3.52383 155.674 2.59107 155.227 4.43782C156.511 4.32455 156.135 3.71242 156.165 3.31571C157.561 3.26266 158.236 4.13513 158.605 3.2138C163.07 3.29844 167.316 3.38268 171.779 3.46786C171.808 3.46509 171.895 3.47159 171.924 3.46914C174.456 3.54612 176.896 3.62192 179.42 3.69906C179.425 3.54872 179.429 3.39838 179.433 3.24804C181.453 3.87817 182.139 2.87206 183.301 3.76148C184.022 3.57993 184.739 3.39833 185.452 3.21668C203.785 4.07558 222.06 3.64712 240.18 3.88755C240.945 3.89754 241.133 4.22006 242.384 4.23847C243.794 4.25891 245.723 3.91153 247.577 3.93891C249.179 3.9622 251.562 4.29379 253.339 4.36195C253.745 4.37685 254.042 4.17761 254.088 4.17927C254.357 4.19031 254.367 4.51131 254.627 4.52342C254.939 4.53716 255.317 4.30381 255.675 4.32255C257.004 4.39069 258.483 4.32505 258.649 4.33242C259.467 4.37177 259.642 4.68744 259.709 4.69165C260.614 4.73972 260.277 4.45281 260.504 4.47169C261.687 4.57112 262.507 5.28685 264.121 4.62461C264.074 4.88651 264.028 5.14841 263.981 5.41031C265.217 5.57042 264.407 4.86507 264.661 4.74137C264.769 4.69583 267.406 4.80677 267.617 4.82103C268.332 4.87289 268.347 5.22165 268.409 5.22694C268.563 5.23971 270.344 4.86041 271.268 5.17283C272.354 5.54302 271.066 6.24101 271.336 6.37655C271.382 6.39953 272.521 6.33671 272.671 6.55998C272.837 6.80029 271.854 6.78679 271.868 6.88707C271.879 6.95599 273.506 7.46222 273.19 7.79094C272.939 8.12136 270.721 7.67592 270.249 7.82784C270.172 7.85302 270.314 8.26455 270.245 8.27898C269.975 8.33238 264.863 8.29598 264.628 8.22549C264.897 8.04133 265.165 7.85715 265.433 7.67295C265.08 7.65057 264.725 7.62815 264.37 7.6057C264.877 7.46106 265.382 7.31634 265.886 7.17154C265.155 5.62597 262.882 7.16252 262.785 7.92937C262.742 8.28404 264.103 9.21166 262.822 9.73057C263.015 9.82372 263.208 9.91685 263.401 10.01C263.799 9.8643 264.209 9.71871 264.612 9.57301C264.345 9.47593 264.077 9.37882 263.809 9.28169C263.909 9.17594 264.009 9.07018 264.109 8.96442C264.865 8.80084 265.618 8.63708 266.367 8.47314C266.751 8.55578 266.668 8.87019 266.931 8.93368C270.238 9.73263 268.089 8.7356 270.247 8.89619C270.552 9.06821 270.864 9.24026 271.172 9.41225C271.069 8.71125 272.028 9.15935 273.186 8.86709C273.046 9.09247 272.906 9.31785 272.766 9.54323C274.444 9.43724 277.841 10.6054 276.931 9.34824C277.316 9.45794 277.702 9.56759 278.087 9.67718C278.414 9.47516 278.74 9.27309 279.066 9.07098C279.515 9.09761 279.961 9.12415 280.411 9.15065C280.412 9.26133 280.414 9.37202 280.415 9.4827C280.055 9.48091 279.7 9.4791 279.342 9.47723C279.608 9.81634 279.874 10.1554 280.14 10.4945C280.404 10.4403 280.671 10.3861 280.936 10.3319C279.826 10.0055 281.296 9.49444 281.652 9.05148C282.589 8.89302 283.179 9.47452 283.492 9.50247C283.641 9.51587 285.384 8.50632 284.697 9.62285C285.592 9.49193 286.479 9.36065 287.377 9.22912C287.726 9.31682 288.075 9.40447 288.424 9.49207C287.664 10.0104 289.856 10.6496 288.238 10.8583C287.029 11.0148 286.729 10.5251 286.159 10.5255C285.643 10.5251 285.368 10.8522 284.805 10.8637C281.024 10.9343 277.931 10.852 274.345 10.6775C273.629 10.6424 272.99 10.7982 272.512 10.7715C271.974 10.7409 272.652 10.3345 271.965 10.4289C271.243 10.5287 271.083 10.8637 270.892 10.8688C270.774 10.8715 270.398 10.5655 270.056 10.5625C268.645 10.5499 266.548 10.8224 266.353 10.8187C266.129 10.8135 262.113 10.4998 261.923 10.4478C261.821 10.4197 262.046 9.30444 261.146 10.4865C260.869 10.5057 260.591 10.5249 260.313 10.544C260.36 10.3212 260.408 10.0984 260.455 9.8756C258.816 10.7045 259.385 10.2371 257.804 10.2862C254.029 10.4047 248.46 10.1497 244.33 10.1758C243.409 10.1821 243.042 10.4448 241.956 10.4501C240.954 10.4541 238.3 9.62129 238.864 10.7339C236.631 9.74738 236.244 11.3924 235.121 10.348C234.982 10.4959 234.839 10.6437 234.703 10.7917C233.495 10.1328 233.11 10.6923 231.765 10.7517C231.185 10.7776 231.86 10.1034 230.683 10.8482C230.463 10.7885 230.243 10.7289 230.022 10.6692C230.076 10.5045 230.13 10.3399 230.183 10.1753C228.895 10.2928 228.809 10.2054 228.949 10.8262C228.326 10.705 227.701 10.5836 227.072 10.4622C226.991 10.6642 226.909 10.8662 226.83 11.0683C227.143 11.4614 241.315 11.0695 243.291 10.9067C245.6 11.3964 250.253 10.8789 252.127 11.01C252.873 11.0628 253.191 11.526 254.287 11.594C255.382 11.6619 256.739 11.2599 257.328 11.2516C259.261 11.2229 268.403 11.4075 262.181 11.9154C262.358 12.1412 262.534 12.367 262.71 12.5928C265.182 11.8538 264.296 12.3153 266.34 12.4143C267.194 12.4564 269.267 11.9756 269.139 12.9916C267.53 13.1662 265.836 12.8246 264.436 12.8252C264.293 12.8254 262.645 13.2731 261.795 13.1379C261.03 13.0147 261.565 12.0507 259.885 13.1215C258.664 12.0447 257.933 13.0015 257.604 13.1004C257.035 13.2719 256.973 12.7463 256.414 12.6789C255.802 12.6044 255.374 12.948 255.29 12.9493C254.44 12.9478 250.05 12.9432 249.84 12.7288C250.019 12.6378 250.198 12.5469 250.377 12.456C249.227 12.2922 249.469 12.8319 249.167 12.8925C248.945 12.8878 248.722 12.8831 248.499 12.8784C248.589 12.7682 248.678 12.658 248.768 12.5477C247.421 12.5548 248.451 12.9545 246.528 12.9204C245.309 12.8984 244.068 12.4576 243.946 12.4874C243.911 12.496 244.291 12.7874 243.794 12.8195C242.968 12.8721 241.549 12.8465 241.398 12.4547C240.997 12.5046 241.026 12.8865 240.973 12.8945C240.739 12.9288 236.722 13.0055 236 13.0182C233.996 13.0534 231.779 12.9418 229.626 12.9764C229.405 12.9797 229.549 12.7369 229.327 12.7417C228.973 12.7494 227.125 13.1079 226.846 13.1311C226.17 13.1882 224.375 13.0106 224.088 13.1178C224.047 13.133 224.637 13.4722 223.94 13.565C223.166 13.6676 223.588 13.2285 223.546 13.2235C221.973 13.0491 221.003 13.3445 219.926 13.389C219.58 13.4032 218.935 13.0591 218.448 13.1511C218.393 13.1615 218.499 13.4725 218.444 13.487C217.71 13.6388 217.03 13.0547 216.711 13.0129C215.931 12.9107 216.35 13.3407 216.309 13.3431C215.789 13.3491 215.084 13.1861 214.288 13.1949C210.78 13.2344 207.878 13.2181 204.135 13.1353C203.665 13.1251 203.109 12.818 203.037 12.8165C202.814 12.8155 202.873 13.1678 202.226 13.1504C200.844 13.1122 199.621 13.1113 198.267 13.0847C197.995 13.0793 197.884 12.7521 197.677 12.742C196.968 12.7114 194.618 13.5294 194.591 12.4683C193.209 13.3871 192.28 12.5642 191.189 12.5572C188.58 12.5393 184.482 12.6706 181.849 12.5105C181.305 12.4765 181.053 12.201 180.749 12.1819C180.211 12.1471 177.055 12.253 176.889 12.2078C176.57 12.1209 176.783 10.9271 175.12 11.9458C174.15 12.006 174.27 11.5166 174.07 11.4872C173.211 11.3665 172.354 11.6353 171.805 11.7373C171.794 11.7382 171.763 11.7358 171.752 11.7368C171.301 11.8258 171.059 11.7996 171.19 11.3467C169.347 11.6136 168.162 12.1649 167.42 11.2234C167.428 11.6817 166.568 11.9539 165.539 11.7761C166.598 11.0096 166.463 10.5171 169.032 10.666C169.072 10.6684 168.994 10.9996 169.034 11.002C169.402 11.0255 170.169 10.8606 170.798 10.8806C171.427 10.9007 171.077 11.1261 171.329 11.1225C171.524 11.1194 171.55 10.892 171.755 10.8198C171.768 10.8187 171.805 10.8215 171.818 10.8204C171.855 10.8077 171.899 10.8002 171.95 10.8002C173.034 10.8035 173.985 10.7298 174.594 10.733C174.977 10.7353 175.401 11.0201 175.697 11.0244C176.823 11.0385 179.309 10.857 180.758 10.9085C181.061 10.9201 180.93 11.2308 181.592 11.2664C181.67 11.2706 181.95 10.9486 182.545 10.8897C183.137 10.8307 183.59 10.9992 183.967 10.971C184.282 10.9474 184.155 10.6559 184.799 10.6472C185.321 10.6401 191.424 10.9381 191.731 10.9888C192.205 11.0624 192.43 11.4725 192.722 11.4272C192.774 11.4173 192.866 11.0258 193.045 11.0002C195.955 10.5785 202.427 11.2094 205.732 11.2542C212.704 11.3502 219.136 11.212 226.151 11.2189C226.276 11.1523 226.401 11.0857 226.527 11.0191C225.822 11.0067 225.115 10.9941 224.403 10.9815C224.401 10.7966 224.399 10.6116 224.398 10.4267C223.435 10.3839 223.555 10.8229 223.579 11.0871C223.224 10.9701 222.862 10.853 222.515 10.7361C222.206 11.3761 219.849 10.9141 218.614 10.8974C217.828 10.8862 216.882 11.1183 216.463 11.0932C215.577 11.041 215.605 10.6438 215.535 10.6365C215.417 10.6257 214.167 10.9584 213.286 10.9322C211.974 10.8939 211.84 10.2814 210.017 10.7735C207.735 10.4236 205.15 10.5454 202.666 10.561C203.154 10.0037 200.89 10.5048 199.901 10.4815C193.762 10.3364 186.22 9.98459 180 9.67083C179.202 9.63104 178.6 9.28981 178.152 9.2943C177.908 9.2964 177.796 9.68672 177.458 9.62995C177.401 9.61914 177.356 9.25199 176.739 9.18782C175.663 9.07495 173.434 9.31444 171.841 9.21977C171.825 9.22113 171.776 9.21752 171.76 9.21906C171.082 9.18638 170.527 9.09183 170.233 8.88083C164.889 8.97258 159.585 9.06484 154.282 9.15749C154.15 9.00735 154.018 8.85722 153.886 8.70708C152.914 9.46932 148.856 9.00748 146.924 9.03779C143.543 9.09202 139.104 9.31705 136.131 9.3345C135.483 9.33829 134.955 9.11971 134.345 9.12239C134.082 9.12389 133.759 9.40441 133.475 9.40507C130.305 9.41749 126.2 9.11618 123.024 9.11428C115.92 9.10954 109.27 9.04936 102.036 9.04351C77.8385 9.02654 53.666 9.38809 29.665 9.18154C29.3363 9.17874 29.3534 8.85518 29.1003 8.8525C27.6329 8.83429 24.3054 9.09573 22.6844 9.07863C21.3798 9.06534 19.2121 8.56734 18.7982 9.06499C23.5292 9.82604 28.485 9.7772 33.373 9.99633C33.724 10.0118 33.7681 10.3195 33.8114 10.3252C34.6185 10.4335 34.1042 10.0089 35.2887 9.99181C35.6514 9.98599 39.1833 10.9743 38.7734 9.99598C39.6896 10.3886 45.6332 10.595 46.7968 10.4677C47.1426 10.4289 46.8984 10.1389 46.967 10.1243C47.2655 10.0609 47.4 10.4605 47.6682 10.4714C48.3787 10.4975 50.2301 10.1771 50.5892 10.1801C51.4503 10.1852 53.7616 10.5149 54.8436 10.4404C55.8202 10.3725 55.6381 9.95496 56.4903 9.91835C57.16 9.89058 56.4435 10.24 57.9238 10.349C58.634 10.4023 61.1837 10.1565 61.8186 10.1578C62.4451 10.1591 63.1544 10.4102 64.0238 10.3928C65.2283 10.3683 67.9094 10.235 69.1921 10.1578C69.2683 10.1535 69.4548 9.82935 69.643 9.83652C70.0333 9.85097 69.9152 10.2515 70.2105 10.2928C70.5047 10.334 75.4707 10.296 76.3619 10.3025C76.9551 10.3061 77.3844 10.0683 77.6955 10.0712C77.9458 10.074 77.9718 10.4079 78.2277 10.4122C78.3069 10.4124 78.9822 10.124 79.6618 10.1323C80.2989 10.1405 82.7631 10.4219 83.0547 10.4252C83.2422 10.4268 83.0368 10.1891 83.5919 10.196C84.0974 10.203 84.4338 10.5118 84.7197 10.517C85.3674 10.5285 86.0959 10.2676 86.7907 10.268C88.792 10.2693 88.6954 10.6507 88.8146 10.6634C89.1503 10.6986 89.2861 10.3495 89.3967 10.3425C89.8625 10.3143 91.0124 10.2525 91.4335 10.24C91.9569 10.2243 92.1817 10.5571 92.7172 10.5595C93.1191 10.5602 93.9329 10.2384 94.8594 10.2249C96.9272 10.1927 99.5316 10.1381 101.527 10.1555C102.136 10.1604 102.23 10.4638 102.416 10.4722C103.398 10.5163 103.953 10.1787 104.235 10.1838C106.261 10.2194 109.846 10.7605 111.698 10.8105C112.437 10.8304 115.846 10.5939 117.676 10.6427C117.889 10.6479 117.689 10.885 117.926 10.8485C118.492 10.7608 118.442 10.2766 118.729 10.2921C118.868 10.301 119.184 10.5747 119.59 10.603C121.696 10.7495 123.165 10.5414 124.141 10.5587C133.363 10.7249 142.822 10.879 151.482 10.9478C152.474 10.9553 153.627 10.6708 155.08 10.9548C155.124 11.1053 155.168 11.2558 155.212 11.4063C155.264 11.2587 155.315 11.1111 155.366 10.9635C157.008 10.8884 157.632 10.7001 159.324 10.8935C159.469 10.9098 159.913 11.5977 160.192 10.7458C161.87 11.3687 160.959 10.7432 162.196 10.6895C163.419 10.6359 164.613 10.83 165.81 10.8766C166.464 11.1841 163.713 11.8801 163.537 11.8773C163.249 11.8736 162.952 11.4488 162.676 11.4254C161.867 11.3554 161.046 11.6893 160.863 11.3104C159.783 11.7071 161.126 11.5114 160.99 11.8713C160.27 11.72 159.552 11.5687 158.836 11.4174C158.462 12.6419 154.534 11.0316 154.807 11.9656C154.497 11.7779 154.186 11.5901 153.876 11.4023C152.517 12.569 151.701 11.7421 149.854 11.3882C149.986 11.5384 150.119 11.6885 150.252 11.8386C150.213 11.901 148.586 12.1356 149.169 11.4995C147.502 12.335 147.577 10.9372 146.091 11.9435C145.213 12.0705 145.74 11.485 144.173 11.4906C143.253 11.4935 142.076 11.797 141.019 11.8153C140.776 11.8186 140.671 11.4784 140.455 11.4778C140.239 11.4773 140.133 11.8102 139.872 11.8179C139.332 11.8343 138.635 11.5984 138.3 11.62C137.999 11.6383 137.568 11.931 136.847 11.9752C134.331 12.1313 135.095 11.7138 134.699 11.5706C134.271 11.4183 133.98 11.9706 133.106 11.904C133.019 11.8969 133.245 11.5529 132.962 11.5657C132.734 11.5756 132.618 11.9499 131.865 12.0176C131.557 12.0449 126.945 12.1123 126.26 12.1172C125.218 12.1245 122.769 11.8007 121.658 11.7999C121.227 11.7988 120.766 12.0983 120.31 12.0951C118.788 12.0842 116.44 12.0525 114.472 12.0326C112.726 12.0144 109.713 11.3426 108.782 11.9396C106.369 12.0111 105.748 11.4974 105.571 11.4899C105.074 11.4695 104.843 11.8082 104.219 11.8224C96.1555 11.999 85.559 11.7493 77.9132 11.7591C60.192 11.7844 42.323 11.9344 24.5504 11.7689C24.5021 11.9193 24.4538 12.0696 24.4056 12.2199C26.6062 12.3203 28.9414 12.5853 31.0786 12.6486C33.8062 12.732 37.9138 12.1129 39.9927 13.1446C39.1437 13.2332 37.7977 12.8367 37.8223 13.3653C39.2964 13.4057 40.815 13.4462 42.2467 13.4865C42.2036 13.2423 42.1605 12.9981 42.1175 12.7539C43.621 12.6856 45.2953 12.742 46.7853 12.7098C47.0488 12.7046 46.8625 12.4826 47.0924 12.4819C47.3498 12.4816 47.1748 12.7068 47.2231 12.7087C47.8747 12.7122 48.075 12.4844 48.1549 12.4879C48.3609 12.4973 48.1993 12.7142 48.7952 12.7762C49.902 12.892 50.7135 12.3165 50.4466 13.2774C50.8095 13.2781 51.1742 13.2788 51.5408 13.2795C51.6338 13.018 51.7228 12.7565 51.8139 12.4949C53.9607 13.5557 54.9894 11.7044 56.2136 13.1775C56.6197 12.9537 57.0279 12.7299 57.438 12.5061C57.6724 12.7683 57.882 13.0305 58.1049 13.2926C58.1484 13.0681 58.192 12.8436 58.2355 12.6191C60.3358 12.789 62.7044 12.5242 64.7456 12.5545C66.1605 12.5755 66.5037 12.6649 67.7784 12.6508C70.6335 12.6186 67.7894 13.0581 70.1758 13.5446C70.0515 13.2689 69.9274 12.9933 69.8035 12.7176C70.1995 12.6176 70.6013 12.5176 70.9777 12.4175C71.2433 12.6427 71.5095 12.8678 71.7765 13.093C72.9657 11.9307 73.7443 12.8728 73.9076 12.8731C74.0408 12.8714 74.4919 12.1711 75.9294 12.7683C75.3337 11.8081 77.0295 12.7651 77.1684 12.7711C77.3159 12.7753 78.9029 12.5648 79.5658 12.5753C80.0818 12.5833 81.189 12.7923 81.9697 12.784C82.6587 12.7766 82.5904 12.4509 82.6406 12.4476C83.4922 12.4226 82.9576 12.6743 83.5748 12.6881C84.1908 12.7019 84.6822 12.4257 84.8046 12.4507C84.8696 12.4641 84.6516 12.7668 84.9491 12.7968C85.747 12.8785 87.2041 12.6164 88.1356 12.6266C88.4653 12.6298 88.8813 12.888 89.2507 12.8968C89.817 12.9093 90.0838 12.5683 90.4145 12.5793C90.5294 12.584 91.2635 13.1135 92.1828 13.0347C92.3518 13.0188 92.8505 11.9032 93.5099 13.4871C93.5616 13.2646 93.6133 13.0421 93.6651 12.8195C96.6704 12.2756 97.5288 14.0866 98.8942 12.4848C101.128 12.6696 99.5933 13.2911 99.8378 13.3875C99.9977 13.4484 100.7 13.2783 100.779 13.2883C100.917 13.3078 100.893 13.5084 101.044 13.5077C103.823 13.4775 102.592 13.0955 103.476 12.8576C105.591 12.2915 107.246 13.5645 103.562 13.1742C103.561 13.2862 103.561 13.3982 103.561 13.5101C104.461 13.4054 106.778 13.4621 106.003 14.0281C105.378 14.4739 99.9585 14.1682 103.027 14.8037C103.725 14.9475 104.087 14.5282 105.305 15.3192C106.113 15.364 106.231 14.3435 107.331 14.7561C107.151 14.3995 106.971 14.0429 106.791 13.6863C108.323 13.2261 110.076 13.8533 111.224 13.6568C111.609 13.5898 113.008 11.8957 112.679 13.5923C113.319 13.4881 116.445 13.8091 116.984 13.6584C117.121 13.622 117.293 12.7187 119.261 13.0395C119.398 13.1532 119.534 13.2668 119.671 13.3804C117.866 13.7047 121.053 14.048 120.185 14.9033C119.89 14.517 118.461 14.2781 118.234 14.0836C117.844 13.7489 119.009 13.322 117.525 13.4352C116.586 14.866 119.262 14.2136 118.851 15.5735C120.809 14.9435 121.01 15.5502 121.456 15.5766C123.357 15.6844 124.611 15.5436 126.366 15.7073C126.806 15.4289 123.567 15.0165 123.148 15.1359C124.648 14.1492 122.069 14.0973 120.992 14.6828C120.903 14.3831 120.813 14.0834 120.723 13.7837C122.125 13.9498 123.503 14.0369 124.913 13.7951C125.002 13.9073 125.09 14.0195 125.179 14.1318C124.876 14.2996 124.553 14.4673 124.238 14.635C125.41 14.9144 124.708 14.0392 126.23 14.8085C126.278 14.4714 126.326 14.1343 126.375 13.7972C127.834 13.9132 129.305 14.0293 130.786 14.1454C131.555 13.4713 134.434 13.7314 133.898 14.6053C135.028 14.6704 133.633 14.2005 134.694 13.9904C135.156 13.8993 136.062 13.8759 136.285 14.1122C136.186 14.9456 134.831 15.0452 134.422 15.6166C134.653 15.8019 141.002 15.2249 140.441 16.1983C140.952 16.317 140.718 15.814 141.642 15.6881C144.229 15.3372 148.137 16.3415 150.237 15.1022C147.799 14.4016 147.083 15.1338 145.235 15.1576C144.097 15.1734 136.786 15.2704 138.424 14.3937C138.158 14.5049 137.892 14.6161 137.626 14.7273C137.359 14.4642 137.092 14.2011 136.825 13.9379C137.579 13.9023 138.335 13.8667 139.094 13.8312C139.275 14.0934 139.455 14.3556 139.636 14.6179C139.72 14.4313 139.804 14.2447 139.889 14.0581C140.209 14.0219 140.53 13.9857 140.851 13.9495C140.76 14.1739 140.67 14.3982 140.579 14.6226C141.073 14.6624 141.569 14.7023 142.066 14.7421C141.933 14.4416 141.8 14.1411 141.667 13.8406C144.015 13.772 143.196 13.9575 144.475 14.5226C145.426 14.5828 143.82 14.0012 145.834 13.8606C148.186 13.6974 146.633 14.6098 149.698 14.4229C149.743 14.2733 149.787 14.1237 149.832 13.974C150.507 14.1258 151.184 14.2776 151.863 14.4293C151.774 14.2429 151.685 14.0564 151.596 13.87C152.995 13.9463 154.867 13.5966 155.329 14.3285C153.933 13.9726 153.945 15.248 154.306 15.4836C155.037 15.9667 166.191 15.5536 168.345 15.529C169.573 15.5149 170.673 15.5886 171.74 15.6211C173.089 15.6772 174.362 15.6675 175.762 15.3382C175.015 15.0995 173.422 15.0319 171.757 14.9983C171.754 14.9986 171.745 14.9979 171.742 14.9982C169.643 14.9794 167.491 15.0159 166.857 14.8153C166.745 14.78 166.78 13.611 166.052 14.9241C163.726 14.6937 160.949 15.0578 158.006 15.0105C158.097 14.6742 158.187 14.3379 158.278 14.0016C160.074 14.7229 161.761 13.1559 161.521 14.4627C161.886 14.4639 162.233 14.4649 162.588 14.466C162.588 14.2408 162.589 14.0155 162.59 13.7903C163.122 13.7919 163.655 13.7936 164.19 13.7953C164.189 14.0205 164.189 14.2458 164.188 14.471C164.631 14.4724 165.074 14.4738 165.518 14.4752C165.565 14.2507 165.612 14.0263 165.659 13.8018C166.981 14.2724 171.568 13.0397 169.55 14.3746C170.181 14.3766 170.813 14.3786 171.447 14.3807C171.446 14.2159 171.444 14.0512 171.443 13.8865C171.543 13.8786 171.644 13.8708 171.745 13.8629C171.751 13.8624 171.768 13.8636 171.774 13.8631C171.946 13.8517 172.117 13.8402 172.289 13.8288C172.197 13.9765 172.105 14.1243 172.014 14.2721C173.265 14.023 174.425 14.8248 175.24 14.3208C174.709 14.2004 174.176 14.0801 173.641 13.9597C174.669 14.1885 176.551 13.7725 176.717 13.7738C177.227 13.779 177.505 14.116 178.065 14.1411C178.572 14.1629 178.505 13.906 178.6 13.9164C181.318 14.2164 180.258 15.5863 181.544 13.9651C181.674 14.191 181.805 14.4169 181.935 14.6428C182.117 14.4586 182.303 14.2744 182.487 14.0902C183.297 14.1196 184.103 14.149 184.904 14.1783C184.641 13.8944 184.377 13.6106 184.113 13.3268C185.32 13.2195 185.867 13.7888 185.983 13.8034C186.31 13.8408 186.465 13.4907 186.566 13.4915C191.487 13.594 188.497 13.8605 190.921 15.2195C191.796 14.7129 190.927 14.1795 190.811 13.6494C191.954 13.914 192.335 13.7733 193.564 13.8206C193.884 13.8332 194.223 14.1233 194.424 14.1301C194.598 14.136 195.146 13.8411 195.562 13.8459C196.249 13.8537 197.186 14.048 198.145 14.0576C198.948 14.0648 201.357 13.8861 203.072 13.9089C203.796 13.9195 203.624 14.1704 203.811 14.1737C203.889 14.1748 204.456 13.8795 204.917 13.8851C208.719 13.9338 212.575 14.1819 216.393 14.2311C219.058 14.266 221.79 14.0608 224.487 14.1235C225.06 14.1372 224.754 14.3557 225.003 14.3671C225.088 14.3703 225.198 13.9831 226.075 14.1517C226.392 14.2125 226.023 14.4792 226.335 14.4971C226.489 14.5057 226.547 14.1657 227.452 14.1006C229.088 13.9814 229.945 14.4475 230.09 14.436C230.362 14.4136 230.287 14.1304 230.646 14.1252C232.432 14.1002 233.893 14.0722 235.481 14.0699C236.226 14.0689 241.313 14.079 241.587 14.133C242.208 14.2537 241.621 14.8352 242.419 14.8254C242.647 14.6793 242.875 14.5331 243.103 14.3869C242.747 14.2691 242.384 14.1511 242.034 14.0333C243.013 14.2353 244.14 13.9818 244.863 14.0011C244.998 14.0051 246.219 14.2877 246.859 14.2664C246.589 14.3737 246.317 14.481 246.046 14.5883C246.14 14.6839 246.234 14.7795 246.329 14.8751C247.604 14.7479 248.923 14.7678 250.22 14.8038C250.689 14.8163 250.528 15.0437 251.001 15.0573C253.747 15.1383 253.067 14.1767 255.692 15.997C254.801 15.8247 251.539 16.0142 251.066 15.9488C250.737 15.9031 249.466 14.3752 249.92 15.933C247.287 15.8941 249.59 15.0662 247.119 15.2228C247.167 15.4129 247.214 15.6029 247.261 15.793C246.394 15.9016 245.754 15.9893 245.241 15.6485C245.062 16.5655 242.124 15.9904 240.532 16.0315C238.198 16.089 235.58 16.2782 233.291 16.2865C232.501 16.2892 232.055 15.9228 231.956 15.9226C231.81 15.9232 231.396 16.233 231.103 16.2313C230.035 16.2257 226.725 15.6464 225.911 16.5109C232.329 16.6007 238.796 16.6884 245.22 16.7694C244.41 16.3291 250.922 16.3676 251.259 16.3925C251.565 16.4154 251.304 16.7145 251.394 16.734C252.07 16.8717 252.649 16.4402 252.862 16.4427C253.024 16.4447 253.352 16.6542 253.938 16.6565C254.045 16.6571 254.078 16.44 254.193 16.4407C254.955 16.4495 255.704 16.4612 256.461 16.4686C256.508 16.4712 256.693 16.791 256.888 16.7937C257.082 16.7959 257.277 16.4807 257.326 16.4803C257.939 16.4894 258.981 16.7073 259.558 16.7157C259.758 16.7178 259.622 16.4837 259.846 16.4884C260.533 16.5014 260.306 16.9543 261.165 16.8462C261.453 16.8098 261.439 16.4614 261.988 16.5131C262.377 16.5498 262.328 17.1699 262.39 17.1931C262.476 17.2212 263.813 16.7449 264.256 17.1555C263.281 18.218 265.309 17.2221 265.215 16.7686C265.747 16.8878 266.276 17.0069 266.805 17.1259C266.986 17.0131 267.169 16.9003 267.353 16.7874C269.502 17.3241 270.81 17.0259 272.921 17.2028C273.02 17.2116 274.801 17.481 274.716 17.6414C273.642 17.91 272.588 17.9138 271.909 17.3953C270.778 18.3628 270.759 17.5839 268.953 17.697C268.346 17.7353 268.3 18 268.23 18.0028C265.865 18.1128 262.096 18.1884 260.505 17.3959C260.055 17.6008 261.663 17.701 261.036 17.8488C260.692 17.9309 252.521 18.0863 255.141 17.2231C254.87 17.2448 254.599 17.2664 254.327 17.288C254.044 18.128 252.694 17.9193 252.86 17.0814C252.731 17.2518 252.602 17.4221 252.472 17.5925C252.219 17.7349 251.921 17.8093 251.502 17.8505C249.89 18.0085 240.356 17.5952 239.851 17.7082C239.837 17.9073 239.823 18.1063 239.809 18.3053C244.016 18.5859 248.109 18.1426 252.701 18.7671C252.571 18.5787 252.44 18.3903 252.309 18.2019C254.137 18.4853 255.965 18.768 257.802 19.0501C255.854 19.3668 252.765 19.6151 250.732 19.3121C250.369 19.258 250.638 19.0007 250.555 18.9681C250.339 18.8836 250.092 19.3327 249.315 19.3672C248.541 19.4017 246.577 19.0569 246.394 19.0636C246.039 19.0778 245.111 19.5834 244.519 19.5693C243.744 19.5504 244.268 19.2369 244.112 19.2282C243.468 19.1885 242.886 19.3397 242.377 19.3095C241.634 19.2647 240.089 18.6816 239.551 19.5012C240.088 19.5461 240.623 19.5908 241.155 19.6355C238.245 19.8941 235.986 18.8071 233.126 19.5833C232.464 20.5754 234.822 20.4722 232.824 20.8723C233.186 20.8629 233.548 20.8535 233.909 20.844C233.996 20.6356 234.084 20.4271 234.171 20.2186C234.783 20.3767 235.422 20.535 236.043 20.6931C235.867 20.5039 235.691 20.3146 235.514 20.1254C237.735 20.0144 239.971 19.8521 240.732 20.8664C240.781 20.6242 240.83 20.3819 240.878 20.1397C242.917 20.4617 246.034 19.4716 245.434 20.8153C245.532 20.7449 245.629 20.6745 245.727 20.6041C246.968 20.8959 246.445 20.3305 246.914 20.2732C247.052 20.2573 249.459 20.5754 248.386 20.9633C250.724 21.2985 250.03 20.027 250.678 19.9794C252.181 20.6233 254.904 19.7163 253.75 20.6916C253.975 20.7313 254.201 20.771 254.425 20.8107C255.175 20.0416 255.891 20.9298 256.682 21.233C256.954 21.2536 257.227 21.2742 257.499 21.2948C257.684 21.0352 257.869 20.7755 258.054 20.5158C260.592 21.7893 259.811 18.3739 260.954 21.2484C260.77 21.4177 260.586 21.5869 260.401 21.7562C259.967 21.8329 259.542 21.9097 259.11 21.9864C260.837 22.0807 262.583 22.1746 264.318 22.2676C266.517 23.0918 267.785 22.2336 270.221 22.8902C270.449 22.8161 270.682 22.742 270.913 22.6679C270.672 23.3139 269.78 23.2108 271.441 23.5163C271.58 23.9758 270.451 24.0252 269.948 23.669C269.827 23.5822 270.872 23.2405 269.701 23.2176C268.902 23.2014 270.35 23.7656 267.954 23.5393C268.042 23.6521 268.13 23.7649 268.218 23.8777C267.958 23.8721 267.697 23.8663 267.437 23.8606C267.207 23.5993 266.976 23.338 266.75 23.0767C266.155 23.4452 265.82 23.9665 264.461 23.8413C264.831 23.6827 264.336 23.1575 263.661 23.1594C263.659 23.3469 263.657 23.5344 263.655 23.7218C262.035 23.8259 262.601 23.2816 261.244 23.6968C261.11 23.5463 260.975 23.3958 260.841 23.2453C260.091 23.8519 257.389 24.2402 257.89 23.3246C257.113 24.2111 255.529 23.7894 254.943 23.0668C254.895 23.2524 254.847 23.4381 254.799 23.6237C254.483 23.6579 254.165 23.692 253.847 23.726C253.671 23.6113 253.495 23.4967 253.319 23.382C253.091 23.4919 252.87 23.602 252.646 23.712C252.513 23.5235 252.381 23.3351 252.248 23.1467C251.887 23.3664 251.525 23.5861 251.162 23.8057C250.943 23.654 250.724 23.5023 250.505 23.3505C250.472 23.7399 248.296 23.8003 247.689 23.5369C247.506 23.6479 247.323 23.7589 247.139 23.87C247.053 23.6833 246.966 23.4967 246.879 23.3101C246.742 23.4568 246.604 23.6035 246.466 23.7502C246.154 23.5979 245.842 23.4456 245.536 23.2933C244.262 24.1869 244.228 23.3883 243.938 23.3902C243.4 23.3939 241.554 23.9398 241.255 23.9065C240.951 23.8731 240.807 23.5447 240.561 23.5108C236.479 22.9443 238.163 23.8425 237.341 23.9704C236.901 24.04 236.594 23.7313 236.204 23.7599C235.527 23.8073 232.177 24.1649 231.978 24.1227C231.696 24.0619 232.382 22.6349 231.458 22.9924C231.411 23.7631 229.473 22.958 230.368 24.0459C229.57 23.9405 228.767 23.835 227.96 23.7294C228.044 24.6448 227.035 24.0428 225.968 24.0786C224.444 24.1284 220.97 24.6804 221.116 23.7445C220.747 23.9548 220.377 24.165 220.005 24.3753C217.488 24.0442 215.01 24.3179 212.535 24.2934C205.133 24.2214 197.099 23.8997 189.745 23.6072C189.392 23.5929 189.447 23.2873 189.192 23.2768C187.838 23.2232 184.382 23.3893 182.486 23.294C181.877 23.2637 181.594 22.9607 181.406 22.9443C180.765 22.8865 180.91 23.2823 180.615 23.2667C180.151 23.2419 177.667 22.8402 176.798 22.7893C176.38 22.7643 175.878 23.0698 175.386 22.9661C175.343 22.9576 175.426 22.6364 175.39 22.6302C174.49 22.5777 175.028 22.8642 174.723 22.8451C173.732 22.783 172.703 22.7408 171.646 22.7036L171.717 22.7043C170.452 22.6741 169.163 22.6516 167.871 22.6113C167.281 22.5925 166.382 22.3624 165.878 22.3394C165.686 22.3312 166.03 22.5769 165.367 22.5546C165.14 22.5469 165.063 22.2286 164.807 22.2071C163.705 22.1169 163.334 23.1381 162.394 22.3129C160.554 22.3613 157.317 22.6138 155.653 22.6144C155.258 22.6142 155.066 22.4257 154.69 22.4279C154.423 22.4294 153.953 22.719 153.539 22.7213C153.119 22.7234 152.487 22.4443 151.662 22.452C150.804 22.4596 149.742 22.621 149.55 22.6195C149.318 22.6188 149.21 22.2683 148.979 22.2721C148.276 22.2812 146.407 22.6198 145.514 22.6544C144.554 22.6909 143.981 22.5195 143.654 22.5219C143.352 22.5257 142.999 22.8201 142.861 22.8223C142.641 22.8262 142.59 22.4808 142.31 22.4829C141.854 22.4872 141.383 22.7029 140.702 22.7067C128.525 22.7784 116.582 22.5562 104.731 22.2746C103.408 22.2431 102.66 22.4833 100.738 22.368C99.9579 22.321 100.298 21.9655 99.6771 22.0314C99.3988 22.0611 99.4683 22.3415 99.117 22.3542C97.5632 22.4089 95.7802 22.1442 95.1209 22.1471C94.859 22.1477 94.559 22.4653 94.0246 22.4686C90.0038 22.4948 85.3072 22.3943 80.9173 22.4395C78.6576 22.4636 75.1472 22.6178 72.5379 22.6335C65.2628 22.6772 57.4594 22.5873 50.8578 22.606C40.813 22.6327 30.8816 22.9096 20.9108 22.5462C25.5741 23.3231 31.9241 23.2692 37.129 23.3618C52.1281 23.6272 68.1391 23.2131 83.5252 23.2658C88.8466 23.2838 95.6067 23.2824 101.483 23.4753C101.746 23.4839 102.292 23.2405 102.864 23.2679C102.985 23.2742 104.495 23.7245 105.008 23.7303C104.524 22.9355 106.531 23.6479 107.16 23.6304C107.973 23.6075 109.54 23.215 111.365 23.444C113.015 23.6513 112.561 23.9553 112.652 23.9747C113.238 24.1 113.444 23.6086 113.895 23.5601C115.768 23.3665 125.192 23.6778 127.769 23.7031C128.445 23.7095 128.464 24.0223 128.617 24.0238C129.021 24.027 129.599 23.7198 130.25 23.7237C131.423 23.7315 132.785 24.0305 133.439 24.0335C134.972 24.0412 137.865 23.7013 139.883 23.7004C140.449 23.7 140.414 24.0253 140.671 24.0249C141.817 24.0225 144.719 23.6475 146.105 23.6483C148.351 23.6493 150.722 23.8667 153.015 23.7666C153.159 23.9122 153.302 24.0578 153.446 24.2034C153.675 24.0517 153.903 23.9001 154.132 23.7484C157.981 23.8762 162.023 23.5617 165.84 23.5951C166.283 23.5988 168.492 23.8835 168.864 23.8859C169.171 23.8868 169.475 23.5282 169.932 23.5826C170.573 23.6582 169.967 24.3411 171.016 24.1486C171.299 24.0965 171.026 23.8024 171.593 23.7129C171.609 23.7103 171.651 23.7072 171.714 23.7036L171.632 23.7029C172.305 23.6724 175.328 23.6186 175.498 23.6396C175.818 23.6785 176.094 24.3106 176.176 24.3253C176.603 24.4024 176.59 23.9202 176.88 23.8804C177.748 23.7614 178.864 24.1019 179.003 24.0969C180.676 24.0321 183.837 23.6935 185.587 23.9468C185.829 23.9821 185.795 24.3405 185.837 24.3528C186.111 24.4312 186.287 24.0251 186.547 24.0194C187.97 23.994 190.191 24.3017 191.593 24.3921C191.757 24.4021 192.11 24.2107 192.404 24.2341C194.066 24.3689 193.52 24.6764 193.615 24.6913C193.837 24.728 194.235 24.3859 194.826 24.3731C196.325 24.3375 199.302 24.4311 200.908 24.4816C202.144 24.5211 202.119 24.9192 202.2 24.9283C202.372 24.9451 202.858 24.6341 203.665 24.6098C205.215 24.5615 205.026 24.8717 205.667 24.8676C205.721 24.8683 205.632 24.5607 206.347 24.5395C207.73 24.4989 210.782 24.8444 212.258 24.85C212.821 24.8525 212.957 24.5591 213.531 24.5617C214.43 24.5646 216.519 24.9142 216.674 24.9156C216.72 24.9162 216.827 24.5779 217.095 24.5817C217.389 24.586 217.675 24.765 217.894 24.767C219.142 24.7802 221.325 24.2181 220.704 25.4224C221.11 25.1286 221.514 24.8349 221.917 24.5411C224.548 24.6381 227.096 24.5538 229.7 24.5289C230.283 24.5234 230.761 24.7598 231.262 24.7555C231.763 24.7511 233.944 24.4007 234.303 24.3984C234.961 24.395 238.64 24.404 239.108 24.4371C240.01 24.5008 240.872 25.0134 241.237 24.92C241.529 24.8449 241.263 24.559 241.82 24.4862C242.786 24.3602 244.436 24.7441 244.727 24.7421C244.852 24.7414 244.622 24.5183 245.795 24.5173C246.433 24.5163 246.776 24.7631 247.007 24.7648C247.079 24.7644 246.978 24.3699 248.236 24.4382C249.104 24.4861 249.467 24.7939 249.558 24.7962C249.696 24.7999 250.034 24.4801 250.586 24.498C251.876 24.5419 254.221 24.9407 255.444 24.9827C255.68 24.991 255.605 24.599 256.542 24.6456C257.217 24.6791 257.097 24.9889 257.35 25.0042C257.752 25.0279 258.355 24.6534 259.236 24.6754C260.35 24.7047 268.6 25.1826 269.033 25.2877C269.32 25.3591 269.652 25.3664 269.793 25.5368C269.67 25.6978 269.546 25.8588 269.423 26.0198C268.165 25.4393 268.668 26.0941 268.332 26.1327C267.842 26.188 266.01 26.0875 265.567 26.2273C265.408 26.2779 265.767 26.6275 264.916 26.7971C264.002 26.9783 263.595 26.3581 263.229 27.1961C261.952 26.2485 260.696 27.2271 262.191 27.5076C263.019 27.6654 271.221 28.0779 272.898 28.1421C274.257 28.1953 276.798 27.9651 278.475 28.0413C279.454 28.0869 281.876 28.1463 281.77 28.5931C282.641 28.655 281.722 28.2036 281.905 28.1428C282.286 28.016 285.009 28.34 285.523 28.3303C288.064 28.2859 291.273 27.7998 293.739 28.3724C293.624 28.4918 293.508 28.6113 293.393 28.7307C292.835 28.9488 290.267 28.6245 289.971 29.1979C291.98 29.2066 293.987 29.2136 295.992 29.2189C297.736 29.2246 299.49 29.2307 301.24 29.2373C301.165 28.7475 305.824 28.7727 306.038 28.9949C305.954 29.2315 305.871 29.4681 305.79 29.7047C303.171 28.7944 303.399 29.9842 301.637 29.3462C300.923 29.3346 301.135 29.7269 300.778 29.8C297.26 30.5265 300.728 28.9962 298.03 29.3371C298.752 29.8482 297.065 30.0619 295.982 30.1505C295.864 30.161 295.747 30.1697 295.643 30.1769C295.419 30.1924 292.443 30.0389 292.093 30.0463C290.112 30.09 286.7 30.3849 284.739 30.0623C283.183 30.0161 282.335 30.4153 280.923 30.4996C279.851 30.5634 280.159 30.2812 279.658 30.2742C278.606 30.259 278.251 31.122 277.583 29.9097C276.862 30.0548 276.151 30.1997 275.435 30.3445C275.436 30.157 275.438 29.9695 275.439 29.782C274.99 29.7784 274.54 29.7748 274.09 29.7711C273.955 29.9569 273.821 30.1426 273.687 30.3284C272.267 30.0606 272.865 29.6141 272.604 29.081C272.297 29.042 271.989 29.0029 271.681 28.9637C271.439 29.3692 271.197 29.7746 270.954 30.18C269.574 30.1347 268.211 30.0889 266.828 30.0424C266.741 29.8547 266.654 29.667 266.568 29.4793C266.563 29.6661 266.558 29.8529 266.554 30.0397C264.231 30.0557 261.902 30.0702 259.57 30.0834C258.943 30.3766 262.682 30.6435 262.957 30.6641C264.531 30.7799 268.704 30.5192 268.705 31.1851C269.68 30.6973 272.631 30.8466 273.533 31.4502C272.154 31.4029 270.749 31.3548 269.37 31.3064C269.413 31.5301 269.455 31.7538 269.498 31.9775C267.783 31.0611 267.511 31.1081 265.736 31.942C265.738 31.6425 265.739 31.343 265.74 31.0436C264.49 32.0728 262.314 30.2839 262.24 31.5688C261.582 31.4578 260.922 31.3467 260.259 31.2354C258.832 31.3765 261.041 32.3905 255.462 31.9402C255.079 31.9088 255.163 31.5822 254.584 31.5981C254.42 31.603 253.444 32.0683 251.632 31.9972C251.347 31.9859 251.329 31.7015 251.033 31.6619C250.352 31.5681 248.974 32.1133 249.607 31.2052C246.918 30.9054 248.023 31.6704 247.181 31.9587C246.618 32.15 246.738 31.6097 246.25 31.7264C245.643 31.8712 246.085 32.4231 243.692 32.1414C243.962 32.1078 244.231 32.0741 244.5 32.0404C244.367 31.8902 244.234 31.7401 244.1 31.59C242.727 31.9287 242.861 31.4099 242.201 32.2356C241.217 31.8509 240.363 31.8102 238.994 31.8599C236.348 31.9568 237.707 32.8739 234.691 31.6228C234.199 31.7861 233.716 31.9495 233.226 32.1128C232.429 31.7446 233.086 31.3065 231.887 31.2C232.819 32.0954 230.272 31.7387 229.848 32.5197C229.806 32.3316 229.764 32.1436 229.722 31.9555C229.456 31.9518 229.19 31.9481 228.923 31.9444C228.92 32.0948 228.917 32.2451 228.914 32.3955C228.56 32.278 228.204 32.1604 227.848 32.0428C227.577 32.1881 227.306 32.3335 227.034 32.4788C226.59 32.1581 226.163 31.8377 225.728 31.5171C225.453 31.4918 225.178 31.4664 224.902 31.4411C224.987 31.6662 225.071 31.8914 225.155 32.1166C224.802 32.0367 224.447 31.9569 224.092 31.877C224.501 32.2503 224.237 32.6775 223.123 32.6505C222.205 32.6285 223.241 31.8761 221.286 32.1674C221.147 32.1882 220.905 32.7319 219.038 32.7898C216.807 32.8593 217.9 32.4786 217.503 32.4592C217.426 32.4559 216.746 32.7215 216.108 32.7518C215.747 32.769 215.4 32.5418 215.353 32.5417C215.128 32.5486 215.059 32.862 214.748 32.8689C213.947 32.8844 212.923 32.7156 212.151 32.7201C211.802 32.7218 211.47 32.9033 211.314 32.9033C211.071 32.902 210.767 32.613 210.521 32.6106C209.601 32.6032 208.247 33.5276 207.842 32.2103C206.961 33.4034 205.146 31.919 205.272 32.7296C202.981 32.391 196.776 33.2923 196.971 31.9363C195.626 33.0785 195.775 32.2392 195.224 32.2486C194.612 32.2588 194.926 32.4888 194.439 32.4715C193.305 32.4312 192.196 32.3182 191.067 32.2971C191.247 32.1136 191.424 31.9299 191.606 31.7464C190.424 31.6693 190.827 32.1086 189.615 32.1743C187.377 32.2937 188.322 31.9618 187.999 31.469C188.077 31.9413 185.441 31.8295 185.179 31.7637C185.019 31.7236 185.73 31.1266 184.115 31.2989C184.2 31.487 184.286 31.6751 184.371 31.8632C183.646 31.597 181.612 31.8917 181.29 31.8241C181.136 31.7926 180.332 30.2739 179.554 31.455C179.464 31.2669 179.375 31.0787 179.286 30.8906C178.437 31.1028 177.582 31.315 176.723 31.5272C176.593 31.1887 176.465 30.8502 176.336 30.5117C176.07 30.5078 175.804 30.504 175.537 30.5001C175.71 30.8015 175.882 31.1028 176.055 31.4042C174.415 31.2451 172.369 31.6867 172.038 30.674C171.868 30.7595 171.698 30.845 171.527 30.9305L171.691 30.932C171.5 31.0302 171.31 31.1285 171.119 31.2268C170.887 30.8908 170.654 30.5548 170.422 30.2188C168.763 30.2981 168.737 30.5221 167.607 30.8759C167.652 30.6143 167.697 30.3527 167.742 30.0912C166.909 30.456 165.395 30.7934 164.205 30.8359C163.639 30.8554 162.673 30.4918 162.54 30.5241C162.411 30.5581 161.068 31.9709 160.922 30.7437C158.936 31.2809 158.073 30.7233 157.275 30.7344C156.756 30.7419 156.519 31.0356 155.936 31.0643C155.1 31.1057 154.264 30.9608 153.785 30.9796C153.511 30.9912 153.459 31.2782 153.27 31.2867C152.376 31.3278 152.908 31.0359 151.957 31.0522C151.868 31.0553 151.164 31.4035 150.375 31.3561C149.933 31.3299 148.796 30.9324 148.697 30.9331C148.253 30.9385 148.603 31.7273 147.092 30.8131C147.136 30.963 147.179 31.1128 147.223 31.2627C145.351 31.637 145.063 30.9686 144.687 30.9212C144.639 30.9173 144.186 31.1741 143.916 31.1377C143.46 31.0756 143.278 30.7217 143.177 30.7059C142.832 30.6508 141.59 30.8026 140.797 30.4587C140.96 31.4647 138.171 31.8142 137.564 30.674C137.074 30.8972 136.584 31.1204 136.095 31.3436C135.875 31.1555 135.655 30.9673 135.436 30.7792C135.301 30.9657 135.167 31.1521 135.032 31.3386C134.324 30.9251 133.624 30.5117 132.894 30.0982C132.846 30.5101 132.799 30.9221 132.752 31.3341C132.549 31.2866 132.347 31.2392 132.145 31.1917C131.988 30.8638 131.831 30.5359 131.674 30.208C131.421 30.2698 131.169 30.3316 130.917 30.3934C130.854 30.6302 130.791 30.867 130.728 31.1038C129.377 31.3732 130.07 29.1149 127.509 31.0948C127.112 30.9068 126.717 30.7189 126.322 30.531C125.868 31.4391 125.057 30.8862 124.354 30.9865C123.868 31.0573 123.893 31.4186 123.232 31.4248C122.571 31.4309 122.596 31.0855 122.544 31.0831C122.007 31.0604 121.602 31.3639 121.209 31.3021C121.15 31.2929 121.003 30.8823 120.503 30.8549C120.005 30.8276 119.703 31.2631 118.963 31.1788C118.585 31.1361 118.476 30.7902 118.141 30.7587C116.562 30.6056 114.906 32.3516 113.697 30.2722C113.42 30.5346 111.438 31.4501 110.6 31.3949C109.295 31.307 109.8 30.901 109.282 30.8251C109.206 30.8137 108.818 30.9502 107.719 30.9226C107.518 30.9176 107.564 31.1477 107.535 31.1507C106.227 31.1428 103.719 30.9549 102.319 30.9186C102.194 30.9149 101.535 31.5542 100.434 30.6893C98.7766 31.3219 95.6047 29.9459 93.4517 30.9005C93.1519 30.9201 92.7896 30.69 92.6574 30.6975C91.5226 30.7657 91.9119 31.4627 89.2868 30.4374C89.4989 30.7929 88.8818 31.1118 88.0191 31.0828C86.7245 31.0391 87.6445 30.3794 86.6075 30.431C86.6071 30.6179 86.6066 30.8047 86.6062 30.9916C84.2519 30.4834 83.7208 31.281 81.3075 31.28C80.4377 31.2791 79.1688 30.8622 78.9652 30.8606C78.8855 30.8616 77.9499 31.3099 77.8616 31.3131C77.3672 31.3255 77.0633 31.1171 76.6179 31.115C75.1371 31.1073 73.4045 31.6894 73.7205 30.6261C73.3205 30.8498 72.9219 31.0736 72.5249 31.2973C71.0359 30.1578 69.9103 31.7213 69.5816 30.617C69.3065 30.8443 69.0321 31.0716 68.7585 31.2988C62.3554 31.1698 55.7562 31.041 49.307 30.9134C49.0371 31.2679 46.2387 31.1366 46.1067 31.0811C45.4579 30.8296 46.1535 30.0566 44.7711 30.2309C44.6175 30.5698 44.4642 30.9087 44.3113 31.2476C42.589 31.3549 43.4191 31.0189 42.745 30.7877C42.4647 30.829 42.5543 31.0924 42.1766 31.1109C40.1711 31.212 35.9147 31.2169 33.6099 31.2344C33.1503 31.2381 33.2208 30.9922 33.0786 30.9913C32.6883 30.9929 31.9231 31.3017 31.1626 31.3006C26.2992 31.2901 19.5069 31.1048 14.6409 30.8377C14.2954 30.8192 14.2543 30.5257 14.0249 30.5107C13.7055 30.4912 13.0127 30.7275 12.697 30.7023C12.3979 30.6793 12.209 30.4562 11.8979 30.4297C10.3409 30.3059 8.32708 30.6799 6.78247 30.0209C6.65691 29.9653 4.91686 28.7818 4.91904 28.7043C4.68019 28.2442 6.21485 27.5233 3.71912 26.8476C5.96896 26.2628 5.2261 25.2237 2.38376 24.7134C3.22211 24.6489 3.7367 24.584 4.56335 24.5195C5.22684 24.4548 5.94298 24.3902 6.70429 24.3257C6.70634 24.2026 6.7084 24.0796 6.71045 23.9566C5.32626 23.3451 4.10626 23.1408 2.11016 23.0823C2.16987 22.9684 2.23083 22.8546 2.29302 22.7407C4.01874 22.1732 6.20685 22.0706 7.47718 21.2955C5.53209 20.7182 3.59769 20.1412 1.67197 19.5644C1.75595 19.4746 1.84305 19.3849 1.93325 19.2951C2.90355 19.0628 4.93105 18.928 5.67308 18.7114C7.21875 18.2984 6.52402 18.1424 5.60216 18.0265C4.75249 17.9108 3.51882 17.8351 3.99696 17.5825C7.17325 17.6043 10.2587 17.6264 13.3804 17.6489C13.5855 17.276 1.40358 16.2318 1.61778 15.1074C2.04977 15.0701 2.58108 15.0329 3.08594 14.9957C3.53282 14.9584 4.0275 14.9212 4.56945 14.884C4.08672 14.5977 3.64153 14.3114 3.23426 14.0252C3.34666 13.9348 3.46194 13.8444 3.5801 13.7541C5.30527 13.534 6.87587 13.3138 8.57493 13.0939C6.11075 13.2024 4.13344 13.2155 2.85224 12.9202C2.08037 12.7725 1.63992 12.5478 1.10338 12.219C0.874449 12.0547 0.714398 11.8645 0.470592 11.6449C0.369136 11.5351 0.289701 11.418 0.227053 11.2932C0.211396 11.262 0.196793 11.2303 0.183173 11.1982C0.148578 11.166 0.106978 11.1333 0.08109 11.1001C0.053751 11.0669 0.0343106 11.0332 0.0223432 10.9991C0.0163882 10.982 0.0122036 10.9648 0.010312 10.9475C0.0095516 10.9388 0.00855881 10.9301 0.0110696 10.9214C0.0119296 10.9192 0.0126627 10.917 0.0164109 10.9148C0.0187831 10.9138 0.0201394 10.9127 0.0309394 10.9116C0.040248 10.9112 0.0343214 10.9104 0.0911012 10.9107C0.112101 10.9111 0.121346 10.9104 0.221071 10.9142C0.249146 10.9155 0.283443 10.9168 0.353766 10.9216C0.442342 10.9312 0.476897 10.9192 0.907443 10.9907C1.02873 11.014 1.17878 11.0392 1.4837 11.1304C1.81247 11.2849 2.20701 11.1839 3.53998 12.3457C4.16037 12.9085 5.26637 14.4753 5.05303 16.4809C4.82979 18.4564 3.74474 19.4694 3.20821 19.919C2.04011 20.7898 1.69896 20.7414 1.39964 20.8638C0.870532 21.0063 0.75948 20.9998 0.628136 21.0213C0.512819 21.0355 0.451883 21.0402 0.402567 21.0443C0.0971887 21.0648 0.149296 21.0569 0.102299 21.0596C0.0770698 21.0602 0.0666647 21.0604 0.0577976 21.0607C-0.0358544 21.0657 0.0155783 21.0697 0.00231837 21.0741C0.00608401 21.075 -0.00457267 21.076 0.0239148 21.0768C0.0320315 21.0768 0.0308522 21.0771 0.0761186 21.0766C0.0902999 21.0764 0.104473 21.0764 0.154524 21.075C0.182908 21.074 0.211326 21.0737 0.311445 21.0679C0.368096 21.0638 0.425407 21.0626 0.624143 21.0392C0.735484 21.023 0.853133 21.017 1.2329 20.9263C1.43813 20.8679 1.68607 20.8287 2.30696 20.5258C2.62097 20.3566 3.06061 20.1406 3.69326 19.4932C4.29197 18.8969 5.22047 17.444 5.08308 15.6412C4.95177 13.8498 3.99957 12.7425 3.45547 12.2418C2.86936 11.7137 2.47974 11.5313 2.19284 11.3872C1.62823 11.1276 1.39487 11.0879 1.20242 11.0354C0.844723 10.9521 0.729279 10.9451 0.622077 10.9298C0.429535 10.9071 0.372629 10.9057 0.317083 10.9016C0.218563 10.8957 0.190233 10.8954 0.162132 10.8943C0.112482 10.8928 0.0983311 10.8927 0.0842201 10.8924C0.0113544 10.8912 0.0321542 10.8915 0.0217573 10.8911C0.0142459 10.8906 0.0137544 10.8902 0.0122851 10.8897C0.00850562 10.8879 0.00959362 10.8861 0.00991074 10.8844C0.0111116 10.8808 0.0143562 10.8772 0.0189051 10.8736C0.0280732 10.8665 0.0429595 10.8593 0.0633253 10.8522C0.0941683 10.8379 0.20207 10.8237 0.202302 10.8093C0.24999 10.7807 0.306352 10.7521 0.371347 10.7236C1.501 12.1324 6.64096 11.6826 9.3894 11.4055C9.16225 11.1991 8.32446 11.1745 7.60732 11.1708C7.2404 11.1689 6.90402 11.1722 6.60375 11.1604C6.27117 11.1485 6.01668 11.1216 5.88605 11.0595C5.73725 10.9882 6.2572 10.7026 5.91192 10.5556C5.10338 10.1736 1.26362 9.67934 1.86446 9.21334C2.27946 8.91376 8.14596 8.50908 9.39302 8.54236C6.59812 8.00003 3.86607 7.84094 1.04641 7.18329C2.78054 6.27195 4.32612 5.1562 7.49926 5.11042C8.51001 4.63246 1.74283 3.96101 1.63214 3.6996C2.71377 3.42009 3.949 3.14084 5.09321 2.86156C4.66801 2.89851 4.07617 2.93528 3.60754 2.9722C3.36184 2.99065 3.15433 3.00914 2.90615 3.0276C2.6288 3.04602 2.37107 3.06447 2.13311 3.08294C2.13042 2.98919 2.12773 2.89544 2.12505 2.80169C4.67932 2.36922 6.99289 1.57329 9.9207 1.63112C9.86016 1.13506 8.05669 1.18212 7.2429 1.17664ZM285.911 31.2055C285.967 31.617 284.898 31.5438 284.294 31.5323C284.384 31.6077 284.474 31.6831 284.565 31.7585C283.271 31.6735 280.885 31.5002 280.787 32.2975C279.865 32.3905 280.276 31.6992 279.981 31.6182C279.866 31.5859 278.669 31.9815 277.711 31.4829C277.483 31.4832 277.254 31.4834 277.026 31.4837C276.979 31.745 276.933 32.0064 276.887 32.2678C276.572 31.9477 276.259 31.6276 275.944 31.3074C279.268 31.2773 282.579 31.2434 285.906 31.2054C285.907 31.2054 285.909 31.2055 285.911 31.2055ZM252.829 31.2476C251.634 31.086 249.778 30.8304 250.145 31.5516C250.912 31.5231 251.675 31.4944 252.434 31.4656C252.566 31.393 252.698 31.3203 252.829 31.2476ZM133.038 29.4287C132.021 28.7202 131.083 29.3279 129.525 29.1962C129.526 29.3452 129.528 29.4943 129.53 29.6434C130.167 29.2872 131.857 29.5301 133.038 29.4287ZM315.829 28.6365C316.052 28.6931 316.27 28.7498 316.492 28.8064C315.589 29.6025 315.427 29.0368 314.411 29.1088C314.349 29.1133 314.37 29.2968 314.348 29.2978C314.098 29.3088 313.872 29.0867 313.645 29.0888C313.211 29.0932 312.856 29.315 312.087 29.3031C311.494 29.2931 311.49 28.9414 311.279 28.9493C311.104 28.957 309.333 29.9159 308.2 29.4928C306.043 28.6861 315.171 28.5564 315.829 28.6365ZM322.23 29.339C322.016 29.3408 321.802 29.3427 321.588 29.3445C322.235 28.808 320.937 28.8817 319.985 28.8868C320.017 28.3685 322.03 28.6034 322.933 28.4549C322.699 28.7496 322.464 29.0443 322.23 29.339ZM295.215 28.0977C296.054 28.0472 295.913 28.6939 295.877 28.8866C295.61 28.8859 295.343 28.8851 295.076 28.8844C295.123 28.6221 295.169 28.3599 295.215 28.0977ZM301.507 27.8946C301.245 28.3332 299.43 28.5187 298.566 28.5518C298.53 28.5518 298.76 28.3113 298.158 28.3317C297.978 28.3381 296.175 29.2099 296.575 28.215C298.218 28.1078 299.862 28.001 301.505 27.8946C301.506 27.8946 301.506 27.8946 301.507 27.8946ZM303.34 28.1614C302.993 28.2981 302.655 28.4348 302.312 28.5715C302.137 28.3644 301.956 28.1573 301.781 27.9503C302.173 27.8997 302.565 27.8491 302.949 27.7986C303.08 27.9195 303.211 28.0405 303.34 28.1614ZM45.6413 25.7503C45.7216 25.9711 45.8078 26.192 45.8826 26.4128C46.1797 26.5487 47.659 25.5905 47.1917 25.4036C46.6709 25.5192 46.1722 25.6347 45.6413 25.7503ZM39.2823 25.2757C38.9649 25.1638 38.6493 25.052 38.3355 24.9401C37.9737 25.3138 37.6144 25.6875 37.2574 26.0612C38.8011 26.3163 40.5152 26.6103 40.2413 25.506C40.6103 25.5066 40.9422 25.5072 41.2958 25.5079C41.0014 25.9638 41.0371 26.1142 41.9573 26.4056C42.1602 25.7708 43.1138 26.0961 44.2338 25.9586C43.4199 25.92 42.6164 25.8814 41.8234 25.8428C41.8236 25.7308 41.8238 25.6189 41.824 25.5069C43.5974 25.5506 41.3955 24.8363 40.2468 25.2794C40.1524 25.1302 40.0582 24.9809 39.9641 24.8317C39.7359 24.9797 39.5087 25.1277 39.2823 25.2757ZM168.839 25.8291C168.616 25.7158 168.393 25.6024 168.17 25.4891C167.302 26.9533 169.063 25.5673 170.32 26.7322C169.985 26.0174 171.179 25.9092 171.707 25.8628L171.6 25.8618C171.725 25.8523 171.812 25.8458 171.833 25.8348C171.757 25.73 171.681 25.6252 171.605 25.5204L171.708 25.5213C171.565 25.3277 171.421 25.134 171.278 24.9404C170.462 25.2366 169.649 25.5328 168.839 25.8291ZM162.56 24.7977C163.339 25.5317 159.528 25.5647 158.254 25.3996C157.944 25.3591 157.394 24.9557 157.171 25.0057C157.036 25.1537 156.9 25.3018 156.765 25.4498C156.604 24.9363 154.132 25.5055 153.167 25.7787C153.077 25.5916 152.986 25.4044 152.896 25.2173C152.543 25.2905 152.195 25.3636 151.83 25.4368C151.876 25.2507 151.922 25.0647 151.968 24.8786C151.694 25.1017 151.421 25.3249 151.148 25.548C150.08 25.7939 150.741 24.7808 149.939 25.0952C149.049 25.4442 150.504 26.053 150.476 26.4464C151.202 26.3471 152.843 26.1249 153.555 26.1158C153.97 26.111 153.496 26.8144 155.288 26.0097C155.68 26.1997 156.073 26.3897 156.467 26.5797C157.191 26.2818 157.918 25.9839 158.646 25.686C158.781 25.9475 158.916 26.2089 159.051 26.4704C159.128 26.5115 160.819 25.924 160.73 25.7276C161.423 26.2288 162.8 26.322 164.257 26.3518C164.398 26.2103 164.539 26.0688 164.68 25.9273C163.268 26.2294 164.232 25.7758 163.812 25.5028C163.57 25.3453 162.83 25.0353 162.56 24.7977ZM55.5029 25.1972C53.1132 25.8293 54.5789 25.3067 52.0407 25.3016C52.2161 25.6392 52.3919 25.9768 52.5681 26.3144C53.8096 25.7007 55.9098 26.1146 55.5054 25.1972C55.5046 25.1972 55.5037 25.1972 55.5029 25.1972ZM30.3151 26.272C31.6754 26.0702 30.9754 25.5446 32.6929 25.3795C32.6937 25.3795 32.6945 25.3795 32.6953 25.3795C31.7922 25.3402 30.9728 25.3011 30.0375 25.2618C30.1298 25.5985 30.2223 25.9352 30.3151 26.272ZM110.001 26.0361C111.299 26.186 111.044 25.923 112.228 26.4501C114 25.819 112.501 25.905 112.502 25.3278C112.098 25.496 111.694 25.6642 111.291 25.8324C110.317 25.2902 111.242 25.0209 111.243 24.9691C111.242 24.9691 111.241 24.9691 111.24 24.9691C111.241 24.7958 111.272 24.7594 110.899 24.6537C110.599 25.1145 110.3 25.5753 110.001 26.0361ZM115.613 25.338C115.159 25.7201 114.952 26.2116 116.147 26.4605C116.148 26.4605 116.148 26.4605 116.149 26.4605C116.253 25.6042 117.359 26.2985 117.871 26.2424C118.005 26.1497 118.14 26.057 118.274 25.9642C117.383 25.7555 116.533 25.5468 115.613 25.338ZM135.32 24.6052C135.322 25.5515 134.342 25.6387 135.719 26.5145C135.987 26.4983 136.256 26.4822 136.524 26.466C136.701 26.2589 136.879 26.0517 137.056 25.8445C140.48 27.5666 141.497 24.654 135.721 25.7274C135.72 25.7281 135.72 25.7287 135.719 25.7294C135.586 25.3547 135.453 24.9799 135.32 24.6052ZM129.269 24.6682C129.224 25.1648 129.179 25.6614 129.134 26.158C128.381 24.9577 127.402 26.0983 125.936 25.2488C125.802 25.3995 125.669 25.5501 125.536 25.7008C125.001 25.3669 119.495 25.2562 120.688 26.0235C121.202 26.3585 122.331 25.9084 122.429 25.9188C122.759 25.9572 123.188 26.3851 123.747 26.3619C124.066 26.3478 124.768 25.8482 125.401 25.8508C126.837 25.857 129.481 27.2111 131.418 25.9418C131.556 26.0919 131.695 26.242 131.834 26.3922C133.266 26.3048 132.804 25.8291 134.121 26.3986C135.069 24.0419 128.757 26.4999 130.078 24.5904C130.077 24.5904 130.076 24.5904 130.076 24.5904C129.806 24.6163 129.537 24.6423 129.269 24.6682ZM90.1129 25.2735C90.0255 24.8496 88.3677 25.4994 88.7595 24.4851C88.2191 24.8373 87.6809 25.1896 87.1449 25.5418C87.1487 25.6362 87.1526 25.7306 87.1565 25.825C87.6886 25.7521 88.2228 25.6791 88.7593 25.6062C88.761 25.7559 88.7626 25.9057 88.7644 26.0554C89.5553 25.5156 92.9431 25.7597 92.8113 26.2897C92.987 26.0662 93.163 25.8427 93.3392 25.6192C94.9108 26.2328 96.2784 25.5878 98.0265 26.1873C98.1625 26.0021 98.2987 25.8169 98.435 25.6317C98.5231 25.7816 98.6112 25.9316 98.6994 26.0816C99.3379 26.102 99.9867 26.1225 100.601 26.1429C102.64 25.5451 98.6778 24.7547 98.1655 24.842C98.1004 24.8542 98.1093 25.2419 97.7031 25.3018C96.9684 25.4068 92.9998 25.0111 91.7691 25.2638C91.7589 25.0066 91.7486 24.7495 91.7384 24.4923C91.1944 24.7527 90.6526 25.0131 90.1129 25.2735ZM142.983 25.639C143.071 25.901 143.16 26.163 143.248 26.4249C144.789 26.1681 145.768 26.3994 145.372 25.5328C145.371 25.5328 145.371 25.5328 145.37 25.5328C144.571 25.5682 143.776 25.6036 142.983 25.639ZM258.795 27.155C258.76 26.6343 258.018 26.4318 257.044 26.7938C257.089 26.9454 257.134 27.0969 257.179 27.2485C257.688 26.8111 258.312 27.5903 259.856 27.5044C259.859 27.2427 259.862 26.981 259.865 26.7193C259.509 26.8646 259.153 27.0098 258.795 27.155ZM141.625 25.5218C141.145 25.2118 139.799 26.1441 140.683 26.1929C141.359 26.2298 141.882 25.6882 141.625 25.5218ZM24.9279 25.7574C25.2862 25.8127 25.6481 25.8679 26.0137 25.9232C26.212 25.7008 26.3748 25.4785 26.5566 25.2561C26.5558 25.2561 26.555 25.2561 26.5542 25.2561C26.0585 25.4233 25.4626 25.5903 24.9279 25.7574ZM105.529 26.0675C106.728 26.0381 107.963 26.0087 109.127 25.9791C109.139 25.834 109.151 25.6889 109.163 25.5437C107.985 26.0705 107.494 25.4982 107.211 25.4625C107.213 25.4625 107.214 25.4625 107.215 25.4625C106.307 25.3452 105.446 25.2584 104.596 25.0828C104.906 25.411 105.217 25.7393 105.529 26.0675ZM101.442 25.1412C101.64 26.1675 101.894 26.2875 103.728 25.5708C103.656 25.4443 103.584 25.3178 103.512 25.1913C102.562 25.2644 102.012 25.4999 102.179 24.9653C101.933 25.0239 101.687 25.0826 101.442 25.1412ZM120.145 25.5181C119.924 25.191 118.184 25.5142 118.279 25.6791C118.314 25.7446 120.571 26.1595 120.145 25.5181ZM272.094 27.0591C271.691 26.9807 271.288 26.9024 270.883 26.8239C271.423 26.7173 271.962 26.6107 272.499 26.5039C272.364 26.689 272.229 26.874 272.094 27.0591ZM276.535 25.6362C276.822 25.7691 275.875 26.6843 277.599 26.9352C276.341 26.9454 275.1 26.9552 273.84 26.9644C274.431 26.8202 275.02 26.6758 275.608 26.5314C275.508 26.2656 275.407 25.9998 275.307 25.7341C275.717 25.7015 276.126 25.6689 276.535 25.6362ZM277.875 26.3221C277.209 25.6164 280.751 25.589 281.087 25.6765C281.161 25.6974 281.508 26.2311 281.636 26.3461C281.1 26.3433 280.561 26.3404 280.025 26.3373C280.202 26.5059 280.382 26.6744 280.561 26.8429C279.928 26.896 279.308 26.9489 278.679 27.0017C278.948 26.8357 279.217 26.6696 279.486 26.5035C278.95 26.4431 278.413 26.3827 277.875 26.3221ZM263.628 26.3661C264.079 26.3883 264.53 26.4104 264.979 26.4325C264.892 26.1699 264.804 25.9073 264.717 25.6447C264.448 25.642 264.178 25.6393 263.909 25.6366C263.815 25.8798 263.722 26.123 263.628 26.3661ZM272.779 26.1137C272.117 27.3683 270.358 24.5981 272.431 25.6362C272.639 25.7417 272.842 25.9925 272.779 26.1137ZM282.417 25.8355C283.815 24.9254 283.489 26.9519 282.177 26.3496C282.111 26.3176 282.312 25.9027 282.417 25.8355ZM292.883 25.8579C292.996 25.8651 293.193 26.5226 294.275 25.9016C294.453 25.977 294.631 26.0524 294.809 26.1278C294.391 26.4322 290.822 26.6007 291.317 25.9516C291.863 25.9436 292.319 25.8356 292.883 25.8579ZM289.439 23.4145C288.905 23.4303 288.371 23.446 287.835 23.4616C288.011 23.6682 288.186 23.8748 288.361 24.0813C288.098 24.1361 287.834 24.1908 287.571 24.2454C287.122 23.8884 286.67 23.5313 286.225 23.1741C287.388 23.1236 288.555 23.0727 289.714 23.0211C289.623 23.1523 289.531 23.2834 289.439 23.4145ZM275.22 22.8174C276.246 23.0836 277.511 22.8187 279.181 22.8745C279.182 22.8751 279.183 22.8758 279.184 22.8764C279.267 22.88 279.413 23.1637 279.68 23.1768C279.909 23.188 284.424 22.9062 284.071 23.3827C282.319 23.8017 281.676 23.1444 281.248 24.2069C281.164 23.9817 281.08 23.7566 280.996 23.5314C279.313 23.1312 278.838 23.9052 277.889 24.1835C277.894 24.0143 277.899 23.845 277.904 23.6758C277.272 23.6542 276.641 23.6325 276.014 23.6107C276.102 23.7227 276.189 23.8347 276.277 23.9467C276.055 23.945 275.832 23.9433 275.61 23.9415C275.071 23.4357 274.383 23.3133 275.22 22.8174ZM291.866 23.7038C292.168 22.9241 294.073 22.9507 296.008 23.0301C297.26 23.0821 298.514 23.1573 299.378 23.0548C298.454 23.6664 297.148 23.4508 296.004 23.3309C295.715 23.3002 295.435 23.2758 295.177 23.2735C292.74 23.2515 294.423 23.7298 294.009 23.9359C293.804 24.0379 292.423 23.21 291.866 23.7038ZM271.459 23.0106C272.677 23.1249 273.346 22.8349 274.401 23.3147C274.312 23.4077 274.223 23.5007 274.134 23.5938C273.77 23.5052 270.847 23.2093 271.459 23.0106ZM302.598 23.4028C300.262 22.9328 301.398 24.0996 300.194 23.2238C300.987 23.1713 301.796 23.119 302.599 23.0668C302.599 23.1788 302.598 23.2908 302.598 23.4028ZM138.94 20.6841C137.95 20.6518 136.852 20.4144 136.264 20.8971C136.93 20.9738 137.599 21.0506 138.27 21.1274C138.493 20.9796 138.716 20.8319 138.94 20.6841ZM167.12 16.0368C166.894 15.92 166.002 16.2599 165.909 16.2596C165.734 16.259 165.782 16.0904 165.78 16.0463C164.641 16.0733 165.69 16.6001 164.847 16.7113C164.703 16.7296 162.731 16.4647 161.934 16.4835C160.678 16.5123 159.427 16.4745 158.961 16.4821C158.172 16.4944 156.712 16.8827 155.43 16.8991C154.901 16.9051 154.718 16.5902 154.188 16.5965C150.77 16.639 144.026 17.0507 140.967 16.8424C140.21 16.7906 139.491 16.3768 139.093 16.4092C138.778 16.5587 138.464 16.7082 138.15 16.8577C137.191 15.5012 136.867 16.7043 135.835 16.8276C135.18 16.9055 134.876 16.5036 134.788 16.5043C134.204 16.5105 133.93 16.7007 133.457 16.731C132.931 16.7644 132.18 16.5814 131.993 16.6136C131.879 16.6352 132.239 17.1693 130.22 17.1535C128.157 17.1372 126.184 17.0754 124.086 17.0447C124.792 18.6562 125.381 17.5562 126.223 17.4998C126.449 17.4846 126.305 17.7398 126.502 17.7291C127.057 17.7001 128.126 17.452 128.589 17.5142C129.09 17.5812 128.917 18.173 129.554 17.9563C129.586 17.9451 129.485 17.7002 129.635 17.6597C131.143 17.2592 131.635 17.6861 133.56 17.7039C134.788 17.7163 142.443 17.4956 142.731 17.6561C144.1 18.5167 135.988 18.4991 135.083 18.4289C134.756 18.4042 135.099 18.1351 134.802 18.0824C134.676 18.0614 133.545 18.5731 132.392 18.6127C131.005 18.6606 128.252 18.3016 126.96 18.3104C115.74 18.3864 104.678 18.0463 93.4831 18.0123C93.2471 18.0117 92.9349 18.3195 92.1701 18.3177C77.5575 18.2767 62.5868 18.0006 47.8344 18.1179C44.6669 18.1435 41.5043 18.4278 38.2038 18.192C37.8 18.4165 37.3992 18.6411 37.0014 18.8656C38.0117 18.6883 39.9281 19.2012 40.1083 19.209C40.1745 19.2114 40.5689 18.9581 41.1785 18.9727C42.0439 18.9923 42.4313 19.2133 42.5027 19.2134C42.726 19.2145 42.58 18.98 42.7937 18.9815C44.377 18.9946 45.7034 18.9306 47.1117 18.931C48.7489 18.9319 49.5988 19.3699 50.8298 18.8932C50.969 19.0803 51.1084 19.2674 51.2482 19.4546C52.0966 18.6481 57.5876 18.7485 59.677 18.7957C60.3594 18.8107 60.2397 19.1386 60.4698 19.1391C60.619 19.139 60.5522 18.7092 62.3671 18.7973C63.2826 18.8421 63.5321 19.1556 63.9873 19.1464C64.2286 19.141 64.1898 18.8305 64.5374 18.8312C66.5504 18.8354 68.2258 18.9397 70.2707 19.0017C70.8445 19.0187 70.8354 19.2778 70.9627 19.2747C71.4189 19.2641 72.2136 18.8271 73.3901 18.8308C75.3356 18.8373 79.2264 18.8476 80.7958 19.0643C81.029 19.0964 81.222 19.4077 81.3941 19.4036C81.6549 19.3962 81.7582 19.0722 81.8041 19.0705C82.6788 19.0669 82.1516 19.3673 82.7391 19.2953C83.0564 19.2566 83.3876 18.8875 84.1298 18.8474C85.1157 18.7945 84.9011 19.233 85.3037 19.19C85.3456 19.1832 85.3585 18.878 85.7489 18.8688C87.2273 18.8362 89.4046 18.7708 90.8445 18.7754C91.2577 18.7764 91.5648 18.9827 92.1442 18.9875C93.2378 18.9969 99.7962 18.8821 100.334 19.0018C100.389 19.0144 99.8171 19.4633 100.727 19.452C100.992 19.2652 101.258 19.0784 101.524 18.8916C101.967 19.1928 102.411 19.494 102.857 19.7953C102.84 18.7583 105.482 18.6049 105.456 19.6652C105.747 19.7089 106.038 19.7526 106.329 19.7963C106.933 19.0653 107.362 19.3368 108.509 18.9094C108.687 19.1344 108.865 19.3595 109.044 19.5846C109.089 19.435 109.134 19.2853 109.18 19.1357C109.79 19.9487 110.803 19.1366 110.927 19.1325C111.399 19.1157 111.755 19.3229 111.978 19.3168C112.808 19.2976 114.621 19.0182 115.607 19.1526C115.654 19.1595 115.607 19.5062 115.888 19.5498C116.397 19.6285 116.438 19.1208 117.094 19.7191C117.227 19.5697 117.361 19.4203 117.494 19.2709C117.634 19.3488 117.775 19.4266 117.916 19.5045C118.749 19.467 119.586 19.4295 120.427 19.3921C119.662 19.9773 120.539 20.3077 121.375 19.8478C121.658 19.6918 121.408 19.3337 121.502 19.2798C121.619 19.2068 125.462 19.3993 125.676 19.631C125.853 19.5189 126.03 19.4068 126.207 19.2946C126.296 19.5201 126.384 19.7456 126.473 19.9711C126.571 19.8926 126.669 19.8141 126.767 19.7356C127.737 20.135 130.289 19.2321 130.756 19.3053C131.004 19.3444 130.777 20.3038 131.97 20.2091C132.013 19.9456 132.055 19.682 132.097 19.4185C132.371 19.3815 132.645 19.3445 132.919 19.3075C133.437 19.3325 134.175 19.7915 134.195 20.1041C134.352 19.917 134.51 19.73 134.667 19.5429C135.086 20.155 137.347 19.945 138.266 19.5611C138.533 19.7461 138.801 19.9311 139.069 20.1161C139.43 19.8932 139.792 19.6703 140.154 19.4474C140.993 19.3824 140.106 19.7521 140.285 19.7837C140.661 19.849 142.599 19.2257 142.47 20.0088C142.735 20.0115 142.997 20.0142 143.253 20.0169C143.387 19.7934 143.52 19.5698 143.653 19.3462C144.095 20.1197 144.862 19.8493 146.447 20.1357C146.58 19.9584 146.714 19.781 146.848 19.6037C147.338 19.8577 147.829 20.1118 148.322 20.3659C148.424 20.0719 148.526 19.7779 148.628 19.484C148.843 19.4423 149.058 19.4006 149.273 19.359C149.708 20.0194 150.497 19.3095 150.897 19.5826C151.482 19.9811 151.026 20.4525 149.942 20.5406C150.022 21.0209 153.255 20.8102 153.972 20.7773C153.924 20.6834 153.876 20.5896 153.828 20.4957C153.074 20.5676 152.343 20.6396 151.568 20.7115C150.935 19.5023 152.997 19.8323 153.923 19.6796C154.008 19.6649 154.493 19.209 155.439 19.2545C155.804 19.2725 157.235 19.9454 157.51 19.9834C159.727 20.2955 158.096 19.3352 160.272 20.1794C159.815 19.5366 161.084 20.0735 162.369 19.9535C162.586 19.933 164.44 19.4188 164.567 19.4057C165.35 19.3247 164.495 19.889 165.63 19.7449C165.766 19.5963 165.903 19.4476 166.04 19.299C166.305 19.2998 166.57 19.3006 166.835 19.3015C168.439 20.6351 168.82 19.6579 169.395 19.5342C169.628 19.4842 169.327 19.8299 169.931 19.7585C170.158 19.732 170.411 19.4444 171.024 19.426C171.279 19.4185 171.512 19.4338 171.728 19.463L171.693 19.4627C173.097 19.669 173.774 20.4589 175.298 19.3669C175.562 19.5569 175.825 19.747 176.088 19.937C176.271 19.7163 176.453 19.4956 176.635 19.275C178.011 19.943 177.523 19.2722 178.025 19.2873C179.358 19.327 182.022 19.4929 182.26 20.0307C183.428 18.8203 184.767 20.2246 185.214 20.1832C185.482 20.0381 185.749 19.8929 186.016 19.7477C186.325 19.9019 186.631 20.0562 186.942 20.2105C186.807 19.0031 188.426 20.2121 188.58 20.2325C188.767 20.2532 191.247 19.9328 192.182 19.9531C193.12 19.9736 194.731 20.3238 194.871 20.3265C195.037 20.329 196.603 20.0243 197.853 20.046C198.934 20.0654 205.332 20.6243 204.928 20.081C204.514 19.9262 203.923 19.7886 203.409 19.7112C201.783 19.4733 192.429 19.0619 190.027 18.941C185.196 18.7001 180.208 18.6588 175.365 18.4713C175.082 18.4604 175.043 18.1475 174.8 18.1369C174.431 18.1226 173.485 18.4215 173.118 18.4094C172.667 18.394 172.183 18.3755 171.709 18.357L171.731 18.3572C170.762 18.3302 169.847 18.3026 169.354 18.2958C167.712 18.2748 166.593 18.0831 165.362 18.0488C164.975 18.0386 163.036 18.4198 161.707 18.2523C161.462 18.1636 161.216 18.075 160.971 17.9863C161.685 17.886 163.461 17.6261 164.301 17.5982C165.544 17.5582 166.196 17.8137 166.657 17.8107C167.042 17.8085 169.024 17.5262 169.932 17.5222C170.213 17.5209 170.27 17.8486 170.511 17.8483C170.891 17.8472 171.306 17.8462 171.733 17.8375L171.716 17.8373C172.759 17.8278 173.856 17.7731 174.656 17.5567C174.201 17.6549 177.039 17.8971 177.198 17.8983C177.458 17.902 177.745 17.5996 178.274 17.6072C179.289 17.6222 179.152 18.2614 180.422 17.6385C180.731 17.8299 181.039 18.0212 181.346 18.2126C181.356 17.3584 185.34 18.5786 186.454 17.5566C186.507 17.4401 181.328 17.0318 180.932 17.0092C178.394 16.8696 174.637 17.0245 172.148 16.8387C172.039 16.8306 171.897 16.812 171.732 16.7861C170.76 16.6449 169.02 16.2611 168.869 16.2689C168.583 16.2826 168.841 16.5805 168.717 16.5907C166.193 16.8036 167.455 16.2106 167.12 16.0368ZM277.903 22.2754C277.135 22.2346 276.374 22.1936 275.61 22.1525C275.667 21.9654 275.724 21.7784 275.781 21.5913C276.13 21.667 276.479 21.7426 276.827 21.8181C277.096 21.7082 277.369 21.5983 277.639 21.4883C277.727 21.7507 277.815 22.013 277.903 22.2754ZM279.791 21.5037C280.452 21.4139 280.485 21.8095 280.638 21.8298C281.095 21.8915 281.492 21.7342 281.935 21.7426C281.42 22.6786 280.328 22.2409 279.791 21.5037ZM266.104 21.0509C266.252 21.0972 267.237 22.118 268.385 21.1879C269.235 21.4946 270.069 21.801 270.923 22.1074C269.484 21.6382 267.485 22.094 266.775 22.0691C266.509 22.0597 266.461 21.7488 266.247 21.7417C265.017 21.705 263.801 22.3959 263.684 21.3666C264.857 21.6773 265.914 20.9938 266.104 21.0509ZM273.554 21.4835C273.749 21.7 273.947 21.9164 274.143 22.1329C273.423 22.127 272.719 22.1211 272.002 22.1149C272.197 21.8991 272.392 21.6833 272.587 21.4676C272.91 21.4729 273.232 21.4782 273.554 21.4835ZM218.629 20.1073C219.073 20.1162 219.517 20.1252 219.958 20.1341C219.936 19.9771 219.43 19.9705 219.245 19.8621C219.246 19.8622 219.247 19.8622 219.247 19.8622C219.041 19.7397 219.133 19.5394 218.755 19.445C218.713 19.6657 218.671 19.8865 218.629 20.1073ZM36.4765 18.1929C35.769 18.1803 28.9549 18.1676 29.5009 18.7396C29.8282 19.0253 32.1118 18.7804 32.8012 18.7861C33.7225 18.7934 36.2736 19.4154 36.4765 18.1929ZM24.394 18.0615C24.2957 18.6303 28.5252 18.7276 28.9534 18.6293C28.8642 18.548 28.7272 18.3672 28.6089 18.326C28.0251 18.1289 25.3516 18.2185 24.394 18.0615ZM194.01 18.1067C194.349 18.3995 194.687 18.6922 195.025 18.9849C194.94 18.6093 194.856 18.2337 194.771 17.8581C194.518 17.941 194.264 18.0238 194.01 18.1067ZM160.692 18.1593C154.944 18.1233 149.213 18.0878 143.537 18.053C144.034 17.8988 144.533 17.7447 145.033 17.5906C149.952 17.6603 155.2 17.8336 159.982 17.6083C160.218 17.7919 160.455 17.9756 160.692 18.1593ZM264.508 19.3495C263.032 19.3291 261.825 19.5915 260.221 19.137C261.755 18.7295 262.494 19.393 263.975 18.7836C263.976 18.7836 263.977 18.7836 263.978 18.7836C264.155 18.9722 264.332 19.1609 264.508 19.3495ZM231.787 18.8385C232.238 18.5829 232.688 18.3273 233.136 18.0717C232.601 18.0644 232.064 18.0571 231.525 18.0497C231.613 18.3126 231.7 18.5755 231.787 18.8385ZM110.784 16.5618C109.28 17.1291 105.326 16.0851 104.079 16.7692C103.998 16.8141 104.738 17.1059 103.539 17.6643C104.443 17.5516 105.086 17.4359 105.154 16.9946C105.424 17.145 105.694 17.2954 105.965 17.4458C106.414 17.3337 106.866 17.2216 107.318 17.1095C107.268 17.549 107.304 17.5256 107.999 17.2265C108.306 17.3386 108.613 17.4507 108.921 17.5628C109.052 17.377 109.183 17.1911 109.315 17.0053C109.581 17.2664 109.848 17.5275 110.116 17.7886C111.163 17.5088 110.527 17.0026 110.784 16.5618ZM116.178 16.6835C115.902 16.5859 108.789 16.883 112.017 17.7682C112.856 17.7424 113.699 17.7166 114.547 17.6908C113.847 16.2371 116.159 17.5416 116.349 17.5726C117.234 17.7168 118.37 17.3746 119.019 17.3942C119.577 17.4115 119.909 17.6728 120.303 17.6672C121.643 17.6483 123.787 17.6446 124.086 17.0447C123.028 17.0293 121.959 17.0199 120.871 17.032C119.722 17.0447 118.713 16.4749 116.582 17.2471C116.058 17.1621 116.24 16.7084 116.178 16.6835ZM234.47 18.1503C234.403 18.753 237.135 18.6453 237.15 18.4069C237.158 18.2673 236.275 18.2588 236.148 18.2041C236.148 18.2041 236.147 18.2041 236.146 18.2041C236.093 18.1802 236.364 17.9528 235.949 17.8831C235.458 17.9722 234.957 18.0612 234.47 18.1503ZM47.0804 16.8626C46.7585 16.5233 38.3456 16.6296 38.0777 16.7914C38.0105 16.8363 38.1039 16.985 38.0772 17.0707C40.0896 16.5965 42.7774 17.1669 44.6776 17.2077C45.204 17.2188 45.0476 16.9786 45.0773 16.9741C45.0786 16.9741 45.0798 16.9741 45.0811 16.9741C45.3959 16.9741 46.6977 17.5626 47.0804 16.8626ZM101.409 17.0378C101.761 17.1331 102.114 17.2284 102.467 17.3237C102.558 17.1371 102.648 16.9504 102.738 16.7638C102.738 16.7638 102.737 16.7638 102.736 16.7638C102.292 16.8551 101.85 16.9465 101.409 17.0378ZM89.0592 16.3923C89.1459 16.524 89.2326 16.6557 89.3194 16.7875C90.2203 16.8078 91.1272 16.8282 92.0403 16.8487C91.948 16.9227 91.8559 16.9967 91.7638 17.0707C93.1226 17.2723 93.6611 16.8115 94.3816 16.8798C94.3808 16.8798 94.3799 16.8798 94.3791 16.8798C94.4563 16.8877 94.5488 17.1619 94.8363 17.1719C95.493 17.1949 97.3978 17.3016 97.6317 17.0264C98.1169 16.4393 94.285 16.7091 93.5899 16.6806C93.2713 16.6674 92.8897 16.4267 92.6969 16.4206C92.4838 16.4148 92.2042 16.738 91.6669 16.7267C91.5099 16.7229 89.7928 16.3378 89.0592 16.3923ZM73.2315 16.7485C73.5059 17.0456 74.0833 16.7605 74.296 16.8094C74.3468 16.821 73.9513 17.0683 74.4299 17.1437C74.5658 16.9747 74.7019 16.8058 74.8381 16.6368C74.3 16.674 73.7644 16.7113 73.2315 16.7485ZM239.034 17.926C238.95 17.8613 237.504 17.8654 237.433 17.9048C236.556 18.4343 239.562 18.4155 239.034 17.926ZM275.792 17.7086C275.121 16.9183 283.072 17.7484 283.838 17.7095C283.794 18.2036 281.912 17.695 282.895 18.3796C281.957 18.0009 279.337 18.1813 278.727 18.0685C278.354 18.0004 278.263 17.5728 278.206 17.5589C277.985 17.5093 276.024 17.9877 275.792 17.7086ZM290.404 18.0789C289.646 17.982 288.896 17.8848 288.14 17.7874C289.032 17.7357 289.92 17.6837 290.814 17.6314C290.677 17.7806 290.541 17.9298 290.404 18.0789ZM291.355 17.8582C291.333 17.3792 293.894 17.7536 294.569 17.6449C293.807 18.4575 292.541 17.685 291.355 17.8582ZM248.711 16.8128C247.537 16.4817 247.01 17.9355 248.453 17.3175C248.497 17.297 248.76 16.8302 248.711 16.8128ZM110.426 14.5063C110.219 14.4967 107.765 14.0169 107.598 14.2509C107.138 14.9977 108.781 14.702 109.32 14.9858C110.199 15.4458 108.9 15.8195 111.056 15.5489C110.967 15.6984 110.879 15.8479 110.79 15.9974C112.054 16.0503 111.644 15.012 111.872 14.8792C111.941 14.8388 112.735 14.9281 112.879 14.8623C114.675 14.0314 110.604 14.5137 110.426 14.5063ZM219.477 16.3086C217.12 15.8352 218.143 16.495 215.724 16.4208C215.649 16.749 219.149 16.5925 219.477 16.3086ZM133.346 15.1604C130.882 15.283 128.881 14.8469 126.63 15.4189C126.753 16.3097 133.968 15.3921 133.346 15.1604ZM19.0493 14.0047C28.5614 15.6045 39.4109 15.1012 49.4938 15.0958C50.6024 15.0957 50.7132 15.449 51.1186 15.4115C51.3828 15.3871 51.3464 15.1027 51.6874 15.102C64.108 15.0801 76.1671 14.7345 88.1055 14.9331C88.8401 14.9461 92.5949 15.5658 93.3318 14.6468C93.9219 13.9497 91.3095 14.488 90.8474 14.4806C90.5132 14.4753 90.4999 14.147 90.2776 14.1453C90.0419 14.1436 90.236 14.3684 89.9626 14.3711C88.804 14.3841 87.5523 14.2935 86.5234 14.3102C76.3199 14.4699 66.4887 14.3957 56.29 14.3436C55.0478 14.3377 55.3066 14.0752 55.2435 14.0739C55.2426 14.0746 55.2418 14.0752 55.241 14.0759C48.6757 14.0379 41.1694 14.6139 34.1909 14.3765C29.3586 14.1872 24.3544 13.9982 19.4669 13.81C19.327 13.8749 19.1878 13.9398 19.0493 14.0047ZM115.636 15.4477C115.02 14.4541 114.872 15.4539 112.669 15.0434C112.489 15.2122 112.31 15.381 112.131 15.5498C113.293 15.5157 114.462 15.4817 115.64 15.4477C115.639 15.4477 115.637 15.4477 115.636 15.4477ZM101.125 15.0489C100.809 13.7083 95.7906 14.6426 93.6296 14.3819C93.2232 15.0537 96.4167 14.7593 97.1858 14.832C97.551 14.8679 99.6546 15.5651 101.145 15.1856C101.139 15.14 101.132 15.0945 101.125 15.0489ZM267.493 15.6677C267.133 15.7033 266.778 15.739 266.422 15.7746C267.305 15.9316 268.212 16.0886 269.1 16.2452C267.674 16.1364 266.251 16.027 264.825 15.9171C265.094 15.6417 265.363 15.3664 265.631 15.091C266.254 15.2834 266.865 15.4755 267.493 15.6677ZM262.868 15.7644C265.358 15.6851 262.752 16.4028 262.133 16.0654C261.762 15.8631 262.614 15.7731 262.868 15.7644ZM256.376 15.2156C257.548 14.7409 259.903 14.733 259.056 15.6985C257.806 15.2283 256.978 15.5985 255.166 15.3152C255.434 15.1314 255.702 14.9476 255.97 14.7638C255.971 14.7638 255.972 14.7638 255.973 14.7638C256.108 14.9144 256.242 15.065 256.376 15.2156ZM264.012 15.1862C265.642 15.7629 260.914 15.523 262.404 15.1697C262.476 15.1536 263.942 15.1641 264.012 15.1862ZM29.5103 13.0132C29.2972 13.3314 30.6282 13.3276 31.0068 13.3497C32.7393 13.4472 35.2151 13.3129 37.0136 13.36C36.8731 13.2549 36.7331 13.1498 36.5934 13.0448C34.2617 13.0342 31.884 13.0236 29.5103 13.0132ZM42.9134 13.3725C44.1895 13.3749 45.5884 13.3775 46.8204 13.3798C46.9387 13.38 47.4981 13.1078 47.0828 13.0405C45.7567 13.1512 44.2832 13.2618 42.9134 13.3725ZM123.822 13.5597C122.817 13.3786 125.716 12.4722 125.568 13.4512C125.001 13.4874 124.408 13.5235 123.822 13.5597ZM133.08 13.1949C132.448 13.2862 131.819 13.3775 131.191 13.4688C131.191 13.3562 131.19 13.2436 131.19 13.1309C131.818 13.1522 132.448 13.1735 133.08 13.1949ZM24.4023 12.7804C25.0679 13.1668 26.6784 13.1101 27.6243 13.1195C26.971 12.7873 25.3488 12.9475 24.4023 12.7804ZM108.928 13.1255C109.033 13.3884 105.03 13.312 106.416 12.8534C107.258 12.9441 108.114 13.0348 108.928 13.1255ZM100.895 12.7163C101.732 12.661 102.386 12.7528 102.211 13.1649C101.765 13.1462 101.319 13.1275 100.876 13.1088C100.882 12.978 100.888 12.8472 100.895 12.7163ZM251.957 14.3792C250.528 14.3994 249.096 14.4191 247.67 14.4386C247.724 14.3266 247.779 14.2147 247.833 14.1027C249.206 14.0832 250.589 14.0635 251.966 14.0434C251.963 14.1553 251.96 14.2673 251.957 14.3792ZM23.5967 11.7675C22.6343 11.8395 21.6632 11.9116 20.6515 11.9837C21.6639 12.0607 22.6353 12.1377 23.5985 12.2147C23.5987 12.065 23.599 11.9152 23.5992 11.7655C23.5984 11.7662 23.5976 11.7668 23.5967 11.7675ZM271.537 13.1245C267.174 12.5603 272.755 12.0552 273.891 12.8359C273.892 12.8352 273.893 12.8346 273.894 12.8339C273.995 12.903 273.778 13.2311 273.946 13.3656C273.501 13.2129 273.063 13.0601 272.62 12.9072C272.215 13.0893 271.808 13.2714 271.4 13.4533C271.267 13.3793 271.134 13.3052 271.001 13.2311C271.18 13.1956 271.358 13.16 271.537 13.1245ZM289.139 12.9504C293.092 13.0283 289.044 13.8368 287.088 13.1748C287.104 13.0242 288.776 12.9432 289.139 12.9504ZM278.776 13.0669C278.153 13.1373 277.527 13.2076 276.901 13.2777C276.823 13.1827 276.744 13.0877 276.666 12.9927C277.141 12.9026 277.626 12.8125 278.105 12.7222C278.329 12.8372 278.553 12.9521 278.776 13.0669ZM258.295 11.4205C257.29 11.3056 256 12.3412 259.225 12.1007C259.225 11.988 259.224 11.8754 259.224 11.7628C259.096 11.7794 258.718 11.8809 258.698 11.8722C258.639 11.8434 258.713 11.4681 258.295 11.4205ZM296.477 10.0101C296.593 9.96759 296.649 8.77972 297.825 10.0126C298.181 9.93899 298.527 9.86532 298.889 9.79172C298.98 10.0538 299.071 10.3158 299.162 10.5778C297.783 10.3701 297.644 10.8992 297.541 10.9101C297.08 10.9581 297.42 10.6869 297.128 10.6821C296.846 10.6778 296.425 10.7001 296.045 10.6886C295.421 10.6699 294.933 10.5576 295.422 10.0734C295.57 9.9267 295.822 9.92912 296.043 9.95774C296.249 9.98347 296.423 10.0301 296.477 10.0101ZM293.793 9.32622C293.959 9.42593 293.422 9.77169 293.547 9.87032C293.658 9.95644 295.306 10.3161 294.858 10.9018C294.587 10.8762 294.316 10.8507 294.045 10.8251C293.954 10.664 293.862 10.5029 293.771 10.3418C293.508 10.4893 293.245 10.6369 292.982 10.7844C292.541 10.386 291.605 9.86852 292.721 9.5491C292.311 9.58148 291.901 9.61379 291.49 9.64603C291.277 9.83529 291.063 10.0245 290.849 10.2138C290.962 9.92451 291.075 9.63526 291.188 9.34601C292.057 9.33973 292.922 9.33313 293.793 9.32622ZM306.562 9.48392C306.511 9.63343 306.461 9.78294 306.41 9.93246C307.922 9.66058 310.282 9.56618 308.937 10.4986C306.889 10.5671 304.839 10.6364 302.788 10.7065C302.654 10.5934 302.519 10.4802 302.383 10.3671C303.909 10.807 303.437 8.95858 304.772 9.49385C304.997 9.58462 304.335 10.2275 305.753 9.82025C305.704 9.66965 305.655 9.51905 305.605 9.36845C305.92 9.4069 306.244 9.44541 306.562 9.48392ZM319.568 9.77889C316.977 9.54607 319.837 9.01765 320.311 9.47508C320.31 9.47507 320.309 9.47507 320.308 9.47506C321.61 10.7266 318.796 10.1078 318.625 10.1147C318.396 10.1243 317.859 11.0108 316.623 9.70591C317.605 9.73004 318.587 9.75439 319.568 9.77889ZM311.11 9.50736C311.326 9.47915 311.205 9.70454 311.299 9.70168C311.3 9.70168 311.301 9.70169 311.302 9.70169C312.693 9.66005 315.99 9.47651 316.344 10.2081C315.315 10.2624 310.723 10.3953 310.445 9.89854C310.669 9.76815 310.891 9.63775 311.11 9.50736ZM301.352 10.0077C300.5 9.5323 302.423 9.47663 302.917 9.6973C303.016 9.74506 302.224 10.5001 301.352 10.0077ZM236.215 8.22199C234.334 8.48083 236.797 8.79741 235.937 9.23005C236.296 9.1971 236.654 9.16413 237.012 9.13113C236.747 8.8281 236.481 8.52505 236.215 8.22199ZM150.796 6.33456C150.357 6.28076 150.564 6.55251 150.526 6.5564C150.237 6.54797 149.966 6.32629 149.855 6.34932C147.81 6.7891 149.168 7.02086 149.189 7.07387C149.231 7.34223 148.693 7.65449 149.436 7.96326C149.888 7.86956 150.341 7.77586 150.795 7.68217C151.02 7.83193 151.244 7.98169 151.47 8.13145C152.374 7.81431 151.192 7.72302 151.06 7.29821C151.009 7.13123 151.858 6.93405 150.796 6.33456ZM232.878 7.27842C232.569 7.74543 231.815 8.32959 232.541 8.81297C232.541 8.81298 232.542 8.81299 232.543 8.813C232.677 8.90146 233.226 8.95657 233.393 9.08044C234.599 8.46902 234.152 7.81422 232.878 7.27842ZM158.849 5.51527C159.577 5.62753 160.307 5.7398 161.039 5.85209C161.026 6.13459 161.012 6.41709 160.999 6.6996C160.607 6.62222 160.216 6.54484 159.826 6.46747C159.689 6.59595 159.551 6.72443 159.414 6.85291C159.898 7.17665 160.382 7.5004 160.867 7.82416C161.454 7.71335 162.042 7.60254 162.612 7.49168C162.348 7.34178 162.087 7.19189 161.821 7.04198C163.226 6.88176 162.916 7.56786 164.08 7.83414C164.48 7.57368 164.88 7.31322 165.281 7.05276C165.86 7.31758 166.44 7.58242 167.021 7.84726C168 7.72748 168.087 7.52744 167.429 7.22552C167.917 6.8844 168.449 7.42502 169.038 7.28724C169.086 7.27613 168.996 6.95312 169.039 6.94936C170.665 6.83832 171.381 7.02821 171.767 7.23497C171.787 7.233 171.849 7.23761 171.87 7.23588C172.204 7.42003 172.287 7.6142 172.514 7.63429C172.859 7.66404 174.233 7.11197 174.257 6.91728C174.285 6.65488 171.473 5.57776 175.901 5.61485C173.636 4.86512 170.98 5.55647 172.669 6.63255C172.508 6.60688 172.225 6.59736 171.879 6.59774C171.857 6.5996 171.791 6.59467 171.769 6.59677C170.543 6.61187 168.553 6.75953 168.394 6.73444C168.096 6.68587 168.202 6.28723 167.828 6.27563C167.608 6.2693 167.018 7.1794 165.283 6.377C165.061 6.52604 164.839 6.67508 164.617 6.82412C164.41 6.70043 164.203 6.57674 163.996 6.45305C164.424 6.0156 164.853 5.57815 165.282 5.1407C163.579 5.61214 162.213 4.71224 161.15 5.46377C160.244 5.37311 159.807 5.28492 160.196 4.90029C159.925 4.89945 159.654 4.89862 159.383 4.89778C159.205 5.10361 159.027 5.30944 158.849 5.51527ZM227.369 7.87635C226.478 7.4258 226.157 8.3665 226.291 8.42189C227.056 8.72671 227.835 8.11076 227.369 7.87635ZM152.426 6.84139C153.396 7.0878 154.369 7.33423 155.347 7.58068C155.348 7.28186 155.348 6.98305 155.349 6.68423C154.371 6.73659 153.397 6.78898 152.426 6.84139ZM236.498 7.55387C236.586 7.77901 236.673 8.00414 236.76 8.22928C237.847 7.4257 238.886 8.61321 239.43 8.37795C239.546 8.32652 239.317 7.92804 239.097 7.84034C238.949 7.78545 236.696 7.48102 236.498 7.55387ZM281.221 8.13656C280.821 8.2843 280.416 8.43195 280.017 8.57959C280.04 8.32781 280.064 8.07602 280.088 7.82423C280.284 7.77871 280.484 7.73319 280.682 7.68765C280.862 7.8373 281.042 7.98693 281.221 8.13656ZM276.666 8.50442C275.955 8.4788 275.242 8.45299 274.527 8.427C277.252 8.21765 275.02 8.0872 276.672 7.77205C276.67 8.01617 276.668 8.2603 276.666 8.50442ZM269.449 7.93387C269.538 7.78429 269.627 7.63471 269.716 7.48512C270.424 7.49157 271.144 7.49798 271.858 7.50417C271.411 6.97815 270.963 6.45206 270.514 5.9259C270.253 5.92227 269.993 5.91862 269.733 5.91495C269.638 6.58792 269.544 7.2609 269.449 7.93387ZM131.474 5.15539C131.037 5.14514 129.528 5.59719 129.593 5.76533C130.217 5.97345 130.844 6.18159 131.473 6.38973C131.476 6.09027 131.48 5.79081 131.484 5.49135C131.572 5.64068 131.661 5.79001 131.75 5.93935C132.108 5.82838 132.467 5.71742 132.827 5.60646C133.007 5.86868 133.188 6.1309 133.369 6.39313C133.551 6.09482 133.739 5.79654 133.915 5.49822C132.185 4.96353 132.241 5.49322 131.881 5.48661C131.699 5.48356 131.584 5.29782 131.52 5.20435C131.504 5.18803 131.489 5.17171 131.474 5.15539ZM153.103 4.93724C151.07 4.85671 149.858 5.64151 148.381 4.97777C149.343 6.38508 155.472 4.9528 157.63 6.13065C157.856 5.90609 158.081 5.68153 158.308 5.45697C157.125 5.65393 156.312 5.18752 155.74 5.11905C155.285 5.06469 155.332 5.30087 155.297 5.29739C155.296 5.29738 155.294 5.29738 155.292 5.29737C154.23 5.19721 153.903 4.96899 153.103 4.93724ZM238.03 6.47263C237.488 6.10955 236.526 6.13228 236.508 6.6516C237.042 6.80914 237.574 6.96663 238.104 7.12405C237.997 6.9896 238.122 6.53474 238.03 6.47263ZM268.634 6.47515C268.207 6.30211 267.188 6.44059 267.622 6.89338C267.701 6.97377 268.715 6.66792 268.114 7.47225C269.099 7.46895 268.876 6.57458 268.634 6.47515ZM188.239 6.29868C188.603 6.28903 188.966 6.27936 189.328 6.26968C189.415 6.06131 189.502 5.85293 189.59 5.64456C189.141 5.86262 188.691 6.08066 188.239 6.29868ZM242.672 6.17392C243.142 7.20598 243.979 6.21825 244.867 7.07308C245.199 7.08379 245.53 7.09448 245.86 7.10514C245.861 7.10515 245.861 7.10516 245.862 7.10517C245.875 6.82536 245.887 6.54556 245.9 6.26575C244.832 6.23541 243.756 6.2048 242.672 6.17392ZM165.549 5.53411C165.77 5.665 165.992 5.79591 166.214 5.92681C166.61 5.77636 167.007 5.62592 167.405 5.47549C167.19 5.36609 166.976 5.25669 166.762 5.1473C166.357 5.27623 165.953 5.40517 165.549 5.53411ZM248.526 6.15971C247.366 6.0169 246.916 6.90324 248.404 6.92386C249.03 6.93155 249.739 6.30884 248.526 6.15971ZM109.22 5.42722C109.615 5.50441 110.01 5.58161 110.407 5.65881C110.542 5.47167 110.678 5.28453 110.814 5.09739C110.281 5.20733 109.75 5.31727 109.22 5.42722ZM274.142 6.62502C274.094 6.81212 274.045 6.99922 273.997 7.18633C273.639 7.14562 273.289 7.10493 272.934 7.06417C273.025 6.87874 273.115 6.6933 273.206 6.50787C273.517 6.54694 273.827 6.58598 274.142 6.62502ZM111.89 5.54941C112.209 5.58605 112.528 5.6227 112.848 5.65935C113.063 5.56877 113.279 5.4782 113.495 5.38762C113.195 5.29634 112.895 5.20506 112.596 5.11378C112.36 5.25899 112.125 5.4042 111.89 5.54941ZM259.55 6.37356C259.108 6.14336 257.311 6.82599 258.92 7.02296C259.942 7.14794 259.616 6.40857 259.55 6.37356ZM261.966 6.17471C260.261 5.72716 261.527 7.92078 263.565 6.52915C261.524 6.70182 262.064 6.20163 261.966 6.17471ZM276.949 5.18628C276.992 5.18773 277.025 5.50142 277.368 5.51561C278.607 5.56555 280.218 5.70065 281.106 5.72565C283.218 5.78747 289.71 5.25448 290.462 6.1634C290.619 6.35457 290.253 6.92226 290.317 6.95184C290.505 7.03444 291.591 6.76262 291.389 7.18085C290.324 7.17337 289.26 7.16543 288.196 7.15703C288.459 6.86274 288.722 6.56841 288.984 6.27406C286.333 6.41916 287.207 6.40489 286.442 7.04463C285.996 6.79293 285.549 6.54114 285.102 6.28927C284.123 6.53439 283.142 6.77913 282.166 7.02356C282.388 6.83813 282.611 6.65268 282.833 6.46722C281.365 6.11192 281.772 6.34136 280.962 6.78914C280.962 6.60229 280.961 6.41544 280.961 6.22859C279.532 6.6744 279.265 6.11235 278.954 6.1034C278.319 6.08776 277.483 8.29288 275.074 6.07399C274.04 7.12362 274.076 4.97154 273.468 6.06084C271.746 4.855 275.043 5.31416 276.599 5.36525C276.6 5.36525 276.601 5.36526 276.602 5.36526C276.719 5.36954 276.535 5.16753 276.949 5.18628ZM268.033 6.20584C269.091 5.24486 264.945 5.11411 266.303 6.52912C266.506 6.57667 266.71 6.62422 266.913 6.67174C267.282 6.51645 267.662 6.3612 268.035 6.20586C268.034 6.20586 268.033 6.20585 268.033 6.20584ZM229.021 5.09052C225.148 5.43576 227.342 6.02499 228.658 5.49762C228.92 5.39304 229.064 5.24667 229.021 5.09052ZM150.167 4.18234C150.11 4.2987 150.053 4.41506 149.996 4.53143C151.307 4.42627 153.797 4.8833 153.76 4.09744C152.584 4.12579 151.372 4.15404 150.167 4.18234ZM160.395 3.69976C160.114 3.6515 158.974 3.53612 159.111 3.83057C159.604 4.04041 160.099 4.25027 160.594 4.46012C160.825 4.33063 161.057 4.20114 161.289 4.07166C160.966 4.02638 160.47 3.71239 160.395 3.69976Z" fill="#FEF08A"/>
</svg>
