<svg width="124" height="33" viewBox="0 0 124 33" fill="none" xmlns="http://www.w3.org/2000/svg">
<path d="M2.82002 1.1767C5.45664 -1.61147 7.18047 1.36653 9.60299 1.84994C14.9279 2.91189 21.8877 2.00968 27.3387 2.11536C31.4336 2.19504 35.6061 2.42038 39.6855 2.60737C39.8941 2.61663 40.0171 2.92403 40.112 2.92855C41.0157 2.97059 42.5046 2.70285 43.3918 2.74948C45.2749 2.84685 48.5036 2.82199 50.2061 3.12195C50.9337 3.24897 51.6873 3.30529 51.9552 4.03717C52.2173 4.07628 52.366 3.41791 52.435 3.38253C52.4358 3.38319 52.4366 3.38385 52.4374 3.38451C52.6593 3.27483 53.2176 3.7414 53.3424 3.71354C53.3611 3.70917 53.25 3.23067 53.5509 3.37722C53.5777 3.38982 53.5503 3.71439 53.805 3.72093C53.8705 3.72254 54.7308 3.23102 54.9762 3.20246C55.7685 3.10935 57.6957 3.51521 58.6709 3.51619C58.8166 3.51733 58.9022 3.32803 59.0565 3.32586C59.1362 3.32453 59.2542 3.53167 59.2788 3.53074C59.3863 3.52425 59.8654 2.59152 59.6815 4.43822C60.1753 4.32495 60.0352 3.71284 60.0494 3.31614C60.5861 3.2631 60.8396 4.13554 60.9878 3.21424C62.6986 3.29871 64.3262 3.38277 66.0367 3.46777C66.1102 3.44946 66.3411 3.49261 66.4151 3.47647C67.3902 3.55374 68.3301 3.62984 69.3019 3.70726C69.3084 3.55701 69.3148 3.40676 69.3213 3.25651C70.0773 3.88629 70.3742 2.88081 70.792 3.7697C71.0749 3.58826 71.3565 3.40679 71.6366 3.22526C78.656 4.08383 85.6872 3.65544 92.5964 3.89423C92.888 3.90415 92.9505 4.2265 93.4273 4.2448C93.9645 4.26511 94.7099 3.91771 95.4153 3.94489C96.025 3.968 96.9232 4.2992 97.5975 4.36714C97.7516 4.38199 97.8699 4.1828 97.8872 4.18445C97.9891 4.19545 97.9846 4.51633 98.0833 4.5284C98.2014 4.54211 98.3512 4.3088 98.4869 4.32749C98.9906 4.39545 99.5537 4.32966 99.6166 4.337C99.9261 4.37624 99.9851 4.69179 100.01 4.69598C100.353 4.74393 100.232 4.45716 100.318 4.476C100.764 4.57524 101.059 5.29066 101.686 4.62842C101.663 4.89025 101.639 5.15208 101.615 5.4139C102.081 5.57382 101.789 4.86877 101.888 4.74508C101.931 4.69954 102.928 4.81011 103.007 4.82435C103.277 4.87609 103.275 5.22477 103.299 5.23005C103.357 5.2428 104.039 4.86337 104.383 5.17559C104.786 5.54557 104.285 6.24356 104.384 6.37904C104.401 6.40201 104.834 6.33908 104.887 6.56228C104.946 6.80252 104.573 6.78913 104.576 6.88938C104.579 6.95829 105.187 7.46424 105.061 7.79293C104.959 8.12331 104.125 7.67817 103.944 7.83011C103.914 7.85529 103.959 8.26671 103.933 8.28115C103.83 8.33456 101.886 8.29863 101.798 8.22818C101.905 8.04406 102.011 7.8599 102.117 7.67573C101.983 7.65339 101.849 7.63101 101.714 7.6086C101.91 7.46395 102.105 7.31922 102.3 7.17441C102.056 5.62935 101.159 7.16571 101.104 7.93232C101.079 8.28688 101.576 9.21412 101.076 9.73296C101.148 9.82607 101.219 9.91915 101.291 10.0122C101.446 9.86658 101.605 9.721 101.762 9.57531C101.662 9.47828 101.563 9.38122 101.463 9.28415C101.503 9.17842 101.544 9.07268 101.584 8.96694C101.876 8.80335 102.166 8.63957 102.455 8.47561C102.599 8.55819 102.56 8.87252 102.659 8.93597C103.901 9.73443 103.104 8.73785 103.921 8.89821C104.034 9.07015 104.149 9.24215 104.263 9.41407C104.237 8.71324 104.593 9.16116 105.039 8.86885C104.982 9.09421 104.924 9.31955 104.867 9.54489C105.507 9.43878 106.778 10.6065 106.453 9.34961C106.598 9.45925 106.743 9.56886 106.887 9.67841C107.014 9.47639 107.142 9.27433 107.269 9.07222C107.439 9.09881 107.607 9.12531 107.778 9.15177C107.776 9.26244 107.775 9.37311 107.774 9.48378C107.638 9.48201 107.503 9.48023 107.367 9.47839C107.463 9.81743 107.558 10.1565 107.654 10.4954C107.755 10.4413 107.858 10.3871 107.959 10.3328C107.542 10.0065 108.109 9.49545 108.25 9.05252C108.607 8.894 108.823 9.47539 108.942 9.50332C108.998 9.51671 109.672 8.50713 109.397 9.62361C109.739 9.49263 110.076 9.36131 110.418 9.22973C110.55 9.3174 110.681 9.40502 110.812 9.49259C110.518 10.0109 111.344 10.65 110.727 10.8588C110.266 11.0153 110.157 10.5257 109.941 10.5261C109.745 10.5257 109.637 10.8528 109.423 10.8643C107.984 10.9352 106.809 10.853 105.446 10.6788C105.174 10.6438 104.928 10.7995 104.747 10.773C104.543 10.7424 104.808 10.3361 104.545 10.4305C104.268 10.5303 104.201 10.8652 104.128 10.8703C104.082 10.8731 103.945 10.5672 103.815 10.5641C103.278 10.5516 102.473 10.8242 102.398 10.8206C102.313 10.8154 100.788 10.502 100.717 10.45C100.679 10.4219 100.79 9.30703 100.419 10.4888C100.313 10.508 100.207 10.5272 100.1 10.5463C100.123 10.3236 100.147 10.1009 100.17 9.87812C99.525 10.7069 99.7532 10.2396 99.1488 10.2887C97.7047 10.4074 95.5828 10.1529 94.0016 10.1792C93.6491 10.1856 93.5011 10.4481 93.0854 10.4534C92.7016 10.4575 91.71 9.62522 91.8934 10.7373C91.0671 9.75131 90.8701 11.3955 90.4709 10.3517C90.4131 10.4995 90.3542 10.6473 90.2974 10.7951C89.8543 10.1366 89.6902 10.6958 89.1728 10.7553C88.9497 10.7812 89.2289 10.1073 88.7548 10.8517C88.6724 10.7921 88.5898 10.7325 88.5071 10.6728C88.5328 10.5083 88.5584 10.3437 88.584 10.1792C88.0865 10.2967 88.0564 10.2093 88.0908 10.8298C87.8558 10.7086 87.6197 10.5874 87.3825 10.4661C87.3452 10.668 87.3072 10.8698 87.2708 11.0718C87.3795 11.4647 92.8237 11.0726 93.5834 10.9098C94.4537 11.3991 96.2482 10.8817 96.9611 11.0126C97.245 11.0654 97.3545 11.5284 97.772 11.5962C98.1891 11.6641 98.7177 11.2622 98.9428 11.2538C99.6825 11.225 103.169 11.4091 100.781 11.9171C100.844 12.1429 100.906 12.3686 100.968 12.5943C101.929 11.8554 101.58 12.3168 102.359 12.4157C102.684 12.4578 103.486 11.977 103.416 12.9927C102.798 13.1674 102.157 12.8259 101.622 12.8266C101.568 12.8268 100.927 13.2744 100.605 13.1393C100.315 13.0161 100.543 12.0525 99.875 13.123C99.4339 12.0466 99.1314 13.0031 99.0027 13.102C98.7807 13.2735 98.77 12.748 98.5577 12.6806C98.3256 12.6063 98.1532 12.9497 98.121 12.951C97.7956 12.9495 96.1149 12.9451 96.0402 12.7308C96.1114 12.6399 96.1824 12.549 96.2533 12.4581C95.8173 12.2944 95.8955 12.8338 95.7781 12.8944C95.6931 12.8898 95.6079 12.8851 95.5226 12.8804C95.56 12.7702 95.5974 12.66 95.6347 12.5498C95.1185 12.557 95.5023 12.9564 94.7665 12.9225C94.3 12.9005 93.837 12.4599 93.7896 12.4897C93.7759 12.4983 93.9132 12.7896 93.7218 12.8217C93.4037 12.8743 92.8607 12.8487 92.8142 12.4571C92.659 12.507 92.659 12.8887 92.6384 12.8967C92.5479 12.931 91.0055 13.0078 90.7283 13.0205C89.9586 13.0556 89.1116 12.9442 88.2846 12.9788C88.1995 12.9821 88.2624 12.7395 88.1771 12.7443C88.0409 12.7519 87.3208 13.1103 87.2131 13.1335C86.952 13.1905 86.2687 13.0131 86.1549 13.1202C86.1389 13.1354 86.3546 13.4744 86.0844 13.5672C85.7839 13.6697 85.9598 13.2309 85.9438 13.2258C85.3453 13.0516 84.9639 13.3468 84.5488 13.3913C84.4154 13.4055 84.179 13.0616 83.9891 13.1535C83.9673 13.1639 83.9982 13.4748 83.9766 13.4892C83.6902 13.641 83.4475 13.0572 83.3265 13.0154C83.0302 12.9133 83.1775 13.343 83.1618 13.3454C82.9617 13.3515 82.6963 13.1885 82.3905 13.1973C81.0419 13.2369 79.9282 13.2206 78.4927 13.1378C78.3128 13.1276 78.1093 12.8207 78.0816 12.8192C77.9958 12.8182 78.0072 13.1703 77.7591 13.1529C77.2296 13.1147 76.7598 13.1138 76.2403 13.0872C76.1362 13.0818 76.1041 12.7548 76.0247 12.7448C75.7537 12.7142 74.8239 13.5317 74.848 12.4712C74.2874 13.3894 73.9575 12.567 73.538 12.56C72.5362 12.5421 70.9573 12.6734 69.9506 12.5133C69.7427 12.4793 69.6546 12.204 69.5384 12.185C69.3326 12.1501 68.1169 12.256 68.0539 12.2108C67.9343 12.1239 68.0547 10.9309 67.3825 11.9489C67.0079 12.0091 67.0699 11.5199 66.9938 11.4906C66.662 11.3678 66.3176 11.6483 66.1038 11.7458C66.0772 11.7516 65.9943 11.7361 65.9679 11.7427C65.8013 11.8247 65.7137 11.7899 65.7661 11.3469C65.0564 11.6138 64.5972 12.1651 64.3187 11.2237C64.3187 11.682 63.9865 11.9542 63.5925 11.7763C64.0045 11.0098 63.9562 10.5174 64.9418 10.6663C64.9574 10.6687 64.9249 10.9998 64.9405 11.0022C65.0813 11.0258 65.3774 10.8609 65.6188 10.8809C65.8603 10.9009 65.7243 11.1264 65.8211 11.1228C65.8924 11.1198 65.9062 10.9142 65.9755 10.8319C66.0071 10.8241 66.1063 10.8426 66.1381 10.8357C66.1556 10.8161 66.1761 10.8039 66.2013 10.804C66.6175 10.8073 66.9854 10.7337 67.2194 10.7368C67.3667 10.7391 67.5205 11.0238 67.6342 11.0281C68.0662 11.0421 69.0282 10.8608 69.583 10.9123C69.6992 10.9238 69.6386 11.2344 69.8918 11.27C69.9219 11.2742 70.0401 10.9524 70.2706 10.8935C70.4998 10.8345 70.6685 11.003 70.8144 10.9748C70.9362 10.9512 70.897 10.6598 71.1447 10.6511C71.3455 10.6441 73.681 10.9419 73.7971 10.9926C73.9775 11.0662 74.0502 11.476 74.1639 11.4307C74.1841 11.4209 74.2324 11.0296 74.3017 11.0041C75.4334 10.5826 77.8996 11.2131 79.1674 11.2579C81.8418 11.3537 84.3153 11.2156 87.0056 11.2224C87.0558 11.1558 87.1059 11.0892 87.1559 11.0226C86.8863 11.0102 86.6153 10.9977 86.3428 10.9851C86.3478 10.8003 86.3528 10.6155 86.3579 10.4306C85.9901 10.3879 86.0224 10.8266 86.0233 11.0907C85.8909 10.9737 85.7555 10.8567 85.6261 10.7399C85.4872 11.3796 84.5977 10.9178 84.124 10.9012C83.8228 10.89 83.4523 11.1219 83.2923 11.0968C82.9541 11.0447 82.9773 10.6477 82.9509 10.6404C82.9059 10.6297 82.4152 10.9622 82.0783 10.936C81.5756 10.8977 81.544 10.2857 80.828 10.7774C79.9632 10.4278 78.9665 10.5495 78.0122 10.565C78.2176 10.0082 77.3318 10.5089 76.9528 10.4856C74.5992 10.3406 71.7124 9.98901 69.3317 9.67538C69.0264 9.63561 68.806 9.29459 68.6335 9.29907C68.5399 9.30116 68.4843 9.69125 68.3562 9.63451C68.3345 9.6237 68.3294 9.25678 68.0936 9.19263C67.6814 9.07912 66.8085 9.32209 66.1988 9.22273C66.1577 9.23169 66.0297 9.20776 65.9889 9.21791C65.7338 9.18394 65.5257 9.0891 65.4156 8.88114C63.3622 8.97287 61.3245 9.06512 59.2866 9.15776C59.2369 9.00763 59.1872 8.85749 59.1375 8.70736C58.7588 9.46958 57.2033 9.00775 56.461 9.03805C55.1613 9.09226 53.4551 9.31728 52.3131 9.33473C52.0642 9.33852 51.8625 9.11994 51.6282 9.12262C51.527 9.12412 51.4018 9.40464 51.2925 9.40529C50.0749 9.41771 48.4991 9.11639 47.2796 9.11449C44.5504 9.10973 41.9971 9.04956 39.2175 9.04368C29.9227 9.02668 20.635 9.38818 11.4148 9.1816C11.2885 9.17881 11.2963 8.85524 11.199 8.85256C10.6352 8.83435 9.35588 9.09579 8.73295 9.07868C8.23197 9.06539 7.40037 8.5674 7.23972 9.06503C9.05506 9.82609 10.9594 9.77725 12.8363 9.99639C12.9711 10.0118 12.9869 10.3195 13.0035 10.3253C13.3132 10.4335 13.1172 10.009 13.5724 9.99187C13.7114 9.98605 15.0647 10.9744 14.911 9.99605C15.2615 10.3887 17.544 10.5951 17.9912 10.4678C18.1242 10.429 18.0316 10.1389 18.058 10.1244C18.173 10.061 18.2229 10.4606 18.3259 10.4714C18.5988 10.4976 19.3114 10.1772 19.4494 10.1802C19.7803 10.1853 20.6664 10.5149 21.0824 10.4405C21.4579 10.3726 21.3898 9.95505 21.7174 9.91844C21.9747 9.89067 21.6982 10.2401 22.266 10.3491C22.5386 10.4023 23.5192 10.1566 23.7631 10.1579C24.0037 10.1592 24.2753 10.4103 24.6089 10.3929C25.0718 10.3684 26.1023 10.2351 26.5955 10.1579C26.6248 10.1536 26.698 9.82946 26.7703 9.83663C26.9201 9.85108 26.8728 10.2516 26.9861 10.2929C27.0984 10.3341 29.0067 10.2961 29.3489 10.3026C29.5767 10.3062 29.7431 10.0685 29.8622 10.0713C29.9583 10.0741 29.9666 10.408 30.0649 10.4123C30.0953 10.4125 30.3561 10.1241 30.6172 10.1324C30.8619 10.1406 31.8071 10.4221 31.9191 10.4254C31.9911 10.4269 31.9134 10.1892 32.1266 10.1961C32.3207 10.2031 32.4486 10.5119 32.558 10.5171C32.8067 10.5287 33.0879 10.2677 33.3549 10.2681C34.1236 10.2695 34.0845 10.6508 34.1302 10.6635C34.259 10.6988 34.3131 10.3496 34.3555 10.3426C34.5346 10.3145 34.9767 10.2527 35.1385 10.2401C35.3398 10.2245 35.4239 10.5572 35.6297 10.5596C35.7841 10.5604 36.0984 10.2385 36.4544 10.225C37.249 10.1929 38.2496 10.1382 39.016 10.1556C39.2498 10.1605 39.2841 10.464 39.3557 10.4723C39.7324 10.5164 39.9476 10.1788 40.0559 10.184C40.8343 10.2196 42.2078 10.7607 42.9188 10.8106C43.2026 10.8306 44.5138 10.594 45.2162 10.6429C45.2978 10.648 45.2197 10.8852 45.3109 10.8486C45.529 10.761 45.5123 10.2768 45.6227 10.2922C45.676 10.3012 45.7959 10.5749 45.9516 10.6031C46.7595 10.7497 47.3253 10.5416 47.6999 10.5589C51.241 10.7251 54.873 10.8792 58.1992 10.948C58.5798 10.9555 59.0247 10.671 59.5809 10.955C59.5968 11.1055 59.6128 11.256 59.6287 11.4066C59.6493 11.2589 59.6699 11.1113 59.6906 10.9637C60.322 10.8887 60.5629 10.7004 61.2113 10.8938C61.2672 10.91 61.4328 11.5979 61.5458 10.7461C62.1862 11.369 61.841 10.7434 62.3158 10.6898C62.7861 10.6361 63.2433 10.8302 63.7027 10.8768C63.9518 11.1843 62.8902 11.8803 62.8226 11.8775C62.7123 11.8739 62.6011 11.449 62.4952 11.4256C62.1847 11.3557 61.8678 11.6896 61.7997 11.3106C61.3822 11.7073 61.8995 11.5116 61.8449 11.8715C61.5693 11.7202 61.2946 11.5689 61.0206 11.4176C60.8685 12.6421 59.3706 11.0318 59.4694 11.9658C59.3512 11.7781 59.2332 11.5903 59.1153 11.4025C58.5855 12.5692 58.278 11.7423 57.5707 11.3884C57.6206 11.5386 57.6706 11.6887 57.7207 11.8388C57.7053 11.9012 57.0788 12.1358 57.3071 11.4997C56.6613 12.3351 56.6991 10.9374 56.1219 11.9436C55.7835 12.0707 55.9901 11.4852 55.388 11.4907C55.0347 11.4937 54.5811 11.7972 54.1747 11.8155C54.0813 11.8187 54.0433 11.4786 53.9603 11.4779C53.8774 11.4774 53.8344 11.8104 53.734 11.818C53.5266 11.8345 53.2605 11.5986 53.1315 11.6201C53.0159 11.6385 52.8486 11.9312 52.5711 11.9753C51.6038 12.1315 51.8999 11.714 51.7486 11.5708C51.5851 11.4185 51.4705 11.9707 51.135 11.9041C51.1017 11.8971 51.1906 11.5531 51.0819 11.5658C50.9944 11.5758 50.9473 11.9501 50.6578 12.0178C50.5393 12.0451 48.7673 12.1124 48.504 12.1174C48.1037 12.1246 47.1655 11.8008 46.7385 11.8001C46.5729 11.799 46.3943 12.0985 46.2193 12.0952C45.6346 12.0844 44.7332 12.0526 43.9775 12.0327C43.3067 12.0145 42.1533 11.3428 41.7925 11.9397C40.8656 12.0112 40.6298 11.4975 40.562 11.4901C40.3711 11.4696 40.2805 11.8083 40.0408 11.8225C36.9427 11.9992 32.8744 11.7494 29.9373 11.7592C23.1306 11.7845 16.267 11.9344 9.44066 11.769C9.42157 11.9193 9.40251 12.0696 9.38347 12.2199C10.2285 12.3203 11.1245 12.5853 11.945 12.6487C12.9924 12.732 14.5724 12.1129 15.3669 13.1446C15.0404 13.2332 14.525 12.8367 14.5324 13.3653C15.0985 13.4057 15.6813 13.4462 16.2311 13.4866C16.2155 13.2424 16.2 12.9982 16.1844 12.7539C16.7622 12.6857 17.4053 12.742 17.9774 12.7099C18.0786 12.7046 18.008 12.4827 18.0963 12.482C18.1952 12.4817 18.127 12.7069 18.1455 12.7088C18.3958 12.7123 18.4737 12.4845 18.5044 12.4879C18.5835 12.4973 18.5205 12.7142 18.7491 12.7762C19.1737 12.8921 19.4879 12.3166 19.3812 13.2774C19.5206 13.2781 19.6607 13.2789 19.8015 13.2796C19.838 13.018 19.8735 12.7565 19.9096 12.495C20.7295 13.5558 21.1329 11.7044 21.5965 13.1775C21.7535 12.9537 21.9113 12.73 22.0698 12.5062C22.1583 12.7684 22.2379 13.0305 22.3222 13.2927C22.34 13.0682 22.3577 12.8436 22.3755 12.6191C23.1813 12.789 24.0926 12.5243 24.8761 12.5545C25.4194 12.5756 25.5508 12.665 26.0405 12.6508C27.1373 12.6187 26.0428 13.0582 26.957 13.5447C26.9106 13.269 26.8643 12.9934 26.818 12.7177C26.9707 12.6177 27.1251 12.5176 27.2702 12.4176C27.3712 12.6427 27.4723 12.8679 27.5738 13.0931C28.0362 11.9308 28.3307 12.8729 28.3934 12.8732C28.4446 12.8715 28.6213 12.1712 29.1705 12.7684C28.9464 11.8082 29.593 12.7652 29.6464 12.7711C29.7025 12.7754 30.3134 12.5649 30.5679 12.5754C30.7661 12.5834 31.1903 12.7924 31.4902 12.7841C31.7549 12.7767 31.7303 12.451 31.7496 12.4477C32.0768 12.4227 31.8702 12.6743 32.1072 12.6882C32.3437 12.702 32.5342 12.4257 32.5806 12.4508C32.6055 12.4642 32.5201 12.7669 32.6342 12.7969C32.9403 12.8786 33.5013 12.6165 33.859 12.6266C33.9857 12.6299 34.1441 12.8881 34.2859 12.8969C34.5033 12.9094 34.6076 12.5684 34.7346 12.5794C34.7786 12.5841 35.0581 13.1136 35.4111 13.0348C35.4761 13.0189 35.6737 11.9033 35.9184 13.4872C35.9394 13.2647 35.9605 13.0422 35.9816 12.8196C37.1389 12.2758 37.4586 14.0866 37.9919 12.4849C38.8481 12.6697 38.2561 13.2912 38.3493 13.3876C38.4099 13.4485 38.6809 13.2784 38.7112 13.2884C38.7639 13.3079 38.7535 13.5085 38.8116 13.5078C39.879 13.4776 39.4085 13.0956 39.7496 12.8577C40.565 12.2916 41.1933 13.5646 39.7805 13.1743C39.7798 13.2863 39.7791 13.3983 39.7783 13.5102C40.1247 13.4055 41.0142 13.4622 40.7134 14.0282C40.4707 14.474 38.3911 14.1682 39.5659 14.8037C39.8333 14.9475 39.9747 14.5282 40.4379 15.3193C40.7479 15.3641 40.7992 14.3436 41.2193 14.7561C41.1521 14.3996 41.085 14.043 41.0179 13.6864C41.609 13.2262 42.2782 13.8534 42.7205 13.6569C42.8685 13.5899 43.416 11.8958 43.2795 13.5924C43.5257 13.4882 44.7248 13.8092 44.9324 13.6585C44.985 13.6221 45.0566 12.7188 45.8105 13.0396C45.8623 13.1533 45.9142 13.2669 45.9661 13.3806C45.2708 13.7048 46.4927 14.0481 46.1541 14.9034C46.0432 14.5171 45.4961 14.2782 45.4097 14.0837C45.2619 13.749 45.712 13.3221 45.1415 13.4353C44.7725 14.8661 45.8041 14.2137 45.6379 15.5736C46.3938 14.9435 46.4673 15.5503 46.6381 15.5767C47.3679 15.6844 47.8498 15.5436 48.5226 15.7073C48.6933 15.429 47.4527 15.0165 47.2907 15.136C47.8727 14.1493 46.8827 14.0974 46.4656 14.6829C46.433 14.3832 46.4004 14.0835 46.3678 13.7838C46.905 13.9499 47.4341 14.0371 47.9764 13.7952C48.0098 13.9074 48.0432 14.0197 48.0766 14.1319C47.9592 14.2997 47.8343 14.4674 47.7125 14.6351C48.1608 14.9145 47.8961 14.0393 48.4762 14.8086C48.4967 14.4715 48.5172 14.1344 48.5378 13.7973C49.0977 13.9133 49.6618 14.0294 50.2301 14.1455C50.5292 13.4714 51.6338 13.7315 51.4218 14.6054C51.8555 14.6705 51.3228 14.2006 51.7316 13.9906C51.9095 13.8994 52.2575 13.876 52.3419 14.1123C52.2984 14.9457 51.7773 15.0453 51.6166 15.6167C51.7044 15.802 54.1462 15.225 53.9246 16.1984C54.12 16.3171 54.0333 15.8141 54.389 15.6882C55.3841 15.3373 56.8787 16.3416 57.6933 15.1023C56.7617 14.4018 56.4818 15.1339 55.772 15.1577C55.3346 15.1735 52.5271 15.2705 53.1613 14.3938C53.0584 14.505 52.9556 14.6162 52.8529 14.7274C52.7519 14.4643 52.6511 14.2012 52.5503 13.9381C52.84 13.9025 53.1307 13.8669 53.4224 13.8313C53.49 14.0935 53.5577 14.3558 53.6254 14.618C53.659 14.4314 53.6926 14.2448 53.7262 14.0582C53.8494 14.022 53.9729 13.9858 54.0966 13.9497C54.0602 14.174 54.0239 14.3983 53.9875 14.6227C54.1772 14.6625 54.3673 14.7024 54.5579 14.7422C54.5088 14.4417 54.4597 14.1412 54.4107 13.8407C55.3122 13.7721 54.9969 13.9577 55.4843 14.5227C55.8489 14.5829 55.236 14.0013 56.0106 13.8608C56.9148 13.6976 56.3126 14.61 57.4908 14.423C57.509 14.2734 57.5271 14.1238 57.5453 13.9742C57.8036 14.1259 58.0626 14.2777 58.3223 14.4295C58.2893 14.243 58.2563 14.0566 58.2233 13.8701C58.7597 13.9464 59.4815 13.5968 59.6536 14.3286C59.12 13.9727 59.116 15.2481 59.2531 15.4837C59.5306 15.9668 63.8162 15.5537 64.644 15.5291C65.1112 15.5151 65.5296 15.5873 65.9357 15.6203C65.94 15.6193 65.9536 15.6218 65.9579 15.6208C66.4751 15.6782 66.9677 15.6708 67.5202 15.3392C67.2392 15.0993 66.6239 15.0324 65.9813 14.999C65.9734 15.0007 65.9487 14.9961 65.9409 14.998C65.1385 14.9799 64.3183 15.015 64.0775 14.8155C64.0345 14.7802 64.0561 13.6111 63.7674 14.9242C62.8758 14.6938 61.8073 15.0579 60.6774 15.0106C60.7144 14.6743 60.7514 14.338 60.7884 14.0017C61.4735 14.723 62.1322 13.156 62.0307 14.4629C62.1712 14.464 62.304 14.4651 62.4402 14.4662C62.442 14.2409 62.4438 14.0157 62.4456 13.7904C62.6501 13.7921 62.855 13.7938 63.0603 13.7954C63.0584 14.0207 63.0566 14.2459 63.0548 14.4712C63.2248 14.4725 63.3951 14.4739 63.5657 14.4753C63.5853 14.2509 63.6049 14.0264 63.6245 13.802C64.129 14.2726 65.8991 13.0399 65.1146 14.3748C65.3569 14.3768 65.5998 14.3788 65.8433 14.3808C65.8439 14.2161 65.8445 14.0514 65.845 13.8867C65.8801 13.8796 65.9152 13.8724 65.9503 13.8653C65.9646 13.8618 66.0095 13.8702 66.0239 13.867C66.0941 13.8549 66.1642 13.8428 66.2342 13.8307C66.1942 13.9784 66.1542 14.1261 66.1142 14.2738C66.6032 14.0249 67.023 14.8261 67.3523 14.3224C67.1521 14.2022 66.9513 14.0819 66.7496 13.9616C67.1373 14.1903 67.8738 13.7745 67.9375 13.7758C68.1339 13.781 68.2293 14.1178 68.4438 14.1429C68.6378 14.1647 68.6206 13.908 68.6565 13.9183C69.6912 14.2182 69.2397 15.5873 69.7861 13.9671C69.829 14.1928 69.8718 14.4185 69.9146 14.6443C69.9908 14.4602 70.0681 14.2762 70.1448 14.0921C70.4551 14.1215 70.7636 14.1508 71.0705 14.1801C70.9786 13.8964 70.8865 13.6128 70.7942 13.3291C71.2614 13.2219 71.4531 13.7909 71.4972 13.8054C71.6216 13.8428 71.6924 13.493 71.7312 13.4938C73.6192 13.5962 72.4615 13.8625 73.3487 15.2207C73.701 14.7144 73.3846 14.1813 73.3573 13.6515C73.7877 13.916 73.9392 13.7754 74.4095 13.8226C74.532 13.8353 74.6528 14.1251 74.7298 14.1319C74.7966 14.1379 75.0168 13.8431 75.1764 13.848C75.4401 13.8558 75.7938 14.05 76.1619 14.0595C76.4702 14.0668 77.4014 13.8882 78.0595 13.911C78.3374 13.9215 78.2631 14.1723 78.3348 14.1755C78.3646 14.1766 78.592 13.8816 78.7688 13.8871C80.2278 13.9358 81.7008 14.1837 83.1655 14.2329C84.1877 14.2677 85.2434 14.0627 86.2769 14.1254C86.4962 14.139 86.3718 14.3574 86.4672 14.3688C86.4999 14.372 86.5542 13.985 86.8856 14.1535C87.0052 14.2142 86.8554 14.4808 86.9745 14.4987C87.0333 14.5073 87.0664 14.1675 87.4158 14.1024C88.0473 13.9832 88.3619 14.4491 88.418 14.4376C88.523 14.4152 88.5027 14.1322 88.6408 14.127C89.3272 14.102 89.8884 14.074 90.4979 14.0716C90.7837 14.0706 92.7349 14.0806 92.8383 14.1346C93.0727 14.2552 92.8309 14.8364 93.1374 14.8266C93.2292 14.6806 93.3208 14.5345 93.4123 14.3883C93.279 14.2706 93.1432 14.1527 93.0126 14.0349C93.382 14.2368 93.8215 13.9834 94.098 14.0027C94.1498 14.0067 94.6101 14.2891 94.8561 14.2678C94.7494 14.3751 94.6424 14.4823 94.5352 14.5896C94.5687 14.6851 94.6023 14.7807 94.6358 14.8762C95.1284 14.7491 95.6336 14.769 96.1302 14.8049C96.3095 14.8174 96.2417 15.0447 96.4229 15.0583C97.4738 15.1392 97.237 14.178 98.1976 15.9975C97.8605 15.8254 96.6038 16.0147 96.424 15.9494C96.2987 15.9038 95.8525 14.3765 95.9848 15.9336C94.9752 15.8948 95.8814 15.0672 94.9295 15.2238C94.9423 15.4138 94.9552 15.6037 94.968 15.7937C94.6326 15.9023 94.3845 15.99 94.1968 15.6493C94.1025 16.5659 92.9907 15.991 92.3785 16.0321C91.481 16.0896 90.4699 16.2788 89.5906 16.2871C89.2872 16.2897 89.127 15.9236 89.0888 15.9234C89.0329 15.924 88.8643 16.2336 88.7522 16.2319C88.3419 16.2263 87.0887 15.6473 86.7493 16.5113C89.2118 16.6011 91.693 16.6887 94.1576 16.7697C93.859 16.3296 96.3576 16.3681 96.4864 16.3929C96.603 16.4158 96.4949 16.7148 96.5292 16.7343C96.7848 16.8719 97.0185 16.4406 97.1003 16.4431C97.1625 16.4451 97.2827 16.6545 97.5078 16.6568C97.5489 16.6574 97.5669 16.4404 97.6111 16.4411C97.9035 16.4499 98.1905 16.4616 98.4811 16.469C98.4989 16.4716 98.5619 16.7912 98.6366 16.794C98.7111 16.7961 98.7939 16.4811 98.8127 16.4806C99.0476 16.4897 99.4423 16.7075 99.6634 16.716C99.7402 16.7181 99.6936 16.4841 99.7795 16.4887C100.043 16.5017 99.9447 16.9545 100.277 16.8464C100.389 16.81 100.391 16.4617 100.601 16.5134C100.749 16.5501 100.716 17.17 100.739 17.1932C100.772 17.2213 101.296 16.7452 101.456 17.1556C101.058 18.2178 101.86 17.2221 101.833 16.7688C102.035 16.888 102.235 17.0071 102.436 17.126C102.508 17.0132 102.58 16.9004 102.653 16.7876C103.467 17.3241 103.975 17.026 104.782 17.2028C104.819 17.2117 105.498 17.481 105.463 17.6414C105.046 17.91 104.64 17.9137 104.39 17.3953C103.936 18.3626 103.944 17.5839 103.248 17.6969C103.015 17.7353 102.991 17.9999 102.965 18.0027C102.054 18.1126 100.603 18.1882 100.011 17.3959C99.8329 17.6007 100.448 17.7009 100.204 17.8487C100.07 17.9308 96.9266 18.086 97.9553 17.2232C97.8506 17.2449 97.7457 17.2665 97.6407 17.288C97.5108 18.1277 96.9971 17.9191 97.0826 17.0816C97.0287 17.2519 96.9747 17.4221 96.9206 17.5924C96.8197 17.7348 96.7031 17.8091 96.5409 17.8504C95.9173 18.0082 92.2653 17.5951 92.0685 17.7081C92.0572 17.907 92.046 18.1059 92.0348 18.3049C93.6441 18.5853 95.2289 18.1422 96.9778 18.7666C96.9326 18.5783 96.8873 18.3899 96.8419 18.2016C97.5367 18.4848 98.2324 18.7675 98.9321 19.0495C98.175 19.3661 96.98 19.6142 96.206 19.3113C96.0678 19.2573 96.1784 19 96.1473 18.9675C96.0666 18.8829 95.9596 19.3319 95.6596 19.3664C95.3609 19.4009 94.6153 19.0561 94.5448 19.0628C94.4078 19.077 94.0366 19.5824 93.8096 19.5683C93.512 19.5494 93.7222 19.2361 93.6627 19.2273C93.4162 19.1877 93.1879 19.3388 92.9932 19.3086C92.7084 19.2638 92.1317 18.6809 91.9007 19.5002C92.1059 19.545 92.3103 19.5897 92.5139 19.6344C91.3869 19.8928 90.5508 18.8064 89.4276 19.5821C89.1432 20.5737 90.0533 20.4705 89.2726 20.8704C89.4124 20.861 89.5519 20.8516 89.691 20.8422C89.7308 20.6338 89.7707 20.4255 89.8105 20.2171C90.0411 20.3751 90.2821 20.5333 90.5166 20.6914C90.4544 20.5022 90.3922 20.3131 90.3298 20.124C91.1875 20.013 92.0519 19.8508 92.3157 20.8647C92.3414 20.6226 92.3672 20.3805 92.3929 20.1384C93.168 20.4602 94.3949 19.4707 94.1266 20.8137C94.1662 20.7434 94.2057 20.673 94.2452 20.6027C94.7148 20.8943 94.5293 20.3292 94.7114 20.272C94.7646 20.256 95.6826 20.574 95.2589 20.9618C96.1501 21.2969 95.9169 20.0259 96.1675 19.9784C96.729 20.622 97.8006 19.7155 97.3313 20.6903C97.4171 20.73 97.5028 20.7697 97.5883 20.8094C97.8964 20.0406 98.1494 20.9285 98.4468 21.2316C98.551 21.2522 98.6558 21.2729 98.7601 21.2935C98.8379 21.0339 98.9155 20.7743 98.993 20.5147C99.9398 21.7879 99.7204 18.3736 100.092 21.2472C100.017 21.4164 99.9424 21.5856 99.8673 21.7548C99.698 21.8315 99.5323 21.9082 99.3641 21.9849C100.028 22.0792 100.699 22.1732 101.366 22.2662C102.197 23.0903 102.704 22.2324 103.632 22.889C103.722 22.8149 103.813 22.7408 103.904 22.6667C103.798 23.3126 103.455 23.2095 104.091 23.515C104.136 23.9744 103.698 24.0237 103.511 23.6676C103.466 23.5807 103.877 23.2392 103.424 23.2162C103.116 23.2 103.664 23.7642 102.743 23.5378C102.775 23.6506 102.806 23.7634 102.838 23.8761C102.737 23.8704 102.637 23.8647 102.536 23.8589C102.453 23.5977 102.369 23.3364 102.287 23.0752C102.05 23.4436 101.909 23.9647 101.386 23.8395C101.533 23.6809 101.353 23.1558 101.092 23.1577C101.088 23.3451 101.083 23.5325 101.078 23.72C100.449 23.8239 100.681 23.2798 100.147 23.6948C100.098 23.5444 100.05 23.3939 100.002 23.2434C99.6979 23.8498 98.6449 24.2377 98.8607 23.3225C98.539 24.2087 97.9376 23.787 97.73 23.0646C97.7069 23.2502 97.6837 23.4358 97.6605 23.6214C97.5374 23.6555 97.4141 23.6895 97.2905 23.7236C97.2256 23.6089 97.1606 23.4943 97.0956 23.3796C97.0047 23.4895 96.9168 23.5995 96.8272 23.7095C96.7811 23.5211 96.7349 23.3328 96.6888 23.1444C96.5437 23.364 96.3982 23.5835 96.2523 23.8031C96.1719 23.6514 96.0915 23.4997 96.0109 23.348C95.9881 23.7373 95.1469 23.7975 94.9202 23.5342C94.8466 23.6452 94.7728 23.7561 94.699 23.8671C94.6707 23.6805 94.6423 23.494 94.614 23.3074C94.5569 23.4541 94.4998 23.6007 94.4426 23.7474C94.3265 23.5951 94.2106 23.4428 94.0969 23.2906C93.5805 24.1837 93.5899 23.3855 93.4782 23.3874C93.2708 23.391 92.5435 23.9366 92.4291 23.9034C92.3129 23.8699 92.2672 23.5417 92.1734 23.5078C90.6171 22.9414 91.2396 23.8392 90.9192 23.967C90.7477 24.0366 90.6384 23.7281 90.4872 23.7566C90.2251 23.8039 88.9241 24.1612 88.8489 24.119C88.7422 24.0582 89.0493 22.632 88.6826 22.9893C88.6413 23.7596 87.9197 22.9549 88.231 24.0422C87.927 23.9369 87.6213 23.8314 87.3138 23.7258C87.3178 24.6407 86.9479 24.039 86.5363 24.0747C85.9481 24.1245 84.5938 24.6761 84.6796 23.7408C84.5308 23.9509 84.3817 24.161 84.2322 24.3711C83.2738 24.0401 82.3121 24.3137 81.361 24.2891C78.5168 24.217 75.4395 23.8955 72.6244 23.6032C72.4891 23.5889 72.5203 23.2835 72.4228 23.273C71.9045 23.2194 70.5713 23.3855 69.8463 23.2902C69.6136 23.26 69.5144 22.9571 69.4425 22.9407C69.1984 22.8829 69.2414 23.2785 69.1283 23.263C68.9511 23.2381 68.0104 22.8368 67.6781 22.7858C67.5181 22.7608 67.3157 23.0662 67.1299 22.9625C67.1139 22.954 67.1562 22.633 67.1426 22.6268C66.7987 22.5743 66.9959 22.8607 66.8795 22.8416C66.4975 22.779 66.1 22.7366 65.6914 22.6992L65.8768 22.7035C65.3949 22.6736 64.9042 22.6512 64.412 22.6112C64.1858 22.5924 63.8422 22.3623 63.6492 22.3393C63.5755 22.3311 63.7056 22.5768 63.4512 22.5545C63.3641 22.5469 63.3369 22.2285 63.2388 22.2071C62.8162 22.1168 62.6668 23.1379 62.3116 22.3128C61.6058 22.3612 60.3609 22.6138 59.7222 22.6143C59.5704 22.6141 59.4981 22.4256 59.3538 22.4278C59.2513 22.4293 59.0691 22.7189 58.9098 22.7212C58.7488 22.7233 58.5077 22.4442 58.1915 22.4519C57.8619 22.4595 57.4532 22.6209 57.3795 22.6194C57.2904 22.6187 57.2516 22.2683 57.1626 22.272C56.8929 22.2812 56.1731 22.6197 55.8301 22.6543C55.4611 22.6909 55.2423 22.5194 55.1169 22.5219C55.0007 22.5257 54.8634 22.8201 54.8105 22.8223C54.7265 22.8261 54.7087 22.4807 54.6015 22.4828C54.4263 22.4871 54.2442 22.7028 53.9827 22.7066C49.3083 22.7784 44.7255 22.5561 40.1782 22.2745C39.6704 22.243 39.3819 22.4832 38.6448 22.3679C38.3457 22.3209 38.4778 21.9655 38.2396 22.0313C38.1326 22.061 38.1578 22.3414 38.0228 22.3541C37.4261 22.4089 36.7431 22.1441 36.49 22.147C36.3895 22.1477 36.2726 22.4652 36.0674 22.4685C34.5242 22.4948 32.7221 22.3943 31.0367 22.4394C30.169 22.4635 28.8213 22.6178 27.8195 22.6334C25.0271 22.6771 22.0326 22.5872 19.4989 22.606C15.6435 22.6327 11.8312 22.9095 8.00659 22.5462C9.7933 23.3231 12.23 23.2692 14.227 23.3618C19.9818 23.6271 26.1281 23.213 32.0335 23.2657C34.0755 23.2837 36.6705 23.2823 38.9245 23.4752C39.0254 23.4838 39.2365 23.2404 39.4559 23.2678C39.5021 23.2741 40.0792 23.7244 40.2763 23.7302C40.095 22.9354 40.8614 23.6478 41.1027 23.6303C41.4153 23.6074 42.0185 23.2149 42.7175 23.4439C43.3499 23.6512 43.1737 23.9552 43.2084 23.9746C43.4326 24.0999 43.5148 23.6085 43.6882 23.56C44.4076 23.3664 48.0238 23.6777 49.0124 23.703C49.2719 23.7094 49.2772 24.0222 49.3357 24.0237C49.4909 24.0269 49.7144 23.7197 49.9644 23.7236C50.4148 23.7314 50.9356 24.0304 51.1865 24.0334C51.7743 24.0411 52.8873 23.7012 53.662 23.7003C53.8793 23.6999 53.8637 24.0252 53.9622 24.0248C54.4023 24.0224 55.5184 23.6474 56.0503 23.6482C56.9125 23.6492 57.8216 23.8666 58.7017 23.7664C58.7559 23.912 58.8102 24.0577 58.8644 24.2033C58.9531 24.0516 59.0418 23.9 59.1306 23.7483C60.6075 23.8761 62.1604 23.5616 63.6257 23.595C63.7957 23.5986 64.6417 23.8834 64.7843 23.8857C64.9024 23.8867 65.0216 23.5281 65.1967 23.5825C65.4421 23.658 65.2047 24.3409 65.6087 24.1484C65.7175 24.0963 65.6148 23.8023 65.8333 23.7128C65.8385 23.7106 65.8506 23.7081 65.8685 23.7052L65.6537 23.7003C65.8882 23.6701 67.0858 23.6143 67.1516 23.6357C67.273 23.6745 67.3585 24.3062 67.3896 24.3209C67.5514 24.398 67.5612 23.916 67.6747 23.8763C68.0116 23.7574 68.4291 24.0977 68.4826 24.0926C69.127 24.0279 70.3521 23.6894 71.0162 23.9426C71.108 23.9778 71.0832 24.3361 71.099 24.3484C71.2014 24.4267 71.2823 24.0208 71.3825 24.0152C71.9302 23.9898 72.7731 24.2973 73.3086 24.3876C73.3715 24.3976 73.5133 24.2063 73.6256 24.2297C74.2595 24.3644 74.0397 24.6717 74.0757 24.6866C74.16 24.7233 74.3239 24.3814 74.5513 24.3686C75.1282 24.3331 76.2694 24.4266 76.8852 24.4771C77.3591 24.5166 77.3363 24.9144 77.3672 24.9235C77.433 24.9403 77.6297 24.6295 77.9405 24.6052C78.5381 24.5569 78.4552 24.867 78.7019 24.8629C78.7227 24.8636 78.6985 24.5562 78.9738 24.535C79.5067 24.4945 80.6692 24.8398 81.2369 24.8454C81.4534 24.8479 81.5149 24.5547 81.7355 24.5573C82.0813 24.5602 82.8736 24.9096 82.9334 24.911C82.9509 24.9117 83.0029 24.5735 83.1058 24.5774C83.2188 24.5817 83.3232 24.7606 83.4072 24.7626C83.8871 24.7758 84.7449 24.2141 84.4679 25.4176C84.6333 25.1241 84.7982 24.8305 84.9627 24.5369C85.9722 24.6339 86.9555 24.5498 87.959 24.5249C88.1836 24.5195 88.3607 24.7557 88.5538 24.7514C88.7468 24.7471 89.5978 24.397 89.7359 24.3947C89.9894 24.3913 91.4068 24.4005 91.5864 24.4336C91.9322 24.4973 92.2496 25.0096 92.393 24.9164C92.5079 24.8413 92.4138 24.5555 92.6303 24.4827C93.0063 24.3569 93.6317 24.7407 93.7441 24.7387C93.7924 24.738 93.7099 24.515 94.1626 24.514C94.4086 24.5131 94.5341 24.7598 94.6233 24.7616C94.6509 24.7612 94.623 24.3668 95.1066 24.4352C95.44 24.483 95.572 24.7908 95.607 24.793C95.6601 24.7967 95.7991 24.4771 96.0118 24.4951C96.5081 24.539 97.4034 24.9378 97.875 24.9799C97.9658 24.9882 97.947 24.5963 98.3076 24.6429C98.5674 24.6765 98.5135 24.9862 98.6109 25.0015C98.7657 25.0252 99.0079 24.6509 99.3478 24.6729C99.7767 24.7023 102.958 25.1807 103.124 25.2858C103.234 25.3572 103.362 25.3646 103.413 25.5349C103.362 25.6958 103.311 25.8568 103.26 26.0177C102.785 25.4373 102.966 26.092 102.835 26.1306C102.644 26.1858 101.936 26.0851 101.762 26.2249C101.699 26.2754 101.831 26.625 101.497 26.7944C101.139 26.9755 100.995 26.3554 100.834 27.1931C100.361 26.2457 99.8517 27.2239 100.425 27.5045C100.741 27.6623 103.916 28.0756 104.568 28.1399C105.095 28.1933 106.088 27.9633 106.739 28.0397C107.12 28.0854 108.062 28.1451 108.015 28.5917C108.353 28.6538 108.001 28.2023 108.074 28.1415C108.224 28.0148 109.281 28.339 109.481 28.3294C110.473 28.2852 111.729 27.7993 112.688 28.3721C112.642 28.4915 112.596 28.6109 112.55 28.7303C112.33 28.9484 111.33 28.624 111.209 29.1973C111.994 29.2061 112.779 29.2133 113.564 29.2187L113.546 29.2185C114.214 29.2242 114.883 29.2303 115.55 29.2368C115.526 28.7471 117.301 28.7721 117.38 28.9943C117.346 29.2309 117.312 29.4675 117.279 29.7041C116.291 28.7939 116.366 29.9837 115.701 29.3457C115.428 29.3341 115.506 29.7265 115.369 29.7995C114.022 30.5261 115.357 28.9958 114.325 29.3367C114.596 29.8473 113.952 30.0611 113.538 30.1499L113.558 30.1501C113.508 30.1606 113.462 30.1694 113.421 30.1767C113.333 30.1921 112.168 30.0385 112.031 30.0458C111.255 30.0893 109.916 30.3839 109.154 30.0611C108.546 30.0148 108.209 30.4138 107.656 30.498C107.236 30.5616 107.361 30.2795 107.166 30.2725C106.755 30.2571 106.602 31.1199 106.362 29.9078C106.078 30.0527 105.798 30.1975 105.516 30.3421C105.52 30.1547 105.524 29.9672 105.528 29.7798C105.353 29.7762 105.178 29.7725 105.002 29.7688C104.946 29.9545 104.891 30.1402 104.835 30.3258C104.286 30.058 104.528 29.6116 104.436 29.0786C104.317 29.0395 104.198 29.0004 104.079 28.9612C103.977 29.3666 103.875 29.7719 103.773 30.1772C103.236 30.1316 102.706 30.0857 102.169 30.039C102.139 29.8514 102.11 29.6637 102.08 29.4761C102.074 29.6629 102.068 29.8496 102.063 30.0364C101.158 30.0521 100.253 30.0662 99.3475 30.0792C99.0964 30.3721 100.543 30.6395 100.65 30.6601C101.259 30.776 102.889 30.516 102.876 31.1817C103.266 30.6941 104.413 30.8438 104.754 31.4474C104.217 31.4 103.669 31.3517 103.133 31.3031C103.145 31.5268 103.157 31.7504 103.169 31.9741C102.519 31.0576 102.413 31.1046 101.703 31.938C101.71 31.6386 101.717 31.3392 101.724 31.0398C101.215 32.0686 100.408 30.2799 100.35 31.5644C100.097 31.4533 99.8425 31.3422 99.5873 31.2308C99.0298 31.3717 99.8632 32.3856 97.7062 31.9348C97.558 31.9033 97.5989 31.5769 97.3738 31.5927C97.3102 31.5975 96.919 32.0625 96.2175 31.9912C96.1074 31.9799 96.1079 31.6956 95.9943 31.656C95.7324 31.5622 95.1837 32.107 95.4535 31.1994C94.4195 30.8993 94.827 31.6641 94.4928 31.9523C94.2693 32.1434 94.3305 31.6033 94.1382 31.72C93.899 31.8646 94.0547 32.4163 93.136 32.1345C93.2414 32.1009 93.3466 32.0673 93.4517 32.0336C93.4044 31.8835 93.357 31.7334 93.3096 31.5834C92.7681 31.9217 92.8348 31.4032 92.5558 32.2285C92.1858 31.8439 91.8567 31.8031 91.3259 31.8526C90.2998 31.9492 90.7977 32.866 89.6696 31.6153C89.4743 31.7785 89.283 31.9418 89.0887 32.1049C88.7922 31.7369 89.0587 31.2991 88.599 31.1925C88.9319 32.0875 87.9592 31.7309 87.7719 32.5114C87.7614 32.3234 87.751 32.1354 87.7405 31.9474C87.6379 31.9437 87.5351 31.94 87.4321 31.9363C87.4264 32.0866 87.4207 32.2369 87.4149 32.3872C87.2818 32.2697 87.1483 32.1521 87.0145 32.0346C86.9055 32.1798 86.7962 32.3251 86.6867 32.4703C86.5255 32.1498 86.3705 31.8295 86.2128 31.5091C86.1077 31.4837 86.0023 31.4584 85.8967 31.433C85.9222 31.6581 85.9477 31.8831 85.9731 32.1081C85.8393 32.0283 85.7051 31.9485 85.5706 31.8687C85.7166 32.2417 85.6015 32.6687 85.1729 32.6417C84.8196 32.6196 85.2426 31.8677 84.4795 32.1588C84.4256 32.1795 84.315 32.7229 83.5937 32.7807C82.7316 32.85 83.165 32.4697 83.0127 32.4502C82.983 32.4469 82.7127 32.7123 82.4661 32.7425C82.3262 32.7598 82.2001 32.5326 82.1816 32.5325C82.0951 32.5394 82.0582 32.8527 81.9382 32.8596C81.6292 32.8751 81.2404 32.7063 80.943 32.7108C80.8086 32.7125 80.6751 32.8939 80.6149 32.8938C80.5217 32.8925 80.4139 32.6037 80.3193 32.6012C79.9651 32.5938 79.4145 33.5177 79.301 32.2012C78.9237 33.3935 78.2734 31.91 78.2956 32.72C77.4254 32.3816 75.0109 33.2823 75.1301 31.9272C74.5756 33.0686 74.6603 32.2299 74.4484 32.2393C74.2131 32.2495 74.3261 32.4793 74.1396 32.462C73.7052 32.4218 73.283 32.3088 72.8498 32.2877C72.925 32.1043 72.9985 31.9208 73.075 31.7374C72.6228 31.6603 72.7639 32.0993 72.296 32.165C71.4326 32.2844 71.8063 31.9526 71.6983 31.4601C71.7129 31.9322 70.704 31.8204 70.6058 31.7546C70.5459 31.7146 70.838 31.1179 70.2123 31.2901C70.239 31.4781 70.2658 31.6661 70.2925 31.8541C70.0227 31.5881 69.2327 31.8826 69.1106 31.8151C69.0527 31.7835 68.7934 30.2658 68.4563 31.4462C68.4282 31.2582 68.4 31.0702 68.3719 30.8821C68.039 31.0942 67.7043 31.3063 67.3678 31.5184C67.3283 31.18 67.2905 30.8418 67.2518 30.5035C67.1499 30.4997 67.0478 30.4958 66.9455 30.4919C67.0021 30.7931 67.0586 31.0943 67.115 31.3954C66.491 31.2365 65.6918 31.6779 65.5972 30.6658C65.5253 30.7562 65.4533 30.8465 65.3813 30.9369L65.8083 30.9467C65.7382 31.04 65.6682 31.1332 65.5982 31.2265C65.5113 30.8905 65.4245 30.5545 65.3378 30.2185C64.7006 30.2978 64.6889 30.5218 64.2531 30.8755C64.2721 30.614 64.2912 30.3524 64.3102 30.0908C63.9879 30.4557 63.4046 30.7931 62.948 30.8356C62.7307 30.8551 62.3623 30.4915 62.3111 30.5238C62.2612 30.5578 61.7366 31.9705 61.689 30.7433C60.9233 31.2805 60.596 30.723 60.2895 30.7341C60.0906 30.7416 59.9977 31.0353 59.7735 31.064C59.4527 31.1054 59.1327 30.9605 58.9488 30.9793C58.8435 30.9909 58.8217 31.2779 58.7492 31.2863C58.4061 31.3275 58.6118 31.0356 58.2471 31.0519C58.2131 31.055 57.9405 31.4031 57.6381 31.3558C57.4688 31.3295 57.0353 30.9321 56.9971 30.9328C56.8267 30.9383 56.956 31.727 56.3822 30.8128C56.3979 30.9627 56.4136 31.1125 56.4293 31.2624C55.7087 31.6367 55.6027 30.9683 55.4587 30.9209C55.4403 30.917 55.2648 31.1738 55.1615 31.1374C54.9869 31.0753 54.9192 30.7215 54.8806 30.7056C54.7491 30.6505 54.2714 30.8023 53.9693 30.4584C54.0251 31.4644 52.9529 31.8139 52.7274 30.6737C52.5377 30.8969 52.3484 31.1201 52.1595 31.3433C52.0762 31.1552 51.9931 30.9671 51.9099 30.7789C51.8572 30.9654 51.8044 31.1518 51.7517 31.3383C51.4825 30.9249 51.2171 30.5114 50.9392 30.0979C50.9184 30.5099 50.8977 30.9218 50.877 31.3338C50.7995 31.2863 50.7222 31.2389 50.6449 31.1915C50.5867 30.8636 50.5285 30.5357 50.4704 30.2078C50.3731 30.2695 50.2759 30.3313 50.1788 30.3931C50.1531 30.6299 50.1275 30.8667 50.1018 31.1035C49.5818 31.3729 49.8618 29.1147 48.8668 31.0945C48.7159 30.9066 48.5653 30.7186 48.415 30.5307C48.2352 31.4388 47.927 30.8859 47.6574 30.9862C47.4702 31.057 47.4777 31.4183 47.2239 31.4245C46.9703 31.4306 46.982 31.0852 46.9622 31.0828C46.7561 31.0601 46.5989 31.3636 46.4487 31.3018C46.426 31.2927 46.372 30.882 46.1806 30.8546C45.9894 30.8274 45.8709 31.2629 45.5878 31.1786C45.4427 31.1358 45.4032 30.7899 45.2748 30.7584C44.6696 30.6054 44.0244 32.3513 43.5726 30.272C43.465 30.5343 42.6992 31.4498 42.3781 31.3947C41.8778 31.3067 42.0738 30.9008 41.8757 30.8249C41.8465 30.8134 41.6967 30.95 41.2754 30.9224C41.1986 30.9174 41.2149 31.1475 41.2038 31.1504C40.7019 31.1425 39.7405 30.9546 39.2038 30.9184C39.1558 30.9147 38.8994 31.554 38.4819 30.6891C37.8429 31.3217 36.6331 29.9457 35.802 30.9003C35.6868 30.9199 35.5491 30.6898 35.4983 30.6972C35.063 30.7655 35.2084 31.4625 34.2067 30.4372C34.2862 30.7927 34.0478 31.1116 33.717 31.0826C33.2205 31.0389 33.5769 30.3792 33.1788 30.4308C33.1777 30.6177 33.1765 30.8045 33.1754 30.9914C32.2747 30.4832 32.0672 31.2808 31.1413 31.2798C30.8076 31.2789 30.3229 30.862 30.2448 30.8604C30.2142 30.8614 29.853 31.3097 29.8191 31.3129C29.6293 31.3253 29.5142 31.117 29.3432 31.1148C28.7751 31.1071 28.1076 31.6893 28.2341 30.626C28.0795 30.8497 27.9255 31.0734 27.7721 31.2971C27.2063 30.1576 26.7674 31.7211 26.6465 30.6169C26.5399 30.8441 26.4335 31.0714 26.3274 31.2987C23.8716 31.1696 21.3412 31.0408 18.8681 30.9132C18.7631 31.2678 17.6903 31.1364 17.6399 31.0809C17.392 30.8294 17.6623 30.0564 17.1313 30.2308C17.0709 30.5697 17.0108 30.9086 16.9507 31.2475C16.2897 31.3548 16.6094 31.0188 16.3518 30.7876C16.2441 30.8289 16.2774 31.0923 16.1325 31.1108C15.3633 31.2119 13.7303 31.2168 12.8468 31.2343C12.6705 31.238 12.6984 30.9921 12.6439 30.9912C12.4942 30.9928 12.1996 31.3016 11.908 31.3004C10.0431 31.29 7.43943 31.1047 5.57537 30.8376C5.44299 30.8191 5.42815 30.5256 5.34023 30.5106C5.21787 30.4911 4.95161 30.7274 4.83066 30.7022C4.71609 30.6792 4.64434 30.4561 4.52519 30.4296C3.9289 30.3058 3.15623 30.6799 2.56625 30.0209C2.51846 29.9653 1.85482 28.7818 1.85586 28.7043C1.76552 28.2441 2.35529 27.5233 1.40086 26.8475C2.26424 26.2628 1.98237 25.2237 0.894373 24.7134C1.45072 24.584 1.96987 24.4547 2.55139 24.3257C2.5525 24.2026 2.55361 24.0796 2.55473 23.9565C2.02568 23.3451 1.55814 23.1407 0.793281 23.0823C0.816427 22.9684 0.840052 22.8546 0.864156 22.7407C1.52689 22.1732 2.36662 22.0705 2.85596 21.2954C2.11136 20.7182 1.37054 20.1412 0.633226 19.5644C0.66564 19.4746 0.699253 19.3849 0.734063 19.2951C1.10688 19.0628 1.8851 18.928 2.17053 18.7114C3.34375 17.8854 1.18148 18.0876 1.53006 17.5825C2.74926 17.6043 3.93368 17.6264 5.13198 17.6489C5.21206 17.276 0.537926 16.2318 0.622408 15.1074C0.788323 15.0701 0.992619 15.0329 1.1865 14.9957C1.35823 14.9584 1.54833 14.9212 1.75658 14.884C1.57188 14.5977 1.40157 14.3114 1.24579 14.0252C1.28919 13.9348 1.33369 13.8444 1.37931 13.7541C2.04255 13.534 2.64644 13.3138 3.29981 13.0939C2.35277 13.2025 1.5933 13.2155 1.10168 12.9203C0.805372 12.7725 0.63668 12.5478 0.431062 12.2191C0.343369 12.0547 0.282279 11.8645 0.188906 11.6449C0.150094 11.5351 0.119759 11.418 0.0959054 11.2932C0.0878456 11.2308 0.0648272 11.1665 0.0402158 11.1001C0.0298335 11.0669 0.0224664 11.0333 0.01837 10.9991C0.0163957 10.982 0.0149831 10.9648 0.0156565 10.9475C0.0164759 10.9388 0.0157198 10.9301 0.0231331 10.9214C0.0255906 10.9193 0.0276601 10.9171 0.0375134 10.915C0.0437328 10.9139 0.0473091 10.9128 0.0753923 10.9121C0.0994895 10.9123 0.0845186 10.9099 0.231138 10.9152C0.28482 10.9186 0.310584 10.9149 0.562419 10.9407C0.632801 10.9489 0.719575 10.9582 0.890618 10.9881C1.08891 11.0386 1.24391 11.0048 2.09764 11.363C2.50822 11.6379 3.398 11.6944 4.5736 13.7842C5.13105 14.8236 5.24774 16.6231 4.73702 17.8068C4.25609 19.0134 3.59572 19.5962 3.16504 19.9523C2.27283 20.625 1.89362 20.6835 1.60451 20.7998C1.32565 20.8914 1.1686 20.9245 1.04321 20.9518C0.585908 21.0408 0.525205 21.0302 0.423811 21.0426C0.339477 21.0497 0.296936 21.0518 0.262299 21.0538C0.196209 21.0573 0.168994 21.058 0.145798 21.0589C-0.0465061 21.0649 0.036074 21.0648 0.00934372 21.0676C0.00375122 21.0698 0.001855 21.0719 0.000140217 21.0741C0.0104193 21.075 -0.0171373 21.0762 0.0572493 21.0765C0.0784694 21.0761 0.0752836 21.0774 0.193737 21.0735C0.230859 21.0718 0.267985 21.0714 0.399141 21.0616C0.473305 21.0546 0.548654 21.0527 0.80864 21.0127C0.953235 20.9853 1.11089 20.974 1.59522 20.821C1.85086 20.7263 2.1841 20.645 2.88511 20.1813C3.23242 19.9348 3.71063 19.58 4.23113 18.8189C4.74573 18.0891 5.23061 16.7455 5.06095 15.4167C4.59876 12.6315 3.09155 11.9774 2.61782 11.6162C2.02634 11.2726 1.73768 11.1983 1.51255 11.1217C1.08477 10.9936 0.934757 10.9797 0.801176 10.9553C0.558405 10.9181 0.484283 10.9154 0.41322 10.9086C0.286585 10.8987 0.249716 10.898 0.213394 10.8962C0.0249348 10.8896 0.0784272 10.8924 0.0514927 10.8913C0.0318975 10.8907 0.0305048 10.8903 0.0265261 10.8898C0.0160653 10.888 0.0175077 10.8862 0.0161791 10.8844C0.0149966 10.8808 0.016073 10.8772 0.0174885 10.8736C0.0205025 10.8665 0.0261764 10.8593 0.033931 10.8522C0.0456888 10.8379 0.0872356 10.8237 0.0873572 10.8094C0.105765 10.7808 0.127522 10.7522 0.152601 10.7236C0.584752 12.1324 2.56048 11.6827 3.61736 11.4056C3.39446 10.9924 2.50139 11.3082 2.27213 11.0595C2.21512 10.9883 2.41571 10.7026 2.28338 10.5557C1.97368 10.1736 0.498454 9.67935 0.730413 9.21336C0.890957 8.91378 3.14771 8.50911 3.62679 8.54239C2.5539 8.00006 1.50427 7.84097 0.419997 7.18331C1.08982 6.27199 1.68736 5.15624 2.90809 5.11047C3.29839 4.63251 0.696316 3.96105 0.653344 3.69963C1.0708 3.42013 1.54713 3.14089 1.9882 2.86161C1.82439 2.89856 1.59656 2.93532 1.41596 2.97225C1.24232 3.00919 1.03491 3.04605 0.84777 3.08298C0.846948 2.98923 0.846127 2.89548 0.845307 2.80173C1.83046 2.36927 2.72285 1.57335 3.84924 1.6312C3.82732 1.13513 3.13332 1.18218 2.82002 1.1767ZM109.598 31.2043C109.616 31.6159 109.197 31.5425 108.961 31.531C108.995 31.6064 109.03 31.6817 109.064 31.7571C108.558 31.672 107.627 31.4984 107.577 32.2956C107.214 32.3885 107.386 31.6973 107.271 31.6163C107.227 31.584 106.752 31.9794 106.386 31.4807C106.297 31.481 106.207 31.4812 106.118 31.4814C106.095 31.7427 106.073 32.004 106.05 32.2653C105.933 31.9453 105.816 31.6252 105.698 31.305C106.997 31.2753 108.293 31.2419 109.596 31.2043C109.597 31.2043 109.598 31.2043 109.598 31.2043ZM96.7018 31.2421C96.2422 31.0804 95.5298 30.8247 95.6525 31.5457C95.9507 31.5173 96.2474 31.4887 96.5428 31.46C96.5958 31.3874 96.6488 31.3147 96.7018 31.2421ZM50.9987 29.4284C50.613 28.7199 50.2493 29.3277 49.652 29.1959C49.6518 29.345 49.6514 29.4941 49.6511 29.6432C49.8979 29.287 50.545 29.5299 50.9987 29.4284ZM121.106 28.6354C121.19 28.692 121.272 28.7487 121.356 28.8053C121.002 29.6014 120.948 29.0357 120.561 29.1077C120.538 29.1122 120.543 29.2958 120.535 29.2968C120.44 29.3078 120.357 29.0857 120.27 29.0878C120.106 29.0923 119.968 29.3141 119.676 29.3022C119.451 29.2922 119.454 28.9405 119.374 28.9484C119.307 28.9562 118.624 29.9151 118.198 29.4921C117.386 28.6856 120.857 28.5554 121.106 28.6354ZM123.538 29.3376C123.456 29.3394 123.374 29.3413 123.292 29.3431C123.547 28.8067 123.049 28.8803 122.685 28.8855C122.705 28.3672 123.471 28.6021 123.821 28.4536C123.726 28.7483 123.632 29.0429 123.538 29.3376ZM113.267 28.0974C113.594 28.047 113.535 28.6937 113.52 28.8864C113.416 28.8856 113.312 28.8849 113.207 28.8841C113.227 28.6219 113.247 28.3596 113.267 28.0974ZM115.663 27.8941C115.559 28.3327 114.865 28.5183 114.535 28.5515C114.522 28.5514 114.611 28.3109 114.381 28.3313C114.312 28.3377 113.617 29.2096 113.777 28.2147C114.406 28.1075 115.035 28.0006 115.662 27.8941C115.663 27.8941 115.663 27.8941 115.663 27.8941ZM116.36 28.161C116.227 28.2976 116.097 28.4343 115.965 28.571C115.899 28.3639 115.832 28.1569 115.767 27.9499C115.917 27.8993 116.067 27.8487 116.214 27.7981C116.263 27.9191 116.312 28.04 116.36 28.161ZM17.4838 25.7502C17.5137 25.971 17.5457 26.1919 17.5734 26.4127C17.6868 26.5486 18.2585 25.5904 18.08 25.4035C17.8797 25.5191 17.6876 25.6347 17.4838 25.7502ZM15.0458 25.2757C14.9244 25.1638 14.8038 25.0519 14.6838 24.94C14.5435 25.3137 14.4041 25.6874 14.2657 26.0611C14.857 26.3163 15.5135 26.6102 15.4129 25.5059C15.5541 25.5066 15.6817 25.5072 15.8173 25.5078C15.7025 25.9637 15.7156 26.1141 16.0675 26.4055C16.1479 25.7707 16.5125 26.096 16.9428 25.9585C16.6307 25.9199 16.3225 25.8813 16.0184 25.8427C16.0189 25.7308 16.0195 25.6188 16.02 25.5068C16.7003 25.5505 15.8581 24.8362 15.4159 25.2794C15.3802 25.1301 15.3447 24.9809 15.3092 24.8316C15.221 24.9796 15.1332 25.1276 15.0458 25.2757ZM64.7611 25.8289C64.6763 25.7156 64.5916 25.6023 64.507 25.4889C64.1634 26.9531 64.8492 25.5671 65.3232 26.732C65.2021 26.0301 65.6424 25.9132 65.8505 25.8652L65.5725 25.8588C65.6264 25.848 65.6647 25.8413 65.6738 25.8295C65.6448 25.7116 65.6159 25.5937 65.5869 25.4758L65.8537 25.4819C65.8036 25.3014 65.7535 25.1208 65.7035 24.9402C65.3884 25.2364 65.0743 25.5327 64.7611 25.8289ZM62.3584 24.7976C62.6519 25.5315 61.1897 25.5646 60.7016 25.3995C60.583 25.3589 60.3747 24.9555 60.2888 25.0056C60.2357 25.1536 60.1827 25.3016 60.1296 25.4496C60.0717 24.9361 59.1189 25.5053 58.7467 25.7785C58.7132 25.5914 58.6798 25.4043 58.6463 25.2172C58.5102 25.2903 58.3766 25.3635 58.2361 25.4366C58.2549 25.2506 58.2738 25.0645 58.2927 24.8785C58.1862 25.1016 58.0798 25.3247 57.9736 25.5478C57.5618 25.7937 57.8223 24.7807 57.5125 25.095C57.1686 25.4441 57.723 26.0528 57.7098 26.4462C57.9892 26.3469 58.6198 26.1247 58.8934 26.1156C59.0526 26.1108 58.8657 26.8142 59.5592 26.0095C59.7085 26.1995 59.858 26.3895 60.0078 26.5795C60.2878 26.2816 60.5686 25.9837 60.8503 25.6858C60.9003 25.9473 60.9503 26.2088 61.0004 26.4702C61.0295 26.5113 61.6825 25.9238 61.6497 25.7274C61.9126 26.2286 62.4397 26.3218 62.999 26.3516C63.0541 26.2101 63.1091 26.0686 63.1642 25.9272C62.6202 26.2292 62.9931 25.7756 62.834 25.5026C62.7422 25.3452 62.4604 25.0351 62.3584 24.7976ZM21.2701 25.1971C20.3502 25.8292 20.915 25.3066 19.941 25.3016C20.0068 25.6391 20.0728 25.9767 20.139 26.3143C20.618 25.7006 21.4221 26.1145 21.271 25.1971C21.2707 25.1971 21.2704 25.1971 21.2701 25.1971ZM11.6016 26.2719C12.1239 26.0701 11.8576 25.5445 12.5171 25.3794C12.5174 25.3794 12.5177 25.3794 12.5181 25.3794C12.1717 25.3401 11.8573 25.301 11.4988 25.2617C11.533 25.5984 11.5673 25.9352 11.6016 26.2719ZM42.1792 26.036C42.6765 26.1859 42.5801 25.9228 43.0314 26.45C43.7151 25.8189 43.1392 25.9048 43.1432 25.3277C42.9868 25.4959 42.8309 25.6641 42.6753 25.8323C42.3048 25.2901 42.6614 25.0208 42.6618 24.9689C42.6615 24.9689 42.6612 24.9689 42.6609 24.9689C42.6621 24.7957 42.6744 24.7593 42.5316 24.6536C42.4139 25.1144 42.2965 25.5752 42.1792 26.036ZM44.3372 25.3379C44.1604 25.7199 44.0781 26.2114 44.5353 26.4603C44.5356 26.4603 44.5359 26.4603 44.5363 26.4603C44.5805 25.6041 45.0013 26.2984 45.1982 26.2423C45.2502 26.1496 45.3022 26.0568 45.3543 25.9641C45.0136 25.7553 44.6884 25.5467 44.3372 25.3379ZM51.9047 24.6051C51.8996 25.5513 51.5228 25.6385 52.0457 26.5143C52.1488 26.4982 52.2519 26.482 52.3552 26.4659C52.4245 26.2587 52.4938 26.0515 52.5632 25.8444C53.8663 27.5664 54.2754 24.6538 52.0516 25.7273C52.0513 25.7279 52.051 25.7286 52.0506 25.7292C52.002 25.3545 51.9533 24.9798 51.9047 24.6051ZM49.5819 24.6681C49.5615 25.1647 49.5412 25.6613 49.5209 26.1579C49.2393 24.9575 48.8564 26.0981 48.299 25.2487C48.247 25.3993 48.195 25.55 48.143 25.7007C47.9403 25.3668 45.827 25.256 46.2805 26.0233C46.4757 26.3584 46.912 25.9083 46.9494 25.9187C47.0757 25.9571 47.2378 26.385 47.4525 26.3617C47.5752 26.3477 47.847 25.848 48.0901 25.8507C48.6414 25.8569 49.6477 27.2109 50.3988 25.9416C50.4511 26.0917 50.5033 26.2419 50.5556 26.392C51.1059 26.3047 50.9318 25.8289 51.4331 26.3985C51.8124 24.0418 49.3742 26.4997 49.8931 24.5903C49.8928 24.5903 49.8925 24.5903 49.8921 24.5903C49.7886 24.6162 49.6852 24.6421 49.5819 24.6681ZM34.5512 25.2734C34.5199 24.8495 33.8802 25.4993 34.0359 24.485C33.8266 24.8372 33.6182 25.1895 33.4107 25.5417C33.4117 25.6361 33.4127 25.7305 33.4136 25.8249C33.6182 25.752 33.8237 25.679 34.0299 25.6061C34.0298 25.7558 34.0296 25.9055 34.0295 26.0553C34.336 25.5155 35.6344 25.7596 35.5811 26.2896C35.6497 26.0661 35.7185 25.8426 35.7873 25.619C36.3871 26.2327 36.9155 25.5877 37.5831 26.1872C37.6364 26.002 37.6896 25.8168 37.7429 25.6316C37.7759 25.7815 37.8089 25.9315 37.8419 26.0814C38.087 26.1019 38.3354 26.1224 38.5712 26.1428C39.3568 25.545 37.8412 24.7546 37.6439 24.8419C37.6188 24.8541 37.6201 25.2418 37.4639 25.3016C37.1814 25.4067 35.6601 25.011 35.1869 25.2637C35.1843 25.0065 35.1818 24.7493 35.1792 24.4922C34.969 24.7526 34.7597 25.013 34.5512 25.2734ZM54.8389 25.6389C54.8712 25.9008 54.9034 26.1628 54.9357 26.4248C55.5288 26.1679 55.9029 26.3993 55.7568 25.5326C55.7565 25.5326 55.7561 25.5326 55.7558 25.5326C55.4491 25.568 55.1435 25.6034 54.8389 25.6389ZM99.1174 27.1517C99.1163 26.6312 98.8341 26.4286 98.4482 26.7905C98.4618 26.942 98.4755 27.0935 98.4892 27.245C98.6972 26.8078 98.9195 27.5868 99.5199 27.5011C99.5273 27.2394 99.5346 26.9778 99.5419 26.7162C99.4008 26.8614 99.2593 27.0066 99.1174 27.1517ZM54.3187 25.5216C54.1365 25.2117 53.6141 26.1439 53.953 26.1927C54.2122 26.2296 54.4164 25.6881 54.3187 25.5216ZM9.53682 25.7573C9.67408 25.8126 9.81275 25.8678 9.95281 25.9231C10.0294 25.7008 10.0928 25.4784 10.1633 25.256C10.163 25.256 10.1627 25.256 10.1624 25.256C9.97151 25.4232 9.74261 25.5902 9.53682 25.7573ZM40.4629 26.0674C40.9233 26.0379 41.3971 26.0085 41.8439 25.979C41.8494 25.8339 41.8549 25.6887 41.8604 25.5436C41.405 26.0703 41.2206 25.498 41.112 25.4624C41.1125 25.4624 41.1129 25.4624 41.1134 25.4624C40.7654 25.3451 40.4356 25.2583 40.1102 25.0826C40.2276 25.4109 40.3451 25.7391 40.4629 26.0674ZM38.8996 25.1411C38.9698 26.1673 39.0666 26.2874 39.7747 25.5706C39.7476 25.4442 39.7206 25.3177 39.6936 25.1912C39.3286 25.2643 39.1163 25.4997 39.1833 24.9652C39.0886 25.0238 38.994 25.0824 38.8996 25.1411ZM46.0751 25.518C45.9924 25.1908 45.3227 25.5141 45.3582 25.679C45.3712 25.7444 46.2346 26.1594 46.0751 25.518ZM104.276 27.057C104.121 26.9787 103.966 26.9003 103.811 26.8218C104.022 26.7153 104.233 26.6087 104.444 26.5021C104.388 26.6871 104.332 26.872 104.276 27.057ZM106.025 25.6348C106.135 25.7677 105.751 26.6827 106.417 26.9337C105.927 26.9438 105.445 26.9535 104.956 26.9625C105.188 26.8184 105.419 26.6741 105.65 26.5298C105.616 26.264 105.582 25.9983 105.547 25.7326C105.707 25.7001 105.866 25.6675 106.025 25.6348ZM106.534 26.3207C106.287 25.6151 107.662 25.588 107.791 25.6755C107.819 25.6964 107.946 26.23 107.995 26.3451C107.786 26.3422 107.577 26.3392 107.369 26.3361C107.435 26.5047 107.502 26.6732 107.569 26.8417C107.323 26.8947 107.081 26.9476 106.835 27.0003C106.943 26.8343 107.05 26.6683 107.157 26.5023C106.95 26.4418 106.742 26.3813 106.534 26.3207ZM101.008 26.3635C101.182 26.3857 101.356 26.4078 101.529 26.4299C101.501 26.1674 101.473 25.9049 101.445 25.6423C101.341 25.6396 101.237 25.6369 101.133 25.6341C101.091 25.8773 101.049 26.1204 101.008 26.3635ZM104.56 26.112C104.279 27.3662 103.65 24.5965 104.434 25.6345C104.513 25.7399 104.586 25.9908 104.56 26.112ZM108.305 25.8345C108.86 24.9247 108.707 26.9509 108.205 26.3486C108.18 26.3165 108.264 25.9017 108.305 25.8345ZM112.373 25.8576C112.417 25.8648 112.489 26.5223 112.914 25.9013C112.983 25.9768 113.052 26.0522 113.121 26.1276C112.956 26.4319 111.565 26.6003 111.763 25.9512C111.976 25.9433 112.154 25.8353 112.373 25.8576ZM111.058 23.4141C110.851 23.4299 110.644 23.4456 110.436 23.4612C110.502 23.6678 110.568 23.8743 110.634 24.0809C110.531 24.1356 110.428 24.1903 110.325 24.245C110.155 23.8879 109.984 23.5308 109.816 23.1736C110.267 23.1232 110.719 23.0723 111.169 23.0208C111.132 23.1519 111.095 23.283 111.058 23.4141ZM105.565 22.8164C105.957 23.0827 106.45 22.8178 107.095 22.8737C107.096 22.8743 107.096 22.875 107.096 22.8757C107.128 22.8792 107.18 23.1629 107.283 23.176C107.372 23.1872 109.122 22.9057 108.98 23.3821C108.296 23.801 108.056 23.1437 107.875 24.2061C107.846 23.9809 107.817 23.7558 107.787 23.5307C107.142 23.1304 106.946 23.9043 106.574 24.1824C106.579 24.0132 106.584 23.844 106.588 23.6748C106.344 23.6532 106.1 23.6315 105.858 23.6096C105.89 23.7216 105.922 23.8336 105.954 23.9456C105.868 23.9439 105.782 23.9421 105.696 23.9404C105.496 23.4346 105.233 23.3122 105.565 22.8164ZM111.996 23.7035C112.12 22.9235 112.857 22.9505 113.607 23.0301C114.078 23.0821 114.557 23.157 114.889 23.0546C114.53 23.6656 114.033 23.451 113.596 23.331C113.491 23.3003 113.383 23.2757 113.282 23.2733C112.338 23.2513 112.987 23.7296 112.825 23.9357C112.745 24.0377 112.216 23.2098 111.996 23.7035ZM104.108 23.0094C104.576 23.1237 104.84 22.8338 105.239 23.3136C105.203 23.4066 105.167 23.4996 105.131 23.5926C104.992 23.504 103.868 23.208 104.108 23.0094ZM116.118 23.4025C115.228 22.9326 115.653 24.0993 115.2 23.2236C115.504 23.1711 115.814 23.1188 116.122 23.0666C116.12 23.1786 116.119 23.2905 116.118 23.4025ZM53.3192 20.684C52.9394 20.6518 52.5192 20.4144 52.2904 20.897C52.5459 20.9738 52.8022 21.0506 53.0592 21.1274C53.1458 20.9796 53.2325 20.8318 53.3192 20.684ZM64.1698 16.0369C64.0839 15.9201 63.739 16.2599 63.7031 16.2597C63.6362 16.2591 63.6559 16.0905 63.6553 16.0464C63.2176 16.0734 63.6167 16.6002 63.2925 16.7114C63.2367 16.7297 62.4815 16.4648 62.1754 16.4836C61.6935 16.5124 61.2127 16.4746 61.0338 16.4822C60.7309 16.4945 60.1677 16.8827 59.6752 16.8991C59.4721 16.9052 59.4038 16.5902 59.2001 16.5965C57.8881 16.6391 55.295 17.0508 54.1224 16.8424C53.8318 16.7907 53.5586 16.3769 53.4054 16.4093C53.2837 16.5588 53.162 16.7082 53.0406 16.8577C52.6811 15.5012 52.5486 16.7044 52.1516 16.8276C51.8995 16.9056 51.7855 16.5036 51.7518 16.5044C51.5275 16.5106 51.4207 16.7008 51.2394 16.731C51.0374 16.7645 50.7499 16.5815 50.678 16.6136C50.6342 16.6352 50.7691 17.1693 49.9939 17.1535C49.2019 17.1373 48.4441 17.0754 47.6392 17.0447C47.9006 18.6562 48.133 17.5562 48.4568 17.4998C48.5436 17.4847 48.4868 17.7398 48.5624 17.7291C48.7759 17.7002 49.1879 17.452 49.3655 17.5142C49.5572 17.5813 49.4871 18.1731 49.7329 17.9563C49.7454 17.9452 49.7081 17.7003 49.7659 17.6597C50.3475 17.2592 50.5339 17.6861 51.273 17.7039C51.7436 17.7163 54.6848 17.4957 54.7945 17.6561C55.3146 18.5168 52.1999 18.4991 51.8527 18.4289C51.7275 18.4042 51.8609 18.1351 51.7471 18.0825C51.6987 18.0614 51.2619 18.5732 50.8186 18.6127C50.2859 18.6606 49.231 18.3016 48.7351 18.3104C44.4269 18.3864 40.1818 18.0463 35.8836 18.0123C35.7931 18.0117 35.6715 18.3195 35.3778 18.3177C29.7682 18.2767 24.0215 18.0006 18.3574 18.1179C17.1416 18.1435 15.9257 18.4278 14.6599 18.192C14.504 18.4165 14.3492 18.6411 14.1956 18.8656C14.5842 18.6883 15.3179 19.2012 15.387 19.209C15.4125 19.2114 15.5646 18.9581 15.7987 18.9727C16.1308 18.9923 16.2786 19.2133 16.306 19.2134C16.3918 19.2145 16.3367 18.98 16.4187 18.9815C17.0266 18.9946 17.5358 18.9306 18.0765 18.931C18.7051 18.9319 19.0295 19.3698 19.5042 18.8932C19.5568 19.0803 19.6095 19.2674 19.6624 19.4545C19.9913 18.6481 22.0989 18.7485 22.901 18.7957C23.1629 18.8107 23.1154 19.1386 23.2037 19.1391C23.261 19.139 23.2373 18.7092 23.9338 18.7973C24.285 18.8421 24.3796 19.1556 24.554 19.1464C24.6466 19.1409 24.6332 18.8305 24.7666 18.8312C25.5395 18.8354 26.1823 18.9397 26.9671 19.0017C27.1869 19.0187 27.1824 19.2778 27.2312 19.2747C27.4064 19.2641 27.7136 18.8271 28.1653 18.8308C28.9124 18.8373 30.4057 18.8476 31.0073 19.0643C31.0966 19.0964 31.1691 19.4077 31.2353 19.4035C31.3354 19.3962 31.3767 19.0721 31.3944 19.0705C31.7302 19.0669 31.5262 19.3672 31.7522 19.2953C31.8742 19.2566 32.0033 18.8875 32.2885 18.8474C32.6668 18.7945 32.5824 19.233 32.7371 19.19C32.7533 19.1832 32.7598 18.878 32.9098 18.8688C33.4775 18.8362 34.3139 18.7708 34.8667 18.7754C35.0252 18.7764 35.1424 18.9827 35.3643 18.9875C35.7841 18.9969 38.3031 18.8821 38.5083 19.0018C38.5296 19.0144 38.3074 19.4633 38.6569 19.452C38.7597 19.2652 38.8626 19.0784 38.9658 18.8916C39.1343 19.1928 39.3032 19.494 39.4727 19.7953C39.472 18.7583 40.4872 18.6049 40.4713 19.6652C40.5826 19.7089 40.6941 19.7526 40.8058 19.7963C41.0417 19.0652 41.2053 19.3368 41.6475 18.9094C41.7145 19.1344 41.7816 19.3595 41.8488 19.5846C41.8671 19.4349 41.8854 19.2853 41.9037 19.1357C42.1334 19.9487 42.527 19.1366 42.5744 19.1325C42.756 19.1157 42.8915 19.3229 42.977 19.3168C43.2959 19.2976 43.9936 19.0182 44.3714 19.1526C44.3892 19.1595 44.3692 19.5062 44.4766 19.5498C44.6718 19.6285 44.6902 19.1208 44.9387 19.719C44.9907 19.5697 45.0427 19.4203 45.0947 19.2709C45.1483 19.3488 45.2019 19.4266 45.2556 19.5045C45.5757 19.467 45.8973 19.4295 46.2203 19.3921C45.9229 19.9773 46.2576 20.3076 46.5814 19.8478C46.6909 19.6918 46.5972 19.3336 46.6338 19.2798C46.6792 19.2068 48.153 19.3993 48.2338 19.631C48.3024 19.5189 48.371 19.4067 48.4397 19.2946C48.4724 19.5201 48.5051 19.7456 48.5378 19.9711C48.5759 19.8926 48.614 19.8141 48.6521 19.7356C49.0219 20.135 50.0074 19.2321 50.1862 19.3053C50.2813 19.3444 50.1879 20.3038 50.6468 20.2091C50.6647 19.9456 50.6825 19.682 50.7004 19.4185C50.8057 19.3815 50.9111 19.3445 51.0168 19.3075C51.2157 19.3325 51.4953 19.7915 51.5012 20.1041C51.5628 19.917 51.6245 19.73 51.6862 19.5429C51.8429 20.155 52.7123 19.9449 53.0677 19.561C53.1691 19.7461 53.2706 19.9311 53.3723 20.1161C53.5125 19.8932 53.6528 19.6703 53.7935 19.4474C54.116 19.3824 53.773 19.7521 53.8414 19.7837C53.9855 19.849 54.7334 19.2257 54.6788 20.0088C54.7809 20.0115 54.8807 20.0142 54.9794 20.0169C55.032 19.7934 55.0847 19.5698 55.1374 19.3462C55.3018 20.1197 55.5979 19.8493 56.2046 20.1357C56.257 19.9583 56.3095 19.781 56.362 19.6037C56.5486 19.8577 56.7356 20.1118 56.923 20.3658C56.9641 20.0719 57.0053 19.7779 57.0465 19.484C57.1293 19.4423 57.2121 19.4006 57.295 19.359C57.4575 20.0194 57.765 19.3095 57.917 19.5826C58.1389 19.9811 57.9607 20.4525 57.5437 20.5406C57.5715 21.0209 58.8135 20.8101 59.0893 20.7773C59.0714 20.6834 59.0535 20.5895 59.0357 20.4956C58.7458 20.5676 58.4651 20.6396 58.1668 20.7115C57.9322 19.5023 58.7209 19.8323 59.0777 19.6796C59.1107 19.6649 59.3 19.209 59.6626 19.2545C59.8028 19.2725 60.3476 19.9454 60.4528 19.9834C61.3019 20.2955 60.6823 19.3352 61.5119 20.1794C61.3408 19.5366 61.8247 20.0735 62.3185 19.9535C62.4019 19.933 63.1174 19.4188 63.1661 19.4057C63.4673 19.3247 63.1352 19.8889 63.5717 19.7449C63.6253 19.5963 63.6789 19.4476 63.7326 19.299C63.8341 19.2998 63.9357 19.3006 64.0374 19.3015C64.6442 20.6351 64.7974 19.6579 65.0191 19.5342C65.1087 19.4842 64.9909 19.8298 65.2231 19.7585C65.3105 19.732 65.4096 19.4444 65.645 19.426C65.7386 19.4188 65.8242 19.4325 65.9038 19.4591L65.8135 19.4571C66.3541 19.6565 66.5876 20.4643 67.2122 19.3655C67.3074 19.5554 67.4024 19.7453 67.4973 19.9353C67.5745 19.7147 67.6516 19.4942 67.7286 19.2736C68.2362 19.9413 68.0702 19.2708 68.2623 19.286C68.7733 19.3257 69.7906 19.4914 69.8652 20.0289C70.353 18.8193 70.822 20.2227 70.995 20.1814C71.1025 20.0363 71.2099 19.8911 71.317 19.746C71.431 19.9002 71.543 20.0543 71.658 20.2086C71.6453 19.002 72.2279 20.2102 72.2865 20.2305C72.3577 20.2513 73.3206 19.9311 73.6795 19.9514C74.0391 19.9719 74.6464 20.3219 74.7004 20.3246C74.7637 20.327 75.3756 20.0225 75.8553 20.0442C76.2697 20.0636 78.7105 20.6222 78.5725 20.0792C78.4187 19.9245 78.196 19.787 78.0009 19.7096C77.3837 19.4719 73.8034 19.0607 72.8843 18.9399C71.0359 18.6991 69.1215 18.6579 67.2667 18.4705C67.1584 18.4596 67.1536 18.1468 67.0605 18.1363C66.9192 18.1219 66.5462 18.4207 66.4055 18.4086C66.2294 18.3929 66.04 18.374 65.855 18.3551L65.913 18.3564C65.5453 18.3297 65.1991 18.3026 65.0117 18.2958C64.3813 18.2748 63.9532 18.0832 63.4809 18.0489C63.3323 18.0386 62.5848 18.4198 62.0763 18.2523C61.9826 18.1637 61.8891 18.075 61.7956 17.9864C62.0704 17.886 62.7537 17.6261 63.0764 17.5983C63.554 17.5583 63.8025 17.8137 63.9796 17.8108C64.1276 17.8086 64.8905 17.5263 65.2392 17.5223C65.3473 17.5209 65.3667 17.8487 65.4593 17.8483C65.6018 17.8473 65.7574 17.8463 65.9173 17.8381L65.8745 17.8371C66.2786 17.8284 66.7066 17.7747 67.0238 17.5564C66.8462 17.6546 67.9281 17.8966 67.9894 17.8978C68.0892 17.9015 68.2092 17.5992 68.4121 17.6069C68.8017 17.6219 68.7285 18.2607 69.2363 17.6382C69.3487 17.8294 69.4609 18.0207 69.5728 18.2119C69.6048 17.3583 71.0951 18.5777 71.5563 17.5564C71.5803 17.4399 69.6046 17.0319 69.4527 17.0092C68.4822 16.8698 67.0336 17.0245 66.0836 16.8388C66.0396 16.8302 65.9815 16.8099 65.9142 16.7817L65.9261 16.782C65.5504 16.6374 64.8974 16.2613 64.8399 16.269C64.7301 16.2827 64.8268 16.5806 64.7793 16.5908C63.8086 16.8036 64.2972 16.2107 64.1698 16.0369ZM106.611 22.2747C106.315 22.2338 106.021 22.1928 105.727 22.1516C105.753 21.9646 105.778 21.7776 105.803 21.5906C105.936 21.6662 106.07 21.7418 106.203 21.8174C106.309 21.7075 106.416 21.5976 106.522 21.4877C106.551 21.75 106.581 22.0123 106.611 22.2747ZM107.352 21.5032C107.608 21.4134 107.615 21.8089 107.674 21.8293C107.85 21.8909 108.005 21.7337 108.176 21.7421C107.964 22.678 107.548 22.2403 107.352 21.5032ZM102.082 21.0499C102.137 21.0963 102.496 22.1168 102.958 21.1869C103.279 21.4936 103.595 21.8 103.918 22.1064C103.372 21.6372 102.592 22.0928 102.319 22.0679C102.216 22.0584 102.204 21.7477 102.122 21.7406C101.648 21.7038 101.164 22.3944 101.142 21.3655C101.587 21.6761 102.01 20.9928 102.082 21.0499ZM104.946 21.4827C105.017 21.6991 105.089 21.9156 105.161 22.132C104.883 22.1261 104.611 22.1201 104.335 22.1139C104.414 21.8982 104.494 21.6825 104.573 21.4667C104.697 21.4721 104.822 21.4774 104.946 21.4827ZM83.8378 20.1056C84.0085 20.1146 84.1785 20.1235 84.3481 20.1324C84.3446 19.9756 84.1503 19.969 84.0825 19.8606C84.0828 19.8606 84.0831 19.8606 84.0834 19.8607C84.0079 19.7383 84.0497 19.5381 83.9074 19.4437C83.8842 19.6643 83.861 19.885 83.8378 20.1056ZM13.9967 18.1928C13.7254 18.1803 11.1093 18.1676 11.3168 18.7396C11.4415 19.0253 12.3188 18.7804 12.5835 18.7861C12.9373 18.7934 13.9139 19.4154 13.9967 18.1928ZM9.35872 18.0615C9.31909 18.6303 10.9422 18.7276 11.107 18.6293C11.0731 18.548 11.0211 18.3672 10.9759 18.326C10.7524 18.1289 9.7259 18.2185 9.35872 18.0615ZM74.4414 18.1061C74.5623 18.3987 74.6828 18.6913 74.8029 18.9838C74.7827 18.6084 74.7624 18.233 74.7421 17.8577C74.6421 17.9405 74.5419 18.0233 74.4414 18.1061ZM61.6872 18.1593C59.48 18.1233 57.2806 18.0879 55.1009 18.053C55.2931 17.8989 55.4856 17.7447 55.6786 17.5906C57.567 17.6603 59.5802 17.8337 61.4181 17.6083C61.5077 17.792 61.5974 17.9757 61.6872 18.1593ZM101.504 19.349C100.937 19.3285 100.466 19.5909 99.86 19.1365C100.46 18.7291 100.729 19.3925 101.312 18.7832C101.313 18.7832 101.313 18.7832 101.313 18.7832C101.377 18.9718 101.441 19.1604 101.504 19.349ZM88.9355 18.8376C89.1168 18.5822 89.2974 18.3268 89.4774 18.0713C89.272 18.064 89.0659 18.0567 88.8589 18.0493C88.8845 18.3121 88.91 18.5749 88.9355 18.8376ZM42.5344 16.5619C41.9536 17.1291 40.4418 16.0851 39.9587 16.7692C39.9276 16.8141 40.2099 17.106 39.7466 17.6643C40.0941 17.5516 40.3417 17.436 40.3706 16.9946C40.4733 17.145 40.5761 17.2954 40.6791 17.4459C40.8525 17.3337 41.0263 17.2216 41.2006 17.1095C41.1788 17.549 41.1931 17.5257 41.4612 17.2265C41.5784 17.3386 41.6958 17.4507 41.8134 17.5629C41.8648 17.377 41.9162 17.1912 41.9677 17.0053C42.0686 17.2664 42.1696 17.5275 42.2708 17.7886C42.6745 17.5088 42.4333 17.0026 42.5344 16.5619ZM44.6051 16.6835C44.4998 16.586 41.7666 16.883 43.0009 17.7682C43.3233 17.7424 43.6473 17.7166 43.9729 17.6909C43.7127 16.2372 44.593 17.5417 44.6654 17.5726C45.0041 17.7168 45.4424 17.3746 45.6915 17.3942C45.9056 17.4115 46.0315 17.6729 46.1828 17.6672C46.6977 17.6483 47.5208 17.6447 47.6392 17.0447C47.2331 17.0293 46.8227 17.02 46.405 17.0321C45.9637 17.0447 45.5795 16.475 44.7567 17.2471C44.5559 17.1621 44.6291 16.7085 44.6051 16.6835ZM89.9877 18.1499C89.9438 18.7522 90.9971 18.6446 91.0098 18.4064C91.0169 18.2668 90.6778 18.2583 90.6309 18.2037C90.6306 18.2037 90.6303 18.2036 90.63 18.2036C90.6105 18.1798 90.7213 17.9525 90.5638 17.8828C90.3724 17.9719 90.1775 18.0608 89.9877 18.1499ZM18.0732 16.8626C17.9513 16.5233 14.7205 16.6296 14.617 16.7914C14.591 16.8363 14.6263 16.985 14.6157 17.0707C15.3904 16.5965 16.4198 17.1669 17.1493 17.2077C17.3514 17.2188 17.2924 16.9786 17.3038 16.9741C17.3043 16.9741 17.3047 16.9741 17.3052 16.9741C17.4262 16.9741 17.9232 17.5626 18.0732 16.8626ZM38.9321 17.0378C39.0667 17.1331 39.2017 17.2284 39.3369 17.3237C39.3727 17.1371 39.4084 16.9505 39.4441 16.7639C39.4438 16.7639 39.4435 16.7638 39.4432 16.7638C39.2723 16.8552 39.1019 16.9465 38.9321 17.0378ZM34.1939 16.3924C34.2264 16.5241 34.259 16.6558 34.2916 16.7875C34.6375 16.8079 34.9856 16.8283 35.3361 16.8487C35.3003 16.9227 35.2646 16.9967 35.2288 17.0707C35.749 17.2724 35.9586 16.8115 36.2348 16.8798C36.2345 16.8798 36.2341 16.8798 36.2338 16.8798C36.2634 16.8877 36.2975 17.1619 36.4078 17.1719C36.6598 17.1949 37.3907 17.3016 37.482 17.0265C37.6715 16.4394 36.1986 16.7092 35.9318 16.6806C35.8096 16.6674 35.6644 16.4267 35.5903 16.4206C35.5084 16.4149 35.3998 16.738 35.1934 16.7267C35.1332 16.723 34.4758 16.3379 34.1939 16.3924ZM28.1147 16.7485C28.2186 17.0456 28.4417 16.7605 28.5231 16.8095C28.5426 16.821 28.3895 17.0683 28.5729 17.1437C28.6259 16.9748 28.679 16.8058 28.7322 16.6368C28.5253 16.6741 28.3195 16.7113 28.1147 16.7485ZM91.748 17.9257C91.7178 17.8611 91.1618 17.8652 91.1334 17.9045C90.7809 18.4338 91.9368 18.415 91.748 17.9257ZM105.875 17.7086C105.631 16.9184 108.669 17.7483 108.964 17.7095C108.941 18.2035 108.225 17.695 108.593 18.3795C108.238 18.0008 107.229 18.1812 106.996 18.0684C106.854 18.0003 106.826 17.5728 106.804 17.5589C106.72 17.5093 105.959 17.9876 105.875 17.7086ZM111.482 18.0789C111.191 17.9819 110.904 17.8848 110.615 17.7874C110.958 17.7357 111.3 17.6837 111.643 17.6314C111.59 17.7806 111.536 17.9297 111.482 18.0789ZM111.849 17.8582C111.845 17.3792 112.825 17.7536 113.085 17.6449C112.786 18.4575 112.306 17.6849 111.849 17.8582ZM95.4968 16.8131C95.0552 16.4821 94.8129 17.9353 95.384 17.3176C95.4014 17.2971 95.5151 16.8305 95.4968 16.8131ZM42.4091 14.5064C42.3296 14.4968 41.3894 14.017 41.3245 14.251C41.1438 14.9978 41.776 14.702 41.9814 14.9859C42.3165 15.4458 41.8152 15.8195 42.6449 15.549C42.61 15.6985 42.575 15.848 42.5401 15.9975C43.0253 16.0504 42.8738 15.0121 42.962 14.8793C42.9889 14.8389 43.2933 14.9282 43.3491 14.8624C44.0437 14.0315 42.4774 14.5138 42.4091 14.5064ZM84.284 16.3091C83.3936 15.8361 83.7658 16.4955 82.8389 16.4213C82.7994 16.7493 84.1492 16.5929 84.284 16.3091ZM51.2069 15.1605C50.2599 15.2831 49.4938 14.847 48.626 15.419C48.6677 16.3098 51.444 15.3922 51.2069 15.1605ZM7.32011 14.0047C10.9678 15.6046 15.1353 15.1012 19.0075 15.0958C19.4333 15.0957 19.4743 15.449 19.6301 15.4115C19.7316 15.3872 19.7191 15.1027 19.8497 15.1021C24.6196 15.0801 29.2517 14.7345 33.8353 14.9331C34.1175 14.9461 35.5557 15.5658 35.8437 14.6469C36.074 13.9497 35.0683 14.4881 34.8907 14.4807C34.7624 14.4754 34.7591 14.1471 34.6737 14.1454C34.5832 14.1437 34.6565 14.3684 34.5515 14.3712C34.1065 14.3842 33.6262 14.2935 33.231 14.3103C29.3117 14.4699 25.5372 14.3958 21.6206 14.3436C21.1436 14.3377 21.2442 14.0752 21.2199 14.074C21.2196 14.0746 21.2193 14.0753 21.219 14.0759C18.6978 14.038 15.8129 14.6139 13.1339 14.3765C11.279 14.1872 9.35755 13.9982 7.48115 13.81C7.4272 13.8749 7.37351 13.9398 7.32011 14.0047ZM44.4043 15.4478C44.1736 14.4542 44.1108 15.4539 43.2672 15.0435C43.1973 15.2123 43.1274 15.381 43.0576 15.5498C43.504 15.5158 43.9534 15.4818 44.4058 15.4478C44.4053 15.4478 44.4048 15.4478 44.4043 15.4478ZM38.8342 15.0489C38.7203 13.7084 36.7882 14.6427 35.9595 14.382C35.7998 15.0538 37.0279 14.7593 37.3228 14.8321C37.463 14.8679 38.2665 15.5651 38.8413 15.1857C38.8389 15.1401 38.8366 15.0945 38.8342 15.0489ZM102.731 15.6681C102.592 15.7038 102.455 15.7394 102.318 15.775C102.653 15.932 102.997 16.089 103.335 16.2455C102.79 16.1367 102.247 16.0274 101.703 15.9175C101.812 15.6423 101.921 15.367 102.029 15.0917C102.264 15.284 102.494 15.476 102.731 15.6681ZM100.955 15.7649C101.912 15.6856 100.897 16.4032 100.667 16.0658C100.529 15.8636 100.858 15.7736 100.955 15.7649ZM98.4799 15.2165C98.9407 14.7419 99.8433 14.7339 99.4953 15.6991C99.0275 15.2291 98.7009 15.5992 98.0132 15.316C98.1208 15.1323 98.2281 14.9485 98.3353 14.7648C98.3358 14.7648 98.3363 14.7648 98.3367 14.7648C98.3845 14.9154 98.4322 15.0659 98.4799 15.2165ZM101.407 15.1869C102.019 15.7634 100.212 15.5236 100.792 15.1705C100.819 15.1543 101.381 15.1648 101.407 15.1869ZM11.3414 13.0132C11.2583 13.3314 11.7698 13.3276 11.9148 13.3497C12.5799 13.4472 13.5311 13.3129 14.2218 13.36C14.1682 13.2549 14.1148 13.1499 14.0616 13.0448C13.1664 13.0342 12.2527 13.0237 11.3414 13.0132ZM16.4876 13.3726C16.9778 13.3749 17.5147 13.3775 17.988 13.3799C18.0335 13.3801 18.2495 13.1078 18.0902 13.0405C17.5803 13.1513 17.0143 13.2618 16.4876 13.3726ZM47.5592 13.5598C47.1745 13.3787 48.2929 12.4724 48.23 13.4513C48.0121 13.4875 47.7848 13.5237 47.5592 13.5598ZM51.1169 13.195C50.8737 13.2863 50.6314 13.3776 50.3897 13.469C50.3902 13.3563 50.3907 13.2437 50.3912 13.1311C50.6324 13.1524 50.8742 13.1737 51.1169 13.195ZM9.38024 12.7804C9.63466 13.1669 10.2532 13.1101 10.6165 13.1195C10.3667 12.7873 9.74332 12.9475 9.38024 12.7804ZM41.8415 13.1256C41.8804 13.3885 40.3437 13.3121 40.8785 12.8535C41.2017 12.9442 41.5292 13.0349 41.8415 13.1256ZM38.7588 12.7164C39.0807 12.6611 39.3311 12.7529 39.2618 13.165C39.0905 13.1463 38.9196 13.1276 38.7492 13.1089C38.7524 12.9781 38.7556 12.8473 38.7588 12.7164ZM96.8071 14.3805C96.2589 14.4007 95.7094 14.4204 95.1622 14.4399C95.1862 14.328 95.2101 14.2161 95.234 14.1042C95.7607 14.0846 96.2913 14.0649 96.8194 14.0448C96.8153 14.1567 96.8112 14.2686 96.8071 14.3805ZM9.0743 11.7675C8.70423 11.8396 8.3312 11.9116 7.94222 11.9837C8.33097 12.0607 8.70363 12.1377 9.07343 12.2147C9.07403 12.065 9.07464 11.9153 9.07524 11.7655C9.07493 11.7662 9.07462 11.7668 9.0743 11.7675ZM104.329 13.1254C102.674 12.5616 104.815 12.0564 105.234 12.8368C105.234 12.8361 105.235 12.8355 105.235 12.8349C105.273 12.9039 105.184 13.232 105.245 13.3664C105.078 13.2137 104.914 13.061 104.748 12.9082C104.589 13.0903 104.43 13.2723 104.271 13.4543C104.222 13.3802 104.172 13.3061 104.123 13.2321C104.192 13.1965 104.261 13.161 104.329 13.1254ZM111.048 12.9507C112.554 13.0284 111.003 13.837 110.264 13.1752C110.272 13.0246 110.91 12.9435 111.048 12.9507ZM107.095 13.0676C106.856 13.138 106.616 13.2083 106.376 13.2784C106.347 13.1834 106.319 13.0885 106.291 12.9935C106.473 12.9033 106.66 12.8132 106.844 12.723C106.928 12.8379 107.011 12.9527 107.095 13.0676ZM99.3084 11.4227C98.9271 11.3079 98.4081 12.3431 99.6473 12.1025C99.6498 11.9899 99.6524 11.8773 99.655 11.7647C99.6056 11.7813 99.4589 11.8828 99.4513 11.8742C99.4295 11.8454 99.4669 11.4702 99.3084 11.4227ZM113.873 10.0103C113.918 9.96783 113.949 8.78 114.393 10.0129C114.531 9.93925 114.665 9.86559 114.805 9.792C114.838 10.054 114.871 10.316 114.904 10.5781C114.374 10.3703 114.317 10.8994 114.277 10.9103C114.099 10.9583 114.232 10.6871 114.119 10.6824C114.011 10.678 113.849 10.7002 113.703 10.6889C113.701 10.6895 113.694 10.6882 113.691 10.6888C113.456 10.6704 113.271 10.5585 113.459 10.0735C113.517 9.92621 113.613 9.9293 113.696 9.95828C113.699 9.95764 113.707 9.95902 113.709 9.95838C113.786 9.98417 113.853 10.0302 113.873 10.0103ZM112.847 9.32648C112.91 9.42618 112.704 9.77194 112.75 9.87057C112.791 9.95668 113.414 10.3162 113.24 10.9019C113.138 10.8764 113.035 10.8508 112.932 10.8252C112.899 10.6642 112.865 10.5031 112.832 10.342C112.731 10.4895 112.63 10.6371 112.529 10.7846C112.365 10.3863 112.014 9.86886 112.44 9.54939C112.284 9.5818 112.129 9.61413 111.973 9.64638C111.89 9.83565 111.807 10.0249 111.725 10.2141C111.77 9.92488 111.815 9.63564 111.861 9.34639C112.19 9.34007 112.518 9.33342 112.847 9.32648ZM117.77 9.48438C117.749 9.63388 117.728 9.78339 117.707 9.93289C118.294 9.66107 119.208 9.56676 118.678 10.4991C117.886 10.5675 117.093 10.6368 116.301 10.7068C116.251 10.5937 116.199 10.4805 116.148 10.3674C116.733 10.8073 116.567 8.95899 117.078 9.49426C117.164 9.58503 116.903 10.2279 117.454 9.82067C117.437 9.67008 117.419 9.51949 117.401 9.36889C117.523 9.40735 117.647 9.44586 117.77 9.48438ZM122.798 9.77986C121.801 9.54696 122.913 9.01872 123.089 9.4761C123.088 9.47609 123.088 9.47609 123.088 9.47608C123.572 10.7275 122.496 10.1087 122.429 10.1156C122.34 10.1252 122.121 11.0116 121.661 9.70677C122.04 9.73094 122.42 9.75533 122.798 9.77986ZM119.529 9.50798C119.613 9.47979 119.564 9.70516 119.6 9.7023C119.601 9.7023 119.601 9.7023 119.601 9.70231C120.14 9.66073 121.419 9.47736 121.546 10.2089C121.148 10.2631 119.369 10.3958 119.268 9.89911C119.356 9.76873 119.443 9.63836 119.529 9.50798ZM115.753 10.008C115.429 9.53261 116.171 9.47699 116.36 9.69766C116.398 9.74542 116.085 10.5004 115.753 10.008ZM90.9534 8.22673C90.2254 8.48552 91.1591 8.80183 90.817 9.23427C90.9554 9.20133 91.0935 9.16836 91.2312 9.13536C91.1387 8.8325 91.0462 8.52962 90.9534 8.22673ZM57.9665 6.33489C57.7978 6.28109 57.8758 6.55284 57.8611 6.55673C57.7502 6.5483 57.6474 6.32662 57.6047 6.34965C56.816 6.78942 57.3364 7.02118 57.3438 7.07418C57.3583 7.34254 57.1496 7.65479 57.433 7.96355C57.6073 7.86985 57.782 7.77616 57.9569 7.68248C58.0423 7.83223 58.1276 7.98199 58.2131 8.13174C58.5626 7.81461 58.1092 7.72332 58.0613 7.29852C58.0428 7.13154 58.3702 6.93437 57.9665 6.33489ZM89.7045 7.28381C89.572 7.7506 89.2656 8.33446 89.5287 8.81756C89.529 8.81757 89.5294 8.81758 89.5297 8.81759C89.5784 8.90599 89.7869 8.96105 89.8469 9.08485C90.3275 8.47371 90.1756 7.81926 89.7045 7.28381ZM61.0659 5.51565C61.3447 5.6279 61.6244 5.74018 61.9049 5.85246C61.8978 6.13496 61.8907 6.41745 61.8837 6.69995C61.7337 6.62257 61.5841 6.54519 61.4346 6.46782C61.3809 6.5963 61.3273 6.72477 61.2737 6.85325C61.4572 7.17699 61.6411 7.50073 61.8253 7.82448C62.0516 7.71367 62.2778 7.60287 62.4976 7.49202C62.3973 7.34212 62.2979 7.19222 62.197 7.04232C62.7376 6.88211 62.6141 7.5682 63.0594 7.83447C63.2148 7.57401 63.3704 7.31356 63.5263 7.05311C63.7467 7.31793 63.9677 7.58276 64.1891 7.8476C64.5659 7.72781 64.6009 7.52778 64.3501 7.22587C64.5399 6.88476 64.7405 7.42537 64.9678 7.28759C64.9865 7.27648 64.954 6.95348 64.9706 6.94972C65.5806 6.84143 65.8564 7.01939 66.0055 7.22005C66.0577 7.20707 66.2215 7.23767 66.2739 7.22622C66.4057 7.41474 66.4305 7.61935 66.5195 7.64C66.6511 7.66973 67.1974 7.11801 67.2126 6.92344C67.2318 6.66121 66.1854 5.58469 67.8866 5.62182C67.0399 4.87252 65.9965 5.56341 66.6112 6.63887C66.5484 6.61249 66.4356 6.60317 66.2974 6.60412C66.2413 6.61635 66.0664 6.58366 66.0107 6.59753C65.539 6.61458 64.7849 6.7597 64.7245 6.7348C64.6102 6.68624 64.6537 6.28761 64.5102 6.27601C64.4257 6.26968 64.1925 7.17975 63.5318 6.37737C63.4454 6.52641 63.359 6.67544 63.2727 6.82448C63.194 6.70079 63.1153 6.5771 63.0367 6.45342C63.2042 6.01598 63.372 5.57854 63.54 5.14111C62.8824 5.61253 62.3633 4.71264 61.9501 5.46415C61.6029 5.3735 61.4354 5.28531 61.5875 4.90069C61.4832 4.89985 61.3791 4.89901 61.2751 4.89818C61.2053 5.104 61.1356 5.30982 61.0659 5.51565ZM87.5763 7.88164C87.2486 7.43138 87.0966 8.37156 87.1464 8.42691C87.4298 8.73153 87.7476 8.11591 87.5763 7.88164ZM58.5891 6.84172C58.9599 7.08812 59.3323 7.33455 59.7061 7.58099C59.7084 7.28219 59.7108 6.98338 59.7132 6.68457C59.337 6.73693 58.9623 6.78931 58.5891 6.84172ZM91.0815 7.55894C91.1082 7.78395 91.135 8.00897 91.1617 8.23399C91.6013 7.43076 91.9638 8.61761 92.1786 8.38244C92.2247 8.33103 92.1489 7.93277 92.0672 7.84512C92.0123 7.79027 91.1592 7.48612 91.0815 7.55894ZM108.1 8.13774C107.946 8.2855 107.79 8.43317 107.637 8.58082C107.65 8.32907 107.663 8.07731 107.675 7.82556C107.75 7.78002 107.827 7.7345 107.903 7.68894C107.968 7.83856 108.034 7.98815 108.1 8.13774ZM106.367 8.50596C106.098 8.4804 105.828 8.45466 105.556 8.42873C106.594 8.21918 105.75 8.08896 106.382 7.7737C106.377 8.01779 106.372 8.26187 106.367 8.50596ZM103.638 7.93619C103.674 7.78664 103.711 7.63708 103.748 7.48752C104.017 7.4939 104.29 7.50023 104.561 7.50635C104.401 6.98049 104.241 6.45457 104.082 5.92859C103.983 5.92498 103.885 5.92137 103.786 5.91772C103.737 6.59055 103.687 7.26337 103.638 7.93619ZM50.5502 5.15571C50.3826 5.14546 49.7998 5.59749 49.8236 5.76563C50.0624 5.97375 50.3019 6.18188 50.5421 6.39002C50.5454 6.09056 50.5488 5.79111 50.552 5.49166C50.5851 5.64099 50.6182 5.79032 50.6513 5.93965C50.7898 5.82869 50.9285 5.71773 51.0674 5.60677C51.1351 5.86899 51.2028 6.1312 51.2706 6.39342C51.3424 6.09513 51.4166 5.79685 51.4859 5.49853C50.8249 4.96386 50.8429 5.49353 50.7048 5.48692C50.6347 5.48387 50.5917 5.29813 50.5675 5.20466C50.5617 5.18834 50.556 5.17203 50.5502 5.15571ZM58.8619 4.93761C58.0818 4.85708 57.6105 5.64186 57.0474 4.97814C57.408 6.38541 59.7717 4.95318 60.5931 6.13101C60.6814 5.90645 60.7697 5.6819 60.8581 5.45734C60.4023 5.6543 60.0931 5.1879 59.8737 5.11943C59.6994 5.06507 59.7158 5.30125 59.7025 5.29776C59.7018 5.29776 59.7012 5.29775 59.7006 5.29775C59.293 5.19758 59.169 4.96937 58.8619 4.93761ZM91.6992 6.47817C91.503 6.1153 91.1343 6.13809 91.112 6.65713C91.3116 6.81457 91.5104 6.97194 91.7085 7.12925C91.6713 6.99488 91.7327 6.54024 91.6992 6.47817ZM103.358 6.47791C103.2 6.30497 102.81 6.44352 102.965 6.89614C102.993 6.97651 103.385 6.67063 103.14 7.47482C103.514 7.47142 103.448 6.57729 103.358 6.47791ZM72.6079 6.30538C72.748 6.29574 72.8878 6.28608 73.0272 6.27641C73.0675 6.06816 73.1078 5.85992 73.1481 5.65168C72.9686 5.8696 72.7885 6.0875 72.6079 6.30538ZM93.4816 6.17929C93.6319 7.21082 93.9796 6.22351 94.2944 7.07787C94.4208 7.08855 94.5469 7.09921 94.6727 7.10984C94.673 7.10985 94.6733 7.10986 94.6736 7.10987C94.6862 6.83019 94.6987 6.55051 94.7113 6.27084C94.3046 6.24059 93.8948 6.21008 93.4816 6.17929ZM63.6397 5.5345C63.7239 5.6654 63.8081 5.79629 63.8925 5.92719C64.0458 5.77675 64.1993 5.62632 64.3531 5.47589C64.2715 5.36649 64.1899 5.2571 64.1085 5.14771C63.952 5.27664 63.7957 5.40557 63.6397 5.5345ZM95.7163 6.16462C95.2776 6.02198 95.0814 6.90795 95.6488 6.92845C95.8874 6.93609 96.1746 6.31358 95.7163 6.16462ZM41.9983 5.42748C42.1494 5.50467 42.3009 5.58187 42.4527 5.65907C42.5059 5.47193 42.5591 5.2848 42.6124 5.09766C42.407 5.20759 42.2023 5.31753 41.9983 5.42748ZM105.443 6.62714C105.421 6.81421 105.4 7.00128 105.378 7.18835C105.243 7.14769 105.111 7.10705 104.977 7.06633C105.015 6.88093 105.053 6.69553 105.091 6.51012C105.208 6.54915 105.325 6.58814 105.443 6.62714ZM43.0233 5.54968C43.1456 5.58632 43.2681 5.62296 43.3908 5.65961C43.474 5.56904 43.5574 5.47846 43.6408 5.38789C43.5261 5.29661 43.4116 5.20533 43.2972 5.11405C43.2058 5.25926 43.1145 5.40447 43.0233 5.54968ZM99.9095 6.37734C99.7471 6.14727 99.0463 6.82983 99.6539 7.02658C100.04 7.15141 99.9338 6.41233 99.9095 6.37734ZM100.833 6.17829C100.195 5.73108 100.625 7.92386 101.432 6.53245C100.653 6.70529 100.869 6.20519 100.833 6.17829ZM106.531 5.18834C106.547 5.18979 106.554 5.50342 106.683 5.51757C107.15 5.56736 107.757 5.70226 108.092 5.72716C108.89 5.78873 111.341 5.25515 111.616 6.16399C111.673 6.35514 111.53 6.92282 111.554 6.95239C111.624 7.03497 112.036 6.76309 111.956 7.18132C111.554 7.17391 111.153 7.16605 110.751 7.15774C110.853 6.86344 110.956 6.56911 111.058 6.27475C110.056 6.42007 110.386 6.40573 110.09 7.04549C109.924 6.79384 109.758 6.54211 109.593 6.2903C109.22 6.5355 108.846 6.78031 108.474 7.02479C108.56 6.83937 108.647 6.65392 108.734 6.46845C108.184 6.11335 108.335 6.34272 108.022 6.79053C108.024 6.6037 108.027 6.41687 108.03 6.23005C107.483 6.67595 107.391 6.114 107.273 6.10509C107.034 6.08953 106.679 8.29435 105.806 6.07611C105.396 7.12566 105.448 4.974 105.198 6.06315C104.569 4.85777 105.808 5.31643 106.395 5.36732C106.396 5.36733 106.396 5.36733 106.396 5.36734C106.44 5.3716 106.374 5.16965 106.531 5.18834ZM103.135 6.20874C103.557 5.24788 101.988 5.11767 102.472 6.53213C102.548 6.57965 102.624 6.62715 102.701 6.67465C102.844 6.51935 102.991 6.36411 103.136 6.20877C103.136 6.20876 103.136 6.20875 103.135 6.20874ZM88.2948 5.0973C86.8016 5.44253 87.6234 6.03133 88.1433 5.5042C88.2469 5.39965 88.3066 5.25336 88.2948 5.0973ZM57.7388 4.18273C57.7161 4.29909 57.6934 4.41545 57.6708 4.53181C58.1755 4.42666 59.1286 4.88368 59.1199 4.09785C58.6678 4.12619 58.2024 4.15444 57.7388 4.18273ZM61.6721 3.70019C61.5647 3.65193 61.1273 3.53656 61.1779 3.83099C61.3661 4.04083 61.5545 4.25068 61.7434 4.46054C61.8332 4.33105 61.9231 4.20156 62.013 4.07208C61.8892 4.0268 61.7011 3.71282 61.6721 3.70019Z" fill="#FEF08A"/>
</svg>
